<svg xmlns="http://www.w3.org/2000/svg" width="500" height="337" viewBox="0 0 500 337" fill="none">
<path opacity="0.1" d="M497.288 181.698C496.045 178.382 494.265 175.358 491.753 172.773C484.315 165.091 471.318 163.921 464.831 155.435C458.759 147.509 460.1 132.22 459.174 122.539C456.857 98.5677 456.784 73.6457 444.396 52.2596C420.547 11.1212 364.851 0.659773 324.054 9.29225C281.598 18.2661 245.093 47.4312 201.906 53.7471C184.178 56.3319 165.304 54.6737 149.039 46.1144C127.335 34.702 109.924 17.437 84.4169 18.4368C43.2785 20.095 11.1384 34.7751 1.96942 81.7904C-4.3952 114.443 5.48094 134.829 19.9172 162.458C29.2812 180.381 29.8421 202.767 24.2334 222.105C21.6973 230.835 18.7711 236.882 18.6247 246.49C18.3077 267.34 23.0385 280.216 36.4262 295.31C48.0337 308.381 63.104 318.793 79.1253 325.353C108.046 337.18 140.43 338.351 171.107 332.815C209.929 325.816 247.215 308.478 286.646 308.478C322.273 308.478 356.291 322.671 391.406 328.743C409.281 331.84 431.74 333.157 446.64 320.549C458.515 310.502 452.809 292.018 459.076 279.069C466.002 264.755 478.78 254.513 487.046 241.126C493.192 231.176 496.679 219.691 498.581 208.083C500.02 199.377 500.288 189.745 497.288 181.698Z" fill="#25A9E0"/>
<path d="M488.804 153.801C482.366 181.454 437.35 340.741 256.336 323.89C256.336 323.89 254.654 211.131 485.195 150.899C487.194 150.387 489.218 151.996 488.804 153.801Z" fill="#74B570"/>
<path d="M464.391 171.992C458.49 179.966 452.271 187.672 445.882 195.28C439.493 202.864 432.934 210.302 426.203 217.569C412.742 232.127 398.55 246.002 383.675 259.097C376.189 265.608 368.531 271.9 360.655 277.972C352.754 283.971 344.634 289.701 336.318 295.115C327.93 300.455 319.346 305.454 310.518 309.99C301.642 314.453 292.497 318.427 283.133 321.793C282.621 321.988 282.036 321.719 281.841 321.183C281.646 320.671 281.914 320.086 282.451 319.891H282.475C291.766 316.598 300.837 312.672 309.665 308.307C318.468 303.845 327.027 298.895 335.392 293.627C343.707 288.287 351.803 282.605 359.704 276.679C367.556 270.681 375.238 264.438 382.724 258C397.648 245.003 411.865 231.225 425.374 216.764C432.129 209.546 438.713 202.157 445.126 194.622C451.515 187.063 457.783 179.405 463.708 171.48C463.855 171.285 464.123 171.261 464.293 171.383C464.489 171.529 464.513 171.797 464.391 171.992Z" fill="#9CD499"/>
<path d="M403.208 3.75659C413.718 34.9701 466.415 218.666 277.013 290.189C277.013 290.189 206.514 176.577 397.867 2.58609C399.55 1.0498 402.525 1.70821 403.208 3.75659Z" fill="#9CD499"/>
<path d="M390.066 34.0922C389.676 39.6521 389.091 45.1632 388.432 50.6743C387.774 56.1855 387.042 61.6966 386.213 67.1833C384.58 78.1568 382.629 89.1059 380.361 99.9575C375.825 121.685 370.07 143.193 362.73 164.165C355.366 185.112 346.392 205.571 335.053 224.738C329.395 234.322 323.104 243.54 316.129 252.221C312.618 256.537 308.984 260.756 305.107 264.779C301.23 268.779 297.182 272.631 292.963 276.265C292.573 276.606 291.988 276.558 291.646 276.167C291.305 275.777 291.354 275.192 291.744 274.851C295.938 271.266 299.962 267.486 303.815 263.536C307.668 259.585 311.301 255.415 314.788 251.148C321.738 242.564 328.029 233.444 333.687 223.934C345.026 204.937 354.049 184.6 361.486 163.726C368.9 142.852 374.728 121.417 379.337 99.738C381.629 88.8865 383.628 77.9861 385.311 67.037C386.14 61.5503 386.921 56.0635 387.579 50.5768C388.237 45.0657 388.847 39.5545 389.262 34.0434C389.286 33.8239 389.457 33.6532 389.676 33.6776C389.92 33.702 390.091 33.8727 390.066 34.0922Z" fill="#74B570"/>
<path d="M188.104 233.395C188.104 233.395 140.918 90.1792 36.5965 24.2651C35.2309 23.4116 33.4508 24.2164 33.2313 25.8258C29.7198 50.9917 14.4544 210.79 188.104 233.395Z" fill="#9CD499"/>
<path d="M52.0597 65.159C55.5468 73.1818 59.3753 81.1071 63.4965 88.8617C67.5689 96.6407 71.8607 104.298 76.372 111.808C80.9077 119.319 85.5898 126.732 90.5644 133.951C95.4903 141.193 100.636 148.289 106.049 155.166C111.438 162.067 117.023 168.822 122.924 175.284C123.656 176.089 124.363 176.918 125.119 177.723L127.362 180.112C128.874 181.697 130.337 183.331 131.898 184.868L136.531 189.525L137.677 190.696L138.872 191.817L141.262 194.085C144.383 197.158 147.724 199.987 150.967 202.937C152.626 204.376 154.308 205.766 155.991 207.18L158.503 209.302C159.356 210.009 160.234 210.643 161.087 211.326L166.257 215.398L171.573 219.276L174.231 221.202L176.962 223.031L182.4 226.738H182.425C182.717 226.933 182.79 227.323 182.595 227.591C182.4 227.859 182.059 227.932 181.766 227.786C166.501 218.91 152.113 208.424 139.067 196.451L136.604 194.207L135.385 193.085L134.19 191.939L129.435 187.306C127.85 185.77 126.338 184.136 124.802 182.551L122.485 180.161C121.729 179.356 120.998 178.527 120.242 177.723C114.194 171.236 108.561 164.408 103.074 157.483C92.1739 143.534 82.3465 128.781 73.5677 113.418C69.1783 105.736 65.0815 97.9087 61.253 89.959C59.3509 85.9842 57.5464 81.9362 55.7906 77.8882C54.0349 73.8402 52.3767 69.7434 50.8892 65.5735C50.7672 65.2565 50.9379 64.8907 51.2549 64.7932C51.5963 64.6956 51.9377 64.8663 52.0597 65.159Z" fill="#74B570"/>
<path d="M216.977 320.549C216.977 320.549 120.8 185.088 28.5498 190.33C26.916 190.428 25.7942 192.013 26.2575 193.598C31.6955 211.863 67.0058 307.04 216.977 320.549Z" fill="#74B570"/>
<path d="M50.959 210.107C57.031 215.374 63.3225 220.447 69.6383 225.446C72.8085 227.933 75.9786 230.42 79.1975 232.859C82.4164 235.273 85.6109 237.736 88.8785 240.126C92.1462 242.491 95.3895 244.881 98.6571 247.246L108.558 254.196C115.215 258.732 121.897 263.268 128.676 267.608C135.382 272.071 142.307 276.216 149.135 280.484L159.572 286.605C161.304 287.629 163.035 288.653 164.791 289.653L170.082 292.579C173.618 294.505 177.13 296.481 180.69 298.407L191.444 303.943C193.249 304.869 195.004 305.82 196.809 306.698L202.271 309.307L213.172 314.526H213.196C213.489 314.672 213.611 315.014 213.464 315.306C213.318 315.599 212.976 315.721 212.684 315.599C198.004 308.844 183.421 301.87 169.326 293.92L164.01 291.018C162.255 290.019 160.523 288.994 158.767 287.995L148.282 281.898C141.405 277.655 134.455 273.51 127.725 269.047C114.142 260.293 100.876 251.026 87.9275 241.369C84.6842 238.98 81.4897 236.492 78.2708 234.054C75.0763 231.591 71.9062 229.079 68.7361 226.592C62.4446 221.52 56.2263 216.374 50.1543 211.009C49.9104 210.79 49.886 210.424 50.1055 210.18C50.325 209.912 50.6908 209.888 50.959 210.107Z" fill="#9CD499"/>
<path d="M374.667 189.363C371.902 252.265 314.569 300.837 246.624 297.863C178.659 294.888 125.81 241.469 128.574 178.567C131.339 115.664 188.672 67.0924 256.617 70.0666C324.582 73.0601 377.431 126.46 374.667 189.363Z" fill="#25A9E0"/>
<g opacity="0.68">
<path opacity="0.68" d="M284.034 183.082C283.994 203.815 282.58 224.588 278.935 245.042C278.019 250.141 276.943 255.24 275.669 260.259C274.394 265.297 272.9 270.277 271.088 275.156C269.256 280.016 267.145 284.816 264.257 289.197C262.803 291.368 261.17 293.459 259.138 295.172C258.122 296.029 257.007 296.785 255.792 297.323C254.577 297.881 253.243 298.219 251.888 298.239C250.534 298.279 249.18 298.02 247.925 297.503C246.67 297.005 245.535 296.288 244.499 295.451C242.428 293.798 240.735 291.727 239.261 289.576C236.334 285.234 234.183 280.434 232.33 275.594C230.498 270.735 229.004 265.736 227.71 260.717C226.415 255.678 225.34 250.599 224.404 245.5C222.551 235.283 221.277 224.986 220.42 214.65C219.564 204.313 219.146 193.936 219.086 183.56C219.066 178.382 219.205 173.183 219.385 168.005C219.584 162.827 219.863 157.648 220.241 152.47C221.018 142.133 222.153 131.817 223.866 121.58C224.722 116.461 225.718 111.362 226.913 106.323C228.108 101.285 229.502 96.2656 231.235 91.3662C232.111 88.9164 233.067 86.5065 234.143 84.1365C235.218 81.7664 236.433 79.4561 237.867 77.2652C239.301 75.0943 240.934 73.0031 242.986 71.35C244.001 70.5334 245.137 69.8165 246.372 69.3185C247.606 68.8206 248.941 68.5816 250.255 68.6215C251.59 68.6613 252.884 68.9999 254.099 69.5177C255.314 70.0555 256.429 70.7725 257.445 71.6089C259.477 73.262 261.17 75.2935 262.663 77.4246C265.651 81.7066 267.881 86.4468 269.833 91.2467C271.765 96.0665 273.358 101.026 274.753 106.025C276.127 111.024 277.302 116.083 278.318 121.181C282.341 141.576 283.974 162.349 284.034 183.082ZM282.5 183.082C282.52 172.745 282.122 162.409 281.265 152.112C280.409 141.815 279.134 131.558 277.222 121.4C276.266 116.322 275.151 111.283 273.836 106.284C272.502 101.305 270.968 96.3652 269.116 91.5454C267.244 86.7455 265.053 82.0452 262.165 77.7831C260.711 75.6719 259.078 73.6604 257.107 72.0272C256.131 71.2106 255.055 70.4936 253.9 69.9758C252.745 69.458 251.51 69.1194 250.235 69.0795C248.981 69.0397 247.706 69.2986 246.551 69.7766C245.376 70.2546 244.3 70.9517 243.324 71.7683C241.353 73.4014 239.779 75.4528 238.385 77.6038C237.011 79.7747 235.836 82.0651 234.78 84.4153C233.725 86.7654 232.808 89.1753 231.972 91.6251C230.299 96.5046 228.964 101.504 227.829 106.543C226.694 111.581 225.758 116.66 224.961 121.759C223.368 131.976 222.352 142.273 221.695 152.57C221.038 162.886 220.819 173.223 220.819 183.56C220.799 193.897 221.137 204.233 221.914 214.53C222.691 224.827 223.866 235.104 225.638 245.281C226.535 250.36 227.57 255.419 228.805 260.438C230.06 265.437 231.494 270.396 233.286 275.236C235.079 280.056 237.17 284.796 239.998 289.078C241.412 291.189 243.045 293.201 244.997 294.794C245.973 295.59 247.049 296.268 248.204 296.746C249.359 297.224 250.594 297.483 251.829 297.443C253.064 297.403 254.278 297.084 255.414 296.566C256.549 296.049 257.585 295.332 258.541 294.515C260.453 292.862 262.046 290.83 263.44 288.699C266.228 284.397 268.28 279.637 270.052 274.818C271.805 269.978 273.239 265.019 274.474 260C275.709 254.981 276.724 249.922 277.601 244.843C279.353 234.666 280.528 224.389 281.305 214.092C282.142 203.755 282.5 193.419 282.5 183.082Z" fill="white"/>
<path opacity="0.68" d="M336.336 183.082C336.256 196.426 334.543 209.79 330.978 222.676C327.333 235.522 321.856 247.891 314.408 258.984C310.683 264.521 306.461 269.739 301.761 274.479C297.06 279.219 291.842 283.462 286.186 287.007C280.53 290.552 274.415 293.38 268.022 295.312C261.629 297.244 254.957 298.24 248.265 298.26C241.593 298.26 234.901 297.264 228.507 295.332C222.114 293.42 215.98 290.572 210.324 287.047C204.667 283.501 199.449 279.239 194.729 274.519C190.009 269.779 185.786 264.581 182.062 259.024C174.613 247.93 169.116 235.562 165.452 222.716C163.659 216.283 162.325 209.711 161.429 203.078C160.552 196.446 160.114 189.774 160.074 183.082C160.114 176.39 160.552 169.718 161.448 163.086C162.345 156.454 163.679 149.901 165.492 143.468C169.156 130.622 174.653 118.254 182.122 107.18C185.846 101.643 190.088 96.4252 194.809 91.705C199.529 86.9848 204.747 82.7425 210.403 79.1974C216.06 75.6722 222.174 72.844 228.567 70.932C234.96 69.0001 241.613 68.0043 248.285 67.9844C254.957 68.0043 261.629 69.0001 268.002 70.932C274.395 72.8639 280.51 75.6722 286.166 79.2173C291.822 82.7625 297.02 87.0047 301.741 91.7249C306.461 96.4451 310.663 101.663 314.388 107.2C321.836 118.294 327.333 130.642 330.978 143.488C334.543 156.374 336.256 169.738 336.336 183.082ZM334.583 183.082C334.563 169.877 332.91 156.673 329.445 143.926C325.939 131.2 320.661 118.911 313.412 107.877C309.787 102.36 305.664 97.1621 301.044 92.422C296.423 87.7018 291.324 83.4396 285.748 79.8746C280.171 76.3493 274.136 73.5013 267.803 71.5893C261.489 69.6574 254.877 68.6615 248.265 68.6416C241.652 68.6615 235.06 69.6773 228.747 71.6092C222.433 73.5411 216.398 76.3892 210.822 79.9144C205.245 83.4595 200.166 87.7416 195.546 92.4618C190.945 97.182 186.822 102.4 183.197 107.917C175.948 118.971 170.69 131.239 167.204 143.966C165.472 150.339 164.217 156.832 163.36 163.365C162.504 169.897 162.086 176.51 162.066 183.102C162.086 189.694 162.504 196.287 163.36 202.839C164.217 209.372 165.472 215.865 167.224 222.238C170.71 234.945 175.988 247.213 183.237 258.247C186.862 263.764 190.965 268.962 195.585 273.683C200.186 278.403 205.285 282.665 210.861 286.21C216.438 289.735 222.453 292.563 228.766 294.495C235.08 296.427 241.652 297.443 248.265 297.483C254.857 297.463 261.449 296.447 267.763 294.515C274.077 292.603 280.111 289.775 285.688 286.25C291.265 282.705 296.363 278.443 300.984 273.722C305.604 269.002 309.727 263.804 313.352 258.287C320.622 247.253 325.899 234.985 329.405 222.258C332.91 209.511 334.563 196.287 334.583 183.082Z" fill="white"/>
<path opacity="0.68" d="M145.495 137.513L171.944 137.294L198.393 137.175L251.291 137.075L304.19 137.175L330.639 137.314L357.088 137.553C357.128 137.553 357.168 137.593 357.168 137.633C357.168 137.673 357.128 137.713 357.088 137.713L330.639 137.952L304.19 138.091L251.291 138.191L198.393 138.091L171.944 137.971L145.495 137.752C145.435 137.752 145.375 137.693 145.375 137.633C145.395 137.573 145.435 137.513 145.495 137.513Z" fill="white"/>
<path opacity="0.68" d="M176.186 93.2184C182.44 93.1189 188.713 93.079 194.967 92.9994L213.749 92.8799C220.002 92.8201 226.276 92.84 232.53 92.8201L251.311 92.7803L288.874 92.8799L307.655 93.0193C313.909 93.0989 320.183 93.1388 326.436 93.2583C326.476 93.2583 326.516 93.2981 326.516 93.3379C326.516 93.3778 326.476 93.4176 326.436 93.4176C320.183 93.5172 313.909 93.5769 307.655 93.6566L288.874 93.796L251.311 93.8956L232.53 93.8558C226.276 93.8358 220.002 93.8359 213.749 93.796L194.967 93.6765C188.713 93.5969 182.44 93.557 176.186 93.4574C176.126 93.4574 176.066 93.3977 176.066 93.3379C176.066 93.2782 176.126 93.2184 176.186 93.2184Z" fill="white"/>
<path opacity="0.68" d="M136.313 181.807L165.052 181.588L193.792 181.469L251.291 181.369L308.79 181.469L337.53 181.608L366.269 181.847C366.309 181.847 366.349 181.887 366.349 181.927C366.349 181.967 366.309 182.006 366.269 182.006L337.53 182.245L308.79 182.385L251.291 182.484L193.792 182.385L165.052 182.265L136.313 182.046C136.253 182.046 136.193 181.987 136.193 181.927C136.193 181.867 136.253 181.807 136.313 181.807Z" fill="white"/>
<path opacity="0.68" d="M145.495 226.122L171.944 225.903L198.393 225.783L251.291 225.684L304.19 225.783L330.639 225.923L357.088 226.162C357.128 226.162 357.168 226.201 357.168 226.241C357.168 226.281 357.128 226.321 357.088 226.321L330.639 226.56L304.19 226.699L251.291 226.799L198.393 226.699L171.944 226.58L145.495 226.361C145.435 226.361 145.375 226.301 145.375 226.241C145.395 226.162 145.435 226.122 145.495 226.122Z" fill="white"/>
<path opacity="0.68" d="M330.199 270.934H179.969C179.75 270.934 179.57 270.755 179.57 270.536C179.57 270.316 179.75 270.137 179.969 270.137H330.199C330.418 270.137 330.598 270.316 330.598 270.536C330.598 270.755 330.418 270.934 330.199 270.934Z" fill="white"/>
</g>
<circle cx="251.618" cy="183.204" r="71.4681" fill="#FFEA28"/>
<mask id="mask0_4115_7294" style="mask-type:alpha" maskUnits="userSpaceOnUse" x="180" y="111" width="144" height="144">
<circle cx="251.618" cy="183.204" r="71.4681" fill="#FFEA28"/>
</mask>
<g mask="url(#mask0_4115_7294)">
<path d="M206.953 182.448C206.953 170.504 211.262 160.311 219.964 152.03C228.665 143.749 239.273 139.608 251.704 139.608C264.051 139.608 274.576 143.749 283.277 152.11C291.979 160.471 296.288 170.583 296.288 182.448C296.288 194.312 291.979 204.425 283.277 212.786C274.576 221.146 264.051 225.287 251.704 225.287C243.665 225.287 236.29 223.376 229.494 219.634V255.029H206.953L206.953 182.448ZM229.494 182.448C229.494 188.34 231.649 193.436 236.041 197.577C240.35 201.717 245.654 203.788 251.704 203.788C257.836 203.788 263.057 201.717 267.283 197.577C271.593 193.436 273.747 188.42 273.747 182.448C273.747 176.555 271.593 171.459 267.283 167.319C262.974 163.178 257.753 161.108 251.704 161.108C245.571 161.108 240.35 163.178 236.041 167.319C231.649 171.539 229.494 176.555 229.494 182.448Z" fill="#2F333A"/>
</g>
<path d="M447.077 195.085C447.029 195.085 446.98 195.061 446.931 195.036C446.834 194.963 446.809 194.817 446.882 194.719C447.053 194.475 447.224 194.207 447.395 193.963C447.468 193.866 447.614 193.817 447.711 193.89C447.809 193.963 447.858 194.11 447.785 194.207C447.614 194.475 447.443 194.744 447.273 194.988C447.224 195.061 447.151 195.085 447.077 195.085Z" fill="white"/>
<path d="M435.153 201.523C435.031 201.523 434.933 201.426 434.909 201.304C434.909 201.182 435.006 201.06 435.128 201.06C435.713 201.035 436.299 200.987 436.884 200.889C437.006 200.865 437.128 200.962 437.152 201.084C437.177 201.206 437.079 201.328 436.957 201.352C436.372 201.45 435.762 201.499 435.153 201.523ZM432.251 201.352H432.226C431.641 201.255 431.031 201.133 430.471 200.962C430.349 200.938 430.276 200.791 430.3 200.67C430.324 200.548 430.471 200.474 430.593 200.499C431.153 200.645 431.739 200.791 432.299 200.865C432.421 200.889 432.519 201.011 432.495 201.133C432.47 201.255 432.373 201.352 432.251 201.352ZM439.737 200.645C439.64 200.645 439.542 200.596 439.518 200.499C439.469 200.377 439.542 200.255 439.664 200.206C440.225 200.011 440.761 199.792 441.273 199.523C441.395 199.475 441.517 199.523 441.59 199.621C441.639 199.743 441.59 199.865 441.493 199.938C440.956 200.206 440.395 200.45 439.835 200.645C439.786 200.645 439.761 200.645 439.737 200.645ZM427.813 199.938C427.788 199.938 427.739 199.938 427.715 199.914C427.179 199.645 426.642 199.353 426.154 199.011C426.057 198.938 426.008 198.792 426.081 198.694C426.154 198.597 426.301 198.548 426.398 198.621C426.886 198.938 427.398 199.231 427.91 199.499C428.032 199.548 428.081 199.694 428.008 199.816C427.983 199.889 427.91 199.938 427.813 199.938ZM443.834 198.426C443.761 198.426 443.688 198.402 443.639 198.329C443.566 198.231 443.59 198.085 443.688 198.012C443.736 197.963 443.809 197.938 443.858 197.89C444.273 197.573 444.663 197.231 445.029 196.89C445.126 196.792 445.273 196.792 445.37 196.89C445.468 196.987 445.468 197.134 445.37 197.231C444.98 197.597 444.59 197.938 444.175 198.28C444.126 198.329 444.053 198.377 444.005 198.402C443.931 198.426 443.883 198.426 443.834 198.426ZM424.008 197.231C423.96 197.231 423.886 197.207 423.838 197.158C423.399 196.743 423.009 196.28 422.618 195.817C422.545 195.719 422.545 195.573 422.643 195.5C422.74 195.427 422.887 195.427 422.96 195.524C423.326 195.988 423.74 196.402 424.155 196.817C424.252 196.914 424.252 197.06 424.155 197.158C424.13 197.207 424.082 197.231 424.008 197.231ZM421.204 193.525C421.131 193.525 421.033 193.476 421.009 193.403C420.716 192.866 420.473 192.33 420.253 191.769C420.204 191.647 420.253 191.525 420.375 191.476C420.497 191.427 420.619 191.476 420.668 191.598C420.887 192.135 421.131 192.671 421.399 193.183C421.472 193.305 421.424 193.427 421.302 193.5C421.277 193.5 421.253 193.525 421.204 193.525Z" fill="white"/>
<path d="M419.645 189.111C419.523 189.111 419.425 189.037 419.425 188.915C419.377 188.598 419.328 188.281 419.279 187.989C419.255 187.867 419.352 187.745 419.474 187.721C419.596 187.696 419.718 187.794 419.742 187.916C419.791 188.208 419.84 188.525 419.889 188.818C419.913 188.94 419.84 189.062 419.694 189.086C419.669 189.111 419.669 189.111 419.645 189.111Z" fill="white"/>
<path d="M446.711 189.038L444.906 187.502C445.052 186.405 445.052 185.283 444.833 184.161L446.564 182.552C446.637 182.503 446.637 182.405 446.613 182.332L445.467 179.723C445.443 179.65 445.345 179.601 445.272 179.601L442.907 179.796C442.224 178.894 441.395 178.114 440.492 177.479L440.59 175.114C440.59 175.041 440.541 174.943 440.468 174.919L437.81 173.895C437.737 173.87 437.639 173.895 437.59 173.944L436.054 175.748C434.957 175.602 433.835 175.602 432.713 175.821L431.104 174.09C431.055 174.041 430.958 174.017 430.884 174.041L428.275 175.187C428.202 175.212 428.153 175.309 428.153 175.382L428.348 177.748C427.446 178.431 426.666 179.26 426.032 180.162L423.666 180.064C423.593 180.064 423.496 180.113 423.471 180.186L422.447 182.844C422.423 182.917 422.447 183.015 422.496 183.064L424.3 184.6C424.154 185.697 424.154 186.819 424.374 187.941L422.642 189.55C422.593 189.599 422.569 189.697 422.593 189.77L423.739 192.379C423.764 192.452 423.861 192.501 423.935 192.501L426.3 192.306C426.983 193.208 427.812 193.988 428.714 194.623L428.617 196.988C428.617 197.061 428.665 197.159 428.739 197.183L431.397 198.207C431.47 198.232 431.567 198.207 431.616 198.158L433.152 196.354C434.25 196.5 435.371 196.5 436.493 196.281L438.103 198.012C438.151 198.061 438.249 198.085 438.322 198.061L440.931 196.915C441.004 196.89 441.053 196.793 441.053 196.72L440.858 194.354C441.76 193.671 442.541 192.842 443.175 191.94L445.54 192.038C445.613 192.038 445.711 191.989 445.735 191.916L446.759 189.258C446.808 189.185 446.784 189.087 446.711 189.038Z" fill="white"/>
<path d="M434.642 188.819C433.813 188.819 433.008 188.453 432.472 187.77C431.545 186.575 431.74 184.844 432.96 183.893C434.154 182.966 435.886 183.161 436.837 184.38C437.763 185.575 437.568 187.307 436.349 188.258C435.813 188.624 435.227 188.819 434.642 188.819ZM434.618 183.771C434.106 183.771 433.618 183.941 433.203 184.258C432.204 185.039 432.033 186.478 432.813 187.477C433.594 188.477 435.032 188.648 436.032 187.868C436.52 187.502 436.812 186.941 436.886 186.331C436.959 185.722 436.788 185.112 436.422 184.649C436.056 184.161 435.496 183.868 434.886 183.795C434.813 183.771 434.715 183.771 434.618 183.771Z" fill="#BDD0FB"/>
<path d="M422.374 177.211C422.326 177.211 422.277 177.187 422.228 177.162C422.13 177.089 422.106 176.943 422.179 176.845C422.374 176.602 422.569 176.333 422.765 176.114C422.838 176.016 422.984 175.992 423.082 176.089C423.179 176.163 423.203 176.309 423.106 176.406C422.911 176.65 422.716 176.87 422.545 177.138C422.521 177.187 422.448 177.211 422.374 177.211Z" fill="white"/>
<path d="M449.053 181.405C448.956 181.405 448.858 181.332 448.834 181.259C448.639 180.722 448.419 180.186 448.175 179.649C448.126 179.527 448.175 179.405 448.297 179.332C448.419 179.283 448.541 179.332 448.614 179.454C448.858 179.99 449.102 180.551 449.273 181.112C449.321 181.234 449.248 181.356 449.126 181.405C449.102 181.38 449.077 181.405 449.053 181.405ZM446.932 177.332C446.858 177.332 446.785 177.308 446.736 177.235C446.639 177.113 446.541 176.967 446.444 176.845C446.2 176.528 445.932 176.211 445.639 175.918C445.542 175.821 445.566 175.674 445.663 175.577C445.761 175.479 445.907 175.504 446.005 175.601C446.297 175.918 446.566 176.235 446.834 176.577C446.932 176.723 447.053 176.845 447.151 176.991C447.224 177.089 447.2 177.235 447.102 177.308C447.029 177.308 446.98 177.332 446.932 177.332ZM424.985 174.479C424.911 174.479 424.838 174.455 424.814 174.382C424.741 174.284 424.741 174.138 424.838 174.065C424.936 173.992 425.009 173.918 425.106 173.845C425.497 173.553 425.887 173.26 426.277 173.016C426.375 172.943 426.521 172.967 426.594 173.089C426.667 173.187 426.643 173.333 426.521 173.406C426.131 173.65 425.741 173.918 425.375 174.211C425.277 174.284 425.204 174.333 425.131 174.406C425.107 174.479 425.058 174.479 424.985 174.479ZM443.713 174.065C443.664 174.065 443.615 174.04 443.566 174.016C443.103 173.675 442.615 173.358 442.128 173.065C442.006 172.992 441.981 172.87 442.03 172.748C442.079 172.626 442.249 172.602 442.347 172.675C442.859 172.967 443.371 173.309 443.835 173.65C443.932 173.723 443.956 173.87 443.883 173.967C443.859 174.04 443.786 174.065 443.713 174.065ZM428.935 172.163C428.837 172.163 428.764 172.114 428.716 172.016C428.667 171.894 428.716 171.773 428.837 171.724C429.398 171.504 429.959 171.309 430.52 171.163C430.642 171.139 430.764 171.212 430.813 171.334C430.837 171.456 430.764 171.577 430.642 171.626C430.081 171.773 429.545 171.968 429.008 172.187C429.008 172.163 428.959 172.163 428.935 172.163ZM439.665 171.919C439.64 171.919 439.616 171.919 439.591 171.894C439.055 171.699 438.494 171.553 437.933 171.431C437.811 171.407 437.738 171.285 437.763 171.163C437.787 171.041 437.909 170.968 438.031 170.992C438.616 171.114 439.177 171.285 439.738 171.48C439.86 171.529 439.933 171.651 439.884 171.773C439.86 171.846 439.762 171.919 439.665 171.919ZM433.398 171.114C433.276 171.114 433.178 171.017 433.154 170.895C433.154 170.773 433.251 170.651 433.373 170.651C433.788 170.626 434.178 170.602 434.592 170.602C434.788 170.602 434.958 170.602 435.153 170.602C435.275 170.602 435.373 170.724 435.373 170.846C435.373 170.968 435.251 171.065 435.129 171.065C434.958 171.065 434.763 171.041 434.592 171.065C434.227 171.065 433.812 171.065 433.398 171.114C433.422 171.114 433.422 171.114 433.398 171.114Z" fill="white"/>
<path d="M449.808 185.111C449.686 185.111 449.589 185.014 449.564 184.892C449.54 184.575 449.515 184.282 449.467 183.99C449.442 183.868 449.54 183.746 449.662 183.722C449.784 183.697 449.906 183.795 449.93 183.917C449.979 184.234 450.003 184.551 450.027 184.868C450.052 184.965 449.954 185.087 449.808 185.111C449.832 185.111 449.832 185.111 449.808 185.111Z" fill="white"/>
<path d="M434.569 193.134C431.838 193.134 429.228 191.549 428.082 188.916C427.668 187.989 427.473 187.014 427.473 186.063C427.473 183.331 429.058 180.722 431.691 179.552C435.276 177.967 439.47 179.6 441.031 183.185C441.104 183.331 441.153 183.502 441.226 183.673C441.324 183.941 441.397 184.234 441.47 184.526C441.47 184.575 441.494 184.599 441.494 184.648C441.494 184.673 441.494 184.673 441.494 184.697C441.494 184.795 441.421 184.892 441.299 184.916C441.177 184.941 441.055 184.868 441.031 184.746C440.933 184.282 440.787 183.843 440.592 183.405C439.373 180.649 436.471 179.113 433.618 179.527C433.057 179.6 432.52 179.747 431.984 179.966C431.96 179.966 431.935 179.991 431.911 179.991C431.886 179.991 431.862 180.015 431.838 180.015C429.35 181.112 427.887 183.551 427.887 186.087C427.887 186.989 428.058 187.892 428.448 188.745C429.911 192.086 433.837 193.598 437.178 192.135C438.275 191.647 439.226 190.867 439.909 189.891C439.982 189.794 440.129 189.769 440.226 189.842C440.299 189.891 440.324 189.964 440.324 190.037C440.324 190.086 440.299 190.135 440.275 190.184C439.543 191.232 438.519 192.061 437.349 192.574C436.495 192.939 435.544 193.134 434.569 193.134Z" fill="#BDD0FB"/>
<path d="M78.6122 95.2271L105.9 163.872C107.29 167.359 110.899 169.457 114.605 168.92L186.177 163.921L160.401 90.6426C159.719 88.838 157.963 87.6675 156.036 87.7163C143.478 88.0089 97.7793 89.1307 81.441 90.5938C79.1731 90.7645 77.7344 93.1055 78.6122 95.2271Z" fill="#2F333A"/>
<path d="M112.192 165.799L84.9292 96.544C84.3683 95.1541 85.3925 93.6178 86.88 93.5934L154.282 91.0329C156.013 90.9597 157.598 92.0083 158.232 93.6178L182.91 161.117L112.192 165.799Z" fill="#9EC8FF"/>
<path d="M210.514 166.676C210.514 167.944 209.466 168.993 208.197 168.993H114.069C112.119 168.993 110.558 167.408 110.558 165.481L109.07 163.75L206.808 162.921C208.856 162.945 210.514 164.604 210.514 166.676Z" fill="#2F333A"/>
<path d="M172.694 102.372C170.645 98.9823 167.061 96.7632 164.915 93.4468C162.208 89.2769 162.11 83.7413 163.89 79.0837C165.378 75.2308 167.987 71.89 169.499 68.0371C171.523 62.8429 171.572 60.6238 170.645 55.4297C169.841 50.8453 168.06 45.9682 163.647 43.3345C158.209 40.0912 151.551 39.4572 145.309 40.6521C138.847 41.8714 132.579 44.6269 127.849 49.187C123.118 53.7715 120.045 60.1849 120.118 66.769C120.167 71.2316 121.606 75.816 120.167 80.0347C119.07 83.3024 116.168 85.936 112.803 86.7164C109.047 87.5943 105.17 86.3018 101.317 86.3506C97.513 86.3994 93.7333 87.8137 90.807 90.2767C88.2221 92.4714 86.3201 95.5196 85.8811 98.8604C85.4422 102.201 86.6127 105.81 89.1976 108.005C90.9533 109.492 93.4407 110.517 94.0747 112.736C94.8062 115.223 92.6603 117.71 90.2949 118.71C87.9051 119.71 85.2471 119.808 82.8086 120.71C77.395 122.734 74.1029 128.83 74.5175 134.61C74.932 140.365 78.5899 145.607 83.3694 148.851C88.149 152.094 93.9528 153.557 99.7321 154.02C105.487 154.484 111.291 154.02 117.07 153.752C123.679 153.435 130.409 153.362 136.676 151.24C143.016 149.095 148.479 144.998 153.6 140.682C156.014 138.633 158.477 136.39 159.55 133.415C160.33 131.244 160.33 128.855 161.257 126.733C163.208 122.197 168.597 120.271 171.694 116.442C174.864 112.541 175.278 106.664 172.694 102.372Z" fill="#2F333A"/>
<path d="M166.989 94.6661C163.258 93.4712 152.382 91.2277 141.824 100.641C140.043 102.226 139.287 104.689 139.873 107.03C142.506 117.345 147.822 150.363 141.165 163.384C141.165 163.384 143.262 163.36 166.453 163.628C166.453 163.628 172.403 139.462 179.865 128.928C185.01 121.661 172.281 101.201 169.062 96.2511C168.574 95.4952 167.843 94.9343 166.989 94.6661Z" fill="white"/>
<path d="M156.966 74.085C156.966 74.085 151.162 89.6917 150.65 96.5928C150.65 96.5928 156.722 99.4703 162.575 94.8614C162.575 94.8614 163.428 79.2059 164.355 76.4016L156.966 74.085Z" fill="#F09959"/>
<path d="M163.513 80.2344C160.658 80.7475 157.24 80.8758 155.076 79.2724L157.348 72.2173C159.511 74.9966 166.369 79.7213 163.513 80.2344Z" fill="#E38540"/>
<path d="M165.013 52.8206C165.013 52.8206 179.181 73.3532 170.427 79.1082C161.672 84.8632 151.576 70.2806 151.576 70.2806C151.576 70.2806 148.382 59.1121 151.967 55.4055C155.527 51.6989 165.013 52.8206 165.013 52.8206Z" fill="#F09959"/>
<path d="M158.377 47.8703C158.377 47.8703 165.01 49.5529 165.912 52.5767C166.79 55.6005 156.377 58.2341 153.451 58.3317L150.915 70.4513C150.915 70.4513 144.16 58.8925 147.013 52.3328C149.867 45.7731 158.377 47.8703 158.377 47.8703Z" fill="#2F333A"/>
<path d="M154.405 68.8421C154.405 68.8421 148.87 62.2093 146.553 66.428C144.236 70.6467 151.503 73.9631 154.088 71.9147L154.405 68.8421Z" fill="#F09959"/>
<path d="M140.309 102.664C140.309 102.664 122.362 117.101 117.631 137.145C112.9 157.19 143.163 159.824 143.163 159.824C143.163 159.824 147.357 155.288 152.21 157.02C157.062 158.727 152.722 149.021 147.015 148.948C141.309 148.875 143.87 153.435 135.847 149.655C128.044 145.973 123.337 134.853 143.699 118.466C144.87 117.515 145.821 116.296 146.406 114.906C150.454 105.127 147.479 98.6407 140.309 102.664Z" fill="#F09959"/>
<path d="M322.077 219.349C322.492 218.569 323.638 218.691 323.857 219.544C324.735 222.665 326.832 228.103 331.222 230.054C331.441 230.152 331.661 230.249 331.856 230.347C332.051 229.737 332.051 229.054 331.587 228.323C330.222 226.226 332.685 223.373 332.685 223.373C332.685 223.373 332.855 225.884 334.758 227.469C336.416 228.835 337.196 231.883 336.074 234.37C333.685 243.637 330.124 255.879 344.024 264.828C357.924 273.778 377.505 247.953 377.505 247.953L367.8 278.752C367.8 278.752 352.803 289.823 335.367 274.265C317.932 258.707 329.49 236.053 329.49 236.053C329.49 236.053 316.176 230.664 322.077 219.349Z" fill="#F09959"/>
<path d="M343.928 264.658C339.831 262.024 337.246 259.122 335.686 256.074C332.54 257.318 329.199 257.367 325.785 257.245C326.663 262.951 329.297 268.974 335.149 274.217C352.78 289.97 367.923 278.777 367.923 278.777L377.751 247.612C377.751 247.588 357.974 273.729 343.928 264.658Z" fill="#EFEFEF"/>
<path d="M459.76 250.612L431.57 321.525C430.131 325.134 426.425 327.28 422.572 326.744L348.635 321.281L375.264 245.881C375.971 244.028 377.775 242.809 379.775 242.857C392.748 243.15 439.934 244.32 456.833 245.832C459.174 246.027 460.638 248.442 459.76 250.612Z" fill="#2F333A"/>
<path d="M425.06 323.524L453.225 251.977C453.786 250.539 452.762 248.954 451.201 248.929L381.581 246.296C379.776 246.222 378.142 247.295 377.484 248.978L351.977 318.721L425.06 323.524Z" fill="#9EC8FF"/>
<path d="M323.492 324.427C323.492 325.743 324.565 326.816 325.882 326.816H423.107C425.107 326.816 426.741 325.183 426.741 323.183L428.277 321.403L327.321 320.549C325.199 320.574 323.492 322.305 323.492 324.427Z" fill="#2F333A"/>
<path d="M379.971 202.67C379.971 202.67 375.947 184.6 396.626 189.38C396.626 189.38 406.673 187.746 407.185 197.207C407.185 197.207 413.672 201.475 408.917 209.668C408.917 209.668 428.157 202.231 436.545 219.105C444.934 235.98 437.228 245.247 429.132 247.661C429.132 247.661 435.668 250.953 432.571 258.366C429.474 265.779 413.769 271.022 404.503 262C404.503 262 378.118 265.487 378.654 246.856C378.654 246.856 366.388 238.931 379.264 223.544C392.188 208.181 379.971 202.67 379.971 202.67Z" fill="#2F333A"/>
<path d="M378.824 244.539C382.993 243.296 395.089 240.979 406.599 251.611C408.55 253.416 409.354 256.147 408.647 258.707C405.55 270.095 398.308 306.625 405.477 321.183C405.477 321.183 396.137 321.451 378.19 320.988C378.19 320.988 372.02 294.091 363.924 282.264C358.34 274.119 372.825 251.635 376.483 246.222C377.043 245.441 377.873 244.832 378.824 244.539Z" fill="white"/>
<path d="M390.308 221.91C390.308 221.91 396.453 239.297 396.916 246.978C396.916 246.978 390.113 250.075 383.724 244.856C383.724 244.856 383.041 227.47 382.09 224.373L390.308 221.91Z" fill="#F09959"/>
<path d="M382.759 227.428C384.888 225.191 387.771 222.992 390.755 223.264L392.255 227.428C388.462 225.996 380.63 229.665 382.759 227.428Z" fill="#E38540"/>
<path d="M381.751 198.207C381.751 198.207 365.657 220.715 375.289 227.25C384.897 233.786 396.358 217.789 396.358 217.789C396.358 217.789 400.089 205.474 396.187 201.28C392.286 197.11 381.751 198.207 381.751 198.207Z" fill="#F09959"/>
<path d="M389.211 192.818C389.211 192.818 381.822 194.573 380.773 197.914C379.749 201.255 391.259 204.352 394.478 204.498L397.087 217.983C397.087 217.983 404.769 205.279 401.72 197.963C398.672 190.647 389.211 192.818 389.211 192.818Z" fill="#2F333A"/>
<path d="M393.234 216.13C393.234 216.13 399.501 208.888 401.989 213.594C404.476 218.325 396.356 221.861 393.551 219.544L393.234 216.13Z" fill="#F09959"/>
<path d="M408.256 253.903C408.256 253.903 427.911 270.242 432.788 292.555C437.665 314.867 404.086 317.233 404.086 317.233C404.086 317.233 399.526 312.136 394.112 313.965C388.699 315.77 393.698 305.089 400.038 305.113C406.378 305.137 403.428 310.161 412.402 306.088C421.132 302.138 426.521 289.921 404.257 271.364C402.964 270.291 401.94 268.925 401.306 267.364C396.966 256.464 400.38 249.319 408.256 253.903Z" fill="#F09959"/>
<path d="M432.766 292.457C427.865 270.145 408.137 253.806 408.137 253.806C400.236 249.222 396.797 256.367 401.138 267.267C401.772 268.828 402.796 270.193 404.089 271.266C421.354 285.556 422.061 296.091 417.476 301.992C419.793 302.724 421.988 303.894 424.012 305.187C425.572 306.235 427.011 307.015 428.304 308.015C432.083 304.406 434.302 299.407 432.766 292.457Z" fill="white"/>
<path opacity="0.5" d="M316.876 111.747H312.438V189.805H316.876V111.747Z" fill="white"/>
<path opacity="0.5" d="M324.264 111.747H319.826V189.805H324.264V111.747Z" fill="white"/>
<path opacity="0.5" d="M331.655 111.747H327.217V189.805H331.655V111.747Z" fill="white"/>
<path opacity="0.5" d="M339.067 111.747H334.629V189.805H339.067V111.747Z" fill="white"/>
<path opacity="0.5" d="M346.456 111.747H342.018V189.805H346.456V111.747Z" fill="white"/>
<path d="M316.876 128.305H312.438V189.829H316.876V128.305Z" fill="#F99746"/>
<path d="M324.264 175.052H319.826V189.829H324.264V175.052Z" fill="#F99746"/>
<path d="M331.653 136.522H327.215V189.805H331.653V136.522Z" fill="#F99746"/>
<path d="M339.071 145.765H334.633V189.829H339.071V145.765Z" fill="#F99746"/>
<path d="M346.458 155.788H342.02V189.83H346.458V155.788Z" fill="#F99746"/>
<path d="M249.945 252.625L291.985 252.381C293.717 252.381 294.765 254.259 293.887 255.722L293.668 256.063C293.278 256.722 292.546 257.136 291.766 257.136H249.945C248.725 257.136 247.75 256.136 247.75 254.941V254.819C247.75 253.625 248.725 252.625 249.945 252.625Z" fill="white"/>
<path d="M244.067 254.892V254.966C244.067 256.185 243.067 257.16 241.872 257.16H232.533C231.533 257.16 230.655 256.477 230.411 255.526C230.045 254.136 231.094 252.771 232.533 252.746L241.872 252.673C243.067 252.673 244.067 253.649 244.067 254.892Z" fill="white"/>
<path d="M260.066 260.55L291.986 260.306C293.718 260.306 294.766 262.184 293.889 263.647L293.669 263.988C293.279 264.647 292.547 265.061 291.767 265.061H260.066C258.847 265.061 257.871 264.062 257.871 262.867V262.745C257.871 261.55 258.847 260.55 260.066 260.55Z" fill="white"/>
<path d="M254.188 262.793V262.866C254.188 264.086 253.188 265.061 251.994 265.061H242.654C241.654 265.061 240.776 264.378 240.532 263.427C240.167 262.037 241.215 260.672 242.654 260.647L251.994 260.574C253.188 260.574 254.188 261.574 254.188 262.793Z" fill="white"/>
<path d="M84.3401 245.223L114.359 320.72C115.895 324.573 119.845 326.865 123.942 326.28L202.659 320.476L174.298 240.199C173.542 238.224 171.616 236.907 169.494 236.956C155.692 237.273 105.434 238.517 87.4371 240.126C84.9741 240.321 83.3891 242.906 84.3401 245.223Z" fill="#2F333A"/>
<path d="M121.309 322.842L91.3148 246.661C90.7052 245.125 91.8269 243.442 93.4608 243.418L167.593 240.614C169.495 240.541 171.251 241.687 171.958 243.467L199.099 317.721L121.309 322.842Z" fill="#9EC8FF"/>
<path d="M229.436 323.817C229.436 325.232 228.29 326.353 226.9 326.353H123.359C121.213 326.353 119.481 324.622 119.481 322.476L117.848 320.574L225.339 319.647C227.607 319.721 229.436 321.55 229.436 323.817Z" fill="#2F333A"/>
<path d="M179.691 243.784C160.475 243.467 139.284 248.832 139.284 248.832C133.553 282.24 138.284 320.769 138.284 320.769C166.059 321.232 169.351 319.696 169.351 319.696C171.814 305.723 183.934 265.121 183.934 265.121C193.322 263.951 201.053 261.244 207.417 257.659C202.564 252.026 200.272 244.857 199.272 240.638C192.493 242.735 185.616 243.881 179.691 243.784Z" fill="white"/>
<path d="M236.436 215.472C234.558 213.204 232.169 214.277 232.169 214.277C229.34 226.226 214.513 235.907 199.297 240.638C200.297 244.881 202.589 252.026 207.442 257.659C232.681 243.442 236.436 215.472 236.436 215.472Z" fill="#F09959"/>
<path d="M235.974 216.057C236.169 216.691 233.877 217.642 232.535 215.082C232.487 213.862 231.731 208.571 232.487 207.571C236.413 202.23 243.997 195.549 243.997 195.549C245.289 196.817 244.216 198.061 244.216 198.061L240.534 201.889C241.314 203.279 242.241 204.45 242.68 206.132C243.021 207.4 242.802 208.766 242.168 209.936C241.509 211.107 240.631 212.619 239.802 213.789C238.217 216.057 235.974 216.057 235.974 216.057Z" fill="#F09959"/>
<path d="M238.925 204.376L235.56 207.23L234.512 210.058L237.511 213.375C237.511 213.375 238.511 207.766 239.267 206.547C239.998 205.328 239.608 204.742 238.925 204.376Z" fill="#F09959"/>
<path d="M146.673 267.413L139.309 248.807C139.309 248.807 121.361 261 118.41 276.46C121.8 276.704 127.969 277.582 134.017 280.63C135.334 273.339 146.673 267.413 146.673 267.413Z" fill="url(#paint0_linear_4115_7294)"/>
<path d="M162.352 284.922C162.352 284.922 142.209 296.31 135.406 286.58C133.991 284.556 133.65 282.556 134.016 280.654C127.968 277.606 121.798 276.728 118.409 276.484C117.531 281.142 117.994 286.092 120.725 291.116C132.626 312.892 165.01 289.921 165.01 289.921L162.352 284.922Z" fill="#F09959"/>
<path d="M160.986 300.749C160.255 300.749 159.718 300.041 159.913 299.31L170.911 260.927C171.033 260.488 171.399 260.171 171.862 260.122C173.862 259.878 179.617 259.244 186.299 258.684C194.321 258.001 203.637 257.464 209.221 257.928C210.001 258.001 210.489 258.83 210.148 259.537C206.977 265.95 193.956 292.019 187.42 300.553C187.201 300.846 186.859 300.992 186.518 300.992L160.986 300.749Z" fill="#CDCDCD"/>
<path d="M187.421 255.342L195.395 254.026C195.81 253.952 196.175 254.367 196.029 254.757L195.249 257.147C195.176 257.366 195.005 257.513 194.785 257.537L187.104 258.561C186.714 258.61 186.372 258.244 186.47 257.854L186.958 255.757C187.006 255.562 187.202 255.391 187.421 255.342Z" fill="#2F333A"/>
<path d="M181.47 262.097L182.128 258.683C182.202 258.342 182.47 258.074 182.836 258.049L198.93 256.415C199.467 256.367 199.906 256.854 199.784 257.391L198.759 261.658C198.686 262 198.369 262.244 198.028 262.268L182.299 263.048C181.763 263.048 181.373 262.585 181.47 262.097Z" fill="#2F333A"/>
<path d="M162.571 290.043C162.571 290.043 161.035 283.751 161.669 281.508C162.279 279.264 163.474 276.411 167.473 277.045C171.472 277.679 176.178 279.362 176.178 279.362C176.178 279.362 175.935 282.264 172.911 281.337L174.788 282.8C174.788 282.8 174.52 285.141 171.96 283.898L173.715 285.824C173.715 285.824 172.618 287.726 170.74 286.507C168.814 285.263 167.912 290.799 162.571 290.043Z" fill="#F09959"/>
<path d="M160.23 228.177L154.11 245.856C154.012 246.149 154.134 246.466 154.402 246.612C156.06 247.539 162.059 250.197 169.302 245.612C170.058 245.125 170.57 244.344 170.692 243.467L172.667 228.177H160.23Z" fill="#F09959"/>
<path d="M172.163 233.046C167.576 234.166 162.021 234.979 158.284 233.663L161.06 225.548C164.952 228.142 176.751 231.925 172.163 233.046Z" fill="#E38540"/>
<path d="M173.542 211.814C173.542 211.814 180.248 224.446 179.395 229.543C178.541 234.639 170.226 234.274 162.959 230.128L157.887 216.496L173.542 211.814Z" fill="#F09959"/>
<path d="M163.277 223.446C163.57 223.324 163.692 222.959 163.497 222.69C162.96 221.861 161.96 220.203 161.619 218.715C161.619 218.715 160.424 217.935 164.692 216.911C168.959 215.887 175.348 214.302 176.689 210.668C178.006 207.108 174.568 198.183 169.081 205.303C168.862 205.572 168.471 205.572 168.252 205.303C167.35 204.133 164.984 201.719 161.717 203.182C158.644 204.547 158.303 206.815 158.351 207.937C158.376 208.278 158.059 208.522 157.742 208.474C156.181 208.181 152.474 207.913 150.719 211.741C149.28 214.887 150.207 216.667 151.06 217.545C151.328 217.838 151.206 218.301 150.841 218.398C149.816 218.715 148.5 219.569 148.646 221.959C148.817 225.251 152.523 224.958 153.572 224.812C153.743 224.787 153.913 224.836 154.035 224.983C154.937 225.982 158.985 230.225 163.399 230.713C163.789 230.762 164.082 230.372 163.96 230.03L162.058 224.495C161.96 224.227 162.082 223.958 162.351 223.836L163.277 223.446Z" fill="#2F333A"/>
<path d="M164.033 224.227C164.033 224.227 159.254 220.959 158.912 223.715C158.571 226.47 163.204 227.714 165.521 226.69L164.033 224.227Z" fill="#F09959"/>
<path d="M464.857 85.1312L438.862 150.484C437.545 153.801 434.107 155.8 430.571 155.288L362.438 150.509L386.969 80.7662C387.628 79.0592 389.286 77.9374 391.139 77.9618C403.088 78.2301 446.592 79.303 462.15 80.693C464.32 80.8881 465.661 83.1072 464.857 85.1312Z" fill="#2F333A"/>
<path d="M432.863 152.313L458.833 86.3746C459.345 85.0334 458.394 83.5946 456.956 83.5702L392.797 81.1317C391.139 81.0585 389.627 82.0583 389.017 83.5946L365.51 147.875L432.863 152.313Z" fill="#9EC8FF"/>
<path d="M339.271 153.143C339.271 154.362 340.247 155.337 341.466 155.337H431.083C432.936 155.337 434.424 153.826 434.424 151.997L435.838 150.363L342.783 149.558C340.832 149.582 339.271 151.192 339.271 153.143Z" fill="#2F333A"/>
<path d="M269.427 97.0074L332.244 91.4231C334.78 91.2037 336.755 89.0821 336.755 86.5216L336.975 44.164C336.999 41.2865 334.56 38.9942 331.683 39.1893L264.793 43.847C262.038 44.042 259.965 46.4562 260.209 49.2362L264.062 92.5205C264.306 95.2273 266.696 97.2269 269.427 97.0074Z" fill="#2F333A"/>
<path d="M333.317 48.2607L333.731 84.839C333.756 86.424 332.561 87.7652 330.976 87.9359L270.744 93.9104C269.037 94.0811 267.549 92.8374 267.378 91.1304L263.916 52.016C263.769 50.2847 265.062 48.7728 266.793 48.6752L330.098 45.2369C331.829 45.1393 333.317 46.5049 333.317 48.2607Z" fill="white"/>
<path d="M304.762 80.2058L270.671 82.2054C270.329 82.2298 270.061 82.5224 270.086 82.8882L270.134 83.4247C270.159 83.7661 270.451 84.0099 270.793 83.9855L304.835 81.4494C305.176 81.4251 305.445 81.1324 305.396 80.7667C305.396 80.4253 305.103 80.1814 304.762 80.2058Z" fill="#25A9E0"/>
<path d="M305.665 83.6194L305.689 83.8633C305.713 84.2047 305.469 84.4973 305.128 84.5461L271.135 87.5455C270.793 87.5699 270.501 87.326 270.452 86.9846L270.427 86.7408C270.403 86.3994 270.647 86.1068 270.988 86.058L304.982 83.0342C305.348 83.0342 305.64 83.278 305.665 83.6194Z" fill="#25A9E0"/>
<path d="M295.617 87.5946V87.6922C295.641 88.0335 295.398 88.3262 295.056 88.3749L271.378 90.4721C271.036 90.4965 270.744 90.2526 270.695 89.9112L270.646 89.4235C270.622 89.0821 270.866 88.7651 271.231 88.7407L294.959 87.0094C295.3 86.985 295.593 87.2532 295.617 87.5946Z" fill="#25A9E0"/>
<path d="M274.695 81.8635L348.851 80.3516C351.85 80.2784 354.313 77.9618 354.533 74.9624L358.191 25.2891C358.435 21.8995 355.752 19.022 352.363 19.022L273.524 19.1195C270.256 19.1195 267.647 21.8019 267.696 25.0696L268.745 76.1573C268.818 79.3762 271.476 81.9366 274.695 81.8635Z" fill="#F99746"/>
<path opacity="0.87" d="M353.558 29.8003L351.119 72.7432C351.022 74.5965 349.51 76.084 347.632 76.1328L276.475 78.3275C274.475 78.4006 272.793 76.7912 272.768 74.7916L271.817 28.6297C271.769 26.5814 273.427 24.9231 275.475 24.9475L349.997 25.9717C352.046 26.0205 353.68 27.7519 353.558 29.8003Z" fill="white"/>
<path d="M317.49 64.9888L277.327 64.5986C276.912 64.5986 276.571 64.94 276.595 65.3546L276.619 65.9886C276.619 66.3788 276.961 66.6958 277.351 66.6958L317.49 66.4275C317.904 66.4275 318.221 66.0861 318.221 65.6716C318.197 65.3058 317.88 64.9888 317.49 64.9888Z" fill="#F99746"/>
<path d="M318.297 69.0854V69.3537C318.297 69.7682 317.98 70.0853 317.59 70.1096L277.451 70.9144C277.037 70.9144 276.72 70.5974 276.695 70.2072V69.9389C276.695 69.5244 277.012 69.2074 277.402 69.183L317.541 68.3783C317.956 68.3539 318.273 68.6709 318.297 69.0854Z" fill="#F99746"/>
<path d="M306.177 72.9137V73.0356C306.177 73.4502 305.86 73.7672 305.469 73.7916L277.524 74.3525C277.109 74.3525 276.792 74.0355 276.768 73.6453V73.0844C276.768 72.6699 277.085 72.3529 277.499 72.3285L305.469 72.2065C305.835 72.2065 306.177 72.5236 306.177 72.9137Z" fill="#F99746"/>
<path d="M285.646 69.5733H367.898C371.239 69.5733 374.019 67.0372 374.336 63.7207L379.53 8.73136C379.871 4.97599 376.97 1.73272 373.214 1.65956L285.768 0.00134246C282.159 -0.0718141 279.184 2.85445 279.184 6.46351V63.1355C279.184 66.6714 282.085 69.5733 285.646 69.5733Z" fill="#25A9E0"/>
<path d="M374.263 13.6086L370.581 61.1603C370.41 63.2331 368.703 64.8182 366.63 64.8426L287.694 65.6717C285.475 65.6961 283.646 63.8915 283.646 61.6724V10.4872C283.646 8.21936 285.524 6.41483 287.792 6.48799L370.41 9.29232C372.678 9.38987 374.434 11.3407 374.263 13.6086Z" fill="white"/>
<path d="M332.125 13.1939L287.597 11.8527C287.133 11.8283 286.768 12.1941 286.768 12.6574V13.3646C286.768 13.8036 287.133 14.1693 287.572 14.1693L332.1 14.779C332.564 14.779 332.929 14.4132 332.929 13.9743C332.905 13.5597 332.564 13.1939 332.125 13.1939Z" fill="#B7B7B7"/>
<path d="M332.905 17.7295V18.0465C332.905 18.4855 332.539 18.8513 332.1 18.8513H287.572C287.133 18.8513 286.768 18.4855 286.768 18.0465V17.7295C286.768 17.2906 287.133 16.9248 287.572 16.9248H332.1C332.539 16.9248 332.905 17.2906 332.905 17.7295Z" fill="#B7B7B7"/>
<path d="M319.395 21.7289V21.8509C319.395 22.2898 319.03 22.6556 318.591 22.6556H287.572C287.133 22.6556 286.768 22.2898 286.768 21.8509V21.2168C286.768 20.7535 287.133 20.4121 287.597 20.4121L318.615 20.8998C319.03 20.9242 319.395 21.2656 319.395 21.7289Z" fill="#B7B7B7"/>
<path d="M298.569 46.1631C298.642 46.1631 298.715 46.1387 298.788 46.09L312.152 35.2384L325.32 44.8951C325.466 44.9926 325.686 44.9682 325.808 44.8463L344.121 22.8506C346.194 24.6795 359.703 36.5065 361.508 38.0915C361.654 38.2135 361.874 38.2135 361.996 38.0671C362.118 37.9208 362.118 37.7014 361.971 37.5794C360.02 35.8724 344.316 22.0946 344.316 22.0946C344.243 22.0215 344.146 21.9971 344.048 21.9971C343.95 21.9971 343.877 22.0458 343.804 22.119L325.466 44.1147L312.347 34.5068C312.225 34.4093 312.054 34.4093 311.908 34.5068L298.569 45.3584L291.424 39.1157C291.278 38.9938 291.058 38.9938 290.936 39.1401C290.814 39.2864 290.814 39.5059 290.961 39.6278L298.325 46.0656C298.398 46.1387 298.471 46.1631 298.569 46.1631Z" fill="#B7B7B7"/>
<path d="M343.59 57.7461V57.0389C343.59 56.917 343.687 56.7951 343.834 56.7951C343.956 56.7951 344.078 56.8926 344.078 57.0389V57.7461C344.078 57.868 343.98 57.99 343.834 57.99C343.687 57.9656 343.59 57.868 343.59 57.7461ZM343.59 55.4051V54.6979C343.59 54.576 343.687 54.4541 343.834 54.4541C343.956 54.4541 344.078 54.5516 344.078 54.6979V55.4051C344.078 55.527 343.98 55.649 343.834 55.649C343.687 55.649 343.59 55.5514 343.59 55.4051ZM343.59 53.0885V52.3813C343.59 52.2594 343.687 52.1374 343.834 52.1374C343.956 52.1374 344.078 52.235 344.078 52.3813V53.0885C344.078 53.2104 343.98 53.3323 343.834 53.3323C343.687 53.3079 343.59 53.2104 343.59 53.0885ZM343.59 50.7475V50.0403C343.59 49.9184 343.687 49.7964 343.834 49.7964C343.956 49.7964 344.078 49.894 344.078 50.0403V50.7475C344.078 50.8694 343.98 50.9913 343.834 50.9913C343.687 50.9669 343.59 50.8694 343.59 50.7475ZM343.59 48.4065V47.6993C343.59 47.5773 343.687 47.4554 343.834 47.4554C343.956 47.4554 344.078 47.553 344.078 47.6993V48.4065C344.078 48.5284 343.98 48.6503 343.834 48.6503C343.687 48.6503 343.59 48.5284 343.59 48.4065ZM343.59 46.0654V45.3583C343.59 45.2363 343.687 45.1144 343.834 45.1144C343.956 45.1144 344.078 45.2119 344.078 45.3583V46.0654C344.078 46.1874 343.98 46.3093 343.834 46.3093C343.687 46.3093 343.59 46.2118 343.59 46.0654ZM343.59 43.7488V43.0416C343.59 42.9197 343.687 42.7978 343.834 42.7978C343.956 42.7978 344.078 42.8953 344.078 43.0416V43.7488C344.078 43.8707 343.98 43.9927 343.834 43.9927C343.687 43.9683 343.59 43.8707 343.59 43.7488ZM343.59 41.4078V40.7006C343.59 40.5787 343.687 40.4568 343.834 40.4568C343.956 40.4568 344.078 40.5543 344.078 40.7006V41.4078C344.078 41.5297 343.98 41.6517 343.834 41.6517C343.687 41.6517 343.59 41.5297 343.59 41.4078ZM343.59 39.0668V38.3596C343.59 38.2377 343.687 38.1158 343.834 38.1158C343.956 38.1158 344.078 38.2133 344.078 38.3596V39.0668C344.078 39.1887 343.98 39.3107 343.834 39.3107C343.687 39.3107 343.59 39.2131 343.59 39.0668ZM343.59 36.7502V36.043C343.59 35.9211 343.687 35.7991 343.834 35.7991C343.956 35.7991 344.078 35.8967 344.078 36.043V36.7502C344.078 36.8721 343.98 36.994 343.834 36.994C343.687 36.9696 343.59 36.8721 343.59 36.7502ZM343.59 34.4092V33.702C343.59 33.5801 343.687 33.4581 343.834 33.4581C343.956 33.4581 344.078 33.5557 344.078 33.702V34.4092C344.078 34.5311 343.98 34.653 343.834 34.653C343.687 34.653 343.59 34.5311 343.59 34.4092ZM343.59 32.0681V31.361C343.59 31.239 343.687 31.1171 343.834 31.1171C343.956 31.1171 344.078 31.2147 344.078 31.361V32.0681C344.078 32.1901 343.98 32.312 343.834 32.312C343.687 32.312 343.59 32.2145 343.59 32.0681ZM343.59 29.7515V29.0443C343.59 28.9224 343.687 28.8005 343.834 28.8005C343.956 28.8005 344.078 28.898 344.078 29.0443V29.7515C344.078 29.8734 343.98 29.9954 343.834 29.9954C343.687 29.971 343.59 29.8734 343.59 29.7515ZM343.59 27.4105V26.7033C343.59 26.5814 343.687 26.4595 343.834 26.4595C343.956 26.4595 344.078 26.557 344.078 26.7033V27.4105C344.078 27.5324 343.98 27.6544 343.834 27.6544C343.687 27.6544 343.59 27.5324 343.59 27.4105Z" fill="#25A9E0"/>
<path d="M325.299 58.1854V57.4782C325.299 57.3563 325.396 57.2344 325.543 57.2344C325.689 57.2344 325.787 57.3319 325.787 57.4782V58.1854C325.787 58.3073 325.689 58.4293 325.543 58.4293C325.396 58.4293 325.299 58.3073 325.299 58.1854ZM325.299 55.8444V55.1372C325.299 55.0153 325.396 54.8934 325.543 54.8934C325.689 54.8934 325.787 54.9909 325.787 55.1372V55.8444C325.787 55.9663 325.689 56.0883 325.543 56.0883C325.396 56.0883 325.299 55.9663 325.299 55.8444ZM325.299 53.5034V52.7962C325.299 52.6743 325.396 52.5524 325.543 52.5524C325.689 52.5524 325.787 52.6499 325.787 52.7962V53.5034C325.787 53.6253 325.689 53.7473 325.543 53.7473C325.396 53.7473 325.299 53.6253 325.299 53.5034ZM325.299 51.1624V50.4796C325.299 50.3577 325.396 50.2357 325.543 50.2357C325.689 50.2357 325.787 50.3333 325.787 50.4796V51.1868C325.787 51.3087 325.689 51.4306 325.543 51.4306C325.396 51.4306 325.299 51.3087 325.299 51.1624ZM325.299 48.8458V48.1386C325.299 48.0167 325.396 47.8947 325.543 47.8947C325.689 47.8947 325.787 47.9923 325.787 48.1386V48.8458C325.787 48.9677 325.689 49.0896 325.543 49.0896C325.396 49.0896 325.299 48.9677 325.299 48.8458ZM325.299 46.5048V45.7976C325.299 45.6756 325.396 45.5537 325.543 45.5537C325.689 45.5537 325.787 45.6513 325.787 45.7976V46.5048C325.787 46.6267 325.689 46.7486 325.543 46.7486C325.396 46.7486 325.299 46.6267 325.299 46.5048Z" fill="#25A9E0"/>
<path d="M311.643 58.8434C311.521 58.8434 311.424 58.7215 311.424 58.5996L311.448 57.8924C311.448 57.7705 311.546 57.6486 311.692 57.6729C311.814 57.6729 311.912 57.7949 311.912 57.9168L311.887 58.624C311.863 58.7459 311.765 58.8434 311.643 58.8434ZM311.716 56.5268C311.595 56.5268 311.497 56.4049 311.497 56.283L311.521 55.5758C311.521 55.4539 311.643 55.3563 311.765 55.3563C311.887 55.3563 311.985 55.4782 311.985 55.6002L311.96 56.3073C311.936 56.4293 311.838 56.5268 311.716 56.5268ZM311.79 54.1858C311.668 54.1858 311.57 54.0639 311.57 53.942L311.595 53.2348C311.595 53.1128 311.716 52.9909 311.838 53.0153C311.96 53.0153 312.058 53.1372 312.058 53.2592L312.033 53.9663C312.009 54.0883 311.912 54.1858 311.79 54.1858ZM311.863 51.8692C311.741 51.8692 311.643 51.7473 311.643 51.6253L311.668 50.9181C311.668 50.7962 311.765 50.6743 311.912 50.6987C312.033 50.6987 312.131 50.8206 312.131 50.9425L312.107 51.6497C312.082 51.7473 311.985 51.8692 311.863 51.8692ZM311.936 49.5282C311.814 49.5282 311.716 49.4062 311.716 49.2843L311.741 48.5771C311.741 48.4552 311.838 48.3333 311.985 48.3577C312.107 48.3577 312.204 48.4796 312.204 48.6015L312.18 49.3087C312.155 49.4306 312.058 49.5282 311.936 49.5282ZM311.985 47.1872C311.863 47.1872 311.765 47.0652 311.765 46.9433L311.79 46.2361C311.79 46.1142 311.912 45.9923 312.033 46.0167C312.155 46.0167 312.253 46.1386 312.253 46.2605L312.229 46.9677C312.229 47.0896 312.131 47.1872 311.985 47.1872C312.009 47.1872 312.009 47.1872 311.985 47.1872ZM312.058 44.8705C311.936 44.8705 311.838 44.7486 311.838 44.6267L311.863 43.9195C311.863 43.7976 311.985 43.6756 312.107 43.7C312.229 43.7 312.326 43.822 312.326 43.9439L312.302 44.6511C312.302 44.773 312.204 44.8705 312.058 44.8705C312.082 44.8705 312.082 44.8705 312.058 44.8705ZM312.131 42.5295C312.009 42.5295 311.912 42.4076 311.912 42.2857L311.936 41.5785C311.936 41.4566 312.058 41.3346 312.18 41.359C312.302 41.359 312.399 41.4809 312.399 41.6029L312.375 42.3101C312.375 42.432 312.277 42.5295 312.131 42.5295C312.155 42.5295 312.155 42.5295 312.131 42.5295ZM312.204 40.1885C312.082 40.1885 311.985 40.0666 311.985 39.9447L312.009 39.2375C312.009 39.1155 312.107 38.9936 312.253 39.018C312.375 39.018 312.472 39.1399 312.472 39.2619L312.448 39.969C312.448 40.091 312.35 40.1885 312.204 40.1885C312.204 40.1885 312.229 40.1885 312.204 40.1885ZM312.277 37.8719C312.155 37.8719 312.058 37.75 312.058 37.628L312.082 36.9208C312.082 36.7989 312.18 36.677 312.326 36.7014C312.448 36.7014 312.546 36.8233 312.546 36.9452L312.521 37.6524C312.521 37.7743 312.424 37.8719 312.277 37.8719C312.277 37.8719 312.302 37.8719 312.277 37.8719Z" fill="#25A9E0"/>
<path d="M298.156 56.698V55.9908C298.156 55.8688 298.254 55.7469 298.4 55.7469C298.522 55.7469 298.644 55.8445 298.644 55.9908V56.698C298.644 56.8199 298.546 56.9418 298.4 56.9418C298.254 56.9418 298.156 56.8443 298.156 56.698ZM298.156 54.3813V53.6741C298.156 53.5522 298.254 53.4303 298.4 53.4303C298.522 53.4303 298.644 53.5278 298.644 53.6741V54.3813C298.644 54.5033 298.546 54.6252 298.4 54.6252C298.254 54.6008 298.156 54.5033 298.156 54.3813ZM298.156 52.0403V51.3331C298.156 51.2112 298.254 51.0893 298.4 51.0893C298.522 51.0893 298.644 51.1868 298.644 51.3331V52.0403C298.644 52.1622 298.546 52.2842 298.4 52.2842C298.254 52.2842 298.156 52.1622 298.156 52.0403ZM298.156 49.6993V49.0165C298.156 48.8946 298.254 48.7727 298.4 48.7727C298.522 48.7727 298.644 48.8702 298.644 49.0165V49.7237C298.644 49.8456 298.546 49.9675 298.4 49.9675C298.254 49.9432 298.156 49.8456 298.156 49.6993ZM298.156 47.3827V46.6755C298.156 46.5536 298.254 46.4316 298.4 46.4316C298.522 46.4316 298.644 46.5292 298.644 46.6755V47.3827C298.644 47.5046 298.546 47.6265 298.4 47.6265C298.254 47.6021 298.156 47.5046 298.156 47.3827Z" fill="#25A9E0"/>
<path d="M363.288 61.7941C363.459 61.7941 363.63 61.6478 363.63 61.4771L367.385 17.0711C367.41 16.876 367.263 16.7053 367.068 16.6809C366.873 16.6565 366.702 16.8028 366.678 16.9979L362.923 61.4039C362.898 61.599 363.045 61.7697 363.24 61.7941C363.288 61.7941 363.288 61.7941 363.288 61.7941Z" fill="#B7B7B7"/>
<path d="M368.113 18.51L367.04 17.2176L365.748 18.3149L365.846 17.3151L367.114 16.2178L368.211 17.5102L368.113 18.51Z" fill="#B7B7B7"/>
<path d="M289.058 59.7214H366.116C366.312 59.7214 366.458 59.5751 366.458 59.38C366.458 59.1849 366.312 59.0386 366.116 59.0386H289.058C288.863 59.0386 288.717 59.1849 288.717 59.38C288.717 59.5507 288.863 59.7214 289.058 59.7214Z" fill="#B7B7B7"/>
<path d="M290.449 60.5505L289.278 59.3556L290.449 58.1851H289.449L288.254 59.3556L289.449 60.5505H290.449Z" fill="#B7B7B7"/>
<path d="M371.656 33.1658L349.27 25.0454L347.539 28.6545L369.071 36.7748C369.071 36.7748 372.047 36.5066 371.656 33.1658Z" fill="#C65447"/>
<path d="M349.267 25.0454C349.925 27.045 347.535 28.6544 347.535 28.6544L343.463 25.777C343.682 25.2161 343.804 24.6796 343.902 24.1919L349.267 25.0454Z" fill="url(#paint1_linear_4115_7294)"/>
<path d="M343.903 24.2162C343.83 24.7039 343.684 25.2404 343.464 25.8012L340.465 23.6797L343.903 24.2162Z" fill="#C65447"/>
<path d="M365.754 59.3315C370.412 67.9884 378.142 76.8404 390.701 79.2058C402.308 81.4005 423.133 84.0829 431.522 85.1558C434.034 85.4728 436.326 86.6921 437.984 88.6186C444.568 96.2269 459.029 117.101 442.032 138.121C439.862 136.902 436.765 134.975 434.668 132.732C436.545 127.44 436.692 120.661 432.766 112.346C432.619 113.004 432.473 113.663 432.254 114.297C426.816 131.513 426.523 145.827 426.547 149.119C426.547 149.558 426.304 150.07 425.865 150.143C416.452 151.436 398.772 150.363 398.772 150.363C402.04 134.146 389.75 105.615 386.58 98.6166C386.116 97.6168 385.311 96.8365 384.336 96.3732C366.778 88.4235 359.146 76.182 356.049 65.1597C358.707 61.575 362.877 60.0143 365.754 59.3315Z" fill="white"/>
<path d="M356.024 65.1837C352.269 51.8204 355.195 40.2373 355.195 40.2373H359.194C359.194 40.2373 360.56 49.6745 365.754 59.3312C362.877 60.014 358.707 61.5746 356.024 65.1837Z" fill="#F09959"/>
<path d="M357.802 42.3595C357.802 42.3595 363.898 34.4586 361.923 30.3618C359.948 26.2406 353.144 26.6552 353.144 26.6552L352.193 29.8741C351.949 30.7276 351.974 31.6298 352.291 32.4589L356.046 42.3839H357.802V42.3595Z" fill="#F09959"/>
<path d="M419.158 69.354L420.547 83.4245C420.547 83.4245 412.622 85.8142 406.867 81.7419L410.915 68.9395L419.158 69.354Z" fill="#F09959"/>
<path d="M409.963 53.3082C409.768 53.4789 401.916 68.915 401.916 68.915L410.817 73.2068L420.425 59.6972C420.449 59.6972 413.158 50.2844 409.963 53.3082Z" fill="#F09959"/>
<path d="M416.5 60.0631C416.671 60.4777 416.622 60.941 416.402 61.3068L411.964 68.6956C411.891 68.8175 411.818 68.9151 411.72 68.9882C411.184 69.4759 409.379 70.9147 407.989 68.9638C406.794 67.3056 405.673 65.7937 404.478 65.1597C403.771 64.7939 402.917 65.0865 402.551 65.7937C401.82 67.2325 400.405 70.2075 399.503 73.0118C399.284 73.719 399.649 74.475 400.332 74.7432C402.137 75.4748 405.697 76.7916 408.867 77.2305C409.379 77.3037 409.891 77.0842 410.208 76.6697C411.574 74.8164 415.402 69.5979 416.719 68.3054C417.939 67.0862 420.182 67.5495 421.182 67.8421C421.572 67.964 421.962 67.8909 422.328 67.6958C423.352 67.0862 425.132 65.5499 423.498 62.9406C423.084 62.2822 423.303 61.4287 423.937 61.0142C425.084 60.2582 426.327 58.8438 425.132 56.5516C423.937 54.235 421.791 54.0155 420.328 54.2106C419.694 54.2837 419.036 53.9423 418.792 53.3571C418.67 53.0888 418.475 52.8694 418.06 52.7718C417.305 52.6255 416.792 51.9183 416.939 51.1624C417.207 49.8456 417.012 48.1386 414.915 46.9925C411.062 44.8709 407.721 48.3337 406.843 51.2356C405.99 54.1374 410.281 56.1858 412.988 56.5272C414.988 56.7711 416.061 58.917 416.5 60.0631Z" fill="#2F333A"/>
<path d="M415.037 71.0366C415.037 71.0366 416.744 66.0375 418.939 66.2326C421.133 66.4277 422.84 68.598 420.134 71.0366C416.768 74.0604 415.037 71.0366 415.037 71.0366Z" fill="#F09959"/>
<path d="M434.667 132.732C436.764 134.975 439.861 136.902 442.031 138.121C438.788 142.145 435.837 145.144 430.034 149.095L429.424 150.338L420.328 150.655C420.304 150.607 431.131 142.657 434.667 132.732Z" fill="#F09959"/>
<path d="M385.649 140.096L385.576 139.535C385.576 139.462 385.625 139.389 385.698 139.365C385.771 139.365 385.844 139.414 385.869 139.487L385.942 140.072C385.942 140.145 385.893 140.218 385.82 140.243C385.722 140.243 385.649 140.169 385.649 140.096Z" fill="white"/>
<path d="M384.992 136.683L384.846 136.122C384.822 136.024 384.87 135.927 384.968 135.902C385.066 135.878 385.163 135.927 385.187 136.024L385.334 136.585C385.358 136.683 385.309 136.756 385.212 136.78C385.114 136.829 385.017 136.756 384.992 136.683Z" fill="white"/>
<path d="M383.967 133.342L383.747 132.805C383.698 132.707 383.747 132.586 383.869 132.561C383.967 132.512 384.089 132.561 384.113 132.683L384.308 133.244C384.332 133.342 384.284 133.439 384.186 133.488C384.113 133.488 383.991 133.439 383.967 133.342Z" fill="white"/>
<path d="M382.555 130.172L382.287 129.659C382.238 129.562 382.263 129.416 382.385 129.367C382.507 129.318 382.629 129.342 382.677 129.464L382.946 129.976C382.994 130.074 382.97 130.196 382.848 130.269C382.726 130.318 382.604 130.269 382.555 130.172Z" fill="white"/>
<path d="M380.749 127.221L380.408 126.757C380.335 126.66 380.359 126.514 380.457 126.416C380.554 126.343 380.7 126.367 380.798 126.465L381.139 126.953C381.212 127.05 381.188 127.196 381.091 127.27C380.969 127.343 380.822 127.318 380.749 127.221Z" fill="white"/>
<path d="M378.531 124.539L378.116 124.124C378.019 124.026 378.019 123.856 378.116 123.758C378.214 123.661 378.384 123.661 378.482 123.758L378.896 124.173C378.994 124.27 378.994 124.441 378.896 124.539C378.799 124.66 378.628 124.66 378.531 124.539Z" fill="white"/>
<path d="M375.921 122.295L375.458 121.954C375.336 121.856 375.312 121.685 375.385 121.564C375.482 121.442 375.653 121.417 375.775 121.49L376.263 121.832C376.385 121.929 376.409 122.1 376.312 122.222C376.214 122.344 376.043 122.368 375.921 122.295Z" fill="white"/>
<path d="M372.968 120.491L372.456 120.247C372.31 120.174 372.237 120.003 372.31 119.832C372.383 119.686 372.554 119.613 372.725 119.686L373.261 119.954C373.407 120.027 373.48 120.198 373.407 120.344C373.31 120.515 373.115 120.564 372.968 120.491Z" fill="white"/>
<path d="M369.75 119.223L369.189 119.052C369.018 119.003 368.921 118.832 368.97 118.662C369.018 118.491 369.189 118.393 369.36 118.442L369.921 118.613C370.091 118.662 370.189 118.832 370.14 119.003C370.116 119.174 369.945 119.271 369.75 119.223Z" fill="white"/>
<path d="M366.388 118.442L365.827 118.369C365.632 118.344 365.51 118.173 365.534 117.978C365.559 117.783 365.729 117.661 365.925 117.686L366.51 117.783C366.68 117.808 366.827 117.978 366.778 118.173C366.754 118.344 366.583 118.466 366.388 118.442Z" fill="white"/>
<path d="M362.95 118.125L362.365 118.101C362.17 118.101 362.023 117.93 362.023 117.735C362.023 117.54 362.194 117.394 362.389 117.394L362.974 117.418C363.17 117.418 363.316 117.589 363.316 117.784C363.316 117.979 363.145 118.125 362.95 118.125Z" fill="white"/>
<path d="M359.484 118.198L358.899 118.247C358.704 118.271 358.533 118.125 358.509 117.906C358.484 117.711 358.63 117.54 358.85 117.515L359.435 117.467C359.63 117.442 359.801 117.613 359.825 117.808C359.825 118.003 359.679 118.174 359.484 118.198Z" fill="white"/>
<path d="M356.048 118.588L355.487 118.686C355.292 118.71 355.097 118.588 355.048 118.369C355.024 118.174 355.146 117.978 355.365 117.93L355.95 117.832C356.145 117.808 356.34 117.93 356.365 118.149C356.389 118.369 356.243 118.564 356.048 118.588Z" fill="white"/>
<path d="M352.633 119.247L352.072 119.369C351.877 119.417 351.657 119.295 351.608 119.076C351.56 118.881 351.681 118.661 351.901 118.613L352.462 118.491C352.657 118.442 352.876 118.564 352.925 118.783C352.974 119.003 352.828 119.198 352.633 119.247Z" fill="white"/>
<path d="M349.267 120.149L348.706 120.32C348.487 120.393 348.267 120.271 348.219 120.052C348.145 119.832 348.267 119.613 348.487 119.564L349.048 119.393C349.267 119.32 349.487 119.442 349.535 119.662C349.584 119.857 349.487 120.076 349.267 120.149Z" fill="white"/>
<path d="M345.95 121.222L345.413 121.417C345.194 121.49 344.974 121.392 344.901 121.173C344.828 120.954 344.925 120.734 345.145 120.661L345.706 120.466C345.925 120.393 346.145 120.515 346.218 120.71C346.267 120.905 346.169 121.124 345.95 121.222Z" fill="white"/>
<path d="M342.682 122.441L342.146 122.661C341.926 122.758 341.682 122.636 341.585 122.417C341.487 122.197 341.609 121.954 341.829 121.856L342.365 121.637C342.585 121.539 342.828 121.661 342.902 121.88C342.999 122.1 342.902 122.344 342.682 122.441Z" fill="white"/>
<path d="M339.49 123.807L338.953 124.051C338.734 124.148 338.49 124.051 338.368 123.831C338.27 123.612 338.368 123.368 338.587 123.246L339.124 123.002C339.343 122.905 339.587 123.002 339.685 123.222C339.782 123.441 339.685 123.709 339.49 123.807Z" fill="white"/>
<path d="M336.292 125.246L335.756 125.49C335.536 125.587 335.268 125.49 335.171 125.27C335.073 125.051 335.171 124.783 335.39 124.685L335.927 124.466C336.146 124.368 336.414 124.466 336.512 124.685C336.609 124.904 336.512 125.148 336.292 125.246Z" fill="white"/>
<path d="M333.026 126.611L332.49 126.83C332.271 126.928 332.002 126.806 331.905 126.562C331.807 126.343 331.929 126.074 332.173 125.977L332.71 125.782C332.929 125.684 333.197 125.806 333.295 126.05C333.392 126.245 333.27 126.513 333.026 126.611Z" fill="white"/>
<path d="M329.733 127.806L329.172 128.001C328.929 128.074 328.685 127.953 328.587 127.709C328.49 127.465 328.636 127.221 328.88 127.123L329.441 126.928C329.685 126.855 329.928 126.977 330.002 127.221C330.099 127.465 329.977 127.733 329.733 127.806Z" fill="white"/>
<path d="M326.395 128.903L325.834 129.074C325.59 129.147 325.346 129.025 325.273 128.781C325.2 128.538 325.322 128.294 325.566 128.22L326.127 128.05C326.37 127.977 326.614 128.123 326.687 128.342C326.761 128.586 326.639 128.83 326.395 128.903Z" fill="white"/>
<path d="M323.029 129.904L322.468 130.05C322.225 130.123 321.981 129.977 321.908 129.733C321.834 129.489 321.981 129.245 322.225 129.172L322.785 129.026C323.029 128.953 323.273 129.099 323.346 129.343C323.395 129.587 323.273 129.83 323.029 129.904Z" fill="white"/>
<path d="M319.613 130.806L319.053 130.952C318.809 131.025 318.565 130.854 318.492 130.61C318.419 130.367 318.589 130.123 318.833 130.05L319.394 129.903C319.638 129.83 319.882 130.001 319.955 130.245C320.028 130.513 319.882 130.757 319.613 130.806Z" fill="white"/>
<path d="M316.225 131.659L315.664 131.781C315.42 131.83 315.176 131.684 315.103 131.44C315.054 131.196 315.201 130.952 315.444 130.879L316.005 130.757C316.249 130.708 316.493 130.854 316.566 131.098C316.615 131.342 316.469 131.586 316.225 131.659Z" fill="white"/>
<path d="M312.785 132.415L312.224 132.537C311.981 132.586 311.737 132.439 311.664 132.171C311.615 131.927 311.761 131.683 312.029 131.61L312.59 131.488C312.834 131.44 313.078 131.586 313.151 131.854C313.2 132.122 313.029 132.366 312.785 132.415Z" fill="white"/>
<path d="M309.35 133.122L308.765 133.244C308.521 133.293 308.252 133.122 308.204 132.878C308.155 132.634 308.326 132.366 308.569 132.317L309.13 132.195C309.374 132.147 309.642 132.317 309.691 132.561C309.764 132.829 309.594 133.073 309.35 133.122Z" fill="white"/>
<path d="M305.888 133.781L305.303 133.878C305.034 133.927 304.791 133.756 304.766 133.488C304.717 133.22 304.888 132.976 305.156 132.952L305.742 132.854C306.01 132.805 306.254 132.976 306.278 133.244C306.327 133.488 306.156 133.732 305.888 133.781Z" fill="white"/>
<path d="M302.448 134.366L301.863 134.464C301.595 134.512 301.351 134.342 301.327 134.073C301.278 133.805 301.449 133.561 301.717 133.537L302.302 133.439C302.57 133.391 302.814 133.561 302.839 133.83C302.863 134.098 302.692 134.342 302.448 134.366Z" fill="white"/>
<path d="M298.934 134.927L298.349 135C298.08 135.049 297.837 134.854 297.812 134.585C297.763 134.317 297.959 134.073 298.227 134.049L298.812 133.976C299.08 133.927 299.324 134.122 299.348 134.39C299.373 134.634 299.178 134.878 298.934 134.927Z" fill="white"/>
<path d="M295.398 135.414L294.812 135.487C294.544 135.512 294.3 135.341 294.276 135.073C294.251 134.805 294.422 134.561 294.69 134.536L295.276 134.463C295.544 134.439 295.788 134.61 295.812 134.878C295.836 135.146 295.641 135.39 295.398 135.414Z" fill="white"/>
<path d="M291.813 135.878L291.228 135.951C290.96 135.975 290.716 135.805 290.692 135.536C290.667 135.268 290.838 135.024 291.106 135L291.692 134.927C291.96 134.902 292.204 135.073 292.228 135.341C292.277 135.585 292.082 135.829 291.813 135.878Z" fill="white"/>
<path d="M288.329 136.268L287.744 136.317C287.475 136.341 287.232 136.146 287.207 135.878C287.183 135.61 287.378 135.366 287.646 135.341L288.231 135.293C288.5 135.268 288.743 135.463 288.768 135.732C288.792 136 288.597 136.244 288.329 136.268Z" fill="white"/>
<path d="M284.843 136.609L284.257 136.658C283.989 136.682 283.745 136.487 283.721 136.219C283.696 135.951 283.891 135.707 284.16 135.683L284.745 135.634C285.013 135.61 285.257 135.805 285.281 136.073C285.306 136.341 285.111 136.585 284.843 136.609Z" fill="white"/>
<path d="M281.352 136.902L280.767 136.951C280.499 136.975 280.255 136.78 280.231 136.487C280.206 136.219 280.401 135.975 280.694 135.951L281.279 135.902C281.547 135.878 281.791 136.073 281.816 136.365C281.816 136.634 281.621 136.877 281.352 136.902Z" fill="white"/>
<path d="M277.842 137.146L277.257 137.194C276.989 137.219 276.745 136.999 276.721 136.731C276.696 136.463 276.916 136.219 277.184 136.195L277.769 136.17C278.037 136.146 278.281 136.365 278.306 136.634C278.33 136.902 278.111 137.146 277.842 137.146Z" fill="white"/>
<path d="M274.332 137.365L273.746 137.39C273.478 137.414 273.234 137.195 273.234 136.927C273.21 136.658 273.429 136.414 273.698 136.414L274.283 136.39C274.551 136.366 274.795 136.585 274.795 136.853C274.819 137.122 274.624 137.341 274.332 137.365Z" fill="white"/>
<path d="M270.82 137.512L270.235 137.536C269.967 137.536 269.723 137.341 269.723 137.048C269.723 136.78 269.918 136.536 270.21 136.536L270.796 136.512C271.064 136.512 271.308 136.707 271.308 136.999C271.332 137.268 271.113 137.512 270.82 137.512Z" fill="white"/>
<path d="M267.332 137.609L266.746 137.634C266.478 137.634 266.234 137.414 266.234 137.146C266.234 136.878 266.454 136.634 266.722 136.634L267.307 136.609C267.576 136.609 267.819 136.829 267.819 137.097C267.819 137.39 267.6 137.609 267.332 137.609Z" fill="white"/>
<path d="M263.82 137.682H263.235C262.967 137.682 262.747 137.463 262.723 137.195C262.723 136.926 262.942 136.707 263.21 136.683H263.796C264.064 136.683 264.283 136.902 264.308 137.17C264.308 137.439 264.088 137.682 263.82 137.682Z" fill="white"/>
<path d="M260.311 137.682H259.726C259.458 137.682 259.238 137.463 259.238 137.195C259.238 136.927 259.458 136.707 259.726 136.707H260.311C260.579 136.707 260.799 136.927 260.799 137.195C260.799 137.463 260.579 137.682 260.311 137.682Z" fill="white"/>
<path d="M256.798 137.634L256.212 137.609C255.944 137.609 255.725 137.39 255.725 137.097C255.725 136.829 255.944 136.609 256.237 136.609H256.822C257.09 136.609 257.31 136.829 257.31 137.097C257.285 137.414 257.066 137.634 256.798 137.634Z" fill="white"/>
<path d="M253.287 137.536L252.701 137.511C252.433 137.511 252.214 137.268 252.238 136.999C252.238 136.731 252.482 136.512 252.75 136.536L253.336 136.56C253.604 136.56 253.823 136.804 253.799 137.073C253.774 137.341 253.555 137.536 253.287 137.536Z" fill="white"/>
<path d="M249.773 137.389L249.188 137.365C248.92 137.341 248.725 137.121 248.725 136.853C248.749 136.585 248.968 136.39 249.237 136.39L249.822 136.414C250.09 136.438 250.285 136.658 250.285 136.926C250.261 137.194 250.041 137.389 249.773 137.389Z" fill="white"/>
<path d="M246.263 137.17L245.677 137.121C245.409 137.097 245.214 136.877 245.238 136.609C245.263 136.341 245.482 136.146 245.75 136.17L246.336 136.219C246.604 136.243 246.799 136.463 246.775 136.731C246.775 136.999 246.531 137.194 246.263 137.17Z" fill="white"/>
<path d="M242.776 136.902L242.191 136.853C241.923 136.829 241.728 136.609 241.752 136.341C241.776 136.073 242.02 135.878 242.264 135.902L242.849 135.951C243.118 135.975 243.313 136.195 243.288 136.463C243.264 136.731 243.044 136.926 242.776 136.902Z" fill="white"/>
<path d="M239.262 136.561L238.677 136.488C238.408 136.463 238.238 136.219 238.262 135.975C238.286 135.707 238.53 135.537 238.774 135.561L239.359 135.61C239.628 135.634 239.823 135.878 239.774 136.122C239.774 136.414 239.53 136.585 239.262 136.561Z" fill="white"/>
<path d="M235.778 136.171L235.192 136.097C234.924 136.073 234.753 135.829 234.778 135.561C234.802 135.293 235.046 135.122 235.314 135.146L235.899 135.22C236.168 135.244 236.338 135.488 236.314 135.756C236.29 136.024 236.046 136.195 235.778 136.171Z" fill="white"/>
<path d="M232.29 135.707L231.705 135.61C231.437 135.561 231.266 135.342 231.315 135.073C231.364 134.805 231.583 134.634 231.851 134.683L232.437 134.756C232.705 134.805 232.876 135.025 232.827 135.293C232.802 135.561 232.559 135.732 232.29 135.707Z" fill="white"/>
<path d="M228.827 135.146L228.242 135.049C227.998 135 227.828 134.756 227.852 134.512C227.901 134.268 228.145 134.098 228.388 134.122L228.974 134.219C229.218 134.268 229.413 134.512 229.364 134.756C229.315 135.024 229.096 135.195 228.827 135.146Z" fill="white"/>
<path d="M225.364 134.536L224.778 134.415C224.535 134.366 224.364 134.122 224.413 133.878C224.461 133.634 224.705 133.463 224.949 133.512L225.51 133.634C225.754 133.683 225.925 133.927 225.876 134.171C225.876 134.415 225.632 134.585 225.364 134.536Z" fill="white"/>
<path d="M221.925 133.805L221.364 133.683C221.12 133.634 220.95 133.39 221.023 133.122C221.072 132.878 221.316 132.708 221.584 132.781L222.145 132.903C222.389 132.951 222.559 133.195 222.486 133.464C222.413 133.707 222.169 133.878 221.925 133.805Z" fill="white"/>
<path d="M218.511 133L217.95 132.854C217.706 132.781 217.56 132.537 217.609 132.293C217.682 132.049 217.926 131.903 218.17 131.952L218.731 132.098C218.975 132.171 219.121 132.415 219.072 132.659C218.999 132.927 218.755 133.073 218.511 133Z" fill="white"/>
<path d="M215.1 132.098L214.539 131.927C214.295 131.854 214.149 131.61 214.222 131.366C214.295 131.122 214.539 130.976 214.783 131.049L215.344 131.22C215.588 131.293 215.734 131.537 215.661 131.781C215.612 132.025 215.344 132.171 215.1 132.098Z" fill="white"/>
<path d="M211.734 131.074L211.173 130.903C210.929 130.83 210.807 130.562 210.88 130.343C210.954 130.099 211.222 129.977 211.441 130.05L212.002 130.221C212.246 130.294 212.368 130.562 212.295 130.781C212.246 131.025 211.978 131.147 211.734 131.074Z" fill="white"/>
<path d="M208.415 129.952L207.855 129.757C207.611 129.66 207.513 129.416 207.586 129.172C207.684 128.928 207.928 128.83 208.172 128.904L208.708 129.099C208.952 129.196 209.074 129.44 208.976 129.684C208.903 129.903 208.635 130.025 208.415 129.952Z" fill="white"/>
<path d="M205.127 128.66L204.59 128.44C204.371 128.343 204.249 128.074 204.346 127.855C204.444 127.636 204.712 127.514 204.932 127.611L205.468 127.831C205.688 127.928 205.81 128.196 205.712 128.416C205.615 128.66 205.346 128.757 205.127 128.66Z" fill="white"/>
<path d="M201.907 127.245L201.371 127.001C201.151 126.904 201.054 126.635 201.151 126.416C201.249 126.197 201.517 126.099 201.736 126.197L202.273 126.44C202.492 126.538 202.59 126.806 202.492 127.026C202.395 127.245 202.127 127.343 201.907 127.245Z" fill="white"/>
<path d="M198.761 125.66L198.249 125.367C198.03 125.245 197.956 125.002 198.078 124.782C198.2 124.563 198.444 124.49 198.664 124.611L199.176 124.88C199.395 125.002 199.468 125.245 199.346 125.465C199.224 125.684 198.956 125.782 198.761 125.66Z" fill="white"/>
<path d="M195.687 123.88L195.199 123.563C195.004 123.441 194.931 123.173 195.077 122.977C195.199 122.782 195.467 122.709 195.663 122.856L196.15 123.173C196.345 123.294 196.418 123.563 196.297 123.758C196.15 123.953 195.906 124.026 195.687 123.88Z" fill="white"/>
<path d="M192.759 121.929L192.272 121.588C192.077 121.442 192.052 121.198 192.174 121.003C192.32 120.808 192.564 120.783 192.759 120.905L193.223 121.246C193.418 121.393 193.442 121.637 193.32 121.832C193.198 122.027 192.954 122.076 192.759 121.929Z" fill="white"/>
<path d="M189.982 119.759L189.543 119.369C189.373 119.222 189.348 118.954 189.495 118.784C189.641 118.613 189.909 118.588 190.08 118.735L190.519 119.101C190.689 119.247 190.714 119.515 190.567 119.686C190.397 119.881 190.153 119.905 189.982 119.759Z" fill="white"/>
<path d="M187.374 117.345L186.959 116.93C186.813 116.784 186.813 116.516 186.959 116.37C187.106 116.223 187.374 116.223 187.52 116.37L187.935 116.784C188.081 116.93 188.081 117.199 187.935 117.345C187.788 117.516 187.545 117.516 187.374 117.345Z" fill="white"/>
<path d="M185.006 114.711L184.641 114.248C184.519 114.077 184.543 113.833 184.714 113.711C184.885 113.59 185.128 113.614 185.25 113.785L185.616 114.224C185.762 114.394 185.714 114.638 185.567 114.784C185.397 114.906 185.153 114.882 185.006 114.711Z" fill="white"/>
<path d="M182.934 111.834L182.617 111.346C182.495 111.175 182.568 110.931 182.739 110.81C182.91 110.688 183.154 110.761 183.276 110.931L183.593 111.419C183.715 111.59 183.666 111.834 183.471 111.956C183.276 112.078 183.056 112.029 182.934 111.834Z" fill="white"/>
<path d="M181.177 108.761L180.933 108.225C180.836 108.03 180.933 107.81 181.104 107.737C181.299 107.639 181.519 107.737 181.592 107.908L181.836 108.42C181.933 108.615 181.86 108.834 181.665 108.907C181.494 109.029 181.275 108.956 181.177 108.761Z" fill="white"/>
<path d="M179.813 105.493L179.618 104.932C179.545 104.737 179.642 104.542 179.838 104.469C180.033 104.396 180.228 104.493 180.301 104.689L180.496 105.225C180.569 105.42 180.472 105.615 180.276 105.688C180.081 105.786 179.886 105.688 179.813 105.493Z" fill="white"/>
<path d="M178.836 102.079L178.714 101.494C178.665 101.299 178.787 101.104 178.982 101.08C179.177 101.031 179.372 101.153 179.397 101.348L179.519 101.909C179.567 102.104 179.445 102.299 179.25 102.323C179.055 102.396 178.86 102.274 178.836 102.079Z" fill="white"/>
<path d="M178.226 98.5923L178.153 98.0071C178.129 97.812 178.275 97.6413 178.47 97.6169C178.665 97.5925 178.836 97.7388 178.86 97.9339L178.933 98.5192C178.958 98.7143 178.811 98.885 178.616 98.9093C178.421 98.9337 178.251 98.7874 178.226 98.5923Z" fill="white"/>
<path d="M178.008 95.081V94.4957C178.008 94.3006 178.154 94.1543 178.349 94.1543C178.544 94.1543 178.691 94.3006 178.691 94.4957V95.081C178.691 95.276 178.544 95.4223 178.349 95.4223C178.179 95.398 178.008 95.2517 178.008 95.081Z" fill="white"/>
<path d="M178.131 91.5446L178.18 90.9594C178.204 90.7887 178.35 90.6423 178.545 90.6667C178.716 90.6911 178.862 90.8374 178.838 91.0325L178.789 91.6178C178.765 91.7885 178.619 91.9348 178.423 91.9104C178.253 91.886 178.131 91.7153 178.131 91.5446Z" fill="white"/>
<path d="M178.57 88.0334L178.667 87.4481C178.691 87.2774 178.862 87.1555 179.033 87.1799C179.204 87.2043 179.325 87.3749 179.301 87.5456L179.204 88.1065C179.179 88.2772 179.008 88.3991 178.838 88.3748C178.667 88.3748 178.545 88.2041 178.57 88.0334Z" fill="white"/>
<path d="M179.276 84.5702L179.422 84.0094C179.471 83.8387 179.618 83.7411 179.788 83.7899C179.959 83.8387 180.056 83.985 180.008 84.1557L179.886 84.7165C179.837 84.8872 179.691 84.9848 179.52 84.936C179.325 84.9116 179.227 84.7409 179.276 84.5702Z" fill="white"/>
<path d="M180.202 81.1807L180.373 80.6199C180.422 80.4736 180.592 80.376 180.739 80.4248C180.885 80.4736 180.983 80.6199 180.934 80.7906L180.763 81.3515C180.714 81.4978 180.544 81.5953 180.397 81.5465C180.227 81.4978 180.154 81.3514 180.202 81.1807Z" fill="white"/>
<path d="M181.324 77.8399L181.519 77.279C181.567 77.1327 181.738 77.0595 181.86 77.1083C182.006 77.1571 182.08 77.3034 182.031 77.4497L181.836 77.9862C181.787 78.1325 181.616 78.2057 181.494 78.1569C181.348 78.1569 181.275 77.9862 181.324 77.8399Z" fill="white"/>
<path d="M182.615 74.5726L182.834 74.0361C182.883 73.9142 183.029 73.841 183.175 73.8898C183.297 73.9386 183.371 74.0849 183.322 74.2312L183.102 74.7677C183.054 74.8896 182.907 74.9628 182.761 74.914C182.615 74.8652 182.541 74.7189 182.615 74.5726Z" fill="white"/>
<path d="M184.057 71.3778L184.3 70.8413C184.349 70.7194 184.495 70.6706 184.617 70.7194C184.739 70.7681 184.788 70.9145 184.739 71.0364L184.495 71.5729C184.447 71.6948 184.3 71.7436 184.178 71.6948C184.057 71.646 183.983 71.4997 184.057 71.3778Z" fill="white"/>
<path d="M185.616 68.2323L185.884 67.7202C185.933 67.5983 186.08 67.5739 186.177 67.6227C186.275 67.6714 186.323 67.8178 186.275 67.9153L186.006 68.4274C185.958 68.5493 185.811 68.5737 185.689 68.5249C185.592 68.4762 185.567 68.3542 185.616 68.2323Z" fill="white"/>
<path d="M187.299 65.1351L187.592 64.623C187.64 64.5255 187.787 64.4767 187.884 64.5499C187.982 64.5986 188.03 64.745 187.957 64.8425L187.665 65.3546C187.616 65.4521 187.47 65.5009 187.372 65.4277C187.275 65.379 187.226 65.2571 187.299 65.1351Z" fill="white"/>
<path d="M189.056 62.1111L189.348 61.6234C189.397 61.5259 189.519 61.5015 189.617 61.5503C189.714 61.599 189.738 61.721 189.69 61.8185L189.397 62.3306C189.348 62.4281 189.226 62.4525 189.129 62.4038C189.031 62.3306 189.007 62.2087 189.056 62.1111Z" fill="white"/>
<path d="M190.908 59.1366L191.225 58.6489C191.274 58.5757 191.396 58.5513 191.469 58.6001C191.542 58.6489 191.567 58.7708 191.518 58.8439L191.201 59.3316C191.152 59.4048 191.03 59.4536 190.957 59.3804C190.884 59.3316 190.859 59.2341 190.908 59.1366Z" fill="white"/>
<path d="M192.858 56.2103L193.175 55.7226C193.224 55.6494 193.322 55.625 193.395 55.6738C193.468 55.7226 193.492 55.8201 193.443 55.8933L193.126 56.381C193.078 56.4542 192.98 56.4785 192.907 56.4298C192.809 56.4054 192.809 56.2835 192.858 56.2103Z" fill="white"/>
<path d="M194.857 53.3327L195.198 52.845C195.247 52.7718 195.345 52.7718 195.393 52.8206C195.467 52.8694 195.467 52.9669 195.418 53.0157L195.076 53.5034C195.028 53.5766 194.93 53.5766 194.857 53.5522C194.808 53.5034 194.808 53.4059 194.857 53.3327Z" fill="white"/>
<path d="M195.227 45.4556L197.251 50.4302L199.738 46.9187L195.227 45.4556Z" fill="#25A9E0"/>
<path d="M216.418 33.5552L207.761 50.7714C207.59 51.1128 207.297 51.3566 206.956 51.4542C206.615 51.5517 206.224 51.5273 205.907 51.3566L188.959 42.017C188.764 41.9194 188.667 41.6999 188.691 41.4805C188.716 41.261 188.886 41.0903 189.081 41.0172L216.418 33.5552Z" fill="#9EC8FF"/>
<path d="M195.227 45.4553L216.418 33.5552L197.958 46.9672L198.445 48.3816L195.227 45.4553Z" fill="#25A9E0"/>
<path d="M199.593 47.8695L197.252 50.43L197.959 46.9673L199.593 47.8695Z" fill="#25A9E0"/>
<defs>
<linearGradient id="paint0_linear_4115_7294" x1="136.924" y1="261.128" x2="51.087" y2="456.212" gradientUnits="userSpaceOnUse">
<stop stop-color="white"/>
<stop offset="1" stop-color="#FF928E"/>
</linearGradient>
<linearGradient id="paint1_linear_4115_7294" x1="337.133" y1="14.8434" x2="366.445" y2="48.4198" gradientUnits="userSpaceOnUse">
<stop stop-color="#FF928E"/>
<stop offset="1" stop-color="#FEB3B1"/>
</linearGradient>
</defs>
</svg>