<svg width="1038" height="617" viewBox="0 0 1038 617" fill="none" xmlns="http://www.w3.org/2000/svg">
<path d="M1215.69 567.405C1158.53 585.986 1092.79 582.434 1038.7 557.841C984.446 533.249 942.611 487.889 925.907 435.835C905.985 373.534 918.551 299.756 872.271 249.888C842.848 218.191 795.342 204.118 749.522 199.746C703.548 195.374 657.115 199.063 611.141 195.374C544.327 190.046 480.27 169.279 419.125 144.823C341.89 113.809 262.356 71.0452 232.473 0.409927" stroke="white" stroke-miterlimit="10"/>
<path d="M1203.59 569.318C1146.43 587.899 1080.69 584.347 1026.59 559.754C972.341 535.161 930.505 489.802 913.801 437.748C893.88 375.446 906.446 301.669 860.166 251.8C830.743 220.103 783.237 206.031 737.416 201.659C691.443 197.287 645.009 200.976 599.036 197.287C532.221 191.959 468.165 171.192 407.02 146.736C329.784 115.722 250.25 72.9579 220.367 2.32262" stroke="white" stroke-miterlimit="10"/>
<path d="M1191.33 571.231C1134.17 589.812 1068.43 586.259 1014.33 561.667C960.081 537.074 918.245 491.715 901.542 439.66C881.62 377.359 894.186 303.582 847.906 253.713C818.483 222.016 770.977 207.944 725.157 203.572C679.183 199.2 632.75 202.889 586.776 199.2C519.961 193.871 455.905 173.104 394.76 148.648C317.678 117.634 237.99 74.7341 208.261 4.09882" stroke="white" stroke-miterlimit="10"/>
<path d="M1179.07 573.28C1121.91 591.861 1056.17 588.309 1002.07 563.716C947.822 539.124 905.986 493.764 889.282 441.71C869.36 379.409 881.926 305.631 835.646 255.763C806.223 224.066 758.717 209.993 712.897 205.621C666.923 201.249 620.49 204.938 574.516 201.249C507.702 195.921 443.645 175.154 382.5 150.698C305.265 119.684 225.731 76.9202 195.848 6.28486" stroke="white" stroke-miterlimit="10"/>
<path d="M1166.96 575.193C1109.8 593.774 1044.06 590.222 989.963 565.629C935.714 541.037 893.878 495.677 877.174 443.623C857.253 381.322 869.819 307.544 823.539 257.676C794.116 225.978 746.61 211.906 700.789 207.534C654.816 203.162 608.382 206.851 562.409 203.162C495.594 197.834 431.538 177.067 370.393 152.611C293.157 121.597 213.623 78.6964 183.74 8.06105" stroke="white" stroke-miterlimit="10"/>
<path d="M1154.7 577.105C1097.54 595.686 1031.8 592.134 977.703 567.542C923.454 542.949 881.618 497.589 864.915 445.535C844.993 383.234 857.559 309.456 811.279 259.588C781.856 227.891 734.35 213.819 688.53 209.447C642.556 205.075 596.123 208.764 550.149 205.075C483.334 199.746 419.278 178.979 358.133 154.523C281.051 123.509 201.363 80.609 171.634 9.97372" stroke="white" stroke-miterlimit="10"/>
<path d="M1142.44 579.155C1085.28 597.736 1019.54 594.184 965.443 569.591C911.195 544.998 869.359 499.639 852.655 447.585C832.733 385.283 845.299 311.506 799.019 261.637C769.596 229.94 722.09 215.868 676.27 211.496C630.296 207.124 583.863 210.813 537.889 207.124C471.075 201.796 407.018 181.029 345.873 156.573C268.791 125.422 189.257 82.6583 159.374 12.023" stroke="white" stroke-miterlimit="10"/>
<path d="M1130.34 581.068C1073.18 599.649 1007.43 596.096 953.338 571.504C899.089 546.911 857.253 501.552 840.549 449.497C820.628 387.196 833.194 313.419 786.914 263.55C757.491 231.853 709.985 217.781 664.164 213.409C618.191 209.037 571.757 212.726 525.784 209.037C458.969 203.708 394.913 182.941 333.768 158.485C256.532 127.471 176.998 84.7078 147.115 14.0725" stroke="white" stroke-miterlimit="10"/>
<path d="M1118.08 582.98C1060.92 601.561 995.174 598.009 941.078 573.416C886.829 548.824 844.993 503.464 828.29 451.41C808.368 389.109 820.934 315.331 774.654 265.463C745.231 233.766 697.725 219.694 651.905 215.322C605.931 210.949 559.498 214.638 513.524 210.949C446.709 205.621 382.653 184.854 321.508 160.398C244.426 129.384 164.738 86.4838 135.009 15.9852" stroke="white" stroke-miterlimit="10"/>
<path d="M1105.82 585.03C1048.66 603.611 982.914 600.058 928.818 575.466C874.57 550.873 832.734 505.514 816.03 453.459C796.108 391.158 808.674 317.381 762.394 267.512C732.971 235.815 685.465 221.743 639.645 217.371C593.671 212.999 547.238 216.688 501.264 212.999C434.45 207.671 370.393 186.903 309.248 162.448C232.013 131.434 152.479 88.6699 122.596 18.0346" stroke="white" stroke-miterlimit="10"/>
<path d="M1093.71 586.943C1036.55 605.524 970.808 601.971 916.713 577.379C862.464 552.786 820.628 507.427 803.924 455.372C784.003 393.071 796.569 319.294 750.289 269.425C720.866 237.728 673.36 223.656 627.539 219.284C581.566 214.912 535.132 218.601 489.159 214.912C422.344 209.583 358.288 188.816 297.143 164.36C219.907 133.346 140.373 90.5827 110.49 19.9474" stroke="white" stroke-miterlimit="10"/>
<path d="M1081.45 588.855C1024.29 607.436 958.549 603.884 904.453 579.291C850.204 554.699 808.368 509.339 791.665 457.285C771.743 394.984 784.309 321.206 738.029 271.338C708.606 239.641 661.1 225.568 615.279 221.196C569.306 216.824 522.873 220.513 476.899 216.824C410.084 211.496 346.028 190.729 284.883 166.273C207.801 135.259 128.266 92.3587 98.3835 21.8601" stroke="white" stroke-miterlimit="10"/>
<path d="M1069.34 590.905C1012.18 609.486 946.441 605.933 892.346 581.341C838.097 556.748 796.261 511.389 779.557 459.334C759.635 397.033 772.202 323.256 725.921 273.387C696.498 241.69 648.992 227.618 603.172 223.246C557.199 218.874 510.765 222.563 464.792 218.874C397.977 213.545 333.921 192.778 272.776 168.322C195.54 137.308 116.006 94.5447 86.1232 23.9094" stroke="white" stroke-miterlimit="10"/>
<path d="M1057.08 592.817C999.924 611.398 934.181 607.846 880.086 583.254C825.837 558.661 784.001 513.301 767.297 461.247C747.376 398.946 759.942 325.168 713.662 275.3C684.239 243.603 636.733 229.531 590.912 225.159C544.939 220.787 498.506 224.475 452.532 220.787C385.717 215.458 321.661 194.691 260.516 170.235C183.28 139.221 103.746 96.4575 73.8634 25.8222" stroke="white" stroke-miterlimit="10"/>
<path d="M1044.82 594.73C987.664 613.311 921.922 609.759 867.826 585.166C813.577 560.574 771.741 515.214 755.038 463.16C735.116 400.859 747.682 327.081 701.402 277.213C671.979 245.516 624.473 231.443 578.653 227.071C532.679 222.699 486.246 226.388 440.272 222.699C373.457 217.371 309.401 196.604 248.256 172.148C171.021 141.134 91.4865 98.3703 61.6037 27.735" stroke="white" stroke-miterlimit="10"/>
<path d="M1032.72 596.78C975.558 615.361 909.816 611.808 855.721 587.216C801.472 562.623 759.636 517.264 742.932 465.209C723.01 402.908 735.576 329.13 689.296 279.262C659.873 247.565 612.367 233.493 566.547 229.121C520.574 224.749 474.14 228.438 428.167 224.749C361.352 219.42 297.295 198.653 236.151 174.197C158.915 143.183 79.3809 100.42 49.4981 29.7844" stroke="white" stroke-miterlimit="10"/>
<path d="M1020.46 598.692C963.299 617.273 897.556 613.721 843.461 589.128C789.212 564.536 747.376 519.176 730.672 467.122C710.751 404.821 723.317 331.043 677.037 281.175C647.614 249.478 600.108 235.405 554.287 231.033C508.314 226.661 461.881 230.35 415.907 226.661C349.092 221.333 285.036 200.566 223.891 176.11C146.655 145.096 67.1211 102.332 37.2383 31.6971" stroke="white" stroke-miterlimit="10"/>
<path d="M1008.2 600.605C951.039 619.186 885.297 615.634 831.201 591.041C776.952 566.449 735.116 521.089 718.413 469.035C698.491 406.734 711.057 332.956 664.777 283.088C635.354 251.391 587.848 237.318 542.028 232.946C496.054 228.574 449.621 232.263 403.647 228.574C336.833 223.246 272.776 202.479 211.631 178.023C134.396 147.009 54.8615 104.245 24.9787 33.6098" stroke="white" stroke-miterlimit="10"/>
<path d="M996.094 602.655C938.933 621.236 873.191 617.683 819.096 593.091C764.847 568.498 723.011 523.139 706.307 471.084C686.385 408.783 698.951 335.005 652.671 285.137C623.248 253.44 575.742 239.368 529.922 234.996C483.949 230.624 437.515 234.313 391.542 230.624C324.727 225.295 260.671 204.528 199.526 180.072C122.29 149.058 42.756 106.295 12.8732 35.6593" stroke="white" stroke-miterlimit="10"/>
<path d="M983.834 604.567C926.674 623.148 860.931 619.596 806.836 595.003C752.587 570.411 710.751 525.051 694.047 472.997C674.126 410.696 686.692 336.918 640.412 287.05C610.989 255.353 563.483 241.28 517.662 236.908C471.689 232.536 425.256 236.225 379.282 232.536C312.467 227.208 248.411 206.441 187.266 181.985C110.03 150.971 30.4962 108.207 0.613362 37.572" stroke="white" stroke-miterlimit="10"/>
</svg>
