<svg width="363" height="296" viewBox="0 0 363 296" fill="none" xmlns="http://www.w3.org/2000/svg">
    <path opacity="0.6" d="M312.198 291.596C312.198 291.596 337.172 297.223 349.471 271.743C365.429 238.68 343.029 207.282 304.407 205.023C248.699 201.76 279.572 117.314 191.67 140.232C166.946 146.678 113.186 113.417 81.534 169.767C76.1497 179.344 60.0662 178.882 38.6262 195.222C0.810642 224.057 14.4315 291.913 46.2784 292.217C78.1531 292.521 312.198 291.596 312.198 291.596Z" fill="white"/>
    <path d="M75.9893 292.013C75.9893 292.013 77.3251 282.948 94.4651 280.512C111.605 278.076 127.538 258.521 155.815 261.354C184.093 264.188 207.541 282.003 239.713 276.535C271.885 271.082 292.035 278.026 299.245 283.511C306.455 288.997 336.325 282.219 338.53 292.278L75.9893 292.013Z" fill="#74B570"/>
    <path d="M107.034 39.1666C107.034 39.1666 83.6961 38.0197 96.0836 109.246C96.0836 109.246 104.413 133.429 93.8896 149H248.656V39.1666H107.034Z" fill="#9BD6E8"/>
    <path d="M125.619 224.328C125.619 224.328 114.804 211.692 124.959 203.683C124.959 203.683 132.376 199.193 138.414 199.562C138.414 199.562 129.851 213.947 132.628 215.366C135.404 216.805 141.016 198.668 141.016 198.668C141.016 198.668 157.888 197.035 163.306 199.64C163.306 199.64 148.879 211.459 151.928 212.159C154.957 212.858 170.528 201.273 170.528 201.273C170.528 201.273 186.217 203.955 185.382 213.539C184.547 223.123 179.13 226.077 176.761 225.825C174.392 225.572 160.471 220.265 160.18 222.209C159.869 224.153 168.257 230.529 174.101 230.821C174.101 230.821 163.034 243.048 155.675 239.51C148.316 235.991 147.695 230.393 143.113 228.293C138.53 226.194 134.608 226.194 136.511 228.332C138.395 230.471 146.705 232.551 149.326 237.197C151.947 241.843 154.296 244.972 146.685 243.826C139.074 242.679 126.706 237.099 126.162 230.723C125.619 224.328 125.619 224.328 125.619 224.328Z" fill="#3566C9"/>
    <path d="M177.654 213.752C177.654 213.752 135.016 212.1 125.599 224.308C125.599 224.308 123.522 230.548 117.114 236.244L116.124 238.965C116.124 238.965 123.502 231.17 126.162 230.704C126.162 230.704 122.027 215.58 177.654 213.752Z" fill="#74B570"/>
    <path d="M117.114 236.245C117.114 236.245 107.969 243.029 107.329 255.12L108.998 255.276C108.998 255.276 111.93 242.757 117.211 237.858C122.493 232.979 117.114 236.245 117.114 236.245Z" fill="#74B570"/>
    <path d="M87.8153 208.446C87.8153 208.446 105.018 198.804 96.9798 185.721C96.9798 185.721 90.553 177.693 83.6797 175.613C83.6797 175.613 87.3493 195.13 83.6797 195.596C80.01 196.063 81.1556 173.552 81.1556 173.552C81.1556 173.552 63.0403 164.824 55.9339 165.523C55.9339 165.523 67.1759 184.574 63.5063 184.127C59.8366 183.66 47.216 164.376 47.216 164.376C47.216 164.376 28.6347 160.936 25.6641 171.958C22.674 182.98 27.4892 188.481 30.2463 189.181C33.0034 189.862 50.6527 189.648 50.2061 191.942C49.7402 194.236 37.8186 197.91 31.1783 195.849C31.1783 195.849 38.5176 213.986 48.148 213.072C57.7785 212.159 60.7686 206.191 66.7293 205.724C72.6901 205.258 77.0588 206.871 74.0687 208.485C71.0786 210.098 61.0016 209.01 56.1863 213.111C51.3711 217.213 47.4685 219.74 56.4193 221.567C65.3702 223.414 81.408 222.248 84.6311 215.366C87.8153 208.446 87.8153 208.446 87.8153 208.446Z" fill="#9CD499"/>
    <path d="M34.1484 175.378C34.1484 175.378 82.3006 190.988 87.8148 208.445C87.8148 208.445 87.5818 216.259 92.3971 225.202V228.642C92.3971 228.642 87.3488 216.94 84.5917 215.326C84.5917 215.326 95.3677 200.164 34.1484 175.378Z" fill="#9CD499"/>
    <path d="M92.3969 225.202C92.3969 225.202 99.8333 236.496 95.5811 250.24L93.6783 249.734C93.6783 249.734 95.5423 234.591 91.6396 226.971C87.7564 219.35 92.3969 225.202 92.3969 225.202Z" fill="#9CD499"/>
    <path d="M115.173 195.129C115.173 195.129 92.4947 182.416 103.077 165.173C103.077 165.173 111.542 154.579 120.609 151.857C120.609 151.857 115.775 177.576 120.609 178.198C125.444 178.8 123.93 149.136 123.93 149.136C123.93 149.136 147.811 137.627 157.189 138.541C157.189 138.541 142.375 163.657 147.21 163.054C152.044 162.452 168.664 137.025 168.664 137.025C168.664 137.025 193.148 132.476 197.09 147.017C201.012 161.538 194.663 168.808 191.051 169.722C187.421 170.636 164.14 170.325 164.742 173.357C165.344 176.39 181.071 181.23 189.828 178.509C189.828 178.509 180.159 202.419 167.461 201.214C154.762 200.009 150.84 192.136 142.977 191.533C135.113 190.931 129.366 193.049 133.308 195.168C137.23 197.287 150.53 195.868 156.879 201.272C163.228 206.677 168.373 210.001 156.568 212.431C144.783 214.861 123.619 213.344 119.386 204.266C115.173 195.129 115.173 195.129 115.173 195.129Z" fill="#74B570"/>
    <path d="M185.906 151.547C185.906 151.547 122.415 172.134 115.173 195.131C115.173 195.131 115.484 205.414 109.135 217.233V221.782C109.135 221.782 115.795 206.347 119.406 204.228C119.406 204.209 105.193 184.245 185.906 151.547Z" fill="#9CD499"/>
    <path d="M109.115 217.234C109.115 217.234 99.3297 232.124 104.902 250.242L107.426 249.561C107.426 249.561 104.98 229.597 110.106 219.566C115.232 209.535 109.115 217.234 109.115 217.234Z" fill="#9CD499"/>
    <path d="M114.416 289.528C138.938 289.528 158.82 269.622 158.82 245.07H69.9912C69.9912 269.622 89.8734 289.528 114.416 289.528Z" fill="#F39892"/>
    <path d="M125.327 289.197C123.522 289.431 121.677 289.547 119.813 289.547C95.2904 289.547 75.4082 269.641 75.4082 245.089H86.4366C86.4366 267.756 103.406 286.476 125.327 289.197Z" fill="#E2847D"/>
    <path d="M159.442 291.783H69.3701C69.3701 288.75 71.8165 286.301 74.8455 286.301H153.947C156.976 286.301 159.442 288.77 159.442 291.783Z" fill="#E2847D"/>
    <path d="M159.83 245.07H68.5347V246.431H159.83V245.07Z" fill="#E2847D"/>
    <path d="M270.346 58.9889C270.346 58.9889 274.188 41.8709 286.703 43.114C286.703 43.114 294.73 45.0318 298.01 49.6167C298.01 49.6167 281.279 54.2453 281.758 57.2817C282.237 60.3182 300.268 50.7839 300.268 50.7839C300.268 50.7839 311.576 61.5597 312.657 67.3784C312.657 67.3784 294.548 65.9274 295.787 68.6063C297.013 71.3025 315.619 73.7324 315.619 73.7324C315.619 73.7324 322.734 86.9106 314.464 93.4465C306.196 100.01 300.605 98.3628 299.405 96.4704C298.204 94.5781 294.302 80.7222 292.523 81.9628C290.772 83.1965 290.538 93.9106 293.777 98.3099C293.777 98.3099 277.327 99.5446 275.833 91.6787C274.338 83.8129 278.51 79.1949 277.494 74.3655C276.478 69.5361 274.17 66.7613 273.553 69.7088C272.935 72.6562 276.15 80.1059 273.954 85.4309C271.731 90.7628 270.594 94.7615 267.023 88.5039C263.465 82.2291 260.657 69.2729 265.522 64.1189C270.346 58.9889 270.346 58.9889 270.346 58.9889Z" fill="#9CD499"/>
    <path d="M310.449 88.1254C310.449 88.1254 285.695 55.1016 269.538 57.6926C269.538 57.6926 262.956 61.0493 254.197 60.7485L251.275 62.1355C251.275 62.1355 262.429 61.5051 264.452 63.0961C264.467 63.1069 274.781 48.1542 310.449 88.1254Z" fill="#9CD499"/>
    <path d="M254.132 58.3414C254.132 58.3414 243.445 56.9538 233.413 65.42L234.258 66.6876C234.258 66.6876 245.932 59.5061 252.892 59.5902C259.851 59.6743 254.132 58.3414 254.132 58.3414Z" fill="#9CD499"/>
    <path d="M190.5 61.3049C190.5 61.3049 167.453 49.2718 177.53 31.718C177.53 31.718 185.684 20.8708 194.655 17.8771C194.655 17.8771 190.577 43.7316 195.431 44.1981C200.285 44.6647 197.897 15.0584 197.897 15.0584C197.897 15.0584 221.43 2.85039 230.827 3.47245C230.827 3.47245 216.77 29.0159 221.585 28.2772C226.4 27.5191 242.263 1.6257 242.263 1.6257C242.263 1.6257 266.611 -3.6424 270.96 10.7623C275.329 25.1669 269.193 32.6122 265.582 33.6231C261.99 34.6339 238.71 35.0227 239.409 38.0358C240.108 41.0489 255.952 45.4228 264.65 42.4291C264.65 42.4291 255.699 66.6118 242.962 65.7954C230.245 64.9595 226.07 57.2226 218.206 56.8532C210.323 56.4839 204.654 58.7777 208.654 60.78C212.653 62.7823 225.895 60.955 232.4 66.1647C238.904 71.3745 244.146 74.5432 232.439 77.323C220.731 80.1028 199.528 79.2086 195.024 70.2665C190.5 61.3049 190.5 61.3049 190.5 61.3049Z" fill="#9CD499"/>
    <path d="M259.912 15.6418C259.912 15.6418 197.062 38.1139 190.499 61.3246C190.499 61.3246 191.101 71.6081 185.121 83.5828L185.257 88.1122C185.257 88.1122 191.451 72.4829 195.004 70.2668C195.004 70.2668 180.209 50.7301 259.912 15.6418Z" fill="#74B570"/>
    <path d="M185.121 83.5827C185.121 83.5827 175.782 98.7455 181.898 116.688L184.403 115.93C184.403 115.93 181.374 96.0628 186.189 85.8766C191.004 75.6903 185.121 83.5827 185.121 83.5827Z" fill="#74B570"/>
    <path d="M278.421 81.3301H116.839V292.307H278.421V81.3301Z" fill="#25A9E0"/>
    <path d="M280.984 81.3301H122.121V292.307H280.984V81.3301Z" fill="#F8FBFF"/>
    <path d="M281.004 81.3298H122.121C122.995 69.2968 121.674 60.5685 119.558 54.2895C115.48 42.2176 108.471 39.1851 108.471 39.1851H258.306C271.101 39.1851 281.004 46.9025 283.702 57.1277C283.8 57.5165 283.897 57.9053 283.974 58.2746C286.537 69.9966 281.101 81.116 281.004 81.3298Z" fill="#F8FBFF"/>
    <path d="M281.003 81.3301H122.121C122.994 69.2971 121.674 60.5687 119.558 54.2898C135.79 57.264 176.001 63.6013 219.046 62.5321C246.889 61.8323 268.888 59.9661 283.974 58.2749C286.537 69.9969 281.1 81.1163 281.003 81.3301Z" fill="#F8FBFF"/>
    <path d="M240.54 129.968H153.284C153.245 129.968 153.226 129.929 153.226 129.91V126.08C153.226 126.041 153.264 126.022 153.284 126.022H240.54C240.579 126.022 240.599 126.061 240.599 126.08V129.91C240.599 129.949 240.579 129.968 240.54 129.968Z" fill="#C6C6C6"/>
    <path d="M207.59 136.636H153.283C153.245 136.636 153.225 136.598 153.225 136.578V132.749C153.225 132.71 153.264 132.69 153.283 132.69H207.61C207.649 132.69 207.668 132.729 207.668 132.749V136.578C207.668 136.598 207.629 136.636 207.59 136.636Z" fill="#C6C6C6"/>
    <path d="M240.54 144.897H153.284C153.245 144.897 153.226 144.858 153.226 144.839V141.009C153.226 140.97 153.264 140.951 153.284 140.951H240.54C240.579 140.951 240.599 140.99 240.599 141.009V144.839C240.599 144.858 240.579 144.897 240.54 144.897Z" fill="#C6C6C6"/>
    <path d="M207.59 151.545H153.283C153.245 151.545 153.225 151.507 153.225 151.487V147.657C153.225 147.619 153.264 147.599 153.283 147.599H207.61C207.649 147.599 207.668 147.638 207.668 147.657V151.487C207.668 151.526 207.629 151.545 207.59 151.545Z" fill="#C6C6C6"/>
    <path d="M240.541 158.544H153.284C153.245 158.544 153.226 158.505 153.226 158.485V154.656C153.226 154.617 153.265 154.597 153.284 154.597H240.541C240.58 154.597 240.599 154.636 240.599 154.656V158.485C240.599 158.505 240.58 158.544 240.541 158.544Z" fill="#C6C6C6"/>
    <path d="M240.54 218.204H153.283C153.245 218.204 153.225 218.165 153.225 218.145V214.316C153.225 214.277 153.264 214.257 153.283 214.257H240.54C240.579 214.257 240.598 214.296 240.598 214.316V218.145C240.598 218.184 240.579 218.204 240.54 218.204Z" fill="#C6C6C6"/>
    <path d="M207.59 224.871H153.283C153.245 224.871 153.225 224.833 153.225 224.813V220.984C153.225 220.945 153.264 220.925 153.283 220.925H207.61C207.649 220.925 207.668 220.964 207.668 220.984V224.813C207.668 224.833 207.629 224.871 207.59 224.871Z" fill="#C6C6C6"/>
    <path d="M240.54 231.85H153.283C153.245 231.85 153.225 231.811 153.225 231.792V227.962C153.225 227.923 153.264 227.904 153.283 227.904H240.54C240.579 227.904 240.598 227.943 240.598 227.962V231.792C240.598 231.831 240.579 231.85 240.54 231.85Z" fill="#C6C6C6"/>
    <path d="M207.59 209.902H153.283C153.245 209.902 153.225 209.863 153.225 209.844V171.023C153.225 170.985 153.264 170.965 153.283 170.965H207.61C207.649 170.965 207.668 171.004 207.668 171.023V209.844C207.668 209.883 207.629 209.902 207.59 209.902Z" fill="#CAE0FF"/>
    <path d="M230.773 95.3458H175.185C175.146 95.3458 175.107 95.3069 175.107 95.268V90.8358C175.107 90.7969 175.146 90.7581 175.185 90.7581H230.773C230.812 90.7581 230.851 90.7969 230.851 90.8358V95.268C230.851 95.3069 230.812 95.3458 230.773 95.3458Z" fill="#C6C6C6"/>
    <path d="M244.831 102.421H161.127C161.089 102.421 161.05 102.382 161.05 102.343V97.9113C161.05 97.8724 161.089 97.8335 161.127 97.8335H244.831C244.87 97.8335 244.908 97.8724 244.908 97.9113V102.343C244.908 102.382 244.87 102.421 244.831 102.421Z" fill="#C6C6C6"/>
    <path d="M301.915 191.921C301.915 191.921 301.352 197.462 300.711 198.511C300.09 199.561 297.43 202.905 296.284 203.566C295.158 204.227 296.983 199.153 296.75 198.161C296.517 197.17 295.818 199.969 295.313 200.028C294.808 200.086 294.944 197.578 294.925 196.665C294.905 195.751 297.352 193.496 298.226 191.552C299.099 189.628 301.915 191.921 301.915 191.921Z" fill="#F09959"/>
    <path d="M233.841 140.776L232.56 138.366C232.56 138.366 233.2 134.07 227.822 131.367C227.822 131.367 225.861 130.57 224.754 132.164C223.745 133.642 226.696 133.37 226.541 135.897C226.385 138.424 227.57 139.901 229.24 140.718L230.618 142.312L233.841 140.776Z" fill="#F09959"/>
    <path d="M284.537 135.022C284.537 135.022 279.936 157.669 254.578 165.056C246.656 167.369 228.677 141.282 228.677 141.282C228.677 141.282 229.318 138.871 233.278 139.435C233.278 139.435 250.792 151.04 252.986 152.304C254.947 153.431 267.8 137.919 273.664 135.43C279.528 132.903 284.537 135.022 284.537 135.022Z" fill="#25A9E0"/>
    <path d="M217.084 130.563L216.365 135.251L239.912 138.872L240.631 134.184L217.084 130.563Z" fill="#2F333A"/>
    <path d="M211.26 132.068L216.367 135.256L217.085 130.571L211.26 132.068Z" fill="#F09959"/>
    <path d="M243.123 136.169L242.89 137.646C242.754 138.56 241.899 139.182 240.987 139.046L239.899 138.871L240.618 134.186L241.802 134.361C242.676 134.497 243.258 135.294 243.123 136.169Z" fill="#797979"/>
    <path d="M314.808 277.319C314.808 277.319 317.953 280.196 317.332 282.238C316.71 284.279 313.876 285.64 313.487 288.128C313.099 290.616 311.565 291.977 310.186 291.977C308.808 291.977 303.604 291.977 303.604 291.977C303.604 291.977 302.595 290.227 305.041 289.683C307.488 289.158 308.42 286.223 308.264 283.501C308.109 280.78 308.497 277.144 308.497 277.144L313.72 275.939L314.808 277.319Z" fill="#2F333A"/>
    <path d="M276.227 284.765C276.227 284.765 276.79 291.296 275.412 291.977L257.743 291.938C257.743 291.938 257.743 289.897 260.578 289.45C263.413 289.002 268.403 287.331 269.238 283.618C270.092 279.924 276.227 284.765 276.227 284.765Z" fill="#2F333A"/>
    <path d="M261.315 192.388C261.315 192.388 262.247 203.858 263.335 217.64C264.83 236.361 266.616 259.357 266.791 263.712C267.101 271.274 268.325 283.365 268.325 283.365C268.325 283.365 271.237 286.242 277.062 285.037C277.062 285.037 282.266 267.775 283.741 249.502C283.761 249.21 283.78 248.899 283.819 248.607C285.197 230.004 287.353 190.833 287.353 190.833L261.315 192.388Z" fill="#4E4E4E"/>
    <path d="M261.315 192.388C261.315 192.388 262.247 203.857 263.335 217.639L283.761 249.481C283.78 249.19 283.799 248.879 283.838 248.587C285.217 229.984 287.372 190.813 287.372 190.813L261.315 192.388Z" fill="#2F333A"/>
    <path d="M265.568 193.749C265.568 193.749 282.363 235.272 293.411 254.77C304.459 274.287 307.915 279.73 307.915 279.73C307.915 279.73 314.244 277.242 314.827 275.531C314.827 275.531 310.594 237.857 303.197 228.682C299.022 223.491 294.11 207.92 293.877 202.477C293.644 197.034 292.382 186.265 292.382 186.265L265.568 193.749Z" fill="#4E4E4E"/>
    <path d="M287.663 129.774C287.663 129.774 276.305 135.255 269.742 133.234C269.742 133.234 271.354 131.193 274.169 129.676C273.936 128.354 273.761 127.208 273.664 126.255C273.392 124.019 273.392 122.756 273.392 122.756L277.78 119.296L281.936 115.991C281.625 125.264 287.663 129.774 287.663 129.774Z" fill="#F09959"/>
    <path d="M293.663 188.384C293.683 189.084 292.207 189.881 291.547 190.173C286.673 192.311 282.149 193.808 277.004 194.294C270.927 194.916 263.743 193.555 261.277 193.594C261.024 193.594 260.791 193.497 260.597 193.322C260.423 193.205 260.287 185.876 260.423 176.643C260.423 176.273 260.423 175.904 260.442 175.515V175.399C260.5 171.802 260.617 168.012 260.791 164.24C261.141 155.94 261.801 147.95 262.908 143.518C264.248 138.308 267.276 134.848 270.014 132.34L272.286 130.357C274.558 130.804 276.946 130.688 279.334 129.521C281.955 128.258 284.77 126.897 285.236 127.227C288.673 129.735 290.984 135.373 292.226 142.585C292.925 146.725 293.294 151.371 293.255 156.251C293.255 158.039 293.197 159.886 293.1 161.694C292.498 171.53 293.1 180.083 293.45 185.021C293.566 186.479 293.624 187.587 293.663 188.384Z" fill="#25A9E0"/>
    <path d="M293.449 187.937C253.646 187.859 286.11 144.703 286.11 144.703L292.556 142.604C293.061 147.036 293.313 151.993 293.294 157.203C293.294 159.108 293.255 161.071 293.177 163.015C292.77 173.513 293.197 182.649 293.449 187.937Z" fill="#0E85AA"/>
    <path d="M282.013 119.529C282.013 119.529 279.14 124.778 273.664 126.236C273.393 124 273.393 122.737 273.393 122.737L277.781 119.277L282.013 119.529Z" fill="#E38540"/>
    <path d="M271.411 122.581C271.411 122.581 282.246 124.35 283.275 117.682C284.284 111.014 286.381 106.737 279.489 105.318C272.615 103.899 270.868 106.251 269.975 108.39C269.101 110.547 268.616 121.939 271.411 122.581Z" fill="#F09959"/>
    <path d="M287.197 104.521C287.294 104.405 287.527 104.327 288.032 104.288C288.032 104.288 287.625 104.036 287.081 104.016C286.984 103.316 286.596 102.072 285.392 101.761C285.392 101.761 286.032 102.111 286.129 102.85C284.732 101.411 281.722 100.361 273.412 101.022C262.461 101.897 266.073 108.915 267.49 109.751C268.907 110.587 272.48 108.293 275.121 108.507C277.761 108.72 278.266 112.531 279.159 113.055C280.052 113.58 279.703 112.647 280.907 112.103C282.11 111.559 282.227 113.561 281.877 114.883C281.528 116.185 283.198 117.915 283.198 117.915C283.198 117.915 283.198 117.915 284.887 116.107C286.576 114.3 288.149 106.602 287.392 104.969C287.333 104.813 287.275 104.677 287.197 104.521Z" fill="#2F333A"/>
    <path d="M285.236 127.188C285.236 127.188 292.09 130.435 295.391 135.45C300.497 143.206 306.4 171.471 306.516 174.096C306.633 176.72 302.206 195.188 302.206 195.188C302.206 195.188 297.721 194.896 296.556 192.621C296.556 192.621 297.449 173.629 296.886 172.404C296.323 171.18 278.169 146.939 280.207 141.768C282.246 136.577 285.236 127.188 285.236 127.188Z" fill="#25A9E0"/>
    <path d="M232.559 138.249C232.559 138.249 232.928 136.772 231.919 136.111C230.89 135.45 229.958 133.642 229.53 133.895C228.637 134.4 230.016 135.975 229.763 137.938C229.647 138.618 231.259 140.426 232.559 138.249Z" fill="#F09959"/>
    <path d="M353.194 295.506H2.1457C1.3364 295.506 0.669922 294.534 0.669922 293.354C0.669922 292.174 1.3364 291.202 2.1457 291.202H353.194C354.003 291.202 354.67 292.174 354.67 293.354C354.67 294.534 354.003 295.506 353.194 295.506Z" fill="#2F333A"/>
    <path d="M80.5843 291.513C80.5843 291.513 64.4688 250.204 53.1686 256.774C41.8684 263.345 80.5843 291.513 80.5843 291.513Z" fill="#74B570"/>
    <path d="M72.624 291.512C72.624 291.512 51.3439 273.084 41.6163 276.505C31.8694 279.926 72.624 291.512 72.624 291.512Z" fill="#74B570"/>
    <path d="M283.295 283.928C283.295 283.928 288.207 266.841 293.954 268.863C299.721 270.884 283.295 283.928 283.295 283.928Z" fill="#74B570"/>
    <path d="M287.78 282.995C287.78 282.995 300.303 274.772 303.06 277.3C305.798 279.846 287.78 282.995 287.78 282.995Z" fill="#74B570"/>
    <path d="M244.986 246.43H147.284C146.624 246.43 146.1 245.886 146.1 245.244C146.1 244.583 146.643 244.058 147.284 244.058H244.986C245.646 244.058 246.171 244.603 246.171 245.244C246.171 245.886 245.627 246.43 244.986 246.43Z" fill="#C6C6C6"/>
    <path d="M244.986 251.192H147.284C146.624 251.192 146.1 250.648 146.1 250.006C146.1 249.345 146.643 248.82 147.284 248.82H244.986C245.646 248.82 246.171 249.365 246.171 250.006C246.171 250.648 245.627 251.192 244.986 251.192Z" fill="#C6C6C6"/>
    <path d="M244.986 256.46H147.284C146.624 256.46 146.1 255.916 146.1 255.274C146.1 254.613 146.643 254.089 147.284 254.089H244.986C245.646 254.089 246.171 254.633 246.171 255.274C246.171 255.935 245.627 256.46 244.986 256.46Z" fill="#C6C6C6"/>
    <path d="M233.22 261.749H146.138C146.119 261.749 146.1 261.729 146.1 261.71V259.416C146.1 259.396 146.119 259.377 146.138 259.377H233.22C233.24 259.377 233.259 259.396 233.259 259.416V261.71C233.259 261.729 233.24 261.749 233.22 261.749Z" fill="#C6C6C6"/>
</svg>