<svg width="775" height="483" viewBox="0 0 775 483" fill="none" xmlns="http://www.w3.org/2000/svg">
<path d="M254.624 353.692C254.624 353.692 292.88 361.717 290.955 368.739C289.03 375.76 248.97 356.701 248.97 356.701C248.97 356.701 219.416 383.143 215.326 396.625C215.326 396.625 258.474 390.526 254.865 396.866C251.256 403.205 206.664 411.631 206.664 411.631C206.664 411.631 186.374 442.888 204.178 456.61C221.983 470.373 235.617 465.719 238.945 461.225C242.273 456.731 255.186 424.391 258.995 426.959C262.845 429.527 260.519 454.043 251.737 464.595C251.737 464.595 290.274 464.916 295.848 446.66C301.462 428.403 292.84 418.493 296.489 407.258C300.138 396.063 306.354 389.322 307.035 395.943C307.717 402.603 298.133 420.178 301.943 432.014C305.752 443.891 307.437 452.879 317.502 437.993C327.607 423.067 337.632 392.974 327.527 381.899C327.086 381.418 326.685 380.976 326.244 380.535C327.126 381.297 327.527 381.899 327.527 381.899C330.534 379.612 340.76 378.569 348.459 378.087C349.742 378.087 351.547 378.007 354.033 377.807C355.156 377.767 356.038 377.726 356.68 377.726C373.442 377.927 396.981 391.248 396.981 391.248L399.347 388.159C377.532 370.063 351.387 375.078 351.387 375.078C331.457 377.084 317.422 370.785 317.422 370.785C317.422 370.785 312.85 332.185 283.015 336.92C283.056 337.081 263.607 342.738 254.624 353.692Z" fill="#9CD499"/>
<path d="M759.207 28.3656C749.022 -9.31102 685.503 2.48549 685.503 2.48549C685.503 2.48549 642.355 68.3694 629.803 69.9342C617.252 71.4991 655.668 6.37754 655.668 6.37754C631.367 4.01021 569.412 33.8225 569.412 33.8225C569.412 33.8225 573.342 110.7 560.791 109.136C548.239 107.571 560.791 40.8843 560.791 40.8843C537.252 47.9462 515.317 75.3911 515.317 75.3911C487.888 120.13 546.675 153.072 546.675 153.072C546.675 153.072 547.477 179.754 530.996 210.369C530.996 210.369 527.267 216.026 523.497 225.616H529.913C530.435 223.891 530.996 222.246 531.638 220.641V220.601C531.638 220.56 531.638 220.56 531.678 220.52C532.119 219.517 532.76 218.113 533.522 216.387C535.487 212.536 536.811 209.727 537.653 207.681C543.507 195.643 551.968 179.915 557.623 176.624C557.623 176.624 556.901 175.621 556.259 173.695C556.7 174.618 557.141 175.621 557.623 176.624C568.61 200.177 623.508 204.069 654.064 197.81C684.661 191.551 671.307 182.884 654.866 168.88C638.385 154.877 603.898 158.569 593.713 153.072C583.527 147.575 598.405 142.078 618.816 143.642C639.187 145.207 649.412 165.63 682.335 168.76C715.257 171.89 740.36 109.898 740.36 109.898C717.623 116.96 676.841 104.401 675.277 96.5767C673.713 88.7123 734.104 89.5148 743.488 87.1475C752.871 84.7802 769.393 66.0422 759.207 28.3656Z" fill="#9CD499"/>
<path d="M150.203 31.1345C164.238 8.66499 203.256 28.8073 203.256 28.8073C203.256 28.8073 218.334 80.1663 226.193 83.6571C234.053 87.1479 221.862 37.2334 221.862 37.2334C238.143 40.4835 272.549 72.1013 272.549 72.1013C272.549 72.1013 254.865 121.334 263.326 122.778C271.787 124.223 276.76 78.3607 276.76 78.3607C290.675 87.5892 299.537 109.778 299.537 109.778C308.6 144.285 263.848 154.115 263.848 154.115C263.848 154.115 258.073 171.328 262.765 194.44C262.765 194.44 264.088 198.854 264.65 205.835L260.479 204.591C260.479 203.388 260.439 202.184 260.319 201.02C260.319 201.02 260.319 201.02 260.319 200.98V200.94C260.239 200.218 260.078 199.175 259.918 197.891C259.396 195.002 259.076 192.915 258.955 191.39C257.512 182.403 255.106 170.526 252.058 167.276C252.058 167.276 252.7 166.754 253.542 165.631C253.061 166.152 252.579 166.714 252.058 167.276C240.269 180.437 203.817 172.171 185.171 162.06C166.524 151.948 176.87 148.979 190.344 143.081C203.817 137.223 225.512 146.411 233.251 144.846C240.95 143.282 232.369 136.781 218.775 133.772C205.221 130.763 194.554 142.038 172.539 137.584C150.484 133.13 146.394 87.8701 146.394 87.8701C159.787 96.9382 188.78 96.8178 191.346 92.0029C193.913 87.2281 154.494 75.8329 148.84 72.4223C143.186 69.1321 136.168 53.6041 150.203 31.1345Z" fill="#9CD499"/>
<path d="M479.989 28.4457C470.164 12.075 441.813 26.0784 441.813 26.0784C441.813 26.0784 430.304 62.8722 424.61 65.3198C418.916 67.7273 428.299 31.9365 428.299 31.9365C416.55 34.0631 391.327 56.4123 391.327 56.4123C391.327 56.4123 403.437 92.1228 397.302 93.0456C391.166 93.9685 388.199 60.9062 388.199 60.9062C378.053 67.3662 371.397 83.2553 371.397 83.2553C364.419 107.972 396.54 115.636 396.54 115.636C396.54 115.636 400.469 128.114 396.78 144.726C396.78 144.726 395.778 147.895 395.297 152.911L398.304 152.068C398.304 151.186 398.384 150.343 398.464 149.5V149.46C398.545 148.939 398.665 148.176 398.785 147.253C399.186 145.167 399.427 143.682 399.547 142.599C400.71 136.139 402.595 127.633 404.8 125.305C404.8 125.305 404.319 124.944 403.758 124.102C404.079 124.503 404.439 124.904 404.8 125.305C413.101 134.935 439.487 129.438 453.041 122.417C466.595 115.355 459.176 113.108 449.552 108.694C439.928 104.28 424.169 110.66 418.635 109.416C413.101 108.172 419.397 103.598 429.181 101.632C439.006 99.6661 446.505 107.892 462.465 104.963C478.384 102.033 481.953 69.4927 481.953 69.4927C472.169 75.8725 451.317 75.391 449.512 71.9002C447.708 68.4094 476.259 60.7055 480.39 58.3382C484.56 55.8906 489.813 44.8164 479.989 28.4457Z" fill="#9CD499"/>
<path d="M1.39051 461.346C1.06971 461.426 0.668705 461.506 0.1875 461.627C0.588504 461.506 0.989508 461.426 1.39051 461.346Z" fill="#95C38B"/>
<path d="M402.073 234.283L382.785 463.753C382.785 463.753 380.78 477.676 391.086 477.676C408.088 477.716 475.697 477.676 475.697 477.676C475.697 477.676 462.905 474.787 463.066 468.247C463.266 460.583 485.602 232.076 485.602 232.076L402.073 234.283Z" fill="#25A9E0"/>
<path d="M481.231 473.502C477.903 473.502 413.301 473.703 396.74 473.502C389.522 473.422 388.279 467.083 388.198 462.99C388.158 461.024 388.399 459.579 388.399 459.579L388.92 453.601L390.203 438.394L391.326 424.952L392.77 407.699L393.973 393.134L407.687 230.069L491.256 227.902C491.256 227.902 481.833 323.518 475.176 393.134C474.414 400.878 473.732 408.341 473.091 415.282C472.89 417.489 472.69 419.656 472.489 421.782C471.888 428.363 471.326 434.421 470.805 439.758C470.564 442.567 470.324 445.175 470.083 447.582C469.241 456.971 468.72 462.95 468.72 464.113C468.72 464.796 468.76 465.397 468.88 465.959C470.244 473.262 479.988 473.502 481.231 473.502Z" fill="#9BD6E8"/>
<path d="M199.165 109.416L246.163 298.24L252.579 324.08L274.474 412.033H680.971L600.329 109.416H199.165Z" fill="#9BD6E8"/>
<path d="M199.165 109.417L192.669 111.584L265.812 418.614L274.474 412.033L199.165 109.417Z" fill="#9BD6E8"/>
<path d="M265.812 418.613H669.823L680.971 412.032H274.474L265.812 418.613Z" fill="#25A9E0"/>
<path d="M407.695 477.748H495.154V473.575H407.695V477.748Z" fill="#9BD6E8"/>
<path d="M472.931 418.613L472.49 421.783L390.204 438.435L391.326 424.993L391.888 418.613H472.931Z" fill="#25A9E0"/>
<path opacity="0.4" d="M481.231 473.503C477.903 473.503 413.301 473.704 396.74 473.503C389.522 473.423 388.278 467.083 388.198 462.991L470.083 447.583C469.241 456.972 468.72 462.951 468.72 464.114C468.72 464.796 468.76 465.398 468.88 465.96C470.244 473.263 479.988 473.503 481.231 473.503Z" fill="#25A9E0"/>
<path d="M453.04 350.763L274.473 412.032L252.579 324.08L453.04 350.763Z" fill="#25A9E0"/>
<path d="M199.165 109.416H600.329L665.412 352.649H259.676L199.165 109.416Z" fill="#808080"/>
<path d="M486.504 391.395C490.135 387.391 489.131 380.559 484.26 376.137C479.389 371.714 472.497 371.374 468.866 375.378C465.234 379.382 466.239 386.213 471.11 390.636C475.98 395.059 482.873 395.398 486.504 391.395Z" fill="#25A9E0"/>
<path d="M646.485 342.097H270.905L228.359 172.532L225.07 159.532L222.303 148.458L215.767 122.457H585.974L593.152 148.458L596.199 159.532L599.768 172.532L646.485 342.097Z" fill="#E4EDF9"/>
<path d="M593.152 148.458H222.303L215.767 122.457H585.974L593.152 148.458Z" fill="#9EC8FF"/>
<path d="M231.085 134.172C230.644 132.366 231.727 130.922 233.531 130.922C235.336 130.922 237.14 132.366 237.581 134.172C238.023 135.978 236.94 137.422 235.135 137.422C233.371 137.422 231.526 135.978 231.085 134.172Z" fill="#E9F3FE"/>
<path d="M241.912 134.172C241.471 132.366 242.554 130.922 244.358 130.922C246.163 130.922 247.967 132.366 248.409 134.172C248.85 135.978 247.767 137.422 245.962 137.422C244.158 137.422 242.353 135.978 241.912 134.172Z" fill="#E9F3FE"/>
<path d="M253.501 134.172C253.06 132.366 254.143 130.922 255.947 130.922C257.752 130.922 259.556 132.366 259.997 134.172C260.439 135.978 259.356 137.422 257.551 137.422C255.787 137.422 253.982 135.978 253.501 134.172Z" fill="#E9F3FE"/>
<path d="M563.758 327.049H285.542L243.196 160.774H517.482L563.758 327.049Z" fill="#CAE0FF"/>
<path d="M599.728 199.494H536.69L525.141 160.774H588.981L599.728 199.494Z" fill="#D2E3FC"/>
<path d="M429.622 176.985H303.532L302.048 171.408H428.138L429.622 176.985Z" fill="#4E4E4E"/>
<path d="M493.582 176.985H434.554L433.071 171.408H492.099L493.582 176.985Z" fill="#78ACEA"/>
<path d="M435.677 191.991H291.677L290.193 186.414H434.194L435.677 191.991Z" fill="#78ACEA"/>
<path d="M474.615 191.991H441.452L439.928 186.414H473.131L474.615 191.991Z" fill="#F09959"/>
<path d="M440.489 217.791H334.439L332.915 212.214H439.005L440.489 217.791Z" fill="#699DEE"/>
<path d="M504.449 217.791H445.462L443.978 212.214H502.966L504.449 217.791Z" fill="#78ACEA"/>
<path d="M446.544 232.798H352.584L351.101 227.221H445.061L446.544 232.798Z" fill="white"/>
<path d="M485.482 232.798H452.319L450.835 227.221H483.998L485.482 232.798Z" fill="white"/>
<path d="M407.807 255.989H285.742L284.258 250.452H406.324L407.807 255.989Z" fill="#4E4E4E"/>
<path d="M451.717 255.989H415.627L414.143 250.452H450.233L451.717 255.989Z" fill="#699DEE"/>
<path d="M515.677 255.989H456.65L455.166 250.452H514.194L515.677 255.989Z" fill="#78ACEA"/>
<path d="M325.842 270.996H289.752L288.268 265.459H324.358L325.842 270.996Z" fill="white"/>
<path d="M457.772 270.996H393.772L392.289 265.459H456.289L457.772 270.996Z" fill="#F09959"/>
<path d="M389.802 270.996H330.775L329.291 265.459H388.319L389.802 270.996Z" fill="#78ACEA"/>
<path d="M496.67 270.996H463.507L462.023 265.459H495.186L496.67 270.996Z" fill="#78ACEA"/>
<path d="M421.682 297.398H299.617L298.133 291.86H420.198L421.682 297.398Z" fill="#4E4E4E"/>
<path d="M465.552 297.398H429.462L427.978 291.86H464.068L465.552 297.398Z" fill="#699DEE"/>
<path d="M339.677 312.404H303.627L302.143 306.827H338.193L339.677 312.404Z" fill="white"/>
<path d="M471.607 312.404H407.647L406.163 306.827H470.123L471.607 312.404Z" fill="#F09959"/>
<path d="M403.677 312.404H344.649L343.166 306.827H402.193L403.677 312.404Z" fill="#78ACEA"/>
<path d="M510.545 312.404H477.382L475.898 306.827H509.061L510.545 312.404Z" fill="#78ACEA"/>
<path d="M568.329 211.451L540.58 211.531L539.979 209.003L567.728 208.923L568.329 211.451Z" fill="#78ACEA"/>
<path d="M582.966 211.411H572.54L571.938 208.923L582.364 208.883L582.966 211.411Z" fill="#78ACEA"/>
<path d="M604.139 211.331L585.693 211.371L585.051 208.883L603.497 208.803L604.139 211.331Z" fill="#78ACEA"/>
<path d="M557.342 217.872L542.143 217.912L541.542 215.384L556.74 215.344L557.342 217.872Z" fill="#78ACEA"/>
<path d="M579.557 217.791L559.908 217.831L559.267 215.343L578.916 215.263L579.557 217.791Z" fill="#78ACEA"/>
<path d="M605.663 217.71L583.166 217.791L582.565 215.263L605.061 215.183L605.663 217.71Z" fill="#78ACEA"/>
<path d="M571.658 225.055L543.908 225.135L543.307 222.648L571.056 222.527L571.658 225.055Z" fill="#78ACEA"/>
<path d="M586.294 225.015L575.868 225.055L575.267 222.527L585.693 222.487L586.294 225.015Z" fill="#78ACEA"/>
<path d="M607.426 224.974L589.021 225.014L588.379 222.486L606.825 222.446L607.426 224.974Z" fill="#78ACEA"/>
<path d="M560.67 231.474L545.472 231.514L544.831 229.027L560.069 228.946L560.67 231.474Z" fill="#78ACEA"/>
<path d="M582.845 231.434L563.196 231.474L562.595 228.946L582.244 228.906L582.845 231.434Z" fill="#78ACEA"/>
<path d="M608.991 231.314L586.495 231.394L585.853 228.866L608.389 228.826L608.991 231.314Z" fill="#78ACEA"/>
<path d="M549.883 166.153L533.201 166.233L532.8 164.708L549.522 164.628L549.883 166.153Z" fill="white"/>
<path d="M558.705 166.152H552.409L552.048 164.627H558.344L558.705 166.152Z" fill="white"/>
<path d="M571.457 166.112H560.349L559.988 164.627L571.096 164.587L571.457 166.112Z" fill="white"/>
<path d="M543.266 170.044H534.124L533.763 168.52H542.906L543.266 170.044Z" fill="white"/>
<path d="M556.66 169.963L544.83 170.003L544.429 168.519L556.259 168.479L556.66 169.963Z" fill="white"/>
<path d="M572.379 169.924L558.825 169.964L558.464 168.44L572.018 168.399L572.379 169.924Z" fill="white"/>
<path d="M551.888 174.378L535.166 174.418L534.805 172.894L551.527 172.854L551.888 174.378Z" fill="white"/>
<path d="M560.71 174.338L554.415 174.378L554.054 172.854L560.35 172.813L560.71 174.338Z" fill="white"/>
<path d="M573.462 174.297L562.354 174.337L561.953 172.813L573.061 172.772L573.462 174.297Z" fill="white"/>
<path d="M545.271 178.23L536.128 178.27L535.768 176.745L544.91 176.705L545.271 178.23Z" fill="white"/>
<path d="M558.625 178.189L546.795 178.229L546.435 176.704L558.264 176.664L558.625 178.189Z" fill="white"/>
<path d="M574.385 178.149L560.831 178.189L560.47 176.664L574.024 176.624L574.385 178.149Z" fill="white"/>
<path d="M577.311 248.327L549.562 248.447L548.96 245.919L576.71 245.839L577.311 248.327Z" fill="#78ACEA"/>
<path d="M591.949 248.286L581.522 248.326L580.921 245.798H591.347L591.949 248.286Z" fill="#78ACEA"/>
<path d="M613.121 248.246L594.675 248.286L594.074 245.758L612.52 245.718L613.121 248.246Z" fill="#78ACEA"/>
<path d="M566.365 254.747L551.126 254.827L550.525 252.299L565.723 252.259L566.365 254.747Z" fill="#78ACEA"/>
<path d="M588.54 254.706L568.891 254.746L568.249 252.218L587.898 252.178L588.54 254.706Z" fill="#78ACEA"/>
<path d="M614.685 254.625L592.148 254.666L591.547 252.178L614.043 252.098L614.685 254.625Z" fill="#78ACEA"/>
<path d="M582.886 271.156L555.136 271.236L554.535 268.708L582.284 268.628L582.886 271.156Z" fill="#78ACEA"/>
<path d="M597.522 271.116L587.096 271.156L586.495 268.628L596.921 268.588L597.522 271.116Z" fill="#78ACEA"/>
<path d="M618.655 271.036L600.249 271.116L599.607 268.588L618.054 268.508L618.655 271.036Z" fill="#78ACEA"/>
<path d="M571.898 277.577L556.7 277.617L556.059 275.089L571.297 275.049L571.898 277.577Z" fill="#78ACEA"/>
<path d="M594.074 277.496L574.424 277.576L573.823 275.048L593.472 274.968L594.074 277.496Z" fill="#78ACEA"/>
<path d="M620.219 277.416L597.723 277.496L597.081 274.968L619.617 274.888L620.219 277.416Z" fill="#78ACEA"/>
<path d="M587.898 291.702L560.149 291.822L559.547 289.294L587.297 289.214L587.898 291.702Z" fill="#78ACEA"/>
<path d="M602.535 291.662L592.108 291.702L591.467 289.174L601.933 289.134L602.535 291.662Z" fill="#78ACEA"/>
<path d="M623.667 291.621L605.221 291.661L604.62 289.133L623.066 289.093L623.667 291.621Z" fill="#78ACEA"/>
<path d="M576.911 298.121L561.712 298.161L561.071 295.673L576.309 295.593L576.911 298.121Z" fill="#78ACEA"/>
<path d="M599.086 298.081L579.437 298.121L578.835 295.593L598.485 295.553L599.086 298.081Z" fill="#78ACEA"/>
<path d="M625.232 298.001L602.735 298.041L602.094 295.513L624.63 295.473L625.232 298.001Z" fill="#78ACEA"/>
<path d="M600.971 322.276C596.52 322.276 591.828 318.664 590.505 314.171C589.222 309.717 591.788 306.065 596.239 306.065C600.69 306.065 605.382 309.677 606.705 314.171C607.989 318.664 605.422 322.276 600.971 322.276ZM596.68 307.59C593.031 307.59 590.946 310.559 591.989 314.211C593.071 317.862 596.881 320.831 600.53 320.831C604.179 320.831 606.264 317.862 605.222 314.211C604.139 310.559 600.329 307.59 596.68 307.59Z" fill="#9CD499"/>
<path d="M599.648 318.302C599.327 318.262 599.006 318.142 598.726 317.941L594.194 314.29C593.593 313.808 593.352 313.006 593.713 312.565C594.074 312.083 594.836 312.123 595.477 312.605L598.685 315.173L600.33 311.361C600.57 310.799 601.292 310.679 601.974 311.08C602.655 311.481 602.976 312.244 602.736 312.805L600.57 317.821C600.45 318.102 600.169 318.302 599.808 318.343C599.768 318.302 599.688 318.302 599.648 318.302Z" fill="#9CD499"/>
<path d="M623.307 322.275C618.856 322.275 614.164 318.663 612.841 314.17C611.558 309.716 614.124 306.064 618.575 306.064C623.026 306.064 627.718 309.676 629.041 314.17C630.325 318.663 627.758 322.275 623.307 322.275ZM619.016 307.589C615.367 307.589 613.282 310.558 614.325 314.21C615.367 317.861 619.217 320.83 622.866 320.83C626.515 320.83 628.6 317.861 627.558 314.21C626.475 310.558 622.665 307.589 619.016 307.589Z" fill="#F09959"/>
<path d="M621.342 315.534C620.7 315.534 620.059 315.012 619.858 314.37L618.856 310.919C618.655 310.277 619.056 309.756 619.658 309.756C620.299 309.756 620.941 310.277 621.142 310.919L622.144 314.37C622.304 315.012 621.944 315.534 621.342 315.534Z" fill="#F09959"/>
<path d="M622.224 318.222H621.984C621.422 318.222 620.821 317.781 620.66 317.219C620.5 316.657 620.821 316.216 621.382 316.216H621.623C622.184 316.216 622.786 316.657 622.946 317.219C623.106 317.741 622.786 318.222 622.224 318.222Z" fill="#F09959"/>
<path d="M576.108 195.763C573.662 195.763 571.096 193.757 570.374 191.309C569.652 188.862 571.056 186.855 573.502 186.855C575.948 186.855 578.515 188.862 579.236 191.309C579.958 193.757 578.555 195.763 576.108 195.763ZM573.743 187.698C571.737 187.698 570.575 189.343 571.176 191.309C571.778 193.315 573.863 194.92 575.868 194.92C577.873 194.92 579.036 193.275 578.434 191.309C577.833 189.303 575.748 187.698 573.743 187.698Z" fill="#9CD499"/>
<path d="M575.347 193.557C575.187 193.557 574.986 193.477 574.866 193.356L572.38 191.35C572.059 191.069 571.939 190.668 572.139 190.387C572.34 190.146 572.781 190.146 573.101 190.427L574.866 191.831L575.748 189.745C575.868 189.424 576.269 189.384 576.63 189.585C576.991 189.785 577.192 190.227 577.071 190.548L575.868 193.276C575.788 193.436 575.628 193.557 575.467 193.557C575.427 193.557 575.387 193.557 575.347 193.557Z" fill="#9CD499"/>
<path d="M563.397 195.763C560.95 195.763 558.384 193.757 557.662 191.309C556.94 188.862 558.344 186.855 560.79 186.855C563.236 186.855 565.802 188.862 566.524 191.309C567.246 193.757 565.843 195.763 563.397 195.763ZM561.031 187.698C559.026 187.698 557.863 189.343 558.464 191.309C559.066 193.315 561.151 194.92 563.156 194.92C565.161 194.92 566.324 193.275 565.722 191.309C565.161 189.303 563.036 187.698 561.031 187.698Z" fill="#9CD499"/>
<path d="M562.675 193.557C562.514 193.557 562.314 193.477 562.194 193.356L559.707 191.35C559.386 191.069 559.266 190.668 559.467 190.387C559.667 190.146 560.108 190.146 560.429 190.427L562.194 191.831L563.076 189.745C563.196 189.424 563.597 189.384 563.958 189.585C564.319 189.785 564.519 190.227 564.399 190.548L563.196 193.276C563.116 193.436 562.955 193.557 562.795 193.557C562.755 193.557 562.715 193.557 562.675 193.557Z" fill="#9CD499"/>
<path d="M550.244 195.763C547.798 195.763 545.231 193.757 544.509 191.309C543.788 188.862 545.191 186.855 547.637 186.855C550.083 186.855 552.65 188.862 553.372 191.309C554.133 193.757 552.69 195.763 550.244 195.763ZM547.918 187.698C545.913 187.698 544.75 189.343 545.351 191.309C545.953 193.315 548.038 194.92 550.043 194.92C552.048 194.92 553.211 193.275 552.61 191.309C552.008 189.303 549.923 187.698 547.918 187.698Z" fill="#9CD499"/>
<path d="M549.522 193.557C549.361 193.557 549.161 193.477 549.041 193.356L546.554 191.35C546.234 191.069 546.113 190.668 546.314 190.387C546.514 190.146 546.955 190.146 547.276 190.427L549.041 191.831L549.923 189.745C550.043 189.424 550.444 189.384 550.805 189.585C551.166 189.785 551.366 190.227 551.246 190.548L550.043 193.276C549.963 193.436 549.803 193.557 549.642 193.557C549.602 193.557 549.562 193.557 549.522 193.557Z" fill="#9CD499"/>
<path d="M588.339 195.763C585.893 195.763 583.326 193.757 582.605 191.309C581.883 188.862 583.286 186.855 585.732 186.855C588.178 186.855 590.745 188.862 591.467 191.309C592.189 193.757 590.785 195.763 588.339 195.763ZM585.973 187.698C583.968 187.698 582.805 189.343 583.407 191.309C584.008 193.315 586.093 194.92 588.098 194.92C590.103 194.92 591.266 193.275 590.665 191.309C590.063 189.303 587.978 187.698 585.973 187.698Z" fill="#F09959"/>
<path d="M587.257 192.032C586.896 192.032 586.535 191.751 586.455 191.39L585.893 189.504C585.813 189.143 585.973 188.862 586.334 188.862C586.695 188.862 587.056 189.143 587.136 189.504L587.698 191.39C587.778 191.751 587.577 192.032 587.257 192.032Z" fill="#F09959"/>
<path d="M587.738 193.517H587.618C587.297 193.517 586.976 193.276 586.896 192.955C586.816 192.634 586.976 192.394 587.297 192.394H587.417C587.738 192.394 588.059 192.634 588.139 192.955C588.219 193.276 588.059 193.517 587.738 193.517Z" fill="#F09959"/>
<path d="M772.154 483H43.1757C41.8179 483 40.6997 481.474 40.6997 479.622C40.6997 477.769 41.8179 476.243 43.1757 476.243H772.154C773.511 476.243 774.63 477.769 774.63 479.622C774.63 481.474 773.511 483 772.154 483Z" fill="#2F333A"/>
<path d="M161.271 318.664C161.271 318.664 167.968 320.389 172.218 319.105C176.469 317.821 183.767 319.948 184.97 321.473C186.133 323.038 185.732 323.639 183.607 324.161C181.521 324.683 174.063 327.893 169.171 326.047C164.278 324.201 157.902 324.121 157.902 324.121L161.271 318.664Z" fill="#F09959"/>
<path d="M103.486 260.564C103.486 260.564 110.985 313.97 123.416 318.744C129.551 321.112 156.659 326.448 164.679 327.01C164.679 327.01 166.644 325.405 166.163 318.905C166.163 318.905 137.772 308.473 133.722 302.775C127.706 294.309 137.451 268.268 129.912 260.324C122.373 252.419 109.701 249.009 103.486 260.564Z" fill="#0E85AA"/>
<path d="M107.817 472.299H111.426C113.271 472.299 114.795 470.775 114.795 468.929V384.748C114.795 382.903 113.271 381.378 111.426 381.378H107.817C105.973 381.378 104.449 382.903 104.449 384.748V468.929C104.449 470.775 105.973 472.299 107.817 472.299Z" fill="#4E4E4E"/>
<path d="M77.5815 478.278C80.95 471.336 94.0227 466.12 109.622 466.12C125.221 466.12 138.293 471.296 141.662 478.278H77.5815Z" fill="#2F333A"/>
<path d="M86.1224 454.685H133.16C133.641 454.685 134.042 454.284 134.042 453.803V451.957C134.042 451.475 133.641 451.074 133.16 451.074H86.1224C85.6412 451.074 85.2402 451.475 85.2402 451.957V453.803C85.2402 454.284 85.6412 454.685 86.1224 454.685Z" fill="#2F333A"/>
<path d="M106.013 373.073C108.218 376.804 110.745 380.255 113.351 383.585C121.411 393.777 130.193 402.203 131.757 410.148C132.078 411.712 132.559 413.438 133.161 415.243C133.802 417.049 134.604 418.975 135.487 420.941C138.895 428.404 144.028 436.71 149.161 444.293C157.983 457.414 166.324 468.328 166.324 468.328L181.562 467.686C180.96 466.161 174.304 448.065 165.401 425.957C161.792 416.969 157.943 407.419 154.254 398.231C153.772 396.987 153.251 395.783 152.77 394.579C151.647 391.771 150.524 389.002 149.441 386.274C141.101 365.489 134.444 348.958 134.444 348.958C134.444 348.958 101.08 336.319 97.5917 344.504C94.7045 351.245 97.0303 357.866 106.013 373.073Z" fill="#2F333A"/>
<path d="M166.765 465.558C166.765 465.558 167.527 478.157 169.973 478.318C170.293 478.358 182.324 478.358 182.324 478.358L197.682 478.278C197.682 478.278 197.562 474.586 193.111 473.784C188.619 473.021 181.121 469.852 178.394 463.913C175.547 457.654 166.765 465.558 166.765 465.558Z" fill="#2F333A"/>
<path d="M131.476 429.607C131.476 429.607 120.89 436.429 121.892 438.635C122.012 438.916 127.907 449.429 127.907 449.429L135.446 462.79C135.446 462.79 138.614 460.904 137.13 456.611C135.606 452.318 134.724 444.213 138.574 438.956C142.624 433.379 131.476 429.607 131.476 429.607Z" fill="#2F333A"/>
<path d="M146.434 343.3C146.434 343.3 187.737 369.019 192.429 386.594C197.121 404.128 136.69 441.564 136.69 441.564C136.69 441.564 130.073 435.706 128.91 431.413C128.91 431.413 156.218 398.671 162.153 391.328C165.802 386.835 108.379 375.72 101.361 364.806C94.3436 353.893 96.8699 344.704 96.8699 344.704L146.434 343.3Z" fill="#4E4E4E"/>
<path d="M66.7543 399.875H152.489C154.213 399.875 155.617 398.471 155.617 396.745V379.572C155.617 377.847 154.213 376.442 152.489 376.442H66.7543C65.03 376.442 63.6265 377.847 63.6265 379.572V396.745C63.6265 398.471 65.03 399.875 66.7543 399.875Z" fill="#F39892"/>
<path d="M126.464 251.416C130.594 253.984 132.84 257.194 132.84 257.194C122.814 259.802 106.173 250.493 106.173 250.493C106.173 250.493 112.629 246.159 115.035 236.61C115.155 236.128 115.276 235.647 115.356 235.125C115.677 233.52 115.877 231.795 115.917 229.909L120.529 234.042L128.188 240.903C128.188 240.903 128.028 243.752 127.065 248.647C126.865 249.49 126.664 250.413 126.464 251.416Z" fill="#F09959"/>
<path d="M95.5464 298.842C96.9901 318.182 95.1053 347.633 96.7093 352.729C98.1129 357.143 114.153 354.495 120.569 353.05C122.935 352.488 125.822 351.726 128.79 350.803C137.05 348.235 146.073 344.584 147.035 341.856C147.075 341.735 147.115 341.655 147.115 341.535C147.196 341.133 147.196 340.772 147.115 340.411C146.795 339.047 145.552 337.522 145.391 334.112C145.231 330.3 145.271 325.766 145.11 320.951C145.11 320.389 145.11 319.827 145.03 319.266V319.065C145.03 318.945 145.03 318.864 145.03 318.744C144.91 313.327 144.589 307.67 144.268 302.012C144.068 298.481 143.827 294.95 143.547 291.62C142.825 282.953 141.862 275.249 140.579 270.354C138.494 262.41 133.842 257.234 129.632 253.422L126.584 250.814C123.176 251.576 119.166 251.054 115.516 249.329C111.587 247.443 110.223 246.119 109.541 246.641C100.399 253.622 93.8221 275.169 95.5464 298.842Z" fill="#25A9E0"/>
<path d="M128.749 350.763C137.01 348.195 146.032 344.544 146.995 341.815C147.035 341.695 147.075 341.615 147.075 341.494C147.075 341.133 147.075 340.732 147.075 340.371C146.754 339.007 145.511 337.482 145.351 334.071C145.19 330.26 145.23 325.726 145.07 320.911C145.07 320.349 145.07 319.787 144.99 319.225V319.025C144.99 318.904 144.99 318.824 144.99 318.704L113.752 304.54C113.752 304.54 111.987 329.738 128.749 350.763Z" fill="#0E85AA"/>
<path d="M128.148 240.903C128.148 240.903 127.987 243.752 127.025 248.647C119.526 246.24 116.158 239.459 114.995 236.61C114.674 235.807 114.514 235.286 114.514 235.286C114.514 235.286 114.794 235.206 115.316 235.125C116.358 234.885 118.363 234.483 120.489 234.042L128.148 240.903Z" fill="#E38540"/>
<path d="M131.196 240.823C131.196 240.823 114.754 242.669 113.752 232.397C112.749 222.125 109.942 215.465 120.409 213.82C130.875 212.215 133.281 215.906 134.444 219.277C135.647 222.647 135.446 240.061 131.196 240.823Z" fill="#F09959"/>
<path d="M113.832 233.119C113.832 233.119 114.875 219.477 129.832 218.073C140.098 217.11 134.364 208.282 133.281 206.878C133.281 206.878 125.421 207.961 117.361 209.285C100.479 212.054 112.148 230.993 113.832 233.119Z" fill="#2F333A"/>
<path d="M193.444 332.034L194.893 332.505L207.144 294.763L205.695 294.292L193.444 332.034Z" fill="#2F333A"/>
<path d="M153.283 331.611L194.858 332.499L194.911 330.012L153.336 329.124L153.283 331.611Z" fill="#2F333A"/>
<path d="M157.822 326.888C157.822 326.888 164.278 329.335 168.649 328.533C173.02 327.73 180.038 330.619 181.04 332.304C182.043 333.99 181.561 334.551 179.396 334.832C177.231 335.113 169.491 337.48 164.84 335.113C160.188 332.746 153.852 331.983 153.852 331.983L157.822 326.888Z" fill="#F09959"/>
<path d="M106.814 262.73C106.814 262.73 108.378 316.617 120.208 322.756C126.063 325.765 152.409 334.071 160.308 335.515C160.308 335.515 162.434 334.151 162.674 327.651C162.674 327.651 135.607 314.129 132.198 308.07C127.145 299.002 139.697 274.206 133.08 265.459C126.504 256.752 114.233 251.977 106.814 262.73Z" fill="#25A9E0"/>
<path d="M556.299 476.593C556.299 476.593 556.901 471.899 558.304 469.09C559.708 466.281 568.61 468.087 568.61 468.087C568.61 468.087 570.375 469.612 570.776 476.754L556.299 476.593Z" fill="#2F333A"/>
<path d="M525.943 476.553C528.028 475.269 526.825 465.76 526.825 465.76C526.825 465.76 517.081 457.975 515.758 463.914C514.434 469.892 506.495 472.581 502.003 473.303C498.875 473.824 497.913 475.55 497.632 476.553H525.943Z" fill="#2F333A"/>
<path d="M546.154 407.218C545.753 409.425 545.512 411.191 545.432 412.475C544.51 430.169 530.555 470.574 528.068 471.537C524.219 472.982 518.124 469.892 514.915 468.889C513.592 468.448 512.71 467.124 512.991 465.8C519.928 433.981 522.454 388.159 523.377 361.035C523.858 347.353 526.184 337.924 526.184 337.924C526.184 337.924 560.269 328.816 560.469 340.331C560.67 350.483 549.201 390.446 546.154 407.218Z" fill="#4E4E4E"/>
<path d="M546.154 407.219L523.377 360.995C523.858 347.313 526.184 337.884 526.184 337.884C526.184 337.884 560.269 328.776 560.47 340.291C560.67 350.483 549.202 390.447 546.154 407.219Z" fill="#2F333A"/>
<path d="M538.575 340.331L556.58 470.975C556.58 470.975 564.48 472.901 570.655 471.376C570.655 471.376 575.948 401.881 575.507 385.109C575.066 368.297 579.277 340.17 574.545 337.081C569.773 333.951 538.575 340.331 538.575 340.331Z" fill="#4E4E4E"/>
<path d="M575.788 306.828L578.033 338.205C578.114 339.368 577.352 340.452 576.229 340.773C573.702 341.495 570.815 342.016 565.241 343.18C559.988 344.263 552.93 345.226 544.269 345.307C530.474 345.387 525.261 340.652 525.261 340.652C524.66 340.652 525.582 337.763 526.384 324.041C526.665 319.386 526.945 313.488 527.106 306.025C527.266 299.324 527.386 291.34 527.427 281.91C527.427 270.555 545.031 258.317 545.351 258.317C545.351 259.962 547.918 262.972 551.888 263.253C556.62 263.574 562.394 261.206 562.394 258.478C562.394 258.438 570.936 272.12 573.943 286.685C574.344 288.531 574.625 290.497 574.865 292.543C574.865 292.583 574.865 292.624 574.865 292.624C574.905 292.985 574.946 293.386 574.986 293.747C574.986 293.827 574.986 293.867 574.986 293.948C575.026 294.309 575.066 294.63 575.106 294.991C575.106 295.071 575.106 295.192 575.146 295.312C575.186 295.633 575.186 295.954 575.226 296.275C575.226 296.315 575.226 296.315 575.226 296.355C575.266 296.596 575.266 296.837 575.266 297.077C575.266 297.238 575.306 297.438 575.306 297.599C575.347 297.88 575.347 298.161 575.347 298.442C575.347 298.602 575.347 298.722 575.387 298.883C575.387 299.164 575.427 299.445 575.427 299.685C575.427 299.806 575.427 299.926 575.467 300.047C575.507 300.448 575.507 300.849 575.547 301.25C575.547 301.29 575.547 301.331 575.547 301.331C575.587 301.732 575.587 302.093 575.587 302.494C575.587 302.574 575.587 302.695 575.587 302.775C575.587 303.136 575.627 303.497 575.627 303.898C575.627 303.939 575.627 304.019 575.627 304.059C575.708 304.942 575.748 305.865 575.788 306.828C575.788 306.868 575.788 306.868 575.788 306.908V306.828Z" fill="#25A9E0"/>
<path d="M545.312 258.237C545.312 258.237 528.951 258.116 525.021 263.613C521.091 269.15 512.469 298.882 516.961 308.753C521.452 318.664 529.913 304.66 534.565 298.601C539.256 292.543 545.312 258.237 545.312 258.237Z" fill="#25A9E0"/>
<path d="M545.151 255.709V257.394C545.151 257.394 544.71 262.691 551.206 263.453C557.702 264.215 562.635 261.407 562.474 257.314C561.873 254.144 561.231 251.978 561.191 249.37C561.191 248.407 561.231 247.363 561.432 246.2L548.8 245.959L545.071 246.561L545.151 255.709Z" fill="#F09959"/>
<path d="M545.111 246.561L545.151 255.709C546.474 256.351 547.998 256.712 549.682 256.712C555.497 256.712 559.226 252.459 561.191 249.37C561.191 248.407 561.231 247.363 561.432 246.2L548.8 245.959L545.111 246.561Z" fill="#E38540"/>
<path d="M562.394 244.193C560.91 252.098 550.765 251.817 546.354 251.336C545.111 251.215 544.349 251.055 544.349 251.055C542.945 250.694 542.184 248.487 541.823 245.598C541.101 239.9 542.023 231.554 542.986 229.388C544.429 226.178 547.156 222.687 557.382 225.215C567.647 227.702 564.279 234.082 562.394 244.193Z" fill="#F09959"/>
<path d="M528.59 280.386C528.59 280.386 522.254 294.349 522.454 298.562C522.454 298.562 525.582 298.442 528.59 299.365C533.522 300.809 528.59 280.386 528.59 280.386Z" fill="#0E85AA"/>
<path d="M539.858 221.885C539.858 221.885 544.349 221.524 549.683 219.236C554.013 217.351 559.427 219.437 561.191 220.36C561.151 220.079 561.031 219.678 560.75 219.277C560.75 219.277 561.552 219.838 561.673 220.641C561.753 220.721 561.793 220.761 561.753 220.761C561.753 220.761 562.635 220.601 563.237 220.841C563.237 220.841 562.836 220.801 562.675 221.042C562.675 221.082 562.635 221.082 562.595 221.122C569.332 224.372 569.933 235.005 567.768 237.493C565.161 240.462 562.034 247.123 562.034 247.123C562.034 247.123 560.911 245.558 561.352 242.95C561.833 240.342 559.587 240.342 556.74 239.138C553.893 237.934 556.259 234.644 553.773 232.638C551.287 230.632 542.184 231.795 542.264 230.271C538.976 228.987 539.858 222.206 539.858 221.885Z" fill="#2F333A"/>
<path d="M564.48 306.586C561.793 317.299 532.921 322.877 526.344 324C526.625 319.346 526.906 313.447 527.066 305.984L564.48 306.586Z" fill="#0E85AA"/>
<path d="M558.144 310.078C558.425 310.078 564.56 309.155 565.683 308.593C566.765 308.031 571.818 300.889 568.53 299.044C565.242 297.198 556.379 304.541 556.379 304.541L558.144 310.078Z" fill="#F09959"/>
<path d="M520.73 312.204C520.73 312.204 544.51 313.488 560.47 310.077C560.47 310.077 560.871 305.463 555.858 303.417C555.858 303.417 530.996 298.16 525.021 299.605C519.046 301.049 520.73 312.204 520.73 312.204Z" fill="#25A9E0"/>
<path d="M575.347 293.506C570.415 299.444 563.958 304.3 556.861 305.463C556.821 305.383 554.695 302.213 555.096 297.519C555.297 295.352 555.978 292.864 557.703 290.216C558.224 289.413 558.705 288.45 559.106 287.407C562.996 277.497 562.395 258.397 562.395 258.397C562.395 258.397 578.876 260.123 584.009 267.466C587.136 271.959 583.126 284.117 575.347 293.506Z" fill="#25A9E0"/>
<path d="M546.394 251.295C545.151 251.175 544.389 251.015 544.389 251.015C542.986 250.653 542.224 248.447 541.863 245.558C544.469 246.2 545.672 248.206 546.194 249.089C546.394 249.49 546.434 250.373 546.394 251.295Z" fill="#E2915A"/>
<path d="M539.738 255.79C539.738 255.79 534.044 246.401 538.455 245.959C542.866 245.558 544.67 248.567 545.312 249.651C545.953 250.734 545.151 255.71 545.151 255.71L539.738 255.79Z" fill="#F09959"/>
<path d="M561.432 297.198C561.272 298.402 560.911 299.485 560.47 300.448C559.066 303.538 556.861 305.464 556.861 305.464C542.064 298.803 539.096 275.852 538.575 263.253C538.374 258.197 538.575 254.787 538.575 254.787C545.232 252.58 547.116 256.432 547.116 256.432C547.116 256.432 554.976 275.17 559.066 287.408C560.63 292.102 561.633 295.834 561.432 297.198Z" fill="#25A9E0"/>
<path d="M575.347 293.507C570.414 299.445 563.958 304.3 556.86 305.464C542.063 298.803 539.096 275.852 538.575 263.253C538.575 263.253 545.592 288.652 555.096 297.519C556.82 299.124 558.625 300.207 560.47 300.448C560.47 300.448 572.5 297.037 574.986 293.868C575.186 293.627 575.307 293.547 575.347 293.507Z" fill="#0E85AA"/>
<path d="M708.721 137.584H450.875L431.106 72.8232H688.951L708.721 137.584Z" fill="#FAFDFF"/>
<path d="M679.166 94.7323L681.532 102.476C682.575 105.887 680.65 108.655 677.242 108.655H463.627C460.218 108.655 456.569 105.887 455.527 102.476L453.161 94.7323C452.118 91.3217 454.043 88.5532 457.452 88.5532H671.066C674.475 88.513 678.124 91.3217 679.166 94.7323Z" fill="#D1E5FF"/>
<path d="M636.38 96.3351H633.091L632.771 95.332H637.342L637.623 96.2148L636.42 101.872H635.136L636.38 96.3351Z" fill="#2F333A"/>
<path d="M639.187 98.5824C638.625 96.7366 639.307 95.2119 640.991 95.2119C642.675 95.2119 644.279 96.6965 644.841 98.5824C645.402 100.428 644.72 101.953 643.036 101.953C641.312 101.953 639.748 100.468 639.187 98.5824ZM643.678 98.5824C643.277 97.2984 642.314 96.2551 641.312 96.2551C640.309 96.2551 639.989 97.2984 640.39 98.5824C640.791 99.8663 641.753 100.91 642.756 100.91C643.758 100.95 644.079 99.9065 643.678 98.5824Z" fill="#2F333A"/>
<path d="M645.322 96.9381C645.041 96.0153 645.442 95.2529 646.365 95.2529C647.287 95.2529 648.129 96.0153 648.41 96.9381C648.69 97.861 648.289 98.6233 647.367 98.6233C646.445 98.5832 645.603 97.861 645.322 96.9381ZM650.254 95.3332H651.177L648.41 101.873H647.487L650.254 95.3332ZM647.568 96.9381C647.407 96.4165 646.966 95.9752 646.565 95.9752C646.124 95.9752 646.004 96.4165 646.164 96.9381C646.325 97.4597 646.766 97.9011 647.167 97.9011C647.608 97.861 647.728 97.4597 647.568 96.9381ZM650.294 100.268C650.014 99.3456 650.415 98.5832 651.337 98.5832C652.259 98.5832 653.102 99.3456 653.382 100.268C653.663 101.191 653.262 101.954 652.34 101.954C651.417 101.914 650.575 101.191 650.294 100.268ZM652.54 100.268C652.38 99.7468 651.939 99.3055 651.538 99.3055C651.096 99.3055 650.976 99.7468 651.137 100.268C651.297 100.79 651.738 101.231 652.139 101.231C652.54 101.231 652.701 100.79 652.54 100.268Z" fill="#2F333A"/>
<path d="M601.894 88.5127L608.029 108.655H463.587C460.74 108.655 457.773 106.729 456.249 104.121C455.928 103.599 455.688 103.038 455.527 102.476L453.161 94.7319C452.119 91.3214 454.043 88.5528 457.452 88.5528H601.894V88.5127Z" fill="#F39892"/>
<path d="M482.996 88.5117L476.9 108.654H463.547C460.7 108.654 457.732 106.728 456.208 104.12L460.94 88.5518H482.996V88.5117Z" fill="white" fill-opacity="0.2"/>
<path d="M520.81 88.5117L514.715 108.654H492.66L498.755 88.5117H520.81Z" fill="white" fill-opacity="0.2"/>
<path d="M558.625 88.5117L552.53 108.654H530.475L536.57 88.5117H558.625Z" fill="white" fill-opacity="0.2"/>
<path d="M596.44 88.5117L590.344 108.654H568.289L574.384 88.5117H596.44Z" fill="white" fill-opacity="0.2"/>
<path d="M502.765 120.611H464.189L463.387 117.923H501.963L502.765 120.611Z" fill="#9EC8FF"/>
<path d="M494.505 128.033H466.474L465.632 125.385H493.663L494.505 128.033Z" fill="#9EC8FF"/>
<path d="M512.991 128.033H496.229L495.387 125.385H512.149L512.991 128.033Z" fill="#9EC8FF"/>
<path d="M541.462 128.033H515.878L515.076 125.385H540.66L541.462 128.033Z" fill="#9EC8FF"/>
<path d="M517.362 120.61H505.653L504.851 117.922H516.52L517.362 120.61Z" fill="#9EC8FF"/>
<path d="M563.838 120.61H521.332L520.53 117.922H562.996L563.838 120.61Z" fill="#9EC8FF"/>
<path d="M747.177 216.908C747.177 216.908 770.114 240.702 771.197 249.65C772.28 258.597 760.209 272.601 760.209 272.601L747.177 216.908Z" fill="#E4E4E4"/>
<path d="M736.791 463.592C736.791 463.592 735.989 476.231 733.543 476.391C733.222 476.431 721.152 476.391 721.152 476.391L705.753 476.271C705.753 476.271 705.874 472.579 710.365 471.777C714.856 471.015 722.395 467.845 725.162 461.906C728.049 455.647 736.791 463.592 736.791 463.592Z" fill="#2F333A"/>
<path d="M771.077 463.672C771.077 463.672 770.275 476.311 767.829 476.471C767.508 476.511 755.438 476.471 755.438 476.471L740.039 476.351C740.039 476.351 740.159 472.659 744.651 471.857C749.142 471.095 756.681 467.925 759.448 461.986C762.335 455.727 771.077 463.672 771.077 463.672Z" fill="#2F333A"/>
<path d="M720.029 327.851C720.029 327.851 723.999 353.611 738.916 399.393C753.833 445.174 755.838 464.956 755.838 464.956L771.959 464.554C771.959 464.554 772.199 414.56 765.342 391.568C758.485 368.537 764.019 308.672 764.019 308.672L720.029 327.851Z" fill="#2F333A"/>
<path d="M712.249 309.956C712.249 309.956 711.608 348.796 718.224 396.464C724.841 444.131 722.515 464.394 722.515 464.394L738.595 464.956C738.595 464.956 748.3 417.288 745.613 393.414C742.926 369.54 758.966 311.561 758.966 311.561L712.249 309.956Z" fill="#4E4E4E"/>
<path d="M743.568 219.155L734.986 224.772L722.595 222.445C722.756 221.442 723.598 217.309 724.36 213.538C724.4 213.297 724.44 213.096 724.48 212.896C725.122 209.686 725.683 206.957 725.683 206.957L737.272 201.861L741.603 199.976C741.603 200.056 741.242 203.507 741.202 204.028C740.36 213.016 743.568 219.155 743.568 219.155Z" fill="#F09959"/>
<path d="M725.803 216.267C726.044 216.146 740.721 211.853 742.325 212.415C743.929 212.937 744.851 216.026 744.851 216.026L720.831 221.403C720.831 221.403 722.716 217.551 725.803 216.267Z" fill="#E4E4E4"/>
<path d="M765.062 314.851C762.535 326.206 721.152 327.45 710.525 317.138C709.322 315.974 709.282 310.517 709.723 303.135C710.645 288.73 713.572 267.103 713.693 256.029C713.773 250.692 714.495 245.235 715.497 240.26C717.583 229.707 720.791 221.402 720.791 221.402C720.791 221.402 741.001 214.902 744.811 216.025C763.056 221.402 767.588 303.496 765.062 314.851Z" fill="white"/>
<path d="M709.763 303.095C710.685 288.69 713.613 267.063 713.733 255.989C713.813 250.653 714.535 245.196 715.538 240.22L727.688 238.094C727.688 238.134 739.478 286.764 709.763 303.095Z" fill="#E4E4E4"/>
<path d="M716.38 283.073C716.38 283.073 717.222 285.039 715.458 286.404C713.733 287.728 712.57 289.894 712.971 291.459C713.372 293.024 717.182 295.632 718.505 295.191C719.829 294.79 722.515 292.703 722.235 291.861C721.954 291.018 724.079 284.558 720.831 282.07C717.623 279.583 716.38 283.073 716.38 283.073Z" fill="#F09959"/>
<path d="M730.134 218.514C730.134 218.514 718.264 220.721 708.801 234.603C699.337 248.527 693.081 258.879 694.806 263.894C696.53 268.91 712.37 286.364 715.097 286.364C717.823 286.364 722.234 284.398 722.515 279.904C722.515 279.904 711.367 263.132 713.573 260.644C714.535 259.561 728.089 248.607 730.014 253.582C733.222 261.808 730.134 218.514 730.134 218.514Z" fill="white"/>
<path d="M740.319 204.148C737.753 208.442 728.289 212.133 724.359 213.497C724.399 213.257 724.44 213.056 724.48 212.855C725.121 209.646 725.683 206.917 725.683 206.917L737.272 201.821C739.838 201.821 741.362 202.383 740.319 204.148Z" fill="#E38540"/>
<path d="M721.352 206.195C721.352 206.195 739.959 212.053 743.448 200.377C746.896 188.741 751.668 181.639 739.919 177.386C728.169 173.173 724.52 176.905 722.435 180.516C720.31 184.167 716.58 204.39 721.352 206.195Z" fill="#F09959"/>
<path d="M723.117 179.432C723.117 179.432 724.28 192.994 727.087 192.433C729.894 191.831 732.42 191.429 732.019 195.522C731.618 199.615 727.688 204.309 736.35 205.072C745.012 205.834 757.483 183.525 755.117 179.312C748.26 167.074 713.252 164.546 723.117 179.432Z" fill="#2F333A"/>
</svg>
