<svg width="845" height="414" viewBox="0 0 845 414" fill="none" xmlns="http://www.w3.org/2000/svg">
<mask id="mask0" mask-type="alpha" maskUnits="userSpaceOnUse" x="0" y="0" width="845" height="414">
<rect x="0.5" y="0.5" width="844" height="413" fill="white" stroke="white"/>
</mask>
<g mask="url(#mask0)">
<path d="M-80.0106 452.818C-68.0387 394.848 -31.1384 342.455 19.3364 311.76C69.8894 280.939 133.372 272.293 190.221 288.291C258.226 307.496 320.276 360.174 390.214 350.433C434.671 344.236 472.014 312.969 499.492 277.539C527.049 241.983 547.359 201.426 574.282 165.478C613.379 113.215 665.395 72.0817 719.346 35.4728C787.608 -10.7001 867.95 -52.0435 948.781 -36.3097" stroke="white" stroke-miterlimit="10"/>
<path d="M-75.5977 441.699C-63.6258 383.728 -26.7255 331.335 23.7492 300.641C74.3023 269.819 137.785 261.174 194.634 277.172C262.639 296.377 324.689 349.055 394.627 339.314C439.084 333.117 476.427 301.85 503.905 266.42C531.462 230.863 551.772 190.307 578.695 154.359C617.792 102.096 669.807 60.9626 723.759 24.3536C792.021 -21.8193 872.363 -63.1626 953.194 -47.4289" stroke="white" stroke-miterlimit="10"/>
<path d="M-71.1066 430.454C-59.1347 372.483 -22.2344 320.09 28.2403 289.396C78.7934 258.574 142.276 249.929 199.125 265.927C267.13 285.132 329.18 337.81 399.118 328.069C443.575 321.872 480.918 290.605 508.396 255.175C535.953 219.618 556.263 179.062 583.186 143.114C622.283 90.8507 674.299 49.7174 728.25 13.1084C796.433 -32.9376 876.981 -74.3294 957.733 -58.4688" stroke="white" stroke-miterlimit="10"/>
<path d="M-66.7424 419.129C-54.7706 361.159 -17.8703 308.766 32.6045 278.072C83.1575 247.25 146.64 238.605 203.489 254.603C271.494 273.808 333.544 326.486 403.482 316.745C447.94 310.548 485.282 279.281 512.761 243.851C540.317 208.294 560.627 167.738 587.55 131.79C626.647 79.5266 678.663 38.3932 732.614 1.78426C800.876 -44.3886 881.218 -85.7319 962.049 -69.9982" stroke="white" stroke-miterlimit="10"/>
<path d="M-62.3295 408.01C-50.3577 350.04 -13.4574 297.647 37.0174 266.952C87.5704 236.131 151.053 227.486 207.902 243.483C275.907 262.688 337.957 315.366 407.895 305.625C452.352 299.428 489.695 268.161 517.174 232.731C544.73 197.175 565.04 156.619 591.963 120.671C631.06 68.4072 683.076 27.274 737.027 -9.33502C805.289 -55.5079 885.758 -96.7729 966.589 -81.0392" stroke="white" stroke-miterlimit="10"/>
<path d="M-57.8385 396.765C-45.8666 338.795 -8.96627 286.402 41.5085 255.707C92.0615 224.886 155.544 216.24 212.393 232.238C280.398 251.443 342.448 304.121 412.386 294.38C456.844 288.183 494.186 256.916 521.665 221.486C549.221 185.93 569.531 145.374 596.454 109.425C635.551 57.1621 687.567 16.0289 741.518 -20.5801C809.702 -66.6261 890.249 -108.018 971.001 -92.1575" stroke="white" stroke-miterlimit="10"/>
<path d="M-53.4742 385.441C-41.5023 327.47 -4.60206 275.077 45.8727 244.383C96.4257 213.562 159.908 204.916 216.757 220.914C284.762 240.119 346.812 292.797 416.75 283.056C461.208 276.859 498.551 245.592 526.029 210.162C553.585 174.605 573.896 134.049 600.818 98.1012C639.915 45.8379 691.931 4.70464 745.882 -31.9043C814.193 -77.8721 894.535 -119.215 975.366 -103.482" stroke="white" stroke-miterlimit="10"/>
<path d="M-49.0613 374.322C-37.0894 316.351 -0.18917 263.959 50.2856 233.264C100.839 202.443 164.321 193.797 221.17 209.795C289.175 229 351.225 281.678 421.163 271.937C465.621 265.74 502.963 234.473 530.442 199.043C557.998 163.486 578.309 122.93 605.231 86.9823C644.328 34.719 696.344 -6.4143 750.295 -43.0233C818.557 -89.1961 898.899 -130.539 979.73 -114.806" stroke="white" stroke-miterlimit="10"/>
<path d="M-44.5699 363.076C-32.598 305.105 4.30228 252.712 54.777 222.018C105.33 191.196 168.812 182.551 225.662 198.549C293.666 217.754 355.716 270.432 425.655 260.691C470.112 254.494 507.455 223.227 534.933 187.797C562.49 152.24 582.8 111.684 609.723 75.7362C648.82 23.4729 700.835 -17.6604 754.786 -54.2694C822.97 -100.315 903.517 -141.707 984.143 -125.925" stroke="white" stroke-miterlimit="10"/>
<path d="M-40.2056 351.751C-28.2337 293.781 8.66654 241.388 59.1413 210.694C109.694 179.872 173.177 171.227 230.026 187.225C298.031 206.43 360.081 259.108 430.019 249.367C474.476 243.17 511.819 211.903 539.297 176.473C566.854 140.916 587.164 100.36 614.087 64.412C653.184 12.1486 705.199 -28.9846 759.151 -65.5936C827.413 -111.766 907.755 -153.11 988.586 -137.376" stroke="white" stroke-miterlimit="10"/>
<path d="M-35.793 340.632C-23.8211 282.662 13.0792 230.269 63.5539 199.574C114.107 168.753 177.589 160.108 234.439 176.106C302.443 195.311 364.493 247.989 434.432 238.248C478.889 232.05 516.232 200.783 543.71 165.354C571.267 129.797 591.577 89.2408 618.499 53.2927C657.596 1.02942 709.612 -40.1039 763.563 -76.7128C831.825 -122.886 912.168 -164.229 992.999 -148.495" stroke="white" stroke-miterlimit="10"/>
<path d="M-31.3018 329.386C-19.3299 271.416 17.5704 219.023 68.0451 188.328C118.598 157.507 182.08 148.862 238.93 164.86C306.934 184.065 368.985 236.743 438.923 227.002C483.38 220.804 520.723 189.537 548.201 154.107C575.758 118.551 596.068 77.9947 622.991 42.0467C662.088 -10.2166 714.103 -51.3499 768.054 -87.9589C836.238 -134.005 916.707 -175.27 997.411 -159.615" stroke="white" stroke-miterlimit="10"/>
<path d="M-27.0159 318.19C-15.044 260.22 21.8562 207.827 72.331 177.132C122.884 146.311 186.366 137.665 243.216 153.663C311.22 172.868 373.27 225.546 443.209 215.805C487.666 209.608 525.009 178.341 552.487 142.911C580.044 107.355 600.354 66.7985 627.276 30.8504C666.373 -21.4129 718.389 -62.5461 772.34 -99.1551C840.602 -145.328 920.945 -186.671 1001.78 -170.938" stroke="white" stroke-miterlimit="10"/>
<path d="M-22.5247 306.944C-10.5528 248.973 26.3475 196.581 76.8222 165.886C127.375 135.065 190.857 126.419 247.707 142.417C315.712 161.622 377.762 214.3 447.7 204.559C492.157 198.362 529.5 167.095 556.978 131.665C584.535 96.1085 604.845 55.5524 631.768 19.6043C670.865 -32.659 722.88 -73.7922 776.831 -110.401C845.094 -156.574 925.436 -197.917 1006.27 -182.184" stroke="white" stroke-miterlimit="10"/>
<path d="M-18.0335 295.698C-6.06157 237.727 30.8387 185.335 81.3134 154.64C131.867 123.819 195.349 115.173 252.198 131.171C320.203 150.376 382.253 203.054 452.191 193.313C496.649 187.116 533.991 155.849 561.47 120.419C589.026 84.8624 609.336 44.3063 636.259 8.35825C675.356 -43.9051 727.372 -85.0383 781.323 -121.647C849.585 -167.82 929.927 -209.164 1010.76 -193.43" stroke="white" stroke-miterlimit="10"/>
<path d="M-13.7476 284.501C-1.77572 226.53 35.1246 174.137 85.5993 143.443C136.152 112.621 199.635 103.976 256.484 119.974C324.489 139.179 386.539 191.857 456.477 182.116C500.934 175.919 538.277 144.652 565.755 109.222C593.312 73.6652 613.622 33.1091 640.545 -2.83899C679.642 -55.1023 731.658 -96.2357 785.609 -132.845C853.871 -179.018 934.213 -220.361 1015.04 -204.627" stroke="white" stroke-miterlimit="10"/>
<path d="M-9.25612 273.254C2.71577 215.284 39.6161 162.891 90.0908 132.197C140.644 101.375 204.126 92.7299 260.976 108.728C328.98 127.933 391.03 180.611 460.968 170.87C505.426 164.673 542.769 133.405 570.247 97.9757C597.803 62.4191 618.114 21.863 645.036 -14.0851C684.133 -66.3484 736.149 -107.482 790.1 -144.091C858.362 -190.264 938.704 -231.607 1019.54 -215.873" stroke="white" stroke-miterlimit="10"/>
<path d="M-4.76519 262.009C7.2067 204.039 44.107 151.646 94.5817 120.951C145.135 90.1301 208.617 81.4848 265.467 97.4827C333.471 116.688 395.521 169.366 465.459 159.625C509.917 153.427 547.26 122.16 574.738 86.7306C602.294 51.174 622.605 10.6179 649.527 -25.3302C688.624 -77.5935 740.64 -118.727 794.591 -155.336C862.853 -201.509 943.195 -242.852 1024.03 -227.118" stroke="white" stroke-miterlimit="10"/>
<path d="M-0.47906 250.812C11.4928 192.842 48.3931 140.449 98.8678 109.754C149.421 78.9328 212.903 70.2875 269.753 86.2854C337.757 105.49 399.807 158.168 469.746 148.427C514.203 142.23 551.546 110.963 579.024 75.5333C606.581 39.9767 626.891 -0.579438 653.813 -36.5275C692.91 -88.7908 744.926 -129.924 798.877 -166.533C867.139 -212.706 947.481 -254.049 1028.31 -238.316" stroke="white" stroke-miterlimit="10"/>
<path d="M4.01191 239.566C15.9838 181.596 52.8841 129.203 103.359 98.5081C153.912 67.6867 217.394 59.0414 274.244 75.0393C342.248 94.2443 404.298 146.922 474.237 137.181C518.694 130.984 556.037 99.717 583.515 64.2872C611.072 28.7306 631.382 -11.8255 658.304 -47.7736C697.401 -100.037 749.417 -141.17 803.368 -177.779C871.63 -223.952 951.972 -265.295 1032.8 -249.562" stroke="white" stroke-miterlimit="10"/>
</g>
</svg>
