<svg width="534" height="331" viewBox="0 0 534 331" fill="none" xmlns="http://www.w3.org/2000/svg">
<mask id="mask0" mask-type="alpha" maskUnits="userSpaceOnUse" x="0" y="0" width="542" height="331">
<path d="M0 0H542V331H0V0Z" fill="#C4C4C4"/>
</mask>
<g mask="url(#mask0)">
<g opacity="0.3">
<path d="M-177.079 382.936C-130.615 398.113 -77.1766 395.212 -33.2048 375.124C10.8916 355.037 44.8982 317.986 58.4759 275.467C74.6695 224.579 64.455 164.316 102.074 123.583C125.991 97.6923 164.606 86.1978 201.851 82.6266C239.221 79.0555 276.965 82.0687 314.335 79.0555C368.645 74.7032 420.714 57.7404 470.416 37.7644C533.197 12.4317 597.847 -22.4983 622.137 -80.1943" stroke="#25A9E0" stroke-miterlimit="10"/>
<path d="M-166.863 384.498C-120.4 399.675 -66.9608 396.773 -22.989 376.686C21.1074 356.598 55.1139 319.548 68.6916 277.029C84.8852 226.14 74.6708 165.878 112.29 125.145C136.206 99.2539 174.822 87.7593 212.067 84.1882C249.437 80.6171 287.181 83.6302 324.55 80.6171C378.861 76.2647 430.93 59.3019 480.632 39.3259C543.413 13.9933 608.063 -20.9368 632.353 -78.6328" stroke="#25A9E0" stroke-miterlimit="10"/>
<path d="M-156.647 386.06C-110.184 401.238 -56.745 398.336 -12.7732 378.248C31.3232 358.161 65.3297 321.11 78.9074 278.592C95.101 227.703 84.8866 167.44 122.506 126.707C146.422 100.817 185.038 89.3221 222.283 85.751C259.653 82.1798 297.396 85.193 334.766 82.1798C389.077 77.8275 441.146 60.8647 490.847 40.8887C553.504 15.556 618.278 -19.4856 642.444 -77.1816" stroke="#25A9E0" stroke-miterlimit="10"/>
<path d="M-146.556 387.735C-100.093 402.912 -46.6537 400.011 -2.68183 379.923C41.4146 359.835 75.4211 322.785 88.9988 280.266C105.192 229.378 94.9779 169.115 132.597 128.382C156.514 102.491 195.129 90.9966 232.374 87.4255C269.744 83.8543 307.488 86.8675 344.858 83.8543C399.168 79.502 451.237 62.5392 500.939 42.5632C563.72 17.2306 628.37 -17.6995 652.66 -75.3955" stroke="#25A9E0" stroke-miterlimit="10"/>
<path d="M-136.34 389.297C-89.8767 404.474 -36.4378 401.572 7.53399 381.485C51.6304 361.397 85.6369 324.347 99.2146 281.828C115.408 230.94 105.194 170.677 142.813 129.944C166.729 104.053 205.345 92.5584 242.59 88.9873C279.96 85.4162 317.704 88.4293 355.073 85.4162C409.384 81.0639 461.453 64.101 511.155 44.125C573.936 18.7923 638.586 -16.2493 662.876 -73.9453" stroke="#25A9E0" stroke-miterlimit="10"/>
<path d="M-126.124 390.859C-79.6609 406.036 -26.222 403.135 17.7498 383.047C61.8462 362.96 95.8528 325.909 109.43 283.391C125.624 232.502 115.41 172.239 153.029 131.506C176.945 105.615 215.561 94.1209 252.806 90.5498C290.176 86.9786 327.919 89.9918 365.289 86.9786C419.6 82.6263 471.669 65.6635 521.37 45.6875C584.027 20.3548 648.802 -14.6868 672.967 -72.3828" stroke="#25A9E0" stroke-miterlimit="10"/>
<path d="M-116.033 392.533C-69.5696 407.71 -16.1307 404.809 27.8411 384.721C71.9375 364.634 105.944 327.583 119.522 285.064C135.715 234.176 125.501 173.913 163.12 133.18C187.037 107.289 225.652 95.7947 262.897 92.2236C300.267 88.6525 338.011 91.6656 375.381 88.6525C429.691 84.3002 481.76 67.3373 531.462 47.3613C594.119 21.9171 658.768 -13.013 683.059 -70.709" stroke="#25A9E0" stroke-miterlimit="10"/>
<path d="M-105.941 394.095C-59.4783 409.272 -6.03943 406.371 37.9324 386.283C82.0288 366.196 116.035 329.145 129.613 286.627C145.807 235.738 135.592 175.475 173.211 134.742C197.128 108.851 235.743 97.3569 272.989 93.7858C310.358 90.2147 348.102 93.2278 385.472 90.2147C439.783 85.8624 491.851 68.8995 541.553 48.9236C604.334 23.5909 668.984 -11.3392 693.274 -69.0352" stroke="#25A9E0" stroke-miterlimit="10"/>
<path d="M-95.7256 395.658C-49.2624 410.835 4.1764 407.933 48.1482 387.846C92.2446 367.758 126.251 330.708 139.829 288.189C156.022 237.301 145.808 177.038 183.427 136.305C207.344 110.414 245.959 98.9195 283.204 95.3484C320.574 91.7772 358.318 94.7904 395.688 91.7772C449.998 87.4249 502.067 70.4621 551.769 50.4861C614.426 25.1534 679.2 -9.88826 703.366 -67.4727" stroke="#25A9E0" stroke-miterlimit="10"/>
<path d="M-85.6343 397.331C-39.1711 412.509 14.2677 409.607 58.2395 389.52C102.336 369.432 136.342 332.382 149.92 289.863C166.114 238.974 155.899 178.712 193.518 137.979C217.435 112.088 256.05 100.593 293.296 97.0222C330.666 93.4511 368.409 96.4642 405.779 93.451C460.09 89.0987 512.158 72.1359 561.86 52.1599C624.641 26.8272 689.291 -8.10283 713.582 -65.7988" stroke="#25A9E0" stroke-miterlimit="10"/>
<path d="M-75.4185 398.894C-28.9553 414.071 24.4835 411.17 68.4554 391.082C112.552 370.995 146.558 333.944 160.136 291.425C176.33 240.537 166.115 180.274 203.734 139.541C227.651 113.65 266.266 102.156 303.512 98.5847C340.881 95.0135 378.625 98.0267 415.995 95.0135C470.306 90.6612 522.374 73.6984 572.076 53.7224C634.857 28.3897 699.507 -6.54033 723.798 -64.2363" stroke="#25A9E0" stroke-miterlimit="10"/>
<path d="M-65.2021 400.456C-18.739 415.634 34.6999 412.732 78.6717 392.645C122.768 372.557 156.775 335.507 170.352 292.988C186.546 242.099 176.331 181.837 213.95 141.104C237.867 115.213 276.483 103.718 313.728 100.147C351.098 96.576 388.841 99.5892 426.211 96.576C480.522 92.2237 532.591 75.2609 582.292 55.2849C644.949 29.9522 709.599 -5.08943 733.889 -62.6738" stroke="#25A9E0" stroke-miterlimit="10"/>
<path d="M-55.1108 402.13C-8.6477 417.308 44.7911 414.406 88.763 394.318C132.859 374.231 166.866 337.18 180.444 294.662C196.637 243.773 186.423 183.51 224.042 142.777C247.958 116.887 286.574 105.392 323.819 101.821C361.189 98.2499 398.932 101.263 436.302 98.2499C490.613 93.8976 542.682 76.9347 592.384 56.9587C655.165 31.6261 719.815 -3.304 744.105 -61" stroke="#25A9E0" stroke-miterlimit="10"/>
<path d="M-44.895 403.693C1.56812 418.87 55.007 415.969 98.9788 395.881C143.075 375.793 177.082 338.743 190.659 296.224C206.853 245.336 196.639 185.073 234.258 144.34C258.174 118.449 296.79 106.955 334.035 103.384C371.405 99.8124 409.148 102.826 446.518 99.8124C500.829 95.4601 552.898 78.4972 602.599 58.5212C665.381 33.1886 730.03 -1.7415 754.321 -59.4375" stroke="#25A9E0" stroke-miterlimit="10"/>
<path d="M-34.6792 405.255C11.7839 420.433 65.2228 417.531 109.195 397.443C153.291 377.356 187.298 340.305 200.875 297.787C217.069 246.898 206.854 186.635 244.473 145.902C268.39 120.012 307.006 108.517 344.251 104.946C381.621 101.375 419.364 104.388 456.734 101.375C511.045 97.0225 563.113 80.0597 612.815 60.0837C675.596 34.7511 740.246 -0.17901 764.537 -57.875" stroke="#25A9E0" stroke-miterlimit="10"/>
<path d="M-24.4634 406.929C21.9998 422.106 75.4386 419.205 119.41 399.117C163.507 379.03 197.513 341.979 211.091 299.461C227.285 248.572 217.07 188.309 254.689 147.576C278.606 121.685 317.221 110.191 354.467 106.62C391.836 103.049 429.58 106.062 466.95 103.049C521.261 98.6964 573.329 81.7335 623.031 61.7575C685.812 36.4249 750.462 1.49482 774.753 -56.2012" stroke="#25A9E0" stroke-miterlimit="10"/>
<path d="M-14.2476 408.492C32.2156 423.669 85.6544 420.767 129.626 400.68C173.723 380.592 207.729 343.542 221.307 301.023C237.5 250.135 227.286 189.872 264.905 149.139C288.822 123.248 327.437 111.753 364.682 108.182C402.052 104.611 439.796 107.624 477.166 104.611C531.476 100.259 583.545 83.296 633.247 63.32C696.028 37.9874 760.678 3.05732 784.968 -54.6387" stroke="#25A9E0" stroke-miterlimit="10"/>
<path d="M-4.03174 410.053C42.4314 425.23 95.8702 422.329 139.842 402.241C183.938 382.154 217.945 345.103 231.523 302.585C247.716 251.696 237.502 191.433 275.121 150.7C299.038 124.81 337.653 113.315 374.898 109.744C412.268 106.173 450.012 109.186 487.381 106.173C541.692 101.82 593.761 84.8576 643.463 64.8816C706.244 39.5489 770.894 4.61885 795.184 -53.0771" stroke="#25A9E0" stroke-miterlimit="10"/>
<path d="M6.18408 411.727C52.6472 426.904 106.086 424.003 150.058 403.915C194.154 383.828 228.161 346.777 241.739 304.258C257.932 253.37 247.718 193.107 285.337 152.374C309.253 126.483 347.869 114.989 385.114 111.418C422.484 107.847 460.227 110.86 497.597 107.847C551.908 103.494 603.977 86.5314 653.678 66.5554C716.46 41.2227 781.11 6.29268 805.4 -51.4033" stroke="#25A9E0" stroke-miterlimit="10"/>
<path d="M16.3999 413.29C62.863 428.468 116.302 425.566 160.274 405.479C204.37 385.391 238.377 348.341 251.954 305.822C268.148 254.933 257.934 194.671 295.552 153.938C319.469 128.047 358.085 116.552 395.33 112.981C432.7 109.41 470.443 112.423 507.813 109.41C562.124 105.058 614.192 88.0949 663.894 68.1189C726.676 42.7862 791.325 7.85615 815.616 -49.8398" stroke="#25A9E0" stroke-miterlimit="10"/>
</g>
</g>
</svg>
