<svg width="908" height="644" viewBox="0 0 908 644" fill="none" xmlns="http://www.w3.org/2000/svg">
    <g opacity="0.3">
        <path d="M0.32959 684.197C61.8147 706.602 132.531 702.319 190.719 672.664C249.072 643.01 294.073 588.313 312.041 525.545C333.47 450.42 319.953 361.456 369.735 301.323C401.384 263.102 452.484 246.133 501.771 240.861C551.223 235.589 601.169 240.037 650.621 235.589C722.491 229.164 791.394 204.122 857.164 174.632C940.243 137.235 1025.8 85.6686 1057.94 0.494141" stroke="white" stroke-miterlimit="10"/>
        <path d="M13.3518 686.503C74.8369 708.909 145.553 704.625 203.741 674.971C262.094 645.316 307.095 590.62 325.063 527.851C346.492 452.726 332.975 363.763 382.757 303.63C414.406 265.408 465.506 248.439 514.793 243.167C564.245 237.895 614.191 242.344 663.643 237.895C735.513 231.47 804.416 206.429 870.187 176.939C953.266 139.541 1038.82 87.9751 1070.96 2.80057" stroke="white" stroke-miterlimit="10"/>
        <path d="M26.5391 688.809C88.0241 711.215 158.74 706.932 216.928 677.277C275.282 647.623 320.283 592.926 338.25 530.158C359.679 455.033 346.162 366.069 395.944 305.936C427.593 267.715 478.693 250.746 527.98 245.474C577.432 240.202 627.378 244.65 676.83 240.202C748.7 233.777 817.603 208.735 883.374 179.245C966.288 141.848 1052 90.1168 1083.98 4.94232" stroke="white" stroke-miterlimit="10"/>
        <path d="M39.7262 691.281C101.211 713.686 171.927 709.403 230.116 679.748C288.469 650.094 333.47 595.398 351.437 532.629C372.866 457.504 359.35 368.54 409.131 308.407C440.78 270.186 491.88 253.217 541.167 247.945C590.619 242.673 640.566 247.121 690.017 242.673C761.887 236.248 830.79 211.206 896.561 181.716C979.64 144.319 1065.19 92.7528 1097.34 7.57831" stroke="white" stroke-miterlimit="10"/>
        <path d="M52.7484 693.587C114.233 715.993 184.95 711.709 243.138 682.055C301.491 652.4 346.492 597.704 364.46 534.935C385.889 459.81 372.372 370.847 422.153 310.714C453.803 272.492 504.903 255.523 554.19 250.252C603.642 244.98 653.588 249.428 703.04 244.98C774.91 238.554 843.812 213.513 909.583 184.023C992.662 146.625 1078.21 94.8946 1110.36 9.72006" stroke="white" stroke-miterlimit="10"/>
        <path d="M65.9355 695.893C127.421 718.299 198.137 714.016 256.325 684.361C314.678 654.707 359.679 600.01 377.647 537.242C399.076 462.117 385.559 373.153 435.341 313.02C466.99 274.799 518.09 257.83 567.377 252.558C616.829 247.286 666.775 251.734 716.227 247.286C788.097 240.861 857 215.819 922.77 186.329C1005.68 148.932 1091.4 97.2009 1123.38 12.0265" stroke="white" stroke-miterlimit="10"/>
        <path d="M79.1227 698.365C140.608 720.77 211.324 716.487 269.512 686.832C327.865 657.178 372.866 602.482 390.834 539.713C412.263 464.588 398.746 375.624 448.528 315.491C480.177 277.27 531.277 260.301 580.564 255.029C630.016 249.757 679.962 254.205 729.414 249.757C801.284 243.332 870.187 218.29 935.958 188.801C1018.87 151.238 1104.42 99.6722 1136.57 14.4977" stroke="white" stroke-miterlimit="10"/>
        <path d="M92.1451 700.671C153.63 723.077 224.346 718.794 282.535 689.139C340.888 659.484 385.889 604.788 403.856 542.019C425.285 466.895 411.769 377.931 461.55 317.798C493.199 279.576 544.299 262.608 593.586 257.336C643.038 252.064 692.984 256.512 742.436 252.064C814.306 245.639 883.209 220.597 948.98 191.107C1032.06 153.709 1117.61 102.143 1149.75 16.9689" stroke="white" stroke-miterlimit="10"/>
        <path d="M105.332 702.978C166.817 725.383 237.533 721.1 295.722 691.445C354.075 661.791 399.076 607.095 417.043 544.326C438.473 469.201 424.956 380.237 474.737 320.104C506.386 281.883 557.487 264.914 606.773 259.642C656.225 254.37 706.172 258.818 755.623 254.37C827.493 247.945 896.396 222.903 962.167 193.414C1045.08 156.016 1130.8 104.285 1162.78 19.2753" stroke="white" stroke-miterlimit="10"/>
        <path d="M118.52 705.449C180.005 727.855 250.721 723.571 308.909 693.917C367.262 664.262 412.263 609.566 430.231 546.797C451.66 471.672 438.143 382.708 487.924 322.576C519.574 284.354 570.674 267.385 619.961 262.113C669.413 256.841 719.359 261.289 768.811 256.841C840.681 250.416 909.583 225.375 975.354 195.885C1058.43 158.487 1143.98 106.921 1176.13 21.7465" stroke="white" stroke-miterlimit="10"/>
        <path d="M131.542 707.755C193.027 730.161 263.743 725.878 321.931 696.223C380.284 666.569 425.285 611.872 443.253 549.104C464.682 473.979 451.165 385.015 500.947 324.882C532.596 286.661 583.696 269.692 632.983 264.42C682.435 259.148 732.381 263.596 781.833 259.148C853.703 252.723 922.606 227.681 988.377 198.191C1071.46 160.794 1157.01 109.228 1189.15 24.0531" stroke="white" stroke-miterlimit="10"/>
        <path d="M144.729 710.062C206.214 732.468 276.93 728.184 335.118 698.53C393.471 668.875 438.473 614.179 456.44 551.41C477.869 476.285 464.352 387.321 514.134 327.189C545.783 288.967 596.883 271.998 646.17 266.726C695.622 261.454 745.568 265.902 795.02 261.454C866.89 255.029 935.793 229.987 1001.56 200.498C1084.48 163.1 1170.03 111.369 1202.17 26.3595" stroke="white" stroke-miterlimit="10"/>
        <path d="M157.751 712.533C219.236 734.939 289.952 730.655 348.141 701.001C406.494 671.346 451.495 616.65 469.462 553.881C490.891 478.756 477.375 389.793 527.156 329.66C558.805 291.438 609.905 274.469 659.192 269.197C708.644 263.925 758.591 268.374 808.042 263.925C879.912 257.5 948.815 232.459 1014.59 202.969C1097.66 165.571 1183.22 114.005 1215.36 28.8307" stroke="white" stroke-miterlimit="10"/>
        <path d="M170.938 714.84C232.423 737.245 303.139 732.962 361.328 703.307C419.681 673.653 464.682 618.957 482.649 556.188C504.078 481.063 490.562 392.099 540.343 331.966C571.992 293.745 623.092 276.776 672.379 271.504C721.831 266.232 771.778 270.68 821.229 266.232C893.099 259.807 962.002 234.765 1027.77 205.275C1110.85 167.878 1196.4 116.312 1228.55 31.1372" stroke="white" stroke-miterlimit="10"/>
        <path d="M184.125 717.146C245.61 739.552 316.326 735.268 374.515 705.614C432.868 675.959 477.869 621.263 495.836 558.494C517.266 483.369 503.749 394.406 553.53 334.273C585.179 296.051 636.28 279.082 685.567 273.81C735.018 268.538 784.965 272.987 834.416 268.538C906.286 262.113 975.189 237.072 1040.96 207.582C1124.04 170.184 1209.59 118.618 1241.73 33.4437" stroke="white" stroke-miterlimit="10"/>
        <path d="M197.148 719.617C258.633 742.023 329.349 737.739 387.537 708.085C445.89 678.43 490.891 623.734 508.859 560.965C530.288 485.84 516.771 396.877 566.553 336.744C598.202 298.522 649.302 281.553 698.589 276.282C748.041 271.01 797.987 275.458 847.439 271.01C919.309 264.584 988.212 239.543 1053.98 210.053C1137.06 172.655 1222.61 121.089 1254.76 35.9149" stroke="white" stroke-miterlimit="10"/>
        <path d="M210.335 721.924C271.82 744.329 342.536 740.046 400.724 710.391C459.077 680.737 504.079 626.041 522.046 563.272C543.475 488.147 529.958 399.183 579.74 339.05C611.389 300.829 662.489 283.86 711.776 278.588C761.228 273.316 811.174 277.764 860.626 273.316C932.496 266.891 1001.4 241.849 1067.17 212.359C1150.25 174.962 1235.8 123.396 1267.94 38.2213" stroke="white" stroke-miterlimit="10"/>
        <path d="M223.522 724.23C285.007 746.636 355.723 742.352 413.911 712.698C472.264 683.043 517.266 628.347 535.233 565.578C556.662 490.453 543.145 401.49 592.927 341.357C624.576 303.135 675.676 286.166 724.963 280.895C774.415 275.623 824.361 280.071 873.813 275.623C945.683 269.197 1014.59 244.156 1080.36 214.666C1163.44 177.268 1248.99 125.702 1281.13 40.5278" stroke="white" stroke-miterlimit="10"/>
        <path d="M236.544 726.701C298.029 749.107 368.745 744.824 426.934 715.169C485.287 685.515 530.288 630.818 548.255 568.05C569.684 492.925 556.168 403.961 605.949 343.828C637.598 305.607 688.698 288.638 737.985 283.366C787.437 278.094 837.383 282.542 886.835 278.094C958.705 271.669 1027.61 246.627 1093.38 217.137C1176.46 179.74 1262.01 128.174 1294.15 42.9991" stroke="white" stroke-miterlimit="10"/>
        <path d="M249.731 729.008C311.216 751.413 381.932 747.13 440.121 717.475C498.474 687.821 543.475 633.125 561.442 570.356C582.872 495.231 569.355 406.267 619.136 346.135C650.785 307.913 701.886 290.944 751.173 285.672C800.624 280.4 850.571 284.848 900.022 280.4C971.892 273.975 1040.8 248.933 1106.57 219.444C1189.65 182.046 1275.2 130.48 1307.34 45.3055" stroke="white" stroke-miterlimit="10"/>
    </g>
</svg>
