<?xml version="1.0" encoding="utf-8"?>
<!-- Generator: Adobe Illustrator 26.0.3, SVG Export Plug-In . SVG Version: 6.00 Build 0)  -->
<svg version="1.1" id="Layer_1" xmlns="http://www.w3.org/2000/svg" xmlns:xlink="http://www.w3.org/1999/xlink" x="0px" y="0px"
	 viewBox="0 0 36 36" style="enable-background:new 0 0 36 36;" xml:space="preserve">
<style type="text/css">
	.st0{fill:#2F333A;}
	.st1{fill-rule:evenodd;clip-rule:evenodd;fill:#FFFFFF;}
</style>
<rect x="1.5" y="1.9" class="st0" width="32.8" height="32.6"/>
<path class="st1" d="M33.4,0H2.6C1.2,0,0,1.2,0,2.6v30.8C0,34.8,1.2,36,2.6,36h30.8c1.4,0,2.6-1.2,2.6-2.6V2.6C36,1.2,34.8,0,33.4,0
	z M24,12.9c-1.2-1.1-2.8-1.7-4.6-1.7c-3.9,0-6.8,2.8-6.8,6.8c0,4,2.8,6.7,6.8,6.7c1.7,0,3.3-0.5,4.6-1.7l0.9-0.7l3.7,3.7l-0.9,0.9
	c-2.3,1.9-5.2,3.2-8.3,3.2c-7,0.1-12.2-4.9-12.2-11.9C7.2,11.2,12.5,6,19.4,6c3.2,0,6.2,1.1,8.5,3.2l0.9,0.9l-3.9,3.9L24,12.9z
	 M19.2,14.4c2,0,3.6,1.6,3.6,3.6s-1.6,3.6-3.6,3.6S15.6,20,15.6,18S17.2,14.4,19.2,14.4z"/>
</svg>
