<svg xmlns="http://www.w3.org/2000/svg" width="198" height="129" fill="none" viewBox="0 0 198 129">
    <path
        fill="#E9F6FC"
        d="M126.403 124.259c61.365 3.236 84.728-60.393 59.703-93.595-19.401-25.756-45.273 11.73-69.419-7.151-37.123-29.066-97.273-34.36-105.231 2.28-7.959 36.64 18.409 93.87 38.065 97.308 19.656 3.438 76.882 1.158 76.882 1.158z"
    ></path>
    <path
        fill="#2F333A"
        d="M72.196 35.913c.663 15.996.492 24.67-5.331 31.33-5.824 6.66-22.16 5.01-22.16 5.01s-1.606 23.556-24.45 24.563C-2.57 97.822-5.867 67.478 12.032 59.704c17.02-7.41 22.438-9.55 28.326-27.903 5.374-16.746 22.16-13.556 26.163-6.553 4.004 6.981 5.674 10.665 5.674 10.665z"
    ></path>
    <path
        fill="#E38540"
        d="M64.702 117.589s10.77 2.12 11.326 1.991c.557-.107 12.333-5.332 13.553-4.561 1.22.771 8.329 3.769 9.892 4.454 1.563.664-.9.9-2.12.9-1.22 0-8.222-2.891-8.992-2.335-.771.557 6.102 1.671 6.102 2.121 0 .449-18.435 4.668-19.548 4.668-1.113 0-9.656-.771-9.656-.771l-.557-6.467z"
    ></path>
    <path
        fill="#0E85AA"
        d="M55.753 58.72c5.802 1.135 9.228 7.28 10.34 12.656 1.093 5.396-10.34-12.656-10.34-12.656z"
    ></path>
    <path
        fill="#25A9E0"
        d="M46.032 54.565s-11.176 7.495-17.17 11.179c-5.996 3.662.17 40.097 2.183 54.766 1.991 14.669 38.667 4.402 38.667 4.402s-2.334-12.334.664-32.164c2.141-14.22-5.717-23.107-10.213-29.274-11.39-15.569-14.13-8.909-14.13-8.909z"
    ></path>
    <path
        fill="#0E85AA"
        d="M35.027 65.915c12.825 15.676 17.171 18.61 14.003 29.167-2.505 8.33-3.34 11.328-3.833 14.176-.492 2.827 23.83-1.841 23.83-1.841l-.171 9.165s-19.163 9.166-28.497 11.007c-9.335 1.842-15.159-.342-15.159-.342l9.827-61.332z"
    ></path>
    <path
        fill="#2F333A"
        d="M195.327 128.681H12.375c-1.327 0-2.397-.899-2.397-1.991s1.07-1.992 2.398-1.992h182.951c1.328 0 2.398.9 2.398 1.992-.021 1.092-1.092 1.991-2.398 1.991z"
    ></path>
    <path
        fill="#F09959"
        d="M50.143 38.782l-5.78 17.11S50.7 73.067 56.03 69.234c1.82-1.306-.664-11.671-.664-11.671l3.897-13.898-9.12-4.883zM31.687 65.25c-7.986.879-8.67 11.672-12.332 29.682-3.661 18.009-2.57 29.894-.835 32.164 4.175 5.504 51-13.662 56.823-13.512 4.025.107.664-6.66.664-6.66l-44.64 6.831s6.337-20.836 6.337-31.5c0-10.687-3.02-17.347-6.017-17.004z"
    ></path>
    <path
        fill="#F09959"
        d="M73.202 107.245c4.668-1.157 11.498-3.833 12.825-2.677 1.328 1.156 6.83 9.508 8.671 11.842 1.842 2.334-.835.493-2.826-1.327-1.991-1.842-3.661-2.827-3.661-2.827s-2.505 2.334-4.839 3.662c-2.334 1.327-3.169-1.328-7.172-1.992-4.004-.664-14.003 2.827-14.003 2.827l11.005-9.508z"
    ></path>
    <path
        fill="#25A9E0"
        d="M32.587 63.901c-4.882.215-8.672 4.326-9.999 10.665-1.327 6.339-5.224 26.447-5.224 26.447s-.77.557 7.344 1.992c8.114 1.434 14.773-.215 14.773-.215s1.67-11.456 1.22-19.337c-.45-7.88-2.227-15.333-5.117-17.903-2.89-2.526-2.997-1.648-2.997-1.648z"
    ></path>
    <path
        fill="#E38540"
        d="M55.367 57.584l3.897-13.898-9.121-4.882-1.392 4.111c-.3 13.791 3.233 18.417 5.61 20.109.75.535 1.392.128 1.927-.75-.407-2.505-.92-4.69-.92-4.69z"
    ></path>
    <path
        fill="#F09959"
        d="M73.866 40.41c0 7.43-.878 16.553-7.344 16.34-9.999-.343-16.293-8.117-16.293-15.548 0-7.43 5.224-13.47 11.668-13.47 6.466 0 11.969 5.247 11.969 12.678z"
    ></path>
    <path
        fill="#9BD6E8"
        d="M148.481 124.698h-37.49l15.416-33.921a2.78 2.78 0 012.526-1.628h34.021c.793 0 1.306.814.985 1.52l-15.458 34.029z"
    ></path>
    <path
        fill="#9BD6E8"
        d="M148.417 124.698H79.261a4.36 4.36 0 014.368-4.369h64.788v4.369z"
    ></path>
    <path
        fill="#25A9E0"
        d="M162.955 89.15H132.98a2.78 2.78 0 00-2.526 1.627l-15.416 33.921h33.443l15.458-34.028c.343-.707-.192-1.52-.984-1.52z"
    ></path>
    <path
        fill="#2F333A"
        d="M62.86 25.141c7.088-.385 11.284 4.562 12.504 8.909.878 3.126.45 3.747.45 3.747s-.77.857-6.337 1.114c-5.546.257-6.23.171-6.23.171l-.343-4.925-1.67 4.754s-.9.942-4.325-.343c-3.447-1.285-5.01-5.525-5.01-5.525s-.771-2.805 1.884-4.668c2.697-1.885 9.078-3.234 9.078-3.234z"
    ></path>
    <path
        fill="#9B9B9B"
        d="M57.594 41.866c-.685 4.497-4.26 7.688-8.008 7.11-3.746-.557-6.23-4.669-5.545-9.166.685-4.497 4.26-7.688 8.008-7.11 3.725.579 6.23 4.669 5.545 9.166z"
    ></path>
    <path
        fill="#CECECE"
        d="M54.875 41.76c-.621 4.154-3.576 7.173-6.573 6.724-2.998-.45-4.925-4.198-4.304-8.352.621-4.155 3.576-7.174 6.573-6.724 3.02.45 4.946 4.175 4.304 8.351z"
    ></path>
    <path
        fill="#F2E5DE"
        d="M50.293 40.817c-.343 2.291-1.585 4.004-2.784 3.812-1.199-.172-1.884-2.185-1.541-4.476.342-2.292 1.584-4.005 2.783-3.812 1.2.193 1.884 2.184 1.542 4.476z"
    ></path>
    <path
        fill="#9B9B9B"
        d="M50.122 32.83c3.254-12.078 14.473-10.322 17.3-8.63 2.397 1.413 2.718 3.426 2.718 3.426s-3.083-2.506-8.328-1.585c-4.989.878-7.944 3.812-8.372 7.067-.214 1.627-3.318-.278-3.318-.278z"
    ></path>
    <path
        fill="#303C60"
        d="M.257 71.826H.236c-.15-.022-.236-.129-.236-.279.3-3.062 1.82-6.189 4.303-8.844 2.805-2.998 6.809-5.354 11.54-6.831C26.42 52.595 35.649 48.44 41.452 30.58c.042-.129.192-.214.32-.171.13.042.215.192.172.32-2.655 8.203-6.295 14.177-11.09 18.268-4.24 3.597-8.993 5.546-14.86 7.366-4.667 1.435-8.585 3.748-11.326 6.681C2.27 65.615.792 68.656.514 71.59c-.022.15-.129.236-.257.236z"
    ></path>
    <path
        fill="#303C60"
        d="M5.031 59.49a.225.225 0 01-.192-.107.267.267 0 01.043-.364c.042-.043 4.56-3.49 11.111-4.947C28.54 51.31 36.977 43.75 40.358 32.251c.043-.129.193-.214.322-.171.128.042.214.192.171.32-2.098 7.11-6.038 12.721-11.711 16.683-3.662 2.548-8.05 4.39-13.04 5.503C9.678 56 5.247 59.405 5.204 59.426c-.065.064-.129.064-.172.064z"
    ></path>
    <path
        fill="#9EC8FF"
        d="M171.874 49.005h-56.331L116.999 45h56.331l-1.456 4.005zM169.691 55H113.36l1.456-3.982h56.33L169.691 55zM135.653 65.217H94.288c-.535 0-.814-.45-.62-.985.192-.535.791-.985 1.348-.985h41.365c.535 0 .813.45.621.985-.214.535-.814.985-1.349.985zM134.068 69.586H92.682c-.535 0-.814-.45-.62-.985.192-.535.791-.985 1.348-.985h41.365c.535 0 .813.45.621.985-.193.536-.792.985-1.328.985z"
    ></path>
</svg>
