<svg width="1143" height="752" viewBox="0 0 1143 752" fill="none" xmlns="http://www.w3.org/2000/svg">
<g opacity="0.3">
<path d="M-251.678 973.977C-153.476 1009.76 -40.5304 1002.92 52.406 955.558C145.606 908.194 217.48 820.835 246.177 720.583C280.403 600.596 258.814 458.506 338.324 362.464C388.873 301.418 470.488 274.316 549.208 265.895C628.19 257.475 707.963 264.58 786.946 257.475C901.734 247.213 1011.78 207.218 1116.83 160.117C1249.52 100.387 1386.16 18.0276 1437.5 -118.01" stroke="#25A9E0" stroke-miterlimit="10"/>
<path d="M-230.878 977.66C-132.677 1013.45 -19.7311 1006.6 73.2053 959.241C166.405 911.877 238.279 824.518 266.976 724.266C301.202 604.279 279.614 462.189 359.123 366.147C409.672 305.101 491.287 277.999 570.007 269.579C648.99 261.158 728.762 268.263 807.745 261.158C922.533 250.896 1032.58 210.901 1137.63 163.801C1270.32 104.07 1406.96 21.7107 1458.3 -114.327" stroke="#25A9E0" stroke-miterlimit="10"/>
<path d="M-209.816 981.344C-111.615 1017.13 1.33086 1010.29 94.2672 962.925C187.467 915.561 259.341 828.202 288.038 727.95C322.264 607.963 300.675 465.873 380.185 369.831C430.734 308.785 512.349 281.683 591.069 273.263C670.051 264.842 749.824 271.947 828.807 264.842C943.595 254.58 1053.64 214.585 1158.69 167.485C1291.12 107.754 1428.02 25.1316 1479.1 -110.906" stroke="#25A9E0" stroke-miterlimit="10"/>
<path d="M-188.755 985.291C-90.553 1021.08 22.3924 1014.24 115.329 966.872C208.528 919.509 280.403 832.15 309.1 731.897C343.326 611.91 321.737 469.821 401.246 373.778C451.795 312.732 533.411 285.63 612.13 277.21C691.113 268.79 770.886 275.894 849.869 268.79C964.657 258.528 1074.71 218.532 1179.75 171.432C1312.44 111.702 1449.08 29.3421 1500.42 -106.696" stroke="#25A9E0" stroke-miterlimit="10"/>
<path d="M-167.956 988.976C-69.7541 1024.76 43.1912 1017.92 136.128 970.557C229.327 923.193 301.202 835.834 329.899 735.582C364.125 615.595 342.536 473.505 422.045 377.463C472.594 316.417 554.21 289.315 632.929 280.894C711.912 272.474 791.685 279.579 870.668 272.474C985.456 262.212 1095.51 222.217 1200.55 175.116C1333.24 115.386 1469.88 32.7635 1521.22 -103.274" stroke="#25A9E0" stroke-miterlimit="10"/>
<path d="M-146.895 992.658C-48.6926 1028.44 64.2528 1021.6 157.189 974.239C250.389 926.876 322.263 839.517 350.96 739.265C385.186 619.278 363.598 477.188 443.107 381.146C493.656 320.1 575.271 292.998 653.991 284.577C732.974 276.157 812.746 283.262 891.729 276.157C1006.52 265.895 1116.57 225.9 1221.61 178.799C1354.04 119.069 1490.95 36.4465 1542.02 -99.5913" stroke="#25A9E0" stroke-miterlimit="10"/>
<path d="M-125.832 996.605C-27.6301 1032.39 85.3153 1025.55 178.252 978.186C271.451 930.823 343.326 843.464 372.023 743.212C406.249 623.225 384.66 481.135 464.169 385.093C514.718 324.047 596.334 296.944 675.053 288.524C754.036 280.104 833.809 287.209 912.792 280.104C1027.58 269.842 1137.63 229.846 1242.68 182.746C1375.1 122.753 1511.74 40.3933 1563.08 -95.6445" stroke="#25A9E0" stroke-miterlimit="10"/>
<path d="M-105.033 1000.29C-6.83129 1036.08 106.114 1029.23 199.05 981.871C292.25 934.507 364.124 847.148 392.822 746.896C427.047 626.909 405.459 484.819 484.968 388.777C535.517 327.731 617.133 300.629 695.852 292.208C774.835 283.788 854.607 290.893 933.59 283.788C1048.38 273.526 1158.43 233.531 1263.47 186.43C1396.17 126.7 1532.81 44.3406 1584.14 -91.6973" stroke="#25A9E0" stroke-miterlimit="10"/>
<path d="M-83.9712 1003.97C14.2307 1039.76 127.176 1032.92 220.112 985.554C313.312 938.19 385.186 850.831 413.884 750.579C448.109 630.592 426.521 488.502 506.03 392.46C556.579 331.414 638.195 304.312 716.914 295.892C795.897 287.471 875.669 294.576 954.652 287.471C1069.44 277.209 1179.49 237.214 1284.54 190.114C1416.96 130.383 1553.87 47.7606 1604.94 -88.0142" stroke="#25A9E0" stroke-miterlimit="10"/>
<path d="M-62.9087 1007.92C35.2932 1043.71 148.239 1036.86 241.175 989.501C334.375 942.138 406.249 854.779 434.946 754.526C469.172 634.539 447.583 492.45 527.093 396.407C577.642 335.361 659.257 308.259 737.977 299.839C816.959 291.419 896.732 298.523 975.715 291.419C1090.5 281.157 1200.55 241.161 1305.6 194.061C1438.29 134.33 1574.93 51.971 1626.27 -84.0669" stroke="#25A9E0" stroke-miterlimit="10"/>
<path d="M-42.1104 1011.6C56.0916 1047.39 169.037 1040.55 261.973 993.186C355.173 945.822 427.047 858.463 455.744 758.211C489.97 638.224 468.382 496.134 547.891 400.092C598.44 339.046 680.056 311.944 758.775 303.523C837.758 295.103 917.53 302.208 996.513 295.103C1111.3 284.841 1221.35 244.846 1326.4 197.745C1459.09 138.015 1595.73 55.6556 1647.07 -80.3823" stroke="#25A9E0" stroke-miterlimit="10"/>
<path d="M-21.0474 1015.29C77.1546 1051.07 190.1 1044.23 283.036 996.869C376.236 949.505 448.11 862.146 476.807 761.894C511.033 641.907 489.445 499.817 568.954 403.775C619.503 342.729 701.119 315.627 779.838 307.207C858.821 298.786 938.593 305.891 1017.58 298.786C1132.36 288.524 1242.41 248.529 1347.46 201.429C1479.89 141.698 1616.53 59.0755 1667.87 -76.6992" stroke="#25A9E0" stroke-miterlimit="10"/>
<path d="M-0.249512 1019.23C97.9524 1055.02 210.898 1048.18 303.834 1000.82C397.034 953.453 468.908 866.094 497.605 765.841C531.831 645.854 510.242 503.765 589.752 407.722C640.301 346.676 721.916 319.574 800.636 311.154C879.619 302.734 959.391 309.838 1038.37 302.734C1153.16 292.472 1263.21 252.476 1368.26 205.376C1500.95 145.645 1637.59 63.2859 1688.93 -72.752" stroke="#25A9E0" stroke-miterlimit="10"/>
<path d="M20.813 1022.92C119.015 1058.7 231.96 1051.86 324.897 1004.5C418.096 957.136 489.971 869.777 518.668 769.525C552.894 649.538 531.305 507.448 610.814 411.405C661.363 350.359 742.979 323.257 821.698 314.837C900.681 306.417 980.454 313.521 1059.44 306.417C1174.22 296.155 1284.27 256.159 1389.32 209.059C1522.01 149.329 1658.65 66.969 1709.99 -69.0688" stroke="#25A9E0" stroke-miterlimit="10"/>
<path d="M41.8745 1026.6C140.076 1062.39 253.022 1055.55 345.958 1008.18C439.158 960.82 511.032 873.461 539.729 773.209C573.955 653.222 552.366 511.132 631.876 415.09C682.425 354.044 764.04 326.942 842.76 318.521C921.743 310.101 1001.52 317.206 1080.5 310.101C1195.29 299.839 1305.34 259.844 1410.38 212.743C1543.07 153.013 1679.71 70.6536 1731.05 -65.3843" stroke="#25A9E0" stroke-miterlimit="10"/>
<path d="M62.6729 1030.55C160.875 1066.34 273.82 1059.49 366.757 1012.13C459.956 964.767 531.831 877.408 560.528 777.156C594.753 657.169 573.165 515.079 652.674 419.037C703.223 357.991 784.839 330.888 863.558 322.468C942.541 314.048 1022.31 321.153 1101.3 314.048C1216.08 303.786 1326.13 263.79 1431.18 216.69C1563.87 156.96 1700.51 74.6004 1751.85 -61.4375" stroke="#25A9E0" stroke-miterlimit="10"/>
<path d="M83.7358 1034.23C181.938 1070.02 294.883 1063.18 387.82 1015.81C481.019 968.45 552.894 881.091 581.591 780.839C615.816 660.852 594.228 518.762 673.737 422.72C724.286 361.674 805.902 334.571 884.621 326.151C963.604 317.731 1043.38 324.836 1122.36 317.731C1237.15 307.469 1347.2 267.473 1452.24 220.373C1584.94 160.643 1721.58 78.2835 1772.91 -57.7544" stroke="#25A9E0" stroke-miterlimit="10"/>
<path d="M104.798 1037.92C203 1073.7 315.946 1066.86 408.882 1019.5C502.082 972.134 573.956 884.775 602.653 784.523C636.879 664.536 615.29 522.446 694.8 426.404C745.349 365.358 826.964 338.256 905.684 329.835C984.666 321.415 1064.44 328.52 1143.42 321.415C1258.21 311.153 1368.26 271.158 1473.31 224.057C1606 164.327 1742.64 81.9676 1793.98 -54.0703" stroke="#25A9E0" stroke-miterlimit="10"/>
<path d="M125.597 1041.86C223.799 1077.65 336.744 1070.81 429.68 1023.44C522.88 976.081 594.754 888.722 623.451 788.47C657.677 668.483 636.089 526.393 715.598 430.351C766.147 369.305 847.763 342.202 926.482 333.782C1005.46 325.362 1085.24 332.467 1164.22 325.362C1279.01 315.1 1389.06 275.104 1494.1 228.004C1626.8 168.274 1763.44 85.9144 1814.77 -50.1235" stroke="#25A9E0" stroke-miterlimit="10"/>
<path d="M146.659 1045.55C244.861 1081.33 357.806 1074.49 450.742 1027.13C543.942 979.766 615.816 892.407 644.513 792.154C678.739 672.167 657.151 530.078 736.66 434.035C787.209 372.989 868.825 345.887 947.544 337.467C1026.53 329.047 1106.3 336.151 1185.28 329.047C1300.07 318.785 1410.12 278.789 1515.17 231.689C1647.86 171.958 1784.5 89.5989 1835.84 -46.439" stroke="#25A9E0" stroke-miterlimit="10"/>
</g>
</svg>
