<svg width="80" height="80" viewBox="0 0 80 80" fill="none" xmlns="http://www.w3.org/2000/svg">
<path fill-rule="evenodd" clip-rule="evenodd" d="M38.8412 26.2686C31.6886 26.2686 24.822 29.0769 19.7193 34.0891C14.6167 39.1013 11.686 45.9165 11.558 53.068L9.79065 53.0363C9.9269 45.4217 13.0475 38.1649 18.4807 32.8281C23.9139 27.4912 31.2253 24.501 38.8412 24.501C46.4571 24.501 53.7685 27.4912 59.2017 32.8281C64.6349 38.1649 67.7554 45.4217 67.8917 53.0363L66.1243 53.068C65.9964 45.9165 63.0657 39.1013 57.963 34.0891C52.8603 29.0769 45.9937 26.2686 38.8412 26.2686Z" fill="#2F333A"/>
<path d="M45.9247 32.5456V18.6042H31.9833V32.5456H45.9247Z" fill="#25A9E0"/>
<path fill-rule="evenodd" clip-rule="evenodd" d="M47.0878 18V33.709H31.3788V18H47.0878ZM45.3202 19.7676H33.1464V31.9414H45.3202V19.7676Z" fill="#2F333A"/>
<path fill-rule="evenodd" clip-rule="evenodd" d="M11.6299 24.8262H32.01V26.5938H11.6299V24.8262Z" fill="#2F333A"/>
<path fill-rule="evenodd" clip-rule="evenodd" d="M66.8729 26.5938H46.4838V24.8262H66.8729V26.5938Z" fill="#2F333A"/>
<path d="M67.3864 60.9515C69.8068 60.9515 71.769 58.9893 71.769 56.5689C71.769 54.1484 69.8068 52.1863 67.3864 52.1863C64.9659 52.1863 63.0038 54.1484 63.0038 56.5689C63.0038 58.9893 64.9659 60.9515 67.3864 60.9515Z" fill="url(#paint0_linear_2007_2616)"/>
<path d="M67.1967 61.141C69.6171 61.141 71.5793 59.1788 71.5793 56.7583C71.5793 54.3379 69.6171 52.3757 67.1967 52.3757C64.7762 52.3757 62.8141 54.3379 62.8141 56.7583C62.8141 59.1788 64.7762 61.141 67.1967 61.141Z" fill="#25A9E0"/>
<path fill-rule="evenodd" clip-rule="evenodd" d="M67.1967 53.2596C65.2644 53.2596 63.6979 54.826 63.6979 56.7584C63.6979 58.6907 65.2644 60.2572 67.1967 60.2572C69.1291 60.2572 70.6955 58.6907 70.6955 56.7584C70.6955 54.826 69.1291 53.2596 67.1967 53.2596ZM61.9303 56.7584C61.9303 53.8498 64.2882 51.4919 67.1967 51.4919C70.1053 51.4919 72.4632 53.8498 72.4632 56.7584C72.4632 59.6669 70.1053 62.0248 67.1967 62.0248C64.2882 62.0248 61.9303 59.6669 61.9303 56.7584Z" fill="#2F333A"/>
<path d="M8.07719 30.1917C10.4976 30.1917 12.4598 28.2296 12.4598 25.8091C12.4598 23.3887 10.4976 21.4265 8.07719 21.4265C5.65674 21.4265 3.69458 23.3887 3.69458 25.8091C3.69458 28.2296 5.65674 30.1917 8.07719 30.1917Z" fill="#25A9E0"/>
<path fill-rule="evenodd" clip-rule="evenodd" d="M8.26643 22.1211C6.33409 22.1211 4.76763 23.6876 4.76763 25.6199C4.76763 27.5523 6.33409 29.1187 8.26643 29.1187C10.1988 29.1187 11.7652 27.5523 11.7652 25.6199C11.7652 23.6876 10.1988 22.1211 8.26643 22.1211ZM3 25.6199C3 22.7114 5.35786 20.3535 8.26643 20.3535C11.175 20.3535 13.5329 22.7114 13.5329 25.6199C13.5329 28.5285 11.175 30.8864 8.26643 30.8864C5.35786 30.8864 3 28.5285 3 25.6199Z" fill="#2F333A"/>
<path d="M11.0527 60.9515C13.4732 60.9515 15.4353 58.9893 15.4353 56.5689C15.4353 54.1484 13.4732 52.1863 11.0527 52.1863C8.63227 52.1863 6.6701 54.1484 6.6701 56.5689C6.6701 58.9893 8.63227 60.9515 11.0527 60.9515Z" fill="url(#paint1_linear_2007_2616)"/>
<path d="M10.8635 61.141C13.284 61.141 15.2461 59.1788 15.2461 56.7583C15.2461 54.3379 13.284 52.3757 10.8635 52.3757C8.44306 52.3757 6.4809 54.3379 6.4809 56.7583C6.4809 59.1788 8.44306 61.141 10.8635 61.141Z" fill="#25A9E0"/>
<path fill-rule="evenodd" clip-rule="evenodd" d="M10.8635 53.2596C8.93117 53.2596 7.3647 54.826 7.3647 56.7584C7.3647 58.6907 8.93117 60.2572 10.8635 60.2572C12.7958 60.2572 14.3623 58.6907 14.3623 56.7584C14.3623 54.826 12.7958 53.2596 10.8635 53.2596ZM5.59708 56.7584C5.59708 53.8498 7.95494 51.4919 10.8635 51.4919C13.7721 51.4919 16.1299 53.8498 16.1299 56.7584C16.1299 59.6669 13.7721 62.0248 10.8635 62.0248C7.95494 62.0248 5.59708 59.6669 5.59708 56.7584Z" fill="#2F333A"/>
<path d="M71.1016 30.1917C73.5221 30.1917 75.4842 28.2296 75.4842 25.8091C75.4842 23.3887 73.5221 21.4265 71.1016 21.4265C68.6812 21.4265 66.719 23.3887 66.719 25.8091C66.719 28.2296 68.6812 30.1917 71.1016 30.1917Z" fill="#25A9E0"/>
<path fill-rule="evenodd" clip-rule="evenodd" d="M71.2911 22.1211C69.3588 22.1211 67.7923 23.6876 67.7923 25.6199C67.7923 27.5523 69.3588 29.1187 71.2911 29.1187C73.2234 29.1187 74.7899 27.5523 74.7899 25.6199C74.7899 23.6876 73.2234 22.1211 71.2911 22.1211ZM66.0247 25.6199C66.0247 22.7114 68.3825 20.3535 71.2911 20.3535C74.1997 20.3535 76.5575 22.7114 76.5575 25.6199C76.5575 28.5285 74.1997 30.8864 71.2911 30.8864C68.3825 30.8864 66.0247 28.5285 66.0247 25.6199Z" fill="#2F333A"/>
<path d="M38.9538 29.5519C39 29.4734 39.0659 29.4082 39.145 29.363C39.2241 29.3177 39.3136 29.2939 39.4047 29.2939C39.4958 29.2939 39.5854 29.3177 39.6644 29.363C39.7435 29.4082 39.8094 29.4734 39.8556 29.5519L48.5757 45.4862L56.863 60.6901C56.9402 60.8222 56.9746 60.975 56.9613 61.1275C56.9479 61.28 56.8877 61.4245 56.7887 61.5413C56.6898 61.658 56.5571 61.7412 56.4088 61.7794C56.2606 61.8175 56.1042 61.8087 55.9612 61.7542L40.2704 56.6141C40.1095 56.5598 39.9353 56.5598 39.7744 56.6141L24.3181 62.4756C24.1809 62.5172 24.0348 62.5186 23.8969 62.4795C23.759 62.4405 23.6353 62.3627 23.5403 62.2554C23.4453 62.1481 23.3832 62.0158 23.3612 61.8742C23.3392 61.7326 23.3583 61.5876 23.4163 61.4566L31.0182 45.892L38.9538 29.5519Z" fill="white"/>
<path fill-rule="evenodd" clip-rule="evenodd" d="M38.8595 28.1357C39.0722 28.014 39.313 27.95 39.5581 27.95C39.8032 27.95 40.044 28.014 40.2567 28.1357C40.4695 28.2574 40.6467 28.4325 40.7709 28.6438L40.7782 28.6563L49.4782 44.6303L57.7604 59.8338C57.9243 60.1207 57.9968 60.4508 57.9681 60.7802C57.9389 61.1149 57.8065 61.4323 57.5893 61.6886C57.3721 61.9449 57.0808 62.1275 56.7554 62.2112C56.4378 62.2929 56.1031 62.2765 55.7953 62.1643L40.1791 57.0129L24.7595 62.8604L24.7336 62.8685C24.4323 62.9621 24.1103 62.9663 23.8065 62.8807C23.5028 62.7951 23.2305 62.6232 23.0224 62.386C22.8143 62.1488 22.6794 61.8564 22.6341 61.5441C22.5888 61.2318 22.6349 60.9131 22.767 60.6266L22.7712 60.6175L26.5765 52.8263C26.7907 52.3877 27.3199 52.2058 27.7585 52.42C28.1971 52.6342 28.379 53.1634 28.1648 53.602L24.5223 61.0599L39.624 55.3329C39.975 55.2044 40.3596 55.2026 40.7116 55.3272L56.0486 60.3866L47.926 45.4759L39.5761 30.1447L30.1192 49.4833C29.9047 49.9218 29.3754 50.1034 28.9369 49.889C28.4984 49.6746 28.3168 49.1453 28.5312 48.7068L38.3281 28.673L38.3453 28.6438C38.4695 28.4325 38.6468 28.2574 38.8595 28.1357Z" fill="#2F333A"/>
<defs>
<linearGradient id="paint0_linear_2007_2616" x1="-272.766" y1="-716.375" x2="-272.766" y2="-801.573" gradientUnits="userSpaceOnUse">
<stop offset="0.04" stop-color="#F27B40"/>
<stop offset="1" stop-color="#EC697D"/>
</linearGradient>
<linearGradient id="paint1_linear_2007_2616" x1="-820.329" y1="-660.041" x2="-820.329" y2="-745.239" gradientUnits="userSpaceOnUse">
<stop offset="0.04" stop-color="#F27B40"/>
<stop offset="1" stop-color="#EC697D"/>
</linearGradient>
</defs>
</svg>
