<svg width="80" height="80" viewBox="0 0 80 80" fill="none" xmlns="http://www.w3.org/2000/svg">
<path d="M33.105 27.4304H71.6217C72.4115 27.4304 73.169 27.7442 73.7276 28.3027C74.2861 28.8612 74.5998 29.6187 74.5998 30.4086V61.4754C74.5998 62.2652 74.2861 63.0227 73.7276 63.5812C73.169 64.1397 72.4115 64.4535 71.6217 64.4535H33.105C32.7044 64.4535 32.3077 64.3746 31.9376 64.2213C31.5675 64.068 31.2312 63.8433 30.9479 63.56C30.6647 63.2768 30.44 62.9405 30.2867 62.5704C30.1333 62.2002 30.0544 61.8036 30.0544 61.403V30.481C30.0544 29.6719 30.3758 28.896 30.9479 28.3239C31.52 27.7518 32.2959 27.4304 33.105 27.4304Z" fill="white"/>
<path fill-rule="evenodd" clip-rule="evenodd" d="M31.4666 28.4227C31.4456 28.4226 31.4248 28.4268 31.4055 28.435C31.3861 28.4431 31.3686 28.4551 31.354 28.4701C31.3393 28.4851 31.3278 28.503 31.3202 28.5225C31.3125 28.542 31.3088 28.5629 31.3094 28.5839L31.3097 28.5955V63.4938C31.3097 63.5355 31.3262 63.5755 31.3557 63.605C31.3852 63.6345 31.4252 63.6511 31.4669 63.6511H55.8626C56.3656 63.6511 56.7735 64.0589 56.7735 64.562C56.7735 65.0651 56.3656 65.4729 55.8626 65.4729H31.4669C30.942 65.4729 30.4386 65.2644 30.0675 64.8932C29.6963 64.5221 29.4878 64.0187 29.4878 63.4938V28.6169C29.483 28.3573 29.5293 28.0992 29.6241 27.8574C29.7205 27.6114 29.8652 27.3873 30.0497 27.1982C30.2341 27.009 30.4546 26.8587 30.698 26.7561C30.9414 26.6536 31.2029 26.6008 31.467 26.6008C31.4669 26.6008 31.4671 26.6008 31.467 26.6008H72.0294C73.044 26.6008 74.0171 27.0039 74.7345 27.7213C75.452 28.4388 75.855 29.4119 75.855 30.4265V61.6472C75.855 62.6618 75.452 63.6349 74.7345 64.3524C74.0171 65.0698 73.044 65.4729 72.0294 65.4729H63.6053C63.1022 65.4729 62.6944 65.0651 62.6944 64.562C62.6944 64.0589 63.1022 63.6511 63.6053 63.6511H72.0294C72.5608 63.6511 73.0705 63.44 73.4463 63.0642C73.8221 62.6884 74.0332 62.1787 74.0332 61.6472V30.4265C74.0332 29.8951 73.8221 29.3854 73.4463 29.0096C73.0705 28.6338 72.5608 28.4227 72.0294 28.4227H31.4666ZM58.1398 64.562C58.1398 64.0589 58.5477 63.6511 59.0507 63.6511H60.4171C60.9202 63.6511 61.328 64.0589 61.328 64.562C61.328 65.0651 60.9202 65.4729 60.4171 65.4729H59.0507C58.5477 65.4729 58.1398 65.0651 58.1398 64.562Z" fill="#2F333A"/>
<path fill-rule="evenodd" clip-rule="evenodd" d="M62.2294 34.5637C62.2294 34.0607 62.6373 33.6528 63.1403 33.6528H74.9352C75.4383 33.6528 75.8461 34.0607 75.8461 34.5637C75.8461 35.0668 75.4383 35.4747 74.9352 35.4747H63.1403C62.6373 35.4747 62.2294 35.0668 62.2294 34.5637Z" fill="#2F333A"/>
<path d="M52.4797 35.0337H50.4701C49.6641 35.0148 48.8974 34.6812 48.3341 34.1044C47.7708 33.5276 47.4555 32.7532 47.4558 31.9469C47.4558 31.5341 47.5438 31.126 47.714 30.7498C47.8841 30.3736 48.1324 30.0381 48.4424 29.7654L49.7369 28.4981C50.0423 28.1981 50.285 27.8403 50.4506 27.4455C50.6162 27.0508 50.7015 26.627 50.7015 26.1989C50.7015 25.7708 50.6162 25.3469 50.4506 24.9522C50.285 24.5574 50.0423 24.1996 49.7369 23.8996L46.795 20.9848C46.1723 20.3926 45.3459 20.0624 44.4867 20.0624C43.6274 20.0624 42.801 20.3926 42.1784 20.9848L40.9382 22.225C40.6573 22.5434 40.3118 22.7985 39.9248 22.9733C39.5378 23.1481 39.118 23.2386 38.6933 23.2388C37.887 23.2439 37.1107 22.9332 36.5304 22.3733C35.9502 21.8134 35.6121 21.0486 35.5885 20.2426V18.224C35.5934 17.3578 35.2571 16.5246 34.6523 15.9045C34.0475 15.2845 33.2229 14.9275 32.3569 14.9109H28.3558C27.4907 14.9275 26.667 15.2848 26.0636 15.9051C25.4603 16.5254 25.126 17.3587 25.1333 18.224V20.2335C25.1097 21.0371 24.7725 21.7996 24.194 22.3578C23.6154 22.9161 22.8414 23.2258 22.0375 23.2207C21.624 23.2214 21.2152 23.1346 20.8376 22.9661C20.4601 22.7976 20.1225 22.5512 19.8469 22.2431L18.5705 20.9848C17.9482 20.3885 17.1149 20.063 16.2532 20.0796C15.3985 20.0726 14.5744 20.3971 13.9539 20.9848L10.9848 23.8815C10.3768 24.4922 10.0354 25.319 10.0354 26.1808C10.0354 27.0426 10.3768 27.8693 10.9848 28.48L12.225 29.7111C12.543 29.9909 12.7985 30.3347 12.9748 30.72C13.151 31.1052 13.2441 31.5233 13.2479 31.9469C13.2505 32.7524 12.9372 33.5267 12.3754 34.1038C11.8135 34.6809 11.0478 35.0148 10.2426 35.0337H8.23301C7.80117 35.0277 7.37241 35.1072 6.97137 35.2675C6.57034 35.4278 6.20495 35.6658 5.89622 35.9678C5.58749 36.2698 5.3415 36.6298 5.1724 37.0272C5.0033 37.4246 4.91443 37.8515 4.91089 38.2834V42.2935C4.93226 43.1563 5.29313 43.9758 5.91514 44.5741C6.53714 45.1723 7.37006 45.5011 8.23301 45.4889H10.2426C11.0478 45.5124 11.8122 45.849 12.3734 46.427C12.9345 47.0051 13.2482 47.7791 13.2479 48.5847C13.2451 49.0072 13.1524 49.4243 12.9761 49.8082C12.7997 50.1921 12.5437 50.5341 12.225 50.8115L10.9848 52.0426C10.3774 52.6518 10.0362 53.477 10.0362 54.3373C10.0362 55.1976 10.3774 56.0228 10.9848 56.632L13.963 59.5196C14.2692 59.8151 14.6307 60.0471 15.0269 60.2024C15.423 60.3578 15.8459 60.4334 16.2713 60.4249C17.1282 60.4295 17.9543 60.1056 18.5796 59.5196L19.8559 58.2523C20.1287 57.9516 20.4611 57.7109 20.8321 57.5457C21.203 57.3805 21.6043 57.2944 22.0103 57.2928C22.8166 57.2877 23.593 57.5984 24.1732 58.1583C24.7535 58.7183 25.0915 59.4831 25.1152 60.2891V62.2896C25.1079 63.1564 25.4434 63.991 26.0487 64.6116C26.654 65.2321 27.48 65.5884 28.3468 65.6027H32.3569C33.222 65.586 34.0457 65.2287 34.6491 64.6084C35.2524 63.9881 35.5867 63.1549 35.5794 62.2896V60.28C35.5952 59.6673 35.7941 59.0733 36.1506 58.5747C36.507 58.076 37.0046 57.6955 37.5792 57.4822C38.1538 57.2689 38.7792 57.2326 39.3746 57.3779C39.9701 57.5233 40.5084 57.8436 40.9201 58.2976L42.1603 59.5377C42.7829 60.1299 43.6093 60.4602 44.4686 60.4602C45.3278 60.4602 46.1542 60.1299 46.7769 59.5377L49.7188 56.6049C50.3268 55.9941 50.6682 55.1674 50.6682 54.3056C50.6682 53.4438 50.3268 52.6171 49.7188 52.0064L48.4243 50.7301C48.1174 50.4579 47.8722 50.1232 47.7052 49.7485C47.5381 49.3738 47.4531 48.9678 47.4558 48.5575C47.4532 47.7521 47.7664 46.9778 48.3283 46.4007C48.8901 45.8236 49.6558 45.4897 50.4611 45.4708H52.4706C52.8853 45.4712 53.2957 45.3875 53.6772 45.2249C54.0586 45.0623 54.4031 44.824 54.6899 44.5245C54.9767 44.225 55.1999 43.8705 55.3459 43.4824C55.4918 43.0943 55.5576 42.6806 55.5393 42.2663V38.2834C55.5694 37.865 55.5123 37.4449 55.3717 37.0497C55.2311 36.6544 55.0101 36.2927 54.7225 35.9872C54.435 35.6818 54.0872 35.4394 53.7011 35.2752C53.315 35.1111 52.8991 35.0289 52.4797 35.0337ZM30.3563 50.8025C28.2684 50.8043 26.2269 50.1868 24.49 49.0281C22.7531 47.8694 21.3988 46.2216 20.5986 44.2931C19.7983 42.3647 19.588 40.2422 19.9942 38.1941C20.4005 36.1461 21.405 34.2646 22.8808 32.7876C24.3565 31.3106 26.2372 30.3044 28.2848 29.8964C30.3325 29.4885 32.4552 29.6969 34.3843 30.4955C36.3135 31.2941 37.9624 32.647 39.1226 34.3829C40.2828 36.1188 40.902 38.1598 40.902 40.2477C40.902 43.0454 39.7913 45.7287 37.8138 47.7079C35.8364 49.687 33.1541 50.8001 30.3563 50.8025Z" fill="#25A9E0"/>
<path fill-rule="evenodd" clip-rule="evenodd" d="M28.3471 14H32.3656L32.3744 14.0002C33.4798 14.0214 34.5324 14.4771 35.3044 15.2685C36.0758 16.0593 36.505 17.1219 36.4994 18.2266V20.2281C36.5191 20.7918 36.7569 21.326 37.163 21.7178C37.572 22.1125 38.1192 22.3315 38.6876 22.3279L38.6928 22.3279C38.9884 22.3278 39.2805 22.2648 39.5499 22.1431C39.8193 22.0215 40.0597 21.8439 40.2552 21.6223L40.2741 21.601L41.5424 20.3327L41.5506 20.3248C42.3426 19.5716 43.3937 19.1515 44.4867 19.1515C45.5797 19.1515 46.6308 19.5716 47.4228 20.3248L47.4295 20.3312L50.3752 23.2497C50.3756 23.2502 50.3761 23.2507 50.3766 23.2511C50.7677 23.6356 51.0784 24.094 51.2906 24.5998C51.503 25.1061 51.6124 25.6498 51.6124 26.1989C51.6124 26.748 51.503 27.2916 51.2906 27.798C51.0781 28.3043 50.7669 28.7633 50.3752 29.148L49.0623 30.4333L49.0441 30.4494C48.8312 30.6366 48.6608 30.867 48.5439 31.1252C48.4272 31.3835 48.3667 31.6636 48.3667 31.9471C48.3665 32.5154 48.5888 33.0614 48.9858 33.468C49.3806 33.8723 49.9172 34.107 50.4818 34.1228H52.4748C53.0184 34.1173 53.5572 34.2243 54.0575 34.437C54.5595 34.6504 55.0118 34.9657 55.3857 35.3628C55.7597 35.76 56.0472 36.2304 56.23 36.7444C56.4089 37.2474 56.4838 37.7814 56.4502 38.314V42.2475C56.4708 42.7776 56.3853 43.3065 56.1985 43.8031C56.0092 44.3064 55.7198 44.7662 55.3479 45.1546C54.9759 45.543 54.5291 45.8519 54.0345 46.0629C53.5398 46.2738 53.0075 46.3822 52.4698 46.3817H50.4727C50.476 46.3816 50.4792 46.3815 50.4825 46.3815L50.4611 45.4708V46.3817H50.4727C49.9094 46.3975 49.3743 46.6322 48.981 47.0361C48.5854 47.4424 48.3649 47.9876 48.3667 48.5546L48.3667 48.5635C48.3649 48.8439 48.423 49.1215 48.5372 49.3776C48.6513 49.6337 48.819 49.8625 49.0288 50.0486L49.0468 50.0645L50.3644 51.3637C51.1424 52.1451 51.5791 53.203 51.5791 54.3057C51.5791 55.4084 51.1423 56.4662 50.3643 57.2476L50.3619 57.25L47.4124 60.1904L47.4047 60.1978C46.6127 60.9511 45.5616 61.3711 44.4686 61.3711C43.3756 61.3711 42.3245 60.9511 41.5325 60.1978L41.5243 60.1899L40.2603 58.926L40.2454 58.9096C39.9559 58.5903 39.5774 58.3651 39.1587 58.2629C38.74 58.1607 38.3003 58.1862 37.8962 58.3362C37.4921 58.4862 37.1423 58.7537 36.8916 59.1044C36.6431 59.4521 36.5035 59.8658 36.4903 60.2928V60.28H35.5794L36.49 60.3035C36.4901 60.2999 36.4902 60.2964 36.4903 60.2928V62.2858C36.4903 62.2845 36.4903 62.2832 36.4903 62.2819L35.5794 62.2896H36.4903V62.2858C36.4986 63.3896 36.0718 64.4523 35.3021 65.2436C34.5314 66.0358 33.4794 66.4921 32.3744 66.5134L32.3656 66.5136H28.3393L28.3318 66.5135C27.2247 66.4952 26.1698 66.0402 25.3967 65.2476C24.6245 64.456 24.196 63.3916 24.2043 62.2859V62.2896H25.1152L24.2043 62.282C24.2043 62.2833 24.2043 62.2846 24.2043 62.2859V60.3036C24.2044 60.3077 24.2046 60.3117 24.2047 60.3158L25.1152 60.2891H24.2043V60.3036C24.1846 59.7399 23.9468 59.2057 23.5407 58.8138C23.1317 58.4191 22.5845 58.2002 22.0161 58.2037L22.0139 58.2038C21.7343 58.2048 21.4581 58.2641 21.2027 58.3779C20.9473 58.4916 20.7185 58.6573 20.5307 58.8643L20.5146 58.882L19.212 60.1754L19.2024 60.1844C18.4099 60.927 17.3638 61.3388 16.278 61.3358C16.2818 61.3358 16.2857 61.3357 16.2895 61.3356L16.2713 60.4249L16.2663 61.3358C16.2702 61.3358 16.2741 61.3358 16.278 61.3358C15.7366 61.3451 15.1985 61.2482 14.6943 61.0505C14.1866 60.8514 13.7231 60.5539 13.3306 60.1752L13.3289 60.1736L10.3453 57.2807L10.3399 57.2753C9.56209 56.4953 9.12532 55.4388 9.12532 54.3373C9.12532 53.2359 9.56209 52.1793 10.3399 51.3994L10.3431 51.3962L11.6045 50.144L11.627 50.1244C11.8482 49.9319 12.0259 49.6945 12.1483 49.428C12.2704 49.1623 12.3347 48.8738 12.337 48.5815C12.337 48.5825 12.337 48.5834 12.337 48.5843L13.2479 48.5847L12.337 48.5787C12.337 48.5797 12.337 48.5806 12.337 48.5815C12.3365 48.014 12.1152 47.4688 11.7198 47.0615C11.3266 46.6565 10.792 46.4194 10.2281 46.3998H10.2426V45.4889L10.216 46.3994C10.22 46.3995 10.2241 46.3997 10.2281 46.3998H8.2391C8.24137 46.3998 8.24363 46.3998 8.24589 46.3997L8.23303 45.4889V46.3998H8.2391C7.1387 46.4136 6.07698 45.9936 5.28369 45.2306C4.48878 44.466 4.02759 43.4187 4.00028 42.3161L4 42.3048V38.276C4.00452 37.7241 4.11813 37.1785 4.33424 36.6706C4.55034 36.1627 4.86471 35.7026 5.25927 35.3166C5.65383 34.9307 6.12078 34.6265 6.6333 34.4217C7.14375 34.2176 7.68935 34.1161 8.23899 34.1228H8.23303V35.0337L8.24564 34.1229C8.24343 34.1229 8.24121 34.1228 8.23899 34.1228H10.2309C10.2277 34.1229 10.2244 34.123 10.2212 34.1231L10.2426 35.0337V34.1228H10.2309C10.7943 34.107 11.3294 33.8724 11.7227 33.4684C12.1177 33.0627 12.3381 32.5186 12.337 31.9525C12.337 31.9534 12.337 31.9543 12.337 31.9551L13.2479 31.947L12.337 31.9499C12.337 31.9508 12.337 31.9516 12.337 31.9525C12.334 31.6578 12.2691 31.367 12.1464 31.099C12.0235 30.8301 11.8452 30.5902 11.6232 30.3949L11.6027 30.3769L10.3431 29.1265L10.3393 29.1227C9.56133 28.3413 9.12454 27.2835 9.12454 26.1808C9.12454 25.0781 9.56133 24.0203 10.3393 23.2388L10.344 23.2342L13.3227 20.3282L13.3275 20.3236C14.1161 19.5766 15.1624 19.163 16.2482 19.1687C16.244 19.1688 16.2398 19.1688 16.2357 19.1689L16.2532 20.0797L16.2607 19.1688C16.2565 19.1687 16.2523 19.1687 16.2482 19.1687C17.3464 19.1508 18.4075 19.567 19.2007 20.3272L19.2054 20.3316L20.5068 21.6145L20.5258 21.6358C20.7158 21.8483 20.9486 22.0181 21.2089 22.1343C21.4692 22.2505 21.7511 22.3103 22.0361 22.3098L22.0432 22.3098C22.6092 22.3134 23.1542 22.0954 23.5615 21.7024C23.9659 21.3122 24.2027 20.7803 24.2224 20.219V20.2335H25.1333L24.2228 20.2068C24.2227 20.2109 24.2225 20.2149 24.2224 20.219V18.2275C24.2224 18.2289 24.2224 18.2303 24.2224 18.2317L25.1333 18.224H24.2224V18.2275C24.2142 17.1238 24.641 16.0613 25.4107 15.27C26.1813 14.4777 27.2333 14.0214 28.3383 14.0002L28.3471 14ZM28.3653 15.8218C27.7429 15.8359 27.1508 16.0938 26.7166 16.5403C26.2805 16.9886 26.0389 17.5909 26.0442 18.2163L26.0442 18.224L26.0442 20.2469L26.0438 20.2603C26.0132 21.3018 25.5763 22.2899 24.8265 23.0134C24.0776 23.736 23.0759 24.1373 22.0354 24.1317C21.4948 24.132 20.9601 24.0183 20.4664 23.798C19.9809 23.5813 19.5458 23.2663 19.1884 22.8731L17.936 21.6385C17.4881 21.2114 16.8896 20.9785 16.2707 20.9904L16.2582 20.9906L16.2457 20.9905C15.6288 20.9855 15.0338 21.2189 14.5849 21.6419L11.6261 24.5286C11.1907 24.9681 10.9464 25.5619 10.9464 26.1808C10.9464 26.8009 11.1917 27.3957 11.6286 27.8356L12.8486 29.0466C13.2526 29.4075 13.5777 29.8482 13.8031 30.341C14.0326 30.8427 14.1538 31.3871 14.1588 31.9388L14.1588 31.944C14.1622 32.9879 13.7562 33.9914 13.028 34.7393C12.2999 35.4872 11.3076 35.9198 10.264 35.9444L10.2533 35.9446H8.22042C7.90862 35.9403 7.59905 35.9976 7.3095 36.1133C7.01995 36.2291 6.75613 36.4009 6.53322 36.619C6.31031 36.837 6.1327 37.097 6.01061 37.3839C5.88896 37.6698 5.82482 37.9768 5.82182 38.2875V42.2813C5.83987 42.9005 6.10002 43.488 6.54663 43.9176C6.99572 44.3495 7.5971 44.5869 8.22017 44.5781L8.23303 44.5779L10.2559 44.578L10.2692 44.5784C11.3115 44.6089 12.3007 45.0444 13.027 45.7926C13.7532 46.5407 14.1593 47.5425 14.1588 48.5851L14.1588 48.5907C14.1551 49.1425 14.0342 49.6871 13.8039 50.1884C13.578 50.6802 13.2521 51.1192 12.847 51.4776L11.6299 52.6858C11.6293 52.6864 11.6288 52.6869 11.6282 52.6875C11.192 53.1258 10.9471 53.7189 10.9471 54.3373C10.9471 54.9541 11.1908 55.5459 11.6249 55.9838L14.5955 58.8641C14.5957 58.8643 14.5959 58.8645 14.5961 58.8648C14.8159 59.0766 15.0753 59.243 15.3595 59.3544C15.6439 59.466 15.9476 59.5203 16.2531 59.5141L16.2647 59.5139L16.2762 59.514C16.896 59.5173 17.4937 59.2846 17.9479 58.8633L19.1984 57.6216C19.5529 57.2359 19.9828 56.9269 20.4615 56.7136C20.948 56.497 21.4742 56.384 22.0068 56.3819L22.0103 57.2928L22.0046 56.382C22.0053 56.382 22.0061 56.3819 22.0068 56.3819C23.0503 56.3759 24.0548 56.7782 24.8058 57.5029C25.5572 58.2281 25.9951 59.2185 26.0257 60.2624L26.0261 60.2757V62.2973C26.0208 62.9238 26.2633 63.527 26.7008 63.9756C27.1367 64.4224 27.7309 64.6796 28.3549 64.6918H28.3468V65.6027L28.3618 64.6919C28.3595 64.6919 28.3572 64.6918 28.3549 64.6918H32.3475C32.3448 64.6918 32.3421 64.6919 32.3393 64.6919L32.3569 65.6027V64.6918H32.3475C32.9698 64.6777 33.5619 64.4197 33.9961 63.9733C34.4322 63.525 34.6738 62.9227 34.6685 62.2973L34.6685 62.2896V60.2683L34.6688 60.2566C34.6893 59.4619 34.9473 58.6917 35.4095 58.045C35.8717 57.3983 36.517 56.9049 37.2622 56.6283C38.0074 56.3517 38.8184 56.3046 39.5906 56.493C40.3552 56.6796 41.0471 57.0887 41.579 57.6682L41.5643 57.6535L40.9202 58.2976L41.5949 57.6857C41.5896 57.6798 41.5843 57.674 41.579 57.6682L42.7957 58.885C42.7932 58.8826 42.7906 58.8801 42.7881 58.8777L42.1603 59.5378L42.8044 58.8937L42.7957 58.885C43.2481 59.3116 43.8465 59.5493 44.4686 59.5493C45.0909 59.5493 45.6895 59.3114 46.142 58.8845L46.1338 58.8927L46.7769 59.5378L46.1491 58.8777C46.1467 58.88 46.1443 58.8822 46.142 58.8845L49.0733 55.9622L49.7188 56.6049L49.0757 55.9598L49.0742 55.9613C49.5117 55.5213 49.7573 54.9261 49.7573 54.3057C49.7573 53.6861 49.5124 53.0916 49.0761 52.6519L49.0793 52.6551L49.7188 52.0064L49.0733 52.6491L47.8008 51.3945C47.8071 51.4002 47.8135 51.4059 47.82 51.4116L48.4244 50.7301L47.7848 51.3787L47.8008 51.3945C47.4057 51.0393 47.0896 50.6049 46.8732 50.1195C46.654 49.6277 46.542 49.0948 46.5449 48.5564C46.5449 48.5578 46.5449 48.5591 46.5449 48.5605L47.4558 48.5576L46.5449 48.5516C46.5449 48.5532 46.5449 48.5548 46.5449 48.5564C46.5426 47.5141 46.9484 46.5122 47.6756 45.7652C48.4038 45.0174 49.3961 44.5847 50.4397 44.5601L50.4504 44.5599H52.4706C52.7622 44.5602 53.0517 44.5014 53.3199 44.387C53.5882 44.2727 53.8304 44.1051 54.0321 43.8945C54.2337 43.6839 54.3906 43.4347 54.4933 43.1618C54.5959 42.8888 54.6422 42.598 54.6293 42.3067L54.6284 42.2865V38.2507L54.6307 38.2181C54.6518 37.9254 54.6119 37.6315 54.5135 37.355C54.4152 37.0785 54.2605 36.8254 54.0593 36.6117C53.8581 36.398 53.6148 36.2284 53.3447 36.1136C53.0746 35.9987 52.7837 35.9412 52.4902 35.9446L52.4797 35.9447L50.4594 35.9446L50.4488 35.9444C49.4049 35.9199 48.412 35.4879 47.6824 34.7408C46.9529 33.9938 46.5446 32.991 46.5449 31.9469C46.545 31.4046 46.6606 30.8685 46.884 30.3745C47.1039 29.8883 47.4233 29.4537 47.8214 29.0986L49.0987 27.8482C49.0986 27.8482 49.0987 27.8482 49.0987 27.8482C49.3177 27.633 49.4918 27.3763 49.6106 27.0932C49.7294 26.81 49.7906 26.506 49.7906 26.1989C49.7906 25.8918 49.7294 25.5878 49.6106 25.3046C49.4918 25.0214 49.3178 24.7647 49.0987 24.5496L49.0958 24.5467L46.161 21.6391C45.7085 21.2116 45.1094 20.9733 44.4867 20.9733C43.8646 20.9733 43.2662 21.2111 42.8138 21.6377L41.6011 22.8504C41.2384 23.255 40.7952 23.5797 40.2997 23.8035C39.7958 24.031 39.2493 24.1491 38.6964 24.1498C37.6531 24.1556 36.6487 23.7534 35.8979 23.0288C35.1464 22.3036 34.7086 21.3132 34.678 20.2693L34.6776 20.2559V18.224L34.6776 18.2188C34.6811 17.5921 34.4378 16.9892 34.0002 16.5406C33.5645 16.0939 32.9711 15.8359 32.3474 15.8218H28.3653ZM34.0359 31.3372C32.2733 30.6075 30.3338 30.417 28.4629 30.7898C26.5919 31.1626 24.8736 32.0819 23.5252 33.4314C22.1768 34.781 21.2589 36.5001 20.8878 38.3714C20.5166 40.2427 20.7088 42.182 21.4399 43.944C22.1711 45.706 23.4085 47.2116 24.9955 48.2703C26.5825 49.329 28.4479 49.8932 30.3556 49.8916C32.9119 49.8894 35.3627 48.8724 37.1695 47.064C38.9762 45.2557 39.9912 42.804 39.9912 40.2477C39.9912 38.34 39.4253 36.4752 38.3653 34.8891C37.3053 33.303 35.7986 32.0669 34.0359 31.3372ZM28.1069 29.0031C30.3312 28.5599 32.6371 28.7864 34.7328 29.6539C36.8284 30.5214 38.6197 31.991 39.88 33.8767C41.1403 35.7625 41.813 37.9796 41.813 40.2477C41.813 43.2869 40.6063 46.2018 38.4582 48.3517C36.3101 50.5017 33.3963 51.7108 30.3571 51.7134C28.089 51.7153 25.8713 51.0446 23.9845 49.7859C22.0977 48.5272 20.6266 46.7372 19.7572 44.6423C18.8879 42.5474 18.6595 40.2417 19.1008 38.0169C19.5421 35.7922 20.6333 33.7483 22.2364 32.1438C23.8395 30.5393 25.8825 29.4463 28.1069 29.0031Z" fill="#2F333A"/>
</svg>
