<svg
        width="185"
        height="66"
        fill="none"
        xmlns="http://www.w3.org/2000/svg"
>
    <g opacity="0.2" fill="#25A9E0">
        <path d="M179.598 52.787A3.206 3.206 0 00182.797 56a3.206 3.206 0 003.199-3.213 3.206 3.206 0 00-3.199-3.213 3.206 3.206 0 00-3.199 3.213zM154.008 52.787A3.206 3.206 0 00157.207 56a3.206 3.206 0 003.199-3.213 3.206 3.206 0 00-3.199-3.213 3.206 3.206 0 00-3.199 3.213zM128.536 52.787A3.206 3.206 0 00131.735 56a3.206 3.206 0 003.199-3.213 3.206 3.206 0 00-3.199-3.213 3.206 3.206 0 00-3.199 3.213zM102.946 52.787a3.193 3.193 0 013.199-3.213 3.193 3.193 0 013.199 3.213A3.193 3.193 0 01106.145 56a3.193 3.193 0 01-3.199-3.213zM77.352 52.787a3.206 3.206 0 003.2 3.213 3.206 3.206 0 003.198-3.213 3.206 3.206 0 00-3.199-3.213 3.206 3.206 0 00-3.199 3.213zM51.88 52.787A3.206 3.206 0 0055.078 56a3.206 3.206 0 003.2-3.213 3.206 3.206 0 00-3.2-3.213 3.206 3.206 0 00-3.198 3.213zM26.29 52.787A3.206 3.206 0 0029.489 56a3.206 3.206 0 003.198-3.213 3.206 3.206 0 00-3.198-3.213 3.206 3.206 0 00-3.2 3.213zM.696 52.787A3.206 3.206 0 003.895 56a3.206 3.206 0 003.199-3.213 3.206 3.206 0 00-3.2-3.213 3.206 3.206 0 00-3.198 3.213zM179.598 28.154a3.206 3.206 0 003.199 3.213 3.206 3.206 0 003.199-3.213 3.206 3.206 0 00-3.199-3.213 3.206 3.206 0 00-3.199 3.213zM154.008 28.154a3.207 3.207 0 003.199 3.213 3.206 3.206 0 003.199-3.213 3.206 3.206 0 00-3.199-3.213 3.206 3.206 0 00-3.199 3.213zM128.536 28.154a3.206 3.206 0 003.199 3.213 3.207 3.207 0 003.199-3.213 3.206 3.206 0 00-3.199-3.213 3.206 3.206 0 00-3.199 3.213zM102.946 28.154a3.193 3.193 0 013.199-3.213 3.193 3.193 0 013.199 3.213 3.193 3.193 0 01-3.199 3.213 3.193 3.193 0 01-3.199-3.213zM77.352 28.154a3.206 3.206 0 003.2 3.213 3.206 3.206 0 003.198-3.213 3.206 3.206 0 00-3.199-3.213 3.206 3.206 0 00-3.199 3.213zM51.88 28.154a3.206 3.206 0 003.198 3.213 3.206 3.206 0 003.2-3.213 3.206 3.206 0 00-3.2-3.213 3.206 3.206 0 00-3.198 3.213zM26.29 28.154a3.206 3.206 0 003.199 3.213 3.206 3.206 0 003.198-3.213 3.206 3.206 0 00-3.198-3.213 3.206 3.206 0 00-3.2 3.213zM.696 28.154a3.206 3.206 0 003.199 3.213 3.206 3.206 0 003.199-3.213 3.206 3.206 0 00-3.2-3.213 3.206 3.206 0 00-3.198 3.213zM182.483 6.718a3.202 3.202 0 003.506-2.87 3.208 3.208 0 00-2.858-3.522 3.202 3.202 0 00-3.506 2.87 3.21 3.21 0 002.858 3.522zM154.008 3.522a3.206 3.206 0 003.199 3.213 3.206 3.206 0 003.199-3.213 3.206 3.206 0 00-3.199-3.213 3.206 3.206 0 00-3.199 3.213zM128.536 3.522a3.206 3.206 0 003.199 3.213 3.206 3.206 0 003.199-3.213 3.206 3.206 0 00-3.199-3.213 3.206 3.206 0 00-3.199 3.213zM102.946 3.522a3.193 3.193 0 013.199-3.213 3.193 3.193 0 013.199 3.213 3.193 3.193 0 01-3.199 3.213 3.193 3.193 0 01-3.199-3.213zM77.352 3.522a3.206 3.206 0 003.2 3.213 3.206 3.206 0 003.198-3.213A3.206 3.206 0 0080.551.309a3.206 3.206 0 00-3.199 3.213zM51.88 3.522a3.206 3.206 0 003.198 3.213 3.206 3.206 0 003.2-3.213 3.206 3.206 0 00-3.2-3.213 3.206 3.206 0 00-3.198 3.213zM26.29 3.522a3.206 3.206 0 003.199 3.213 3.206 3.206 0 003.198-3.213A3.206 3.206 0 0029.49.309a3.206 3.206 0 00-3.2 3.213zM.696 3.522a3.206 3.206 0 003.199 3.213 3.206 3.206 0 003.199-3.213 3.206 3.206 0 00-3.2-3.213A3.206 3.206 0 00.697 3.522z" />
    </g>
</svg>