<svg width="59" height="43" viewBox="0 0 59 43" fill="none" xmlns="http://www.w3.org/2000/svg">
<path d="M45.5707 16.879C45.4619 15.7032 45.5451 12.507 48.607 8.06242C48.8386 7.72702 48.7966 7.27469 48.509 6.98713C47.2606 5.7388 46.4877 4.95106 45.9456 4.39984C45.2328 3.67303 44.9074 3.34185 44.4311 2.91002C44.1131 2.62415 43.6319 2.61917 43.3105 2.89939C37.9736 7.54334 32.0458 17.1394 32.9036 28.8959C33.4062 35.7992 38.4416 40.8099 44.8761 40.8099C51.4794 40.8099 56.8518 35.4383 56.8518 28.8349C56.8518 22.4647 51.8519 17.2407 45.5707 16.879ZM44.8761 39.1224C39.3504 39.1224 35.0237 34.7701 34.5862 28.774C34.5862 28.774 34.5862 28.774 34.5862 28.7732C33.6213 15.5508 41.4812 6.96241 43.856 4.68823C44.0875 4.91647 44.352 5.18504 44.7418 5.58219C45.2114 6.0601 45.8542 6.71435 46.8264 7.68998C43.1094 13.4166 43.8107 17.497 44.118 18.082C44.2638 18.3597 44.563 18.5468 44.8761 18.5468C50.5492 18.5468 55.1643 23.1619 55.1643 28.8349C55.1643 34.5073 50.5492 39.1224 44.8761 39.1224Z" fill="#FFE500" stroke="#FFE500" stroke-width="4"/>
<path d="M15.6033 16.8788C15.4937 15.7063 15.5744 12.5125 18.6396 8.06221C18.8704 7.72681 18.8291 7.27448 18.5416 6.98692C17.2957 5.74103 16.5237 4.95414 15.9823 4.40292C15.2671 3.6745 14.9408 3.3424 14.4645 2.90981C14.1465 2.62394 13.6653 2.61981 13.344 2.89833C8.00703 7.54228 2.07846 17.1367 2.93453 28.8957V28.8966C3.43884 35.799 8.47497 40.8097 14.9095 40.8097C21.5129 40.8097 26.8852 35.4381 26.8852 28.8347C26.8852 22.4638 21.8853 17.2389 15.6033 16.8788ZM14.9095 39.1221C9.38471 39.1221 5.05548 34.7699 4.61715 28.773V28.7738C3.65476 15.5481 11.5147 6.96136 13.8894 4.68802C14.1217 4.91626 14.3871 5.18652 14.7777 5.58452C15.2465 6.06242 15.8884 6.71582 16.859 7.68977C13.142 13.4173 13.8433 17.4968 14.1506 18.081C14.2965 18.3587 14.5963 18.5466 14.9095 18.5466C20.5826 18.5466 25.1977 23.1616 25.1977 28.8347C25.1977 34.5071 20.5826 39.1221 14.9095 39.1221Z" fill="#FFE500" stroke="#FFE500" stroke-width="4"/>
</svg>
