<?xml version="1.0" encoding="utf-8"?>
<!-- Generator: Adobe Illustrator 26.0.3, SVG Export Plug-In . SVG Version: 6.00 Build 0)  -->
<svg version="1.1" id="Layer_1" xmlns="http://www.w3.org/2000/svg" xmlns:xlink="http://www.w3.org/1999/xlink" x="0px" y="0px"
	 viewBox="0 0 30 30" style="enable-background:new 0 0 30 30;" xml:space="preserve">
<style type="text/css">
	.st0{fill:#FFFFFF;}
	.st1{fill:#25A9E0;}
</style>
<rect x="2.3" y="1.4" class="st0" width="25.5" height="28.6"/>
<path class="st1" d="M27.8,0H2.2C1,0,0,1,0,2.2v25.7C0,29,1,30,2.2,30H16V18.4h-3.9v-4.5H16v-3.3c0-3.9,2.4-6,5.8-6
	c1.7,0,3.1,0.1,3.5,0.2v4.1H23c-1.9,0-2.2,0.9-2.2,2.2v2.9h4.5l-0.6,4.5h-3.9V30h7.1c1.2,0,2.2-1,2.2-2.2V2.2C30,1,29,0,27.8,0
	L27.8,0z"/>
</svg>
