<svg width="1199" height="665" viewBox="0 0 1199 665" fill="none" xmlns="http://www.w3.org/2000/svg">
    <g opacity="0.7">
        <path d="M-108.67 605.197C-47.1853 627.602 23.5307 623.319 81.719 593.664C140.072 564.01 185.073 509.314 203.041 446.545C224.47 371.42 210.953 282.456 260.735 222.323C292.384 184.102 343.484 167.133 392.771 161.861C442.223 156.589 492.169 161.037 541.621 156.589C613.491 150.164 682.394 125.122 748.164 95.6324C831.243 58.2347 916.795 6.66875 948.939 -78.5057" stroke="white" stroke-miterlimit="10"/>
        <path d="M-95.6479 607.503C-34.1629 629.909 36.5532 625.625 94.7415 595.971C153.095 566.316 198.096 511.62 216.063 448.851C237.492 373.726 223.975 284.763 273.757 224.63C305.406 186.408 356.506 169.439 405.793 164.167C455.245 158.895 505.191 163.344 554.643 158.895C626.513 152.47 695.416 127.429 761.187 97.9389C844.266 60.5412 929.817 8.97519 961.961 -76.1993" stroke="white" stroke-miterlimit="10"/>
        <path d="M-82.4609 609.81C-20.9759 632.215 49.7402 627.932 107.928 598.277C166.282 568.623 211.283 513.926 229.25 451.158C250.679 376.033 237.162 287.069 286.944 226.936C318.593 188.715 369.693 171.746 418.98 166.474C468.432 161.202 518.378 165.65 567.83 161.202C639.7 154.777 708.603 129.735 774.374 100.245C857.288 62.8477 943.004 11.1169 974.983 -74.0576" stroke="white" stroke-miterlimit="10"/>
        <path d="M-69.2739 612.281C-7.78886 634.686 62.9272 630.403 121.115 600.748C179.469 571.094 224.47 516.398 242.437 453.629C263.866 378.504 250.349 289.54 300.131 229.407C331.78 191.186 382.88 174.217 432.167 168.945C481.619 163.673 531.565 168.121 581.017 163.673C652.887 157.248 721.79 132.206 787.561 102.717C870.64 65.3189 956.192 13.7529 988.335 -71.4216" stroke="white" stroke-miterlimit="10"/>
        <path d="M-56.2515 614.587C5.23361 636.993 75.9497 632.71 134.138 603.055C192.491 573.4 237.492 518.704 255.46 455.935C276.889 380.811 263.372 291.847 313.154 231.714C344.803 193.493 395.903 176.524 445.19 171.252C494.642 165.98 544.588 170.428 594.04 165.98C665.91 159.555 734.813 134.513 800.583 105.023C883.662 67.6254 969.214 15.8947 1001.36 -69.2798" stroke="white" stroke-miterlimit="10"/>
        <path d="M-43.0645 616.894C18.4206 639.299 89.1367 635.016 147.325 605.361C205.678 575.707 250.679 521.011 268.647 458.242C290.076 383.117 276.559 294.153 326.341 234.02C357.99 195.799 409.09 178.83 458.377 173.558C507.829 168.286 557.775 172.734 607.227 168.286C679.097 161.861 748 136.819 813.77 107.329C896.685 69.9318 982.401 18.2011 1014.38 -66.9734" stroke="white" stroke-miterlimit="10"/>
        <path d="M-29.8774 619.365C31.6076 641.771 102.324 637.487 160.512 607.833C218.865 578.178 263.866 523.482 281.834 460.713C303.263 385.588 289.746 296.624 339.528 236.492C371.177 198.27 422.277 181.301 471.564 176.029C521.016 170.757 570.962 175.205 620.414 170.757C692.284 164.332 761.187 139.291 826.957 109.801C909.872 72.2383 995.423 20.6723 1027.57 -64.5022" stroke="white" stroke-miterlimit="10"/>
        <path d="M-16.855 621.671C44.6301 644.077 115.346 639.794 173.534 610.139C231.888 580.485 276.889 525.788 294.856 463.02C316.285 387.895 302.768 298.931 352.55 238.798C384.199 200.577 435.299 183.608 484.586 178.336C534.038 173.064 583.984 177.512 633.436 173.064C705.306 166.639 774.209 141.597 839.98 112.107C923.059 74.7095 1008.61 23.1435 1040.75 -62.031" stroke="white" stroke-miterlimit="10"/>
        <path d="M-3.66748 623.978C57.8176 646.383 128.534 642.1 186.722 612.445C245.075 582.791 290.076 528.095 308.044 465.326C329.473 390.201 315.956 301.237 365.737 241.104C397.387 202.883 448.487 185.914 497.774 180.642C547.226 175.37 597.172 179.818 646.624 175.37C718.494 168.945 787.396 143.903 853.167 114.414C936.081 77.0159 1021.8 25.2852 1053.78 -59.7246" stroke="white" stroke-miterlimit="10"/>
        <path d="M9.51953 626.449C71.0046 648.855 141.721 644.571 199.909 614.917C258.262 585.262 303.263 530.566 321.231 467.797C342.66 392.672 329.143 303.709 378.924 243.576C410.574 205.354 461.674 188.385 510.961 183.113C560.413 177.841 610.359 182.29 659.811 177.841C731.681 171.416 800.583 146.375 866.354 116.885C949.433 79.4871 1034.98 27.9211 1067.13 -57.2533" stroke="white" stroke-miterlimit="10"/>
        <path d="M22.5415 628.756C84.0266 651.161 154.743 646.878 212.931 617.223C271.284 587.569 316.285 532.872 334.253 470.104C355.682 394.979 342.165 306.015 391.946 245.882C423.596 207.661 474.696 190.692 523.983 185.42C573.435 180.148 623.381 184.596 672.833 180.148C744.703 173.723 813.605 148.681 879.376 119.191C962.455 81.7937 1048.01 30.2277 1080.15 -54.9468" stroke="white" stroke-miterlimit="10"/>
        <path d="M35.729 631.062C97.2141 653.468 167.93 649.184 226.118 619.53C284.472 589.875 329.473 535.179 347.44 472.41C368.869 397.285 355.352 308.322 405.134 248.189C436.783 209.967 487.883 192.998 537.17 187.726C586.622 182.454 636.568 186.903 686.02 182.454C757.89 176.029 826.793 150.988 892.564 121.498C975.478 84.1001 1061.03 32.3693 1093.17 -52.6404" stroke="white" stroke-miterlimit="10"/>
        <path d="M48.751 633.533C110.236 655.939 180.952 651.655 239.14 622.001C297.494 592.346 342.495 537.65 360.462 474.881C381.891 399.756 368.374 310.793 418.156 250.66C449.805 212.438 500.905 195.469 550.192 190.197C599.644 184.926 649.59 189.374 699.042 184.926C770.912 178.5 839.815 153.459 905.586 123.969C988.665 86.5713 1074.22 35.0053 1106.36 -50.1692" stroke="white" stroke-miterlimit="10"/>
        <path d="M61.9385 635.84C123.424 658.245 194.14 653.962 252.328 624.307C310.681 594.653 355.682 539.957 373.65 477.188C395.079 402.063 381.562 313.099 431.343 252.966C462.993 214.745 514.093 197.776 563.38 192.504C612.831 187.232 662.778 191.68 712.23 187.232C784.1 180.807 853.002 155.765 918.773 126.276C1001.85 88.8778 1087.4 37.3118 1119.55 -47.8627" stroke="white" stroke-miterlimit="10"/>
        <path d="M75.1255 638.146C136.611 660.552 207.327 656.268 265.515 626.614C323.868 596.959 368.869 542.263 386.837 479.494C408.266 404.369 394.749 315.406 444.53 255.273C476.18 217.051 527.28 200.082 576.567 194.81C626.019 189.539 675.965 193.987 725.417 189.539C797.287 183.113 866.189 158.072 931.96 128.582C1015.04 91.1842 1100.59 39.6183 1132.73 -45.5562" stroke="white" stroke-miterlimit="10"/>
        <path d="M88.1475 640.617C149.633 663.023 220.349 658.74 278.537 629.085C336.89 599.43 381.891 544.734 399.859 481.965C421.288 406.841 407.771 317.877 457.552 257.744C489.202 219.523 540.302 202.554 589.589 197.282C639.04 192.01 688.987 196.458 738.439 192.01C810.308 185.585 879.211 160.543 944.982 131.053C1028.06 93.6555 1113.61 42.0895 1145.76 -43.085" stroke="white" stroke-miterlimit="10"/>
        <path d="M101.335 642.924C162.82 665.329 233.536 661.046 291.724 631.391C350.078 601.737 395.079 547.041 413.046 484.272C434.475 409.147 420.958 320.183 470.74 260.05C502.389 221.829 553.489 204.86 602.776 199.588C652.228 194.316 702.174 198.764 751.626 194.316C823.496 187.891 892.399 162.849 958.17 133.36C1041.25 95.9619 1126.8 44.3959 1158.94 -40.7786" stroke="white" stroke-miterlimit="10"/>
        <path d="M114.522 645.23C176.007 667.636 246.723 663.353 304.911 633.698C363.264 604.043 408.266 549.347 426.233 486.578C447.662 411.454 434.145 322.49 483.927 262.357C515.576 224.136 566.676 207.167 615.963 201.895C665.415 196.623 715.361 201.071 764.813 196.623C836.683 190.198 905.586 165.156 971.357 135.666C1054.44 98.2684 1139.99 46.7024 1172.13 -38.472" stroke="white" stroke-miterlimit="10"/>
        <path d="M127.544 647.702C189.029 670.107 259.746 665.824 317.934 636.169C376.287 606.515 421.288 551.818 439.256 489.05C460.685 413.925 447.168 324.961 496.949 264.828C528.598 226.607 579.699 209.638 628.986 204.366C678.437 199.094 728.384 203.542 777.836 199.094C849.705 192.669 918.608 167.627 984.379 138.137C1067.46 100.74 1153.01 49.1737 1185.15 -36.0008" stroke="white" stroke-miterlimit="10"/>
        <path d="M140.731 650.008C202.217 672.414 272.933 668.13 331.121 638.476C389.474 608.821 434.475 554.125 452.443 491.356C473.872 416.231 460.355 327.267 510.136 267.135C541.786 228.913 592.886 211.944 642.173 206.672C691.624 201.4 741.571 205.849 791.023 201.4C862.892 194.975 931.795 169.934 997.566 140.444C1080.65 103.046 1166.2 51.4801 1198.34 -33.6944" stroke="white" stroke-miterlimit="10"/>
    </g>
</svg>
