<svg width="80" height="80" viewBox="0 0 80 80" fill="none" xmlns="http://www.w3.org/2000/svg">
<path d="M32.2606 20.4584C31.8853 20.5471 31.4962 20.5611 31.1156 20.4994C30.7349 20.4378 30.3702 20.3017 30.0421 20.0991C29.714 19.8964 29.4291 19.6311 29.2036 19.3183C28.9781 19.0055 28.8164 18.6514 28.7278 18.2761L26.6727 9.46858C26.5355 8.72521 26.6904 7.95758 27.105 7.32552C27.5196 6.69346 28.1621 6.24569 28.8986 6.07544C29.6351 5.90519 30.4088 6.02558 31.0588 6.41154C31.7088 6.79751 32.1848 7.4193 32.3878 8.14745L34.4429 16.955C34.6133 17.7086 34.4798 18.4991 34.0713 19.1549C33.6628 19.8108 33.0122 20.2791 32.2606 20.4584Z" fill="#2F333A"/>
<path d="M56.7262 20.3706H22.9934L24.3439 16.5736C24.3935 16.4266 24.4884 16.2992 24.615 16.2095C24.7416 16.1198 24.8934 16.0726 25.0485 16.0745H54.6809C54.8357 16.0741 54.9868 16.1219 55.1131 16.2113C55.2394 16.3008 55.3346 16.4275 55.3855 16.5736L56.7262 20.3706Z" fill="white"/>
<path d="M58.3307 25.2244L55.4927 70.7984C55.4654 71.2554 55.265 71.6848 54.9323 71.9993C54.5996 72.3138 54.1597 72.4897 53.7019 72.4914H28.5711C28.1123 72.4899 27.6712 72.3143 27.3369 72C27.0027 71.6857 26.8002 71.2562 26.7704 70.7984L23.9716 25.2244" fill="white"/>
<path fill-rule="evenodd" clip-rule="evenodd" d="M23.5273 25.0191C24.0784 24.9842 24.5536 25.4027 24.5885 25.9538L27.4166 70.5477C27.4166 70.5475 27.4167 70.5479 27.4166 70.5477C27.4301 70.7524 27.5207 70.945 27.6702 71.0856C27.8196 71.226 28.0167 71.3046 28.2217 71.3056C28.2214 71.3056 28.222 71.3056 28.2217 71.3056L53.3175 71.3056C53.3172 71.3056 53.3179 71.3056 53.3175 71.3056C53.5226 71.3046 53.7206 71.226 53.87 71.0856C54.0195 70.9451 54.1101 70.7531 54.1236 70.5484C54.1235 70.5486 54.1236 70.5482 54.1236 70.5484L56.9321 25.9543C56.9668 25.4031 57.4418 24.9844 57.993 25.0191C58.5442 25.0538 58.9629 25.5288 58.9281 26.08L56.1194 70.6774C56.0732 71.3881 55.7589 72.0548 55.24 72.5427C54.7211 73.0305 54.0364 73.3032 53.3241 73.3056L53.3208 73.3056H28.2194L28.2161 73.3056C27.5039 73.3032 26.8191 73.0305 26.3002 72.5427C25.7813 72.0548 25.467 71.3881 25.4209 70.6774L22.5926 26.0804C22.5576 25.5292 22.9761 25.0541 23.5273 25.0191Z" fill="#2F333A"/>
<path fill-rule="evenodd" clip-rule="evenodd" d="M21.6155 22.0063V24.8896H59.2592V22.0063H21.6155ZM21.4865 20.0063C21.239 20.0063 20.994 20.0554 20.7657 20.1508C20.5373 20.2461 20.3301 20.3858 20.1561 20.5618C19.9821 20.7377 19.8447 20.9465 19.7519 21.1759C19.66 21.4033 19.6137 21.6465 19.6155 21.8917V25.0187C19.6155 25.5149 19.8127 25.9908 20.1635 26.3416C20.3373 26.5154 20.5435 26.6532 20.7705 26.7472C20.9975 26.8412 21.2408 26.8896 21.4865 26.8896H59.535C59.7614 26.8896 59.9856 26.845 60.1948 26.7584C60.404 26.6717 60.5941 26.5447 60.7542 26.3846C60.9143 26.2245 61.0413 26.0345 61.1279 25.8253C61.2146 25.6161 61.2592 25.3919 61.2592 25.1655V21.7305C61.2592 21.5041 61.2146 21.2799 61.1279 21.0707C61.0413 20.8615 60.9143 20.6714 60.7542 20.5113C60.5941 20.3513 60.404 20.2242 60.1948 20.1376C59.9856 20.0509 59.7614 20.0063 59.535 20.0063H21.4866C21.4865 20.0063 21.4865 20.0063 21.4865 20.0063Z" fill="#2F333A"/>
<path fill-rule="evenodd" clip-rule="evenodd" d="M25.4231 15.4561H37.6633C38.2156 15.4561 38.6633 15.9038 38.6633 16.4561C38.6633 17.0083 38.2156 17.4561 37.6633 17.4561H25.6094L24.318 21.0963C24.1334 21.6168 23.5617 21.8891 23.0412 21.7044C22.5207 21.5198 22.2485 20.9481 22.4331 20.4276L23.7878 16.6091C23.911 16.2751 24.1325 15.9862 24.423 15.7804C24.7135 15.5746 25.0595 15.4616 25.4155 15.4562L25.4231 15.4561Z" fill="#2F333A"/>
<path fill-rule="evenodd" clip-rule="evenodd" d="M41.8301 16.4561C41.8301 15.9038 42.2778 15.4561 42.8301 15.4561H55.0704L55.0779 15.4562C55.4339 15.4616 55.7799 15.5746 56.0705 15.7804C56.361 15.9862 56.5824 16.2751 56.7056 16.6091L56.7099 16.6208L58.0603 20.4276C58.245 20.9481 57.9727 21.5198 57.4522 21.7044C56.9317 21.8891 56.3601 21.6168 56.1754 21.0963L54.884 17.4561H42.8301C42.2778 17.4561 41.8301 17.0083 41.8301 16.4561Z" fill="#2F333A"/>
<path d="M59.1827 51.9208H22.8272L21.8486 32.2898H60.1613L59.1827 51.9208Z" fill="#25A9E0"/>
<path fill-rule="evenodd" clip-rule="evenodd" d="M22.8191 33.3389L23.7 51.0153V51.0188H58.1045V51.0155L58.9854 33.3389H22.8191ZM58.9865 33.3164C58.9865 33.3163 58.9865 33.3165 58.9865 33.3164V33.3164ZM22.7984 31.3389C22.5303 31.3386 22.2649 31.3929 22.0184 31.4984C21.7717 31.6039 21.549 31.7586 21.3639 31.9529C21.1788 32.1473 21.0352 32.3772 20.9418 32.6288C20.8484 32.8803 20.8071 33.1482 20.8205 33.4162C20.8205 33.4161 20.8205 33.4163 20.8205 33.4162L21.7002 51.0694C21.7078 51.5836 21.9154 52.0751 22.2796 52.4393C22.6506 52.8103 23.1539 53.0188 23.6786 53.0188H58.1702L58.1852 53.0183C58.6996 53.0029 59.1878 52.7877 59.5461 52.4182C59.8976 52.0559 60.097 51.5732 60.1043 51.0692L60.984 33.4164C60.984 33.4163 60.984 33.4165 60.984 33.4164C60.9974 33.1485 60.9561 32.8803 60.8627 32.6288C60.7693 32.3772 60.6257 32.1473 60.4406 31.9529C60.2555 31.7586 60.0329 31.6039 59.7861 31.4984C59.5396 31.3929 59.2742 31.3386 59.0061 31.3389C59.0058 31.3389 59.0063 31.3389 59.0061 31.3389" fill="#2F333A"/>
</svg>
