<svg width="689" height="504" viewBox="0 0 689 504" fill="none" xmlns="http://www.w3.org/2000/svg">
<mask id="mask0" mask-type="alpha" maskUnits="userSpaceOnUse" x="0" y="0" width="689" height="504">
<rect width="689" height="504" fill="white"/>
</mask>
<g mask="url(#mask0)">
<g opacity="0.3">
<path d="M27.9664 637.687C73.4403 624.29 88.6499 471.268 97.668 421.505C107.866 365.232 116.079 320.28 157.538 287.217C183.895 266.203 223.029 260.06 259.924 261.026C296.942 262.006 333.583 269.065 370.538 270.557C424.243 272.749 477.175 263.124 528.128 250.468C592.502 234.389 659.79 209.724 690.105 159.593" stroke="#25A9E0" stroke-miterlimit="10"/>
<path d="M43.3995 637.512C84.8069 615.682 98.5549 465.858 107.134 424.058C112.135 399.693 125.545 322.833 167.004 289.771C193.361 268.756 232.495 262.614 269.391 263.579C306.409 264.559 343.049 271.618 380.004 273.11C433.709 275.302 486.641 265.678 537.595 253.021C601.968 236.943 669.256 212.278 699.572 162.146" stroke="#25A9E0" stroke-miterlimit="10"/>
<path d="M57.5847 635.285C103.059 621.888 108.091 466.304 116.722 426.624C125.352 386.944 135.133 325.399 176.592 292.337C202.949 271.322 242.082 265.18 278.978 266.146C315.996 267.126 352.636 274.185 389.591 275.676C443.296 277.869 496.228 268.244 547.182 255.588C611.433 239.495 678.856 214.742 709.049 164.596" stroke="#25A9E0" stroke-miterlimit="10"/>
<path d="M71.1965 634.575C116.67 621.178 118.603 467.376 126.294 429.294C135.563 383.399 144.705 328.069 186.164 295.007C212.521 273.992 251.655 267.85 288.551 268.815C325.569 269.795 362.209 276.854 399.164 278.346C452.869 280.538 505.801 270.914 556.754 258.257C621.128 242.179 688.416 217.514 718.731 167.382" stroke="#25A9E0" stroke-miterlimit="10"/>
<path d="M88.0466 632.795C126.674 607.622 133.803 470.498 137.888 430.792C139.364 416.453 154.174 330.621 195.633 297.559C221.991 276.544 261.124 270.402 298.02 271.367C335.038 272.347 371.678 279.406 408.633 280.898C462.338 283.09 515.27 273.466 566.224 260.809C630.597 244.731 697.898 219.963 728.213 169.832" stroke="#25A9E0" stroke-miterlimit="10"/>
<path d="M103.628 631.149C135.87 606.287 148.133 448.62 148.955 432.532C153.784 405.839 163.759 333.189 205.218 300.126C231.575 279.112 270.708 272.969 307.604 273.935C344.622 274.915 381.263 281.974 418.218 283.465C471.923 285.658 524.855 276.033 575.808 263.377C640.06 247.284 707.482 222.531 737.676 172.385" stroke="#25A9E0" stroke-miterlimit="10"/>
<path d="M119.147 629.146C146.99 601.476 156.763 457.891 160.515 434.584C164.267 411.277 173.336 335.857 214.795 302.795C241.152 281.78 280.285 275.638 317.181 276.604C354.199 277.584 390.84 284.643 427.795 286.134C481.499 288.327 534.432 278.702 585.385 266.046C649.649 249.85 716.937 225.185 747.253 175.054" stroke="#25A9E0" stroke-miterlimit="10"/>
<path d="M135.286 628.168C159.222 607.093 170.14 460.477 172.409 438.418C174.679 416.359 182.8 338.41 224.259 305.348C250.616 284.333 289.749 278.191 326.645 279.156C363.663 280.136 400.304 287.196 437.259 288.687C490.964 290.879 543.896 281.255 594.849 268.598C659.222 252.52 726.511 227.855 756.826 177.723" stroke="#25A9E0" stroke-miterlimit="10"/>
<path d="M151.576 625.72C169.737 617.256 180.625 484.098 183.8 444.124C186.442 428.572 192.388 340.977 233.847 307.915C260.204 286.9 299.338 280.758 336.234 281.723C373.252 282.703 409.892 289.763 446.847 291.254C500.552 293.446 553.484 283.822 604.437 271.165C668.689 255.073 736.112 230.319 766.292 180.276" stroke="#25A9E0" stroke-miterlimit="10"/>
<path d="M167.229 624.43C183.146 606.384 192.466 467.21 194.398 443.369C196.33 419.527 201.963 343.646 243.422 310.583C269.779 289.569 308.913 283.426 345.808 284.392C382.826 285.372 419.467 292.431 456.422 293.923C510.127 296.115 563.059 286.491 614.012 273.834C678.386 257.755 745.674 233.09 775.989 182.959" stroke="#25A9E0" stroke-miterlimit="10"/>
<path d="M183.656 622.694C205.991 599.97 202.646 484.681 204.406 446.312C208.225 423.361 211.428 346.199 252.887 313.136C279.245 292.122 318.378 285.979 355.274 286.945C392.292 287.925 428.932 294.984 465.887 296.476C519.592 298.668 572.524 289.043 623.478 276.387C687.851 260.308 755.14 235.643 785.455 185.511" stroke="#25A9E0" stroke-miterlimit="10"/>
<path d="M200.435 620.558C216.066 603.27 214.063 467.838 214.346 448.898C218.147 419.04 221.015 348.766 262.474 315.703C288.832 294.689 327.965 288.546 364.861 289.512C401.879 290.492 438.519 297.551 475.474 299.042C529.179 301.235 582.111 291.61 633.065 278.954C697.316 262.861 764.617 238.094 794.92 188.064" stroke="#25A9E0" stroke-miterlimit="10"/>
<path d="M216.926 619.18C235.757 596.098 223.418 492.305 223.156 452.331C226.368 426.172 230.465 351.421 271.924 318.358C298.281 297.344 337.414 291.201 374.31 292.167C411.328 293.147 447.969 300.206 484.924 301.697C538.629 303.89 591.561 294.265 642.514 281.609C706.888 265.53 774.176 240.865 804.491 190.733" stroke="#25A9E0" stroke-miterlimit="10"/>
<path d="M233.777 617.4C252.475 602.696 232.12 483.022 233.959 452.644C235 435.443 240.056 353.987 281.515 320.925C307.872 299.91 347.005 293.768 383.901 294.734C420.919 295.713 457.56 302.773 494.515 304.264C548.22 306.456 601.152 296.832 652.105 284.175C716.479 268.097 783.767 243.432 814.082 193.3" stroke="#25A9E0" stroke-miterlimit="10"/>
<path d="M251.046 615.575C267.387 606.576 242.845 483.708 242.838 456.434C242.832 433.888 249.644 356.554 291.102 323.492C317.46 302.477 356.593 296.335 393.489 297.3C430.507 298.28 467.147 305.34 504.102 306.831C557.807 309.023 610.739 299.399 661.693 286.742C726.066 270.664 793.354 245.999 823.67 195.867" stroke="#25A9E0" stroke-miterlimit="10"/>
<path d="M268.313 613.752C287.148 608.853 252.549 489.593 252.576 457.952C251.022 440.66 259.093 359.21 300.552 326.147C326.909 305.133 366.042 298.99 402.938 299.956C439.956 300.936 476.597 307.995 513.552 309.487C567.257 311.679 620.189 302.054 671.142 289.398C735.516 273.319 802.804 248.654 833.119 198.523" stroke="#25A9E0" stroke-miterlimit="10"/>
<path d="M285.583 611.927C306.455 597.358 264.413 497.793 261.103 462.141C259.027 448.905 268.683 361.776 310.141 328.713C336.499 307.699 375.632 301.556 412.528 302.522C449.546 303.502 486.186 310.561 523.141 312.053C576.846 314.245 629.778 304.621 680.732 291.964C745.105 275.885 812.394 251.22 842.709 201.089" stroke="#25A9E0" stroke-miterlimit="10"/>
<path d="M303.698 610.013C322.987 600.703 275.891 501.672 271.047 464.727C266.932 442.979 278.274 364.343 319.733 331.28C346.091 310.266 385.224 304.123 422.12 305.089C459.138 306.069 495.778 313.128 532.733 314.619C586.438 316.812 639.37 307.187 690.324 294.531C754.697 278.452 821.985 253.787 852.3 203.655" stroke="#25A9E0" stroke-miterlimit="10"/>
<path d="M321.383 608.145C342.81 594.245 282.339 501.718 280.427 466.646C276.916 439.015 287.722 366.998 329.18 333.935C355.538 312.921 394.671 306.778 431.567 307.744C468.585 308.724 505.226 315.783 542.181 317.275C595.885 319.467 648.817 309.843 699.771 297.186C764.144 281.108 831.432 256.442 861.748 206.311" stroke="#25A9E0" stroke-miterlimit="10"/>
<path d="M339.495 606.232C357.503 590.147 295.448 502.879 289.173 469.722C286.34 454.748 297.31 369.565 338.769 336.502C365.126 315.488 404.26 309.345 441.156 310.311C478.174 311.291 514.814 318.35 551.769 319.842C605.474 322.034 658.406 312.41 709.359 299.753C773.733 283.674 841.021 259.009 871.336 208.878" stroke="#25A9E0" stroke-miterlimit="10"/>
</g>
</g>
</svg>
