<svg width="80" height="80" viewBox="0 0 80 80" fill="none" xmlns="http://www.w3.org/2000/svg">
<path fill-rule="evenodd" clip-rule="evenodd" d="M40.3628 5C40.9151 5 41.3628 5.4294 41.3628 5.95909V9.32594C41.3628 9.85563 40.9151 10.285 40.3628 10.285C39.8105 10.285 39.3628 9.85563 39.3628 9.32594V5.95909C39.3628 5.4294 39.8105 5 40.3628 5Z" fill="white"/>
<path fill-rule="evenodd" clip-rule="evenodd" d="M25.5909 8.8332C26.0207 8.50049 26.6502 8.5649 26.9971 8.97706L29.0424 11.407C29.3893 11.8192 29.3221 12.423 28.8924 12.7558C28.4626 13.0885 27.833 13.0241 27.4861 12.6119L25.4409 10.1819C25.094 9.76974 25.1612 9.16591 25.5909 8.8332Z" fill="white"/>
<path fill-rule="evenodd" clip-rule="evenodd" d="M55.2243 8.83173C55.6549 9.16344 55.7236 9.76711 55.3777 10.1801L53.3427 12.6101C52.9968 13.023 52.3674 13.0889 51.9368 12.7572C51.5062 12.4255 51.4375 11.8218 51.7834 11.4089L53.8184 8.97888C54.1643 8.56591 54.7937 8.50003 55.2243 8.83173Z" fill="white"/>
<path d="M22.6885 41.7847C23.9706 44.7124 25.9446 47.3083 27.593 50.0701C29.2413 52.8318 30.6455 55.9254 30.4522 59.0776H49.7852C49.6326 55.8962 50.9859 52.8318 52.6343 50.0701C54.2827 47.3083 56.2567 44.7026 57.549 41.7847C62.891 29.6445 54.649 14.2448 40.1289 14.4595C25.5884 14.2448 17.3668 29.6445 22.6885 41.7847Z" fill="white"/>
<path d="M40.3425 14.3128V58.9309H50.0192C49.8666 55.7494 51.2199 52.6851 52.8683 49.9233C54.5167 47.1615 56.5009 44.5559 57.783 41.6379C63.1046 29.4978 54.883 14.0981 40.3425 14.3128Z" fill="#CEC1BC"/>
<path fill-rule="evenodd" clip-rule="evenodd" d="M40.2612 13.7831C47.9362 13.6753 53.9353 17.6976 57.2962 23.2931C60.6494 28.8759 61.413 36.0743 58.624 42.4379C57.9594 43.9674 57.1178 45.396 56.2511 46.7691C55.9307 47.2767 55.6112 47.7702 55.2952 48.2585C54.7407 49.1152 54.1964 49.9559 53.6752 50.8293L53.6655 50.8454L53.6553 50.8612C52.2635 52.9971 51.3556 55.3899 50.9905 57.8842C50.9038 58.5601 50.5609 59.182 50.0268 59.6312C49.4916 60.0813 48.8022 60.3264 48.0905 60.3195H32.4623C31.7506 60.3264 31.0612 60.0813 30.526 59.6312C29.9925 59.1824 29.6497 58.5613 29.5626 57.8861C29.1882 55.3923 28.2803 52.9996 26.8957 50.8583L26.8865 50.844L26.8777 50.8293C26.3489 49.9433 25.7952 49.0889 25.231 48.2182C24.923 47.743 24.6119 47.2629 24.2999 46.7702C23.4308 45.3973 22.5846 43.9696 21.91 42.4414L21.9091 42.4392C19.1193 36.075 19.8855 28.876 23.2389 23.2931C26.5995 17.698 32.5958 13.6753 40.2612 13.7831ZM23.7523 41.6948C21.2209 35.9191 21.9099 29.3485 24.9719 24.2506C28.0245 19.1682 33.3983 15.6 40.2458 15.7013L40.2612 15.7015L40.2766 15.7013C47.1346 15.6 52.5108 19.1686 55.5632 24.2506C58.6252 29.3486 59.3118 35.9195 56.7798 41.6958L56.7785 41.6986C56.1714 43.0962 55.3902 44.429 54.5402 45.7757C54.2449 46.2435 53.9369 46.7196 53.6254 47.201C53.0598 48.0752 52.4826 48.9672 51.949 49.8604C50.4126 52.2232 49.4108 54.8692 49.0086 57.6271L49.0071 57.6368L49.0059 57.6466C48.9799 57.8564 48.8738 58.0497 48.7081 58.189C48.5424 58.3284 48.3289 58.404 48.1085 58.4014L32.4567 58.4013L32.4443 58.4014C32.224 58.404 32.0104 58.3284 31.8447 58.189C31.6791 58.0497 31.573 57.8564 31.5469 57.6466L31.5455 57.6352L31.5438 57.6238C31.1321 54.8699 30.1314 52.2273 28.6048 49.8619C28.0622 48.9537 27.476 48.0488 26.9013 47.1616C26.5981 46.6936 26.2981 46.2306 26.0095 45.7746C25.1567 44.4276 24.37 43.0939 23.7523 41.6948Z" fill="#2F333A"/>
<path d="M33.0774 67.2261H46.9158V67.5188C46.9158 68.3903 46.7368 69.2532 46.3891 70.0584C46.0414 70.8635 45.5317 71.5951 44.8892 72.2113C44.2467 72.8275 43.4839 73.3163 42.6444 73.6498C41.805 73.9833 40.9052 74.155 39.9966 74.155C38.1615 74.155 36.4016 73.4558 35.104 72.2113C33.8064 70.9668 33.0774 69.2789 33.0774 67.5188V67.2261Z" fill="#25A9E0"/>
<path fill-rule="evenodd" clip-rule="evenodd" d="M32.2808 66.4817H48.1497V67.7336C48.1497 68.731 47.9448 69.7186 47.5469 70.6401C47.1489 71.5616 46.5656 72.3989 45.8302 73.1042C45.0948 73.8095 44.2218 74.3689 43.261 74.7506C42.3009 75.132 41.2719 75.3285 40.2327 75.3287C39.1905 75.3329 38.1578 75.1397 37.1936 74.7602C36.2288 74.3805 35.3516 73.8218 34.6126 73.116C33.8735 72.4103 33.2871 71.5715 32.8869 70.6479C32.4867 69.7242 32.2808 68.7338 32.2808 67.7336C32.2808 67.7335 32.2808 67.7336 32.2808 67.7336V66.4817ZM34.3217 68.3999C34.3856 68.9186 34.524 69.4275 34.7338 69.9119C35.0329 70.6023 35.4713 71.2292 36.0237 71.7567C36.5761 72.2842 37.2317 72.7018 37.9529 72.9857C38.674 73.2695 39.4465 73.4139 40.2261 73.4106L40.2305 73.4106C41.0078 73.4106 41.7775 73.2637 42.4957 72.9784C43.2138 72.6931 43.8663 72.275 44.416 71.7478C44.9656 71.2207 45.4016 70.5948 45.6991 69.906C45.9075 69.4234 46.0451 68.9165 46.1088 68.3999H34.3217Z" fill="#2F333A"/>
<path fill-rule="evenodd" clip-rule="evenodd" d="M25.1377 67.4115C25.1377 66.8818 25.5854 66.4524 26.1377 66.4524H53.9773C54.5295 66.4524 54.9773 66.8818 54.9773 67.4115C54.9773 67.9412 54.5295 68.3706 53.9773 68.3706H26.1377C25.5854 68.3706 25.1377 67.9412 25.1377 67.4115Z" fill="#2F333A"/>
<path fill-rule="evenodd" clip-rule="evenodd" d="M30.0833 63.6056C30.0833 63.0759 30.531 62.6465 31.0833 62.6465H47.73C48.2823 62.6465 48.73 63.0759 48.73 63.6056C48.73 64.1353 48.2823 64.5647 47.73 64.5647H31.0833C30.531 64.5647 30.0833 64.1353 30.0833 63.6056Z" fill="#2F333A"/>
<path fill-rule="evenodd" clip-rule="evenodd" d="M64.6214 16.8024C64.9074 17.2555 64.7563 17.8452 64.2839 18.1195L60.519 20.3055C60.0466 20.5799 59.4317 20.4349 59.1457 19.9818C58.8597 19.5287 59.0108 18.939 59.4832 18.6646L63.2481 16.4786C63.7205 16.2043 64.3354 16.3492 64.6214 16.8024Z" fill="white"/>
<path fill-rule="evenodd" clip-rule="evenodd" d="M16.1447 16.8024C16.4307 16.3492 17.0456 16.2043 17.518 16.4786L21.2829 18.6646C21.7553 18.939 21.9065 19.5287 21.6204 19.9818C21.3344 20.4349 20.7196 20.5799 20.2471 20.3055L16.4823 18.1195C16.0098 17.8452 15.8587 17.2555 16.1447 16.8024Z" fill="white"/>
<path fill-rule="evenodd" clip-rule="evenodd" d="M40.3425 50.0281C40.8948 50.0281 41.3425 50.4575 41.3425 50.9872V58.931C41.3425 59.4607 40.8948 59.8901 40.3425 59.8901C39.7902 59.8901 39.3425 59.4607 39.3425 58.931V50.9872C39.3425 50.4575 39.7902 50.0281 40.3425 50.0281Z" fill="#2F333A"/>
<path fill-rule="evenodd" clip-rule="evenodd" d="M36.2177 45.2215C36.6662 44.9124 37.291 45.0107 37.6133 45.4409L39.4057 47.8339L40.3749 49.1354L43.1422 45.4409C43.4644 45.0107 44.0892 44.9124 44.5378 45.2215C44.9863 45.5305 45.0887 46.1298 44.7665 46.56L40.3703 52.4293L37.7798 48.9509L37.7782 48.9488L35.9889 46.56C35.6667 46.1298 35.7691 45.5305 36.2177 45.2215Z" fill="#2F333A"/>
<path fill-rule="evenodd" clip-rule="evenodd" d="M32.5212 20.6599C32.8395 21.0927 32.7316 21.6911 32.2802 21.9964C30.5689 23.1539 29.1542 24.6693 28.1433 26.4282C27.8767 26.8921 27.2684 27.0609 26.7848 26.8051C26.3011 26.5494 26.1251 25.9661 26.3918 25.5022C27.5491 23.4887 29.1685 21.7538 31.1276 20.4288C31.579 20.1235 32.2029 20.227 32.5212 20.6599Z" fill="white"/>
<path fill-rule="evenodd" clip-rule="evenodd" d="M26.4715 27.4065C26.996 27.5725 27.2808 28.1148 27.1078 28.6178C26.2385 31.1444 26.1817 33.8633 26.9449 36.4212C27.7081 38.979 29.256 41.2576 31.3873 42.9606C31.8116 43.2996 31.869 43.9044 31.5155 44.3113C31.162 44.7183 30.5314 44.7733 30.1071 44.4343C27.6675 42.4849 25.8957 39.8768 25.0221 36.9489C24.1485 34.021 24.2134 30.9087 25.2085 28.0167C25.3816 27.5137 25.947 27.2405 26.4715 27.4065Z" fill="white"/>
</svg>
