<?xml version="1.0" encoding="utf-8"?>
<!-- Generator: Adobe Illustrator 26.0.3, SVG Export Plug-In . SVG Version: 6.00 Build 0)  -->
<svg version="1.1" id="Layer_1" xmlns="http://www.w3.org/2000/svg" xmlns:xlink="http://www.w3.org/1999/xlink" x="0px" y="0px"
	 viewBox="0 0 36 36" style="enable-background:new 0 0 36 36;" xml:space="preserve">
<style type="text/css">
	.st0{fill:#FFFFFF;}
	.st1{fill:#25A9E0;}
</style>
<rect x="1.2" y="1.7" class="st0" width="33.2" height="32.8"/>
<path class="st1" d="M33.4,0H2.6C1.2,0,0,1.2,0,2.6v30.8C0,34.8,1.2,36,2.6,36h30.8c1.4,0,2.6-1.2,2.6-2.6V2.6C36,1.2,34.8,0,33.4,0
	L33.4,0z M12.8,27.2H8.4V14h4.4V27.2z M10.6,12.2L10.6,12.2c-1.5,0-2.5-1-2.5-2.3c0-1.3,1-2.3,2.5-2.3c1.5,0,2.4,1,2.5,2.3
	C13.1,11.2,12.1,12.2,10.6,12.2z M28.6,27.2h-4.4v-7.1c0-1.8-0.6-3-2.2-3c-1.2,0-1.9,0.8-2.2,1.6c-0.1,0.3-0.1,0.7-0.1,1.1v7.4h-4.4
	c0,0,0.1-12,0-13.2h4.4v1.9c0.6-0.9,1.6-2.2,4-2.2c2.9,0,5,1.9,5,5.9V27.2z"/>
</svg>
