<svg width="113" height="38" viewBox="0 0 113 38" fill="none" xmlns="http://www.w3.org/2000/svg">
<path d="M0 18.7553C0 16.1648 0.898059 13.9542 2.71145 12.158C4.52484 10.3619 6.73544 9.46387 9.326 9.46387C11.8993 9.46387 14.0926 10.3619 15.906 12.1753C17.7194 13.9887 18.6175 16.182 18.6175 18.7553C18.6175 21.3286 17.7194 23.5219 15.906 25.3353C14.0926 27.1487 11.8993 28.0468 9.326 28.0468C7.65077 28.0468 6.11371 27.6323 4.69754 26.8206V37.5109H0V18.7553ZM4.69754 18.7553C4.69754 20.0333 5.14657 21.1386 6.0619 22.0367C6.95996 22.9348 8.06526 23.3838 9.326 23.3838C10.604 23.3838 11.692 22.9348 12.5728 22.0367C13.4709 21.1386 13.9199 20.0506 13.9199 18.7553C13.9199 17.4773 13.4709 16.372 12.5728 15.474C11.6748 14.5759 10.5867 14.1269 9.326 14.1269C8.04799 14.1269 6.95996 14.5759 6.0619 15.474C5.14657 16.3893 4.69754 17.4773 4.69754 18.7553Z" fill="#2F333A"/>
<path d="M40.5159 18.7384C40.5159 19.2047 40.4813 19.671 40.4123 20.12H26.8032C27.0968 21.1044 27.6667 21.8988 28.4784 22.5033C29.2902 23.1078 30.2055 23.4014 31.2244 23.4014C32.6406 23.4014 33.815 22.8487 34.7476 21.7261L37.5972 25.5256C35.8183 27.2181 33.6941 28.0644 31.2244 28.0644C28.6166 28.0644 26.4233 27.1663 24.6099 25.3529C22.7965 23.5395 21.8984 21.3462 21.8984 18.7556C21.8984 16.1823 22.8138 13.989 24.6272 12.1929C26.4405 10.3795 28.6511 9.48145 31.2244 9.48145C33.7977 9.48145 35.9911 10.3795 37.8044 12.1929C39.6178 13.9717 40.5159 16.1651 40.5159 18.7384ZM35.2657 16.6141C34.4022 14.9734 33.0551 14.1444 31.2244 14.1444C29.3592 14.1444 28.0121 14.9734 27.1486 16.6141H35.2657Z" fill="#2F333A"/>
<path d="M46.5607 12.1411C48.3741 10.3277 50.5847 9.42969 53.158 9.42969V14.1272C51.88 14.1272 50.792 14.5763 49.8939 15.4743C48.9959 16.3724 48.5296 17.4604 48.5296 18.7211V27.529H43.832V18.7211C43.832 16.1479 44.7474 13.9545 46.5607 12.1411Z" fill="#2F333A"/>
<path d="M65.6971 20.6035H61.0686V27.529H56.3711V9.326C56.3711 6.73544 57.2692 4.52484 59.0825 2.72872C60.8787 0.898059 63.0893 0 65.6971 0V4.69754C64.4191 4.69754 63.3311 5.14657 62.433 6.04463C61.5349 6.94269 61.0686 8.03072 61.0686 9.30873V16.5968H65.6971V20.6035Z" fill="#2F333A"/>
<mask id="mask0_3911_5980" style="mask-type:alpha" maskUnits="userSpaceOnUse" x="68" y="0" width="45" height="29">
<path d="M75.6088 27.8572C74.5208 27.8399 73.3291 27.5809 72.0166 27.1146C70.7213 26.631 69.6678 26.0611 68.8906 25.3875L71.4985 22.0026C72.7592 23.1597 74.089 23.7469 75.5052 23.7469H75.6088C76.2133 23.7469 76.7314 23.6432 77.1804 23.436C77.7849 23.1597 78.0785 22.7625 78.0785 22.2616V22.1062C78.0094 21.5708 77.6467 21.1909 77.0077 20.9663C76.8005 20.9145 76.2478 20.8109 75.367 20.6555C74.3308 20.4482 73.4327 20.1892 72.7246 19.8956C70.6177 18.9975 69.5642 17.4086 69.5642 15.1462C69.5642 12.9702 70.6349 11.3295 72.7937 10.2414C73.7436 9.75787 74.7798 9.49882 75.8851 9.48155C77.0077 9.46428 78.1994 9.65425 79.4774 10.0687C80.9453 10.5523 81.9643 11.1913 82.5688 11.9857L79.4428 14.8008C78.9592 14.3172 78.5102 13.9891 78.0957 13.8337C77.6812 13.6782 77.2495 13.5919 76.7832 13.5919C75.2979 13.5919 74.5553 14.0755 74.5553 15.0599V15.129C74.5553 15.4226 74.7625 15.6989 75.177 15.9061C75.5915 16.1306 76.7486 16.407 78.6657 16.7524C81.5843 17.305 83.0523 19.1011 83.0523 22.1062V22.2098C83.0523 23.3324 82.6724 24.3341 81.9297 25.2321C80.4618 27.0455 78.3548 27.9263 75.6088 27.8572Z" fill="#25A9E0"/>
<path d="M102.275 12.1411C104.089 13.9545 104.987 16.1479 104.987 18.7211C104.987 21.2944 104.089 23.505 102.275 25.3184C100.462 27.1491 98.2684 28.0471 95.6951 28.0471C93.0873 28.0471 90.894 27.1491 89.0806 25.3357C87.2672 23.5223 86.3691 21.329 86.3691 18.7211C86.3691 16.1479 87.2845 13.9545 89.0979 12.1411C90.9112 10.3277 93.1218 9.42969 95.6951 9.42969C98.2684 9.42969 100.462 10.345 102.275 12.1411ZM98.942 15.4916C98.0439 14.5935 96.9559 14.1272 95.7124 14.1272C94.4344 14.1272 93.3464 14.5763 92.4483 15.4743C91.5502 16.3724 91.084 17.4604 91.084 18.7211C91.084 19.9991 91.533 21.0872 92.4483 21.9852C93.3636 22.8833 94.4517 23.3496 95.7124 23.3496C96.9904 23.3496 98.0784 22.9006 98.9592 21.9852C99.8573 21.0872 100.306 19.9819 100.306 18.7211C100.289 17.4777 99.84 16.3896 98.942 15.4916Z" fill="#25A9E0"/>
<path d="M108.303 0H113V27.529H108.303V0Z" fill="#25A9E0"/>
</mask>
<g mask="url(#mask0_3911_5980)">
<rect x="59" y="-2" width="64" height="21" fill="#005EB8"/>
<rect x="59" y="19" width="64" height="21" fill="#FFD101"/>
</g>
</svg>
