<svg width="21" height="34" viewBox="0 0 21 34" fill="none" xmlns="http://www.w3.org/2000/svg">
<path d="M10.4849 28.5643L16.1631 22.2624L14.3251 20.437L10.4899 24.6935L6.67739 20.4396L4.83466 22.2598L10.4849 28.5643ZM0 26.0312V7.96875C0 3.57478 3.40504 0 7.59036 0H13.4096C17.595 0 21 3.57478 21 7.96875V26.0312C21 30.4252 17.595 34 13.4096 34H7.59036C3.40504 34 0 30.4252 0 26.0312ZM7.59036 2.65625C4.80006 2.65625 2.53012 5.03935 2.53012 7.96875V26.0312C2.53012 28.9606 4.80006 31.3438 7.59036 31.3438H13.4096C16.1999 31.3438 18.4699 28.9606 18.4699 26.0312V7.96875C18.4699 5.03935 16.1999 2.65625 13.4096 2.65625H7.59036ZM10.5 5.37891C11.1987 5.37891 11.7651 5.97345 11.7651 6.70703C11.7651 7.44061 11.1987 8.03516 10.5 8.03516C9.80125 8.03516 9.23494 7.44061 9.23494 6.70703C9.23494 5.97345 9.80125 5.37891 10.5 5.37891ZM10.5 10.6914C11.1987 10.6914 11.7651 11.2859 11.7651 12.0195C11.7651 12.7531 11.1987 13.3477 10.5 13.3477C9.80125 13.3477 9.23494 12.7531 9.23494 12.0195C9.23494 11.2859 9.80125 10.6914 10.5 10.6914ZM10.5 16.0039C11.1987 16.0039 11.7651 16.5984 11.7651 17.332C11.7651 18.0656 11.1987 18.6602 10.5 18.6602C9.80125 18.6602 9.23494 18.0656 9.23494 17.332C9.23494 16.5984 9.80125 16.0039 10.5 16.0039Z" fill="#2F333A"/>
</svg>
