<svg width="62" height="62" viewBox="0 0 62 62" fill="none" xmlns="http://www.w3.org/2000/svg">
<path d="M14.3291 11.6367H48.4652V54.1193H14.3291V11.6367Z" fill="#25A9E0"/>
<path d="M18.4355 15.5352H44.3592V50.0346H18.4355V15.5352Z" fill="white"/>
<path d="M38.3084 15.5352V10.2381C38.3086 10.0105 38.2639 9.78517 38.1768 9.57491C38.0898 9.36466 37.9622 9.17362 37.8013 9.01273C37.6403 8.85184 37.4493 8.72426 37.239 8.63729C37.0287 8.55031 36.8034 8.50565 36.5758 8.50586H26.2188C25.7597 8.50586 25.3194 8.68824 24.9948 9.01287C24.6702 9.3375 24.4878 9.7778 24.4878 10.2369V15.534L38.3084 15.5352Z" fill="white"/>
<path d="M22.5635 29.6763H28.7804V35.8932H22.5635V29.6763Z" fill="#CEC1BC"/>
<path d="M22.5635 39.8555H28.7804V46.0724H22.5635V39.8555Z" fill="#CEC1BC"/>
<path d="M22.5635 19.4971H28.7804V25.714H22.5635V19.4971Z" fill="#CEC1BC"/>
<path d="M14.3295 47.9188C14.513 47.9188 14.6889 47.8459 14.8186 47.7162C14.9484 47.5864 15.0213 47.4105 15.0213 47.227V45.4481C15.0213 45.2647 14.9484 45.0887 14.8186 44.959C14.6889 44.8292 14.513 44.7563 14.3295 44.7563C14.146 44.7563 13.97 44.8292 13.8403 44.959C13.7106 45.0887 13.6377 45.2647 13.6377 45.4481V47.227C13.6376 47.3179 13.6555 47.4078 13.6902 47.4918C13.725 47.5757 13.7759 47.652 13.8402 47.7163C13.9044 47.7805 13.9807 47.8315 14.0647 47.8662C14.1486 47.901 14.2386 47.9188 14.3295 47.9188Z" fill="#4F4F4F"/>
<path d="M48.4656 19.5991C48.3747 19.5991 48.2848 19.6169 48.2008 19.6517C48.1168 19.6864 48.0406 19.7374 47.9763 19.8016C47.9121 19.8659 47.8611 19.9422 47.8264 20.0261C47.7916 20.1101 47.7738 20.2 47.7738 20.2909V53.4269H15.0213V50.4847C15.0213 50.3012 14.9484 50.1252 14.8186 49.9955C14.6889 49.8658 14.513 49.7929 14.3295 49.7929C14.146 49.7929 13.97 49.8658 13.8403 49.9955C13.7106 50.1252 13.6377 50.3012 13.6377 50.4847V54.1214C13.6376 54.2123 13.6555 54.3023 13.6902 54.3862C13.725 54.4702 13.7759 54.5465 13.8402 54.6107C13.9044 54.675 13.9807 54.7259 14.0647 54.7607C14.1486 54.7954 14.2386 54.8133 14.3295 54.8132H48.4656C48.5565 54.8133 48.6464 54.7954 48.7304 54.7607C48.8143 54.7259 48.8906 54.675 48.9549 54.6107C49.0191 54.5465 49.0701 54.4702 49.1048 54.3862C49.1396 54.3023 49.1574 54.2123 49.1574 54.1214V20.2909C49.1574 20.2 49.1396 20.1101 49.1048 20.0261C49.0701 19.9422 49.0191 19.8659 48.9549 19.8016C48.8906 19.7374 48.8143 19.6864 48.7304 19.6517C48.6464 19.6169 48.5565 19.5991 48.4656 19.5991Z" fill="#333333"/>
<path d="M48.4656 10.9449H39.0004V10.2373C38.9998 9.59462 38.7441 8.97849 38.2895 8.52422C37.835 8.06994 37.2187 7.81466 36.576 7.81445H26.219C25.5767 7.81508 24.9608 8.07054 24.5065 8.52477C24.0523 8.97901 23.7969 9.59489 23.7962 10.2373V10.9449H14.3295C14.2386 10.9448 14.1486 10.9627 14.0647 10.9974C13.9807 11.0322 13.9044 11.0831 13.8402 11.1474C13.7759 11.2116 13.725 11.2879 13.6902 11.3719C13.6555 11.4558 13.6376 11.5458 13.6377 11.6367V42.0253C13.6377 42.2087 13.7106 42.3847 13.8403 42.5144C13.97 42.6442 14.146 42.7171 14.3295 42.7171C14.513 42.7171 14.6889 42.6442 14.8186 42.5144C14.9484 42.3847 15.0213 42.2087 15.0213 42.0253V12.3284H23.7946V14.8438H18.4355C18.252 14.8438 18.0761 14.9166 17.9463 15.0464C17.8166 15.1761 17.7437 15.3521 17.7437 15.5355V50.0345C17.7437 50.218 17.8166 50.394 17.9463 50.5237C18.0761 50.6534 18.252 50.7263 18.4355 50.7263H44.3592C44.45 50.7264 44.54 50.7085 44.624 50.6738C44.7079 50.639 44.7842 50.5881 44.8485 50.5238C44.9127 50.4596 44.9637 50.3833 44.9984 50.2993C45.0331 50.2154 45.051 50.1254 45.051 50.0345V15.5355C45.051 15.4447 45.0331 15.3547 44.9984 15.2707C44.9637 15.1868 44.9127 15.1105 44.8485 15.0463C44.7842 14.982 44.7079 14.9311 44.624 14.8963C44.54 14.8616 44.45 14.8437 44.3592 14.8438H39.0004V12.3284H47.7738V17.2559C47.7738 17.4394 47.8467 17.6153 47.9764 17.7451C48.1062 17.8748 48.2821 17.9477 48.4656 17.9477C48.6491 17.9477 48.825 17.8748 48.9548 17.7451C49.0845 17.6153 49.1574 17.4394 49.1574 17.2559V11.6367C49.1574 11.5458 49.1396 11.4558 49.1048 11.3719C49.0701 11.2879 49.0191 11.2116 48.9549 11.1474C48.8906 11.0831 48.8143 11.0322 48.7304 10.9974C48.6464 10.9627 48.5565 10.9448 48.4656 10.9449ZM43.6674 49.3428H19.1273V16.2273H43.6674V49.3428ZM25.1782 14.8438V10.2373C25.1785 9.96147 25.2883 9.69707 25.4835 9.5022C25.6787 9.30732 25.9432 9.19791 26.219 9.19802H36.576C36.8516 9.19833 37.1157 9.30793 37.3105 9.50276C37.5054 9.69759 37.615 9.96174 37.6153 10.2373V14.8438H25.1782Z" fill="#333333"/>
<path d="M31.3574 22.6058C31.3575 22.7893 31.4304 22.9652 31.5602 23.0949C31.6899 23.2246 31.8658 23.2975 32.0492 23.2976H40.2308C40.4143 23.2976 40.5902 23.2247 40.72 23.095C40.8497 22.9653 40.9226 22.7893 40.9226 22.6058C40.9226 22.4224 40.8497 22.2464 40.72 22.1167C40.5902 21.9869 40.4143 21.9141 40.2308 21.9141H32.05C31.9591 21.914 31.869 21.9318 31.785 21.9665C31.701 22.0012 31.6246 22.0522 31.5603 22.1164C31.496 22.1807 31.445 22.2569 31.4102 22.3409C31.3753 22.4249 31.3574 22.5149 31.3574 22.6058Z" fill="#333333"/>
<path d="M40.2315 32.0933H32.0507C31.8672 32.0933 31.6912 32.1661 31.5615 32.2959C31.4318 32.4256 31.3589 32.6016 31.3589 32.785C31.3589 32.9685 31.4318 33.1445 31.5615 33.2742C31.6912 33.4039 31.8672 33.4768 32.0507 33.4768H40.2315C40.415 33.4768 40.5909 33.4039 40.7207 33.2742C40.8504 33.1445 40.9233 32.9685 40.9233 32.785C40.9233 32.6016 40.8504 32.4256 40.7207 32.2959C40.5909 32.1661 40.415 32.0933 40.2315 32.0933Z" fill="#333333"/>
<path d="M40.2315 42.2725H32.0507C31.8672 42.2725 31.6912 42.3453 31.5615 42.4751C31.4318 42.6048 31.3589 42.7808 31.3589 42.9642C31.3589 43.1477 31.4318 43.3237 31.5615 43.4534C31.6912 43.5831 31.8672 43.656 32.0507 43.656H40.2315C40.415 43.656 40.5909 43.5831 40.7207 43.4534C40.8504 43.3237 40.9233 43.1477 40.9233 42.9642C40.9233 42.7808 40.8504 42.6048 40.7207 42.4751C40.5909 42.3453 40.415 42.2725 40.2315 42.2725Z" fill="#333333"/>
<path d="M29.8864 18.1728L29.1468 18.9124C29.0372 18.8428 28.9101 18.8056 28.7803 18.8053H22.5634C22.3799 18.8054 22.204 18.8783 22.0743 19.008C21.9446 19.1377 21.8717 19.3136 21.8716 19.4971V25.7144C21.8716 25.8979 21.9445 26.0738 22.0742 26.2036C22.2039 26.3333 22.3799 26.4062 22.5634 26.4062H28.7803C28.8712 26.4063 28.9612 26.3884 29.0451 26.3537C29.1291 26.3189 29.2053 26.2679 29.2696 26.2037C29.3338 26.1395 29.3848 26.0632 29.4195 25.9792C29.4543 25.8953 29.4722 25.8053 29.4721 25.7144V20.5434L30.8648 19.1508C30.9907 19.0203 31.0604 18.8455 31.0588 18.6641C31.0572 18.4828 30.9844 18.3093 30.8561 18.181C30.7278 18.0528 30.5543 17.9801 30.3729 17.9785C30.1916 17.977 30.0168 18.0468 29.8864 18.1728ZM28.0885 25.0226H23.254V20.1889H27.8699L25.6764 22.3824L25.1249 21.831C25.0611 21.7649 24.9848 21.7121 24.9004 21.6759C24.816 21.6396 24.7253 21.6205 24.6334 21.6197C24.5415 21.6189 24.4504 21.6364 24.3654 21.6711C24.2804 21.7059 24.2032 21.7572 24.1382 21.8222C24.0732 21.8871 24.0218 21.9643 23.987 22.0494C23.9522 22.1344 23.9347 22.2255 23.9355 22.3173C23.9363 22.4092 23.9553 22.4999 23.9916 22.5844C24.0278 22.6688 24.0805 22.7451 24.1466 22.8089L25.1874 23.8498C25.2516 23.9141 25.3279 23.9651 25.4118 23.9999C25.4957 24.0347 25.5857 24.0526 25.6766 24.0526C25.7675 24.0526 25.8574 24.0347 25.9414 23.9999C26.0253 23.9651 26.1016 23.9141 26.1658 23.8498L28.0885 21.927V25.0226Z" fill="#333333"/>
<path d="M29.8864 28.352L29.1468 29.0916C29.0372 29.022 28.9101 28.9848 28.7803 28.9845H22.5634C22.3799 28.9846 22.204 29.0575 22.0743 29.1872C21.9446 29.3169 21.8717 29.4928 21.8716 29.6763V35.8936C21.8716 36.0771 21.9445 36.2531 22.0742 36.3828C22.2039 36.5125 22.3799 36.5854 22.5634 36.5854H28.7803C28.8712 36.5855 28.9612 36.5676 29.0451 36.5329C29.1291 36.4981 29.2053 36.4472 29.2696 36.3829C29.3338 36.3187 29.3848 36.2424 29.4195 36.1584C29.4543 36.0745 29.4722 35.9845 29.4721 35.8936V30.7226L30.8648 29.33C30.9907 29.1995 31.0604 29.0247 31.0588 28.8433C31.0572 28.662 30.9844 28.4885 30.8561 28.3602C30.7278 28.232 30.5543 28.1593 30.3729 28.1577C30.1916 28.1562 30.0168 28.226 29.8864 28.352ZM28.0885 35.2018H23.254V30.3681H27.8699L25.6764 32.5616L25.1249 32.0102C24.9945 31.8841 24.8198 31.8143 24.6384 31.8159C24.457 31.8174 24.2835 31.8901 24.1552 32.0184C24.0269 32.1466 23.9541 32.3201 23.9525 32.5015C23.9509 32.6829 24.0206 32.8576 24.1466 32.9881L25.1874 34.029C25.2516 34.0933 25.3279 34.1443 25.4118 34.1791C25.4957 34.2139 25.5857 34.2318 25.6766 34.2318C25.7675 34.2318 25.8574 34.2139 25.9414 34.1791C26.0253 34.1443 26.1016 34.0933 26.1658 34.029L28.0885 32.1062V35.2018Z" fill="#333333"/>
<path d="M29.8864 38.5311L29.1468 39.2707C29.0372 39.2011 28.9101 39.1639 28.7803 39.1636H22.5634C22.3799 39.1637 22.204 39.2366 22.0743 39.3663C21.9446 39.4961 21.8717 39.6719 21.8716 39.8554V46.0727C21.8716 46.2562 21.9445 46.4322 22.0742 46.5619C22.2039 46.6916 22.3799 46.7645 22.5634 46.7645H28.7803C28.8712 46.7646 28.9612 46.7467 29.0451 46.712C29.1291 46.6772 29.2054 46.6263 29.2696 46.562C29.3338 46.4978 29.3848 46.4215 29.4195 46.3375C29.4543 46.2536 29.4722 46.1636 29.4721 46.0727V40.9018L30.8648 39.5091C30.9308 39.4453 30.9835 39.3689 31.0197 39.2845C31.056 39.2001 31.075 39.1093 31.0758 39.0175C31.0766 38.9256 31.0591 38.8345 31.0243 38.7495C30.9895 38.6645 30.9381 38.5873 30.8731 38.5223C30.8082 38.4574 30.7309 38.4061 30.6459 38.3713C30.5609 38.3365 30.4698 38.319 30.3779 38.3199C30.2861 38.3207 30.1953 38.3398 30.1109 38.376C30.0265 38.4123 29.9502 38.465 29.8864 38.5311ZM28.0885 45.381H23.254V40.5472H27.8699L25.6764 42.7407L25.1249 42.1893C24.9945 42.0632 24.8198 41.9935 24.6384 41.995C24.457 41.9965 24.2835 42.0693 24.1552 42.1975C24.0269 42.3257 23.9541 42.4992 23.9525 42.6806C23.9509 42.862 24.0206 43.0368 24.1466 43.1672L25.1874 44.2081C25.2516 44.2724 25.3279 44.3234 25.4118 44.3582C25.4957 44.393 25.5857 44.4109 25.6766 44.4109C25.7675 44.4109 25.8574 44.393 25.9414 44.3582C26.0253 44.3234 26.1016 44.2724 26.1658 44.2081L28.0885 42.2853V45.381Z" fill="#333333"/>
</svg>
