<svg width="764" height="444" viewBox="0 0 595 450" fill="none" xmlns="http://www.w3.org/2000/svg">
    <mask id="mask0_10_25" style="mask-type:alpha" maskUnits="userSpaceOnUse" x="1" y="0" width="594" height="450">
        <rect x="1" width="594" height="450" fill="#C4C4C4"/>
    </mask>
    <g mask="url(#mask0_10_25)">
        <path d="M366.107 626.526C277.11 700.507 200.3 690.497 122.041 640.159C43.7818 589.821 10.9358 480.517 29.791 417.154C48.6462 353.79 96.1558 299.77 192.402 257.998C288.647 216.227 342.058 34.2537 442.323 26.3561C542.587 18.4586 589.975 85.8178 583.42 172.771C580.134 216.353 552.414 293.431 552.414 293.431C552.414 293.431 455.103 552.544 366.107 626.526Z" fill="white" fill-opacity="0.7"/>
        <g clip-path="url(#clip0_10_25)">
            <path d="M488.186 265.6L491.329 267.372L494.567 265.806L493.85 269.331L496.334 271.924L492.759 272.34L491.052 275.508L489.576 272.231L486.019 271.606L488.687 269.164L488.186 265.6Z" fill="white"/>
            <path d="M369.809 304.029L372.936 305.812L376.174 304.246L375.457 307.771L377.941 310.364L374.382 310.769L372.675 313.938L371.183 310.671L367.642 310.035L370.294 307.604L369.809 304.029Z" fill="white"/>
            <path d="M221.665 344.89L224.792 346.673L228.036 345.08L227.313 348.632L229.813 351.214L226.227 351.614L224.531 354.799L223.039 351.532L219.487 350.88L222.15 348.465L221.665 344.89Z" fill="white"/>
            <path d="M380.155 141.805L384.813 144.466L389.649 142.119L388.571 147.386L392.299 151.262L386.965 151.842L384.439 156.595L382.216 151.699L376.923 150.755L380.891 147.127L380.155 141.805Z" fill="white"/>
            <path d="M284.259 326.335L274.272 328.085L270.066 337.321L265.308 328.346L255.223 327.195L262.272 319.91L260.276 309.973L269.385 314.406L278.208 309.424L276.799 319.474L284.259 326.335Z" fill="white"/>
            <path d="M328.507 252.15L317.242 249.157L308.392 256.752L307.755 245.098L297.8 239.041L308.674 234.842L311.377 223.493L318.726 232.533L330.34 231.596L324.035 241.391L328.507 252.15Z" fill="white"/>
            <path d="M372.751 255.442L363.082 251.46L354.313 257.176L355.113 246.744L346.995 240.19L357.148 237.719L360.883 227.961L366.364 236.866L376.794 237.387L370.018 245.351L372.751 255.442Z" fill="white"/>
            <path d="M422.111 214.798L412.441 215.258L407.325 223.498L403.892 214.442L394.489 212.126L402.043 206.066L401.347 196.392L409.438 201.702L418.412 198.045L415.854 207.402L422.111 214.798Z" fill="white"/>
            <path d="M476.083 241.318L463.295 243.006L457.428 254.514L451.86 242.863L439.116 240.826L448.476 231.951L446.462 219.197L457.806 225.339L469.316 219.493L466.968 232.191L476.083 241.318Z" fill="white"/>
            <path d="M549.78 187.759L539.516 181.936L528.908 187.077L531.287 175.527L523.11 167.025L534.823 165.717L540.383 155.305L545.262 166.045L556.868 168.128L548.171 176.086L549.78 187.759Z" fill="white"/>
            <path d="M491.655 118.188L479.945 112.714L468.806 119.244L470.386 106.413L460.75 97.8263L473.43 95.394L478.623 83.5476L484.87 94.8552L497.731 96.1345L488.89 105.569L491.655 118.188Z" fill="white"/>
            <path d="M301.844 260.835L279.075 302.226L280.719 303.131L303.488 261.74L301.844 260.835Z" fill="#FFFFCC"/>
            <path d="M343.529 242.519L329.938 240.473L330.17 238.61L343.761 240.656L343.529 242.519Z" fill="#FFFFCC"/>
            <path d="M380.305 234.911L379.295 233.492L397.244 220.495L398.237 221.925L380.305 234.911Z" fill="#FFFFCC"/>
            <path d="M441.789 226.436L424.811 215.817L425.589 214.448L442.582 225.056L441.789 226.436Z" fill="#FFFFCC"/>
            <path d="M521.146 187.391L474.624 223.461L475.774 224.944L522.296 188.874L521.146 187.391Z" fill="#FFFFCC"/>
            <path d="M495.279 111.244L493.768 112.357L527.278 157.858L528.789 156.745L495.279 111.244Z" fill="#FFFFCC"/>
            <path d="M463.094 119.094L417.333 189.064L418.904 190.091L464.665 120.121L463.094 119.094Z" fill="#FFFFCC"/>
        </g>
        <g clip-path="url(#clip1_10_25)">
            <path d="M398.444 732.942C524.155 707.753 605.639 585.432 580.451 459.72C555.262 334.009 432.941 252.525 307.229 277.714C181.518 302.903 100.034 425.223 125.223 550.935C150.412 676.646 272.732 758.13 398.444 732.942Z" fill="#25A9E0"/>
            <path opacity="0.35" d="M533.396 521.155C550.897 492.671 544.693 457.121 519.598 441.7C494.503 426.28 459.961 436.81 442.46 465.294C424.959 493.777 431.163 529.328 456.258 544.748C481.421 560.155 515.963 549.625 533.396 521.155Z" fill="#0E85AA"/>
            <path d="M526.63 514.939C540.718 492.021 535.7 463.45 515.518 451.008C495.336 438.566 467.542 447.106 453.508 469.943C439.407 492.792 444.438 521.431 464.62 533.874C484.802 546.316 512.597 537.775 526.63 514.939Z" fill="#9BD6E8"/>
            <path opacity="0.35" d="M399.486 373.358C415.666 379.597 431.992 376.326 435.894 366.134C439.795 355.941 429.83 342.584 413.664 336.412C397.484 330.173 381.158 333.444 377.257 343.637C373.287 353.843 383.306 367.119 399.486 373.358Z" fill="#0E85AA"/>
            <path d="M401.129 364.962C414.152 369.924 427.294 367.361 430.461 359.156C433.629 350.95 425.611 340.245 412.575 335.215C399.552 330.254 386.409 332.816 383.242 341.022C380.075 349.228 388.092 359.933 401.129 364.962Z" fill="#9BD6E8"/>
            <path opacity="0.35" d="M301.044 484.149C316.635 481.025 327.2 468.137 324.64 455.363C322.081 442.59 307.366 434.767 291.775 437.891C276.184 441.015 265.619 453.903 268.179 466.677C270.738 479.45 285.452 487.273 301.044 484.149Z" fill="#0E85AA"/>
            <path opacity="0.35" d="M255.839 354.948C263.511 349.094 266.283 339.977 262.145 334.509C258.02 329.109 248.455 329.398 240.797 335.319C233.126 341.173 230.353 350.29 234.491 355.758C238.616 361.158 248.235 360.787 255.839 354.948Z" fill="#0E85AA"/>
            <path opacity="0.35" d="M286.5 447.226C274.178 385.731 287.368 325.138 318.427 276.036C314.726 276.636 310.971 276.964 307.229 277.714C181.518 302.903 100.034 425.223 125.223 550.935C150.412 676.646 272.732 758.13 398.444 732.942C461.708 720.265 513.67 682.966 546.62 633.061C425.381 649.146 310.871 568.856 286.5 447.226Z" fill="#0E85AA"/>
        </g>
        <path d="M291.4 250.017L197.671 290.483L170.358 213.938C157.259 177.227 155.903 136.799 166.402 98.0135L169.333 87.2834C169.584 86.7241 169.835 86.1653 170.087 85.606C172.599 80.0142 178.847 77.3166 184.146 79.536C184.676 79.758 185.206 79.9798 185.736 80.2018L195.302 85.5366C226.981 106.113 250.988 136.762 263.808 172.691L291.4 250.017Z" fill="#D5E3EF"/>
        <path d="M223.577 150.665L263.642 263L291.124 251.13L263.666 174.145C250.498 137.224 226.645 107.184 194.798 86.4896L185.687 79.9991C185.154 79.7758 184.621 79.5527 184.089 79.3294C181.425 78.2134 178.789 78.4451 176.434 79.4626C197.15 98.1652 213.49 122.384 223.577 150.665Z" fill="#B0C4D9"/>
        <path d="M320.615 257.546L297.017 267.743L280.177 220.504L312.195 233.926L320.615 257.546Z" fill="#25A9E0"/>
        <path d="M300.112 250.96L294.779 236.001C292.253 228.915 287.115 223.412 280.177 220.504L297.017 267.743L320.615 257.546L317.808 249.673L307.583 254.092C304.436 255.451 301.235 254.109 300.112 250.96Z" fill="#0E85AA"/>
        <path d="M357.629 260.821L326.389 274.309L306.323 218.075C304.93 214.17 305.098 209.59 307.108 205.117C311.126 196.172 321.028 192.347 328.976 195.676C333.215 197.451 336.171 200.682 337.564 204.587L357.629 260.821Z" fill="#D5E3EF"/>
        <path d="M329.533 200.387L349.535 256.459L326.179 266.546L328.957 274.333L360.098 260.884L340.096 204.813C338.707 200.919 335.761 197.697 331.536 195.927C329.423 195.042 327.588 194.936 325.753 194.829C327.616 196.272 328.7 198.051 329.533 200.387Z" fill="#B0C4D9"/>
        <path d="M181.763 314.112L205.002 304.065L188.418 257.521L173.471 290.84L181.763 314.112Z" fill="#25A9E0"/>
        <path d="M193.352 300.144C190.217 301.498 187.028 300.162 185.909 297.026L179.001 278.5L173.999 289.5L182.826 313.734L206.335 303.583C204.657 298.88 200.404 297.099 195.702 299.129L193.352 300.144Z" fill="#0E85AA"/>
        <path d="M156.962 342.169L188.203 328.682L168.137 272.448C166.744 268.543 163.788 265.312 159.55 263.537C151.601 260.208 141.448 264.591 137.681 272.978C135.671 277.451 135.503 282.031 136.896 285.936L156.962 342.169Z" fill="#D5E3EF"/>
        <path d="M240.782 208.838C246.331 196.486 241.34 182.499 229.635 177.597C217.93 172.695 203.943 178.733 198.394 191.085C192.845 203.436 197.836 217.423 209.541 222.325C221.247 227.228 235.234 221.189 240.782 208.838Z" fill="#25A9E0"/>
        <path d="M246.078 211.057C239.045 226.713 221.863 234.131 207.027 227.917C192.191 221.703 186.06 204.521 193.092 188.866C200.125 173.211 217.308 165.792 232.144 172.006C246.98 178.22 253.111 195.402 246.078 211.057ZM203.69 193.304C199.42 202.809 203.043 212.962 212.05 216.735C221.058 220.507 231.211 216.124 235.481 206.619C239.751 197.114 236.128 186.961 227.12 183.188C218.113 179.416 207.96 183.799 203.69 193.304Z" fill="#F39892"/>
        <path d="M229.341 214.621C225.938 215.189 223.038 214.638 219.858 213.307C210.851 209.534 207.228 199.381 211.498 189.876C213.005 186.521 215.32 184.17 217.636 181.818C211.89 183.398 206.45 187.098 203.688 193.248C199.418 202.753 203.041 212.907 212.048 216.679C217.876 219.12 224.152 217.762 229.341 214.621Z" fill="#0E85AA"/>
        <path d="M294.434 248.474L303.78 274.667C304.913 277.842 303.382 281.251 300.207 282.621L216.072 318.945C212.897 320.316 209.667 318.963 208.534 315.787L199.187 289.595L294.434 248.474Z" fill="#F39892"/>
        <path d="M262.843 285.333L213.05 306.841C209.888 308.206 208.109 312.169 208.983 315.898C210.111 319.061 213.328 320.409 216.49 319.043L300.269 282.856C303.431 281.49 304.956 278.094 303.828 274.931L294.521 248.836L266.858 260.785L269.96 269.483C272.216 275.81 269.166 282.602 262.843 285.333Z" fill="#D77670"/>
        <path d="M360.863 261.028L351.523 236.229L315.999 250.76L325.339 275.559L360.863 261.028Z" fill="#F39892"/>
        <path d="M342.362 239.679L346.632 251.666C348.463 256.803 346.263 261.706 341.134 263.924L323.501 271.5L325.5 276.5L361 261L351.5 236L342.362 239.679Z" fill="#D77670"/>
        <path d="M206.183 265.69C205.927 266.253 205.417 267.379 204.636 267.723C203.074 268.413 201.497 267.758 200.957 266.197L187.434 227.153C186.893 225.591 187.659 223.903 189.22 223.214C190.782 222.525 192.359 223.179 192.9 224.74L206.422 263.784C206.948 264.002 206.438 265.128 206.183 265.69Z" fill="#ECF0F9"/>
        <path d="M185.155 211.021C184.9 211.584 184.39 212.709 183.609 213.054C182.048 213.743 180.471 213.089 179.93 211.527L174.522 195.913C173.982 194.351 174.747 192.663 176.308 191.974C177.87 191.285 179.446 191.939 179.987 193.501L185.395 209.115C185.921 209.333 185.411 210.458 185.155 211.021Z" fill="#ECF0F9"/>
        <path opacity="0.5" d="M170.518 133.669C170.021 134.775 169.012 135.666 167.74 135.79C165.956 135.7 165.18 134.719 165.414 132.846C166.287 120.074 168.696 107.946 171.865 95.4782C172.611 93.8196 173.619 92.9284 175.404 93.0184C176.939 93.6614 177.715 94.6431 177.481 96.5161C174.048 108.216 172.152 120.559 171.014 132.564C170.766 133.116 170.766 133.116 170.518 133.669Z" fill="white"/>
        <path opacity="0.5" d="M193.819 188.368L193.293 188.15C186.147 203.909 192.102 221.092 206.825 227.202L207.08 226.639C208.356 223.825 207.8 220.918 205.425 219.265C202 217.175 199.866 213.614 198.257 210.272C196.634 205.586 195.791 200.555 197.036 195.053C197.786 192.021 196.448 189.459 193.819 188.368Z" fill="white"/>
        <path d="M245.547 211.554L246.077 211.776C253.11 196.121 246.979 178.939 232.143 172.725L231.891 173.284C230.636 176.08 231.221 178.982 233.619 180.65C237.076 182.763 239.251 186.331 240.895 189.677C242.567 194.363 243.459 199.386 242.258 204.862C241.532 207.88 242.898 210.445 245.547 211.554Z" fill="#D77670"/>
        <path d="M324.728 232.702C324.477 233.261 323.974 234.379 323.193 234.716C321.632 235.39 320.043 234.725 319.486 233.163L313.914 217.547C313.357 215.986 314.11 214.309 315.671 213.635C317.233 212.961 318.822 213.627 319.379 215.188L324.951 230.804C325.481 231.026 324.979 232.144 324.728 232.702Z" fill="#ECF0F9"/>
        <path d="M157.705 268.247L177.707 324.319L154.351 334.406L157.129 342.193L188.27 328.745L168.268 272.673C166.879 268.779 163.933 265.557 159.708 263.787C157.595 262.902 155.76 262.796 153.925 262.689C155.788 264.132 156.872 265.911 157.705 268.247Z" fill="#B0C4D9"/>
        <path d="M152.9 300.561C152.648 301.12 152.146 302.238 151.365 302.575C149.804 303.249 148.215 302.584 147.658 301.022L142.086 285.406C141.529 283.845 142.282 282.168 143.843 281.494C145.405 280.82 146.994 281.486 147.551 283.047L153.123 298.663C153.653 298.885 153.151 300.002 152.9 300.561Z" fill="#ECF0F9"/>
        <path d="M189.352 328.312L180.535 304.902L147.001 318.618L155.818 342.029L189.352 328.312Z" fill="#F39892"/>
        <path d="M172.066 308.147L175.975 319.443C177.651 324.284 175.547 328.934 170.716 331.069L154.5 338.5L156 343L189.499 328.5L180.499 304.5L172.066 308.147Z" fill="#D77670"/>
    </g>
    <path d="M592.153 450H3.17523C1.81742 450 0.699219 448.474 0.699219 446.622C0.699219 444.769 1.81742 443.243 3.17523 443.243H592.153C593.511 443.243 594.629 444.769 594.629 446.622C594.629 448.474 593.511 450 592.153 450Z" fill="#2F333A"/>
    <defs>
        <clipPath id="clip0_10_25">
            <rect width="381.79" height="172.904" fill="white" transform="translate(173 282.367) rotate(-34.1582)"/>
        </clipPath>
        <clipPath id="clip1_10_25">
            <rect width="464.276" height="464.276" fill="white" transform="translate(79.6155 323.321) rotate(-11.3304)"/>
        </clipPath>
    </defs>
</svg>
