<?xml version="1.0" encoding="utf-8"?>
<!-- Generator: Adobe Illustrator 26.0.3, SVG Export Plug-In . SVG Version: 6.00 Build 0)  -->
<svg version="1.1" id="Layer_1" xmlns="http://www.w3.org/2000/svg" xmlns:xlink="http://www.w3.org/1999/xlink" x="0px" y="0px"
	 viewBox="0 0 30 30" style="enable-background:new 0 0 30 30;" xml:space="preserve">
<style type="text/css">
	.st0{fill:#25A9E0;}
	.st1{fill:#FFFFFF;}
</style>
<path class="st0" d="M2.2,0h25.7C29,0,30,1,30,2.2v25.7c0,1.2-1,2.2-2.2,2.2H2.2C1,30,0,29,0,27.8V2.2C0,1,1,0,2.2,0z"/>
<path class="st1" d="M6.9,16c0-1.7,1.4-3.1,3.1-3.1h4V11h-4c-2.8,0-5,2.2-5,5s2.2,5,5,5h4v-1.9h-4C8.3,19.1,6.9,17.7,6.9,16z M11,17
	h8v-2h-8V17z M20,11h-4v1.9h4c1.7,0,3.1,1.4,3.1,3.1s-1.4,3.1-3.1,3.1h-4V21h4c2.8,0,5-2.2,5-5S22.8,11,20,11z"/>
</svg>
