<svg width="28" height="26" viewBox="0 0 28 26" fill="none" xmlns="http://www.w3.org/2000/svg">
<path d="M12.9704 0.974804C13.3529 0.29616 14.3302 0.296158 14.7127 0.974803L18.3779 7.47748C18.5206 7.73066 18.7663 7.90923 19.0512 7.96671L26.3682 9.44307C27.1319 9.59715 27.4339 10.5266 26.9066 11.1001L21.8548 16.5953C21.6581 16.8093 21.5643 17.0982 21.5976 17.3869L22.4546 24.802C22.544 25.5759 21.7534 26.1503 21.0451 25.8261L14.2577 22.7197C13.9934 22.5987 13.6896 22.5987 13.4254 22.7197L6.63798 25.8261C5.92963 26.1503 5.13899 25.5759 5.22843 24.802L6.08542 17.3869C6.11878 17.0982 6.0249 16.8093 5.82821 16.5953L0.7764 11.1001C0.249174 10.5266 0.551167 9.59715 1.3148 9.44307L8.63182 7.96671C8.9167 7.90923 9.16248 7.73066 9.30519 7.47748L12.9704 0.974804Z" fill="#FFE500"/>
</svg>
