<svg width="80" height="80" viewBox="0 0 80 80" fill="none" xmlns="http://www.w3.org/2000/svg">
<path d="M26.5134 22.6079L24.0134 18.1079L15.5832 13.0271L13.4265 15.1838L18.5134 24.1079L23.0134 26.1079L44.7839 48.7132L49.1126 44.383L26.5134 22.6079Z" fill="white"/>
<path fill-rule="evenodd" clip-rule="evenodd" d="M25.4276 23.5217L23.3877 19.4562L15.5183 15.0884L15.4942 15.1125L19.862 22.982L23.9274 25.0218L44.3708 45.4653L45.8715 43.9641L25.4276 23.5217ZM48.6997 43.9638L44.3711 48.294L22.7416 26.6645L18.413 24.4926L13.0137 14.7646L15.1703 12.6079L24.8983 18.0072L27.0703 22.3359L48.6997 43.9638Z" fill="#333333"/>
<path d="M25.6142 43.7314C23.4618 43.4078 21.262 43.6637 19.2413 44.4728C17.2206 45.282 15.4522 46.6151 14.118 48.3349C12.7838 50.0547 11.9321 52.099 11.6507 54.2574C11.3692 56.4158 11.6681 58.6102 12.5167 60.6146L20.5422 52.5891L25.9507 53.6704L27.0321 59.079L19.0066 67.1045C21.011 67.9531 23.2054 68.252 25.3638 67.9705C27.5221 67.6891 29.5665 66.8374 31.2863 65.5032C33.0061 64.169 34.3392 62.4005 35.1484 60.3799C35.9575 58.3592 36.2134 56.1594 35.8898 54.007C35.7216 53.0284 35.7862 52.0239 36.0785 51.0749C36.3709 50.126 36.8826 49.2592 37.5723 48.5449L48.9446 37.1635C49.659 36.4739 50.5257 35.9622 51.4746 35.6699C52.4236 35.3776 53.428 35.3129 54.4066 35.481C56.5579 35.8037 58.7564 35.5475 60.7758 34.7387C62.7953 33.93 64.5629 32.5979 65.8967 30.8794C67.2306 29.1609 68.0826 27.1181 68.3651 24.9612C68.6477 22.8042 68.3505 20.6109 67.5042 18.6069L59.4786 26.6325L54.0701 25.5511L52.9887 20.1426L61.0143 12.117C59.0098 11.2685 56.8155 10.9695 54.6571 11.251C52.4987 11.5325 50.4544 12.3841 48.7345 13.7183C47.0147 15.0525 45.6816 16.821 44.8725 18.8417C44.0633 20.8623 43.8074 23.0621 44.131 25.2146C44.2991 26.1932 44.2344 27.1976 43.9421 28.1465C43.6498 29.0955 43.1381 29.9622 42.4485 30.6766L38.9306 34.1946L38.9397 34.2038L38.9306 34.1946L34.6019 38.5233L34.6111 38.5324L34.6019 38.5233L31.0839 42.0412C30.3695 42.7334 29.5018 43.2473 28.5514 43.541C27.601 43.8346 26.5946 43.8999 25.6142 43.7314Z" fill="white"/>
<path fill-rule="evenodd" clip-rule="evenodd" d="M31.0839 42.0412C30.3695 42.7334 29.5018 43.2473 28.5514 43.541C27.601 43.8346 26.5946 43.8999 25.6142 43.7314C23.4618 43.4078 21.262 43.6637 19.2413 44.4728C17.2206 45.282 15.4522 46.6151 14.118 48.3349C12.7838 50.0547 11.9321 52.099 11.6507 54.2574C11.4668 55.6671 11.5306 57.0921 11.8333 58.4695C11.9941 59.2011 12.2223 59.9193 12.5167 60.6146L20.5422 52.5891L25.9507 53.6704L27.0321 59.079L19.0066 67.1045C19.7019 67.3989 20.4201 67.6271 21.1516 67.7879C22.5291 68.0906 23.9541 68.1543 25.3638 67.9705C27.5221 67.6891 29.5665 66.8374 31.2863 65.5032C33.0061 64.169 34.3392 62.4005 35.1484 60.3799C35.9575 58.3592 36.2134 56.1594 35.8898 54.007C35.7216 53.0284 35.7862 52.0239 36.0785 51.0749C36.3709 50.126 36.8826 49.2592 37.5723 48.5449L48.9446 37.1635C49.659 36.4739 50.5257 35.9622 51.4746 35.6699C52.4236 35.3776 53.428 35.3129 54.4066 35.481C56.5579 35.8037 58.7564 35.5475 60.7758 34.7387C62.7953 33.93 64.5629 32.5979 65.8967 30.8794C67.2306 29.1609 68.0826 27.1181 68.3651 24.9612C68.5496 23.5532 68.487 22.1298 68.1859 20.7536C68.0257 20.0215 67.7981 19.3028 67.5042 18.6069L59.4786 26.6325L54.0701 25.5511L52.9887 20.1426L61.0143 12.117C60.319 11.8227 59.6008 11.5944 58.8692 11.4337C57.4918 11.1309 56.0667 11.0672 54.6571 11.251C52.4987 11.5325 50.4544 12.3841 48.7345 13.7183C47.0147 15.0525 45.6816 16.821 44.8725 18.8417C44.0633 20.8623 43.8074 23.0621 44.131 25.2146C44.2991 26.1932 44.2344 27.1976 43.9421 28.1465C43.6498 29.0955 43.1381 29.9622 42.4485 30.6766L31.0839 42.0412ZM46.1061 24.8988C46.3224 26.1797 46.236 27.4936 45.8535 28.7353C45.4687 29.9844 44.7952 31.1253 43.8875 32.0657L43.8752 32.0784L32.487 43.4666L32.4756 43.4776C31.5352 44.3888 30.3929 45.0652 29.1418 45.4518C27.8981 45.8361 26.5818 45.9233 25.2985 45.7064C23.5034 45.4398 21.6697 45.6548 19.9848 46.3295C18.2941 47.0065 16.8145 48.1219 15.6982 49.5608C14.5819 50.9997 13.8694 52.7102 13.6339 54.516C13.5383 55.2491 13.5227 55.9871 13.5854 56.7174L19.8848 50.418L27.6505 51.9707L29.2032 59.7364L22.9038 66.0358C23.6341 66.0985 24.3721 66.0829 25.1051 65.9873C26.911 65.7518 28.6215 65.0392 30.0604 63.923C31.4993 62.8067 32.6147 61.327 33.2917 59.6364C33.9664 57.9515 34.1813 56.1178 33.9148 54.3227C33.6983 53.0418 33.7847 51.7279 34.1672 50.4862C34.552 49.237 35.2256 48.096 36.1335 47.1557L36.1454 47.1434L47.5425 35.7371L47.5555 35.7245C48.4959 34.8168 49.6368 34.1433 50.8859 33.7585C52.1274 33.3761 53.4412 33.2896 54.7219 33.5059C56.5159 33.7716 58.3485 33.5564 60.0323 32.8821C61.7219 32.2054 63.2008 31.0909 64.3168 29.6531C65.4328 28.2153 66.1457 26.5061 66.3821 24.7014C66.4778 23.9708 66.494 23.2352 66.4324 22.5071L60.136 28.8035L52.3704 27.2508L50.8177 19.4852L57.1171 13.1858C56.3868 13.123 55.6487 13.1386 54.9157 13.2342C53.1098 13.4697 51.3994 14.1823 49.9605 15.2986C48.5215 16.4148 47.4061 17.8945 46.7292 19.5851C46.0545 21.27 45.8395 23.1038 46.1061 24.8988Z" fill="#333333"/>
<path fill-rule="evenodd" clip-rule="evenodd" d="M31.0839 42.0412C30.3695 42.7334 29.5018 43.2473 28.5514 43.541C27.601 43.8346 26.5946 43.8999 25.6142 43.7314C23.4618 43.4078 21.262 43.6637 19.2413 44.4728C17.2206 45.282 15.4522 46.6151 14.118 48.3349C12.7838 50.0547 11.9321 52.099 11.6507 54.2574C11.4668 55.6671 11.5306 57.0921 11.8333 58.4695C11.9941 59.2011 12.2223 59.9193 12.5167 60.6146L20.5422 52.5891L25.9507 53.6704L27.0321 59.079L19.0066 67.1045C19.7019 67.3989 20.4201 67.6271 21.1516 67.7879C22.5291 68.0906 23.9541 68.1543 25.3638 67.9705C27.5221 67.6891 29.5665 66.8374 31.2863 65.5032C33.0061 64.169 34.3392 62.4005 35.1484 60.3799C35.9575 58.3592 36.2134 56.1594 35.8898 54.007C35.7216 53.0284 35.7862 52.0239 36.0785 51.0749C36.3709 50.126 36.8826 49.2592 37.5723 48.5449L48.9446 37.1635C49.659 36.4739 50.5257 35.9622 51.4746 35.6699C52.4236 35.3776 53.428 35.3129 54.4066 35.481C56.5579 35.8037 58.7564 35.5475 60.7758 34.7387C62.7953 33.93 64.5629 32.5979 65.8967 30.8794C67.2306 29.1609 68.0826 27.1181 68.3651 24.9612C68.5496 23.5532 68.487 22.1298 68.1859 20.7536C68.0257 20.0215 67.7981 19.3028 67.5042 18.6069L59.4786 26.6325L54.0701 25.5511L52.9887 20.1426L61.0143 12.117C60.319 11.8227 59.6008 11.5944 58.8692 11.4337C57.4918 11.1309 56.0667 11.0672 54.6571 11.251C52.4987 11.5325 50.4544 12.3841 48.7345 13.7183C47.0147 15.0525 45.6816 16.821 44.8725 18.8417C44.0633 20.8623 43.8074 23.0621 44.131 25.2146C44.2991 26.1932 44.2344 27.1976 43.9421 28.1465C43.6498 29.0955 43.1381 29.9622 42.4485 30.6766L31.0839 42.0412ZM46.1061 24.8988C46.3224 26.1797 46.236 27.4936 45.8535 28.7353C45.4687 29.9844 44.7952 31.1253 43.8875 32.0657L43.8752 32.0784L32.487 43.4666L32.4756 43.4776C31.5352 44.3888 30.3929 45.0652 29.1418 45.4518C27.8981 45.8361 26.5818 45.9233 25.2985 45.7064C23.5034 45.4398 21.6697 45.6548 19.9848 46.3295C18.2941 47.0065 16.8145 48.1219 15.6982 49.5608C14.5819 50.9997 13.8694 52.7102 13.6339 54.516C13.5383 55.2491 13.5227 55.9871 13.5854 56.7174L19.8848 50.418L27.6505 51.9707L29.2032 59.7364L22.9038 66.0358C23.6341 66.0985 24.3721 66.0829 25.1051 65.9873C26.911 65.7518 28.6215 65.0392 30.0604 63.923C31.4993 62.8067 32.6147 61.327 33.2917 59.6364C33.9664 57.9515 34.1813 56.1178 33.9148 54.3227C33.6983 53.0418 33.7847 51.7279 34.1672 50.4862C34.552 49.237 35.2256 48.096 36.1335 47.1557L36.1454 47.1434L47.5425 35.7371L47.5555 35.7245C48.4959 34.8168 49.6368 34.1433 50.8859 33.7585C52.1274 33.3761 53.4412 33.2896 54.7219 33.5059C56.5159 33.7716 58.3485 33.5564 60.0323 32.8821C61.7219 32.2054 63.2008 31.0909 64.3168 29.6531C65.4328 28.2153 66.1457 26.5061 66.3821 24.7014C66.4778 23.9708 66.494 23.2352 66.4324 22.5071L60.136 28.8035L52.3704 27.2508L50.8177 19.4852L57.1171 13.1858C56.3868 13.123 55.6487 13.1386 54.9157 13.2342C53.1098 13.4697 51.3994 14.1823 49.9605 15.2986C48.5215 16.4148 47.4061 17.8945 46.7292 19.5851C46.0545 21.27 45.8395 23.1038 46.1061 24.8988Z" fill="#333333"/>
<path d="M56.7558 64.8479C57.8827 65.9748 59.4112 66.6079 61.0049 66.6079C62.5986 66.6079 64.127 65.9748 65.2539 64.8479C66.3808 63.721 67.0139 62.1926 67.0139 60.5989C67.0139 59.0052 66.3808 57.4767 65.2539 56.3498L53.5105 44.6079L45.0139 53.1045L56.7558 64.8479Z" fill="#25A9E0"/>
<path fill-rule="evenodd" clip-rule="evenodd" d="M58.1701 63.4338C58.922 64.1856 59.9416 64.6079 61.0049 64.6079C62.0681 64.6079 63.0879 64.1855 63.8397 63.4337C64.5915 62.6819 65.0139 61.6621 65.0139 60.5989C65.0139 59.5356 64.5916 58.516 63.8398 57.7641C63.8398 57.7641 63.8398 57.7642 63.8398 57.7641L53.5106 47.4362L47.8423 53.1046L58.1701 63.4338C58.1702 63.4338 58.1701 63.4338 58.1701 63.4338ZM56.7558 64.8479L45.0139 53.1045L53.5105 44.6079L65.2539 56.3498C66.3808 57.4767 67.0139 59.0052 67.0139 60.5989C67.0139 62.1926 66.3808 63.721 65.2539 64.8479C64.127 65.9748 62.5986 66.6079 61.0049 66.6079C59.4112 66.6079 57.8827 65.9748 56.7558 64.8479Z" fill="#333333"/>
<path d="M45.5137 55.9492L56.8559 44.859C57.5969 44.1176 58.0133 43.1118 58.0135 42.063C58.0136 41.0143 57.5976 40.0084 56.8569 39.2666C56.1162 38.5249 55.1115 38.1081 54.0638 38.1079C53.0161 38.1077 52.0113 38.5242 51.2703 39.2656L39.9261 50.3578C39.5593 50.725 39.2684 51.161 39.07 51.6408C38.8715 52.1206 38.7694 52.6349 38.7695 53.1542C38.7696 53.6735 38.8719 54.1877 39.0705 54.6674C39.2691 55.1472 39.5602 55.583 39.927 55.9502C40.2939 56.3173 40.7295 56.6085 41.2088 56.8072C41.6881 57.0058 42.2018 57.108 42.7206 57.1079C43.2393 57.1078 43.753 57.0054 44.2322 56.8066C44.7115 56.6078 45.1469 56.3165 45.5137 55.9492Z" fill="#25A9E0"/>
<path fill-rule="evenodd" clip-rule="evenodd" d="M44.1069 54.5275L55.448 43.4385C55.8098 43.0729 56.0134 42.5785 56.0135 42.0627C56.0135 41.5437 55.8077 41.0463 55.4417 40.6799C55.0759 40.3135 54.5801 40.108 54.0635 40.1079C53.5469 40.1078 53.051 40.3131 52.685 40.6794L52.6768 40.6876L41.3343 51.778C41.1564 51.9579 41.015 52.1709 40.9181 52.4052C40.82 52.6425 40.7695 52.8969 40.7695 53.1538C40.7696 53.4108 40.8202 53.6651 40.9184 53.9024C41.0166 54.1397 41.1605 54.3551 41.3417 54.5365C41.523 54.7178 41.738 54.8615 41.9745 54.9596C42.211 55.0576 42.4644 55.108 42.7202 55.1079C42.976 55.1079 43.2294 55.0574 43.4659 54.9593C43.7023 54.8612 43.9173 54.7174 44.0985 54.536L44.1069 54.5275ZM39.9261 50.3578L51.2703 39.2656C52.0113 38.5242 53.0161 38.1077 54.0638 38.1079C55.1115 38.1081 56.1162 38.5249 56.8569 39.2666C57.5976 40.0084 58.0136 41.0143 58.0135 42.063C58.0133 43.1118 57.5969 44.1176 56.8559 44.859L45.5137 55.9492C45.1469 56.3165 44.7115 56.6078 44.2322 56.8066C43.753 57.0054 43.2393 57.1078 42.7206 57.1079C42.2018 57.108 41.6881 57.0058 41.2088 56.8072C40.7295 56.6085 40.2939 56.3173 39.927 55.9502C39.5602 55.583 39.2691 55.1472 39.0705 54.6674C38.8719 54.1877 38.7696 53.6735 38.7695 53.1542C38.7694 52.6349 38.8715 52.1206 39.07 51.6408C39.2684 51.161 39.5593 50.725 39.9261 50.3578Z" fill="#333333"/>
</svg>
