<svg width="960" height="665" viewBox="0 0 960 745" fill="none" xmlns="http://www.w3.org/2000/svg">
    <g opacity="0.7">
        <path d="M-348 684.702C-286.515 707.108 -215.799 702.825 -157.611 673.17C-99.2574 643.515 -54.2563 588.819 -36.2888 526.05C-14.8597 450.926 -28.3765 361.962 21.405 301.829C53.0541 263.608 104.154 246.639 153.441 241.367C202.893 236.095 252.839 240.543 302.291 236.095C374.161 229.67 443.064 204.628 508.835 175.138C591.914 137.74 677.465 86.1745 709.609 1" stroke="#25A9E0" stroke-miterlimit="10"/>
        <path d="M-334.978 687.009C-273.492 709.414 -202.776 705.131 -144.588 675.476C-86.235 645.822 -41.2339 591.126 -23.2664 528.357C-1.8373 453.232 -15.3541 364.268 34.4274 304.135C66.0765 265.914 117.177 248.945 166.464 243.673C215.915 238.401 265.862 242.849 315.314 238.401C387.183 231.976 456.086 206.934 521.857 177.445C604.936 140.047 690.488 88.4809 722.632 3.3064" stroke="#25A9E0" stroke-miterlimit="10"/>
        <path d="M-321.791 689.315C-260.305 711.721 -189.589 707.438 -131.401 677.783C-73.048 648.128 -28.0469 593.432 -10.0794 530.663C11.3497 455.539 -2.16716 366.575 47.6143 306.442C79.2635 268.221 130.364 251.252 179.651 245.98C229.102 240.708 279.049 245.156 328.5 240.708C400.37 234.283 469.273 209.241 535.044 179.751C617.958 142.353 703.675 90.6227 735.654 5.44824" stroke="#25A9E0" stroke-miterlimit="10"/>
        <path d="M-308.604 691.787C-247.118 714.192 -176.402 709.909 -118.214 680.254C-59.861 650.6 -14.8599 595.903 3.10761 533.135C24.5367 458.01 11.0199 369.046 60.8014 308.913C92.4505 270.692 143.551 253.723 192.838 248.451C242.289 243.179 292.236 247.627 341.688 243.179C413.558 236.754 482.46 211.712 548.231 182.222C631.31 144.825 716.862 93.2587 749.006 8.08423" stroke="#25A9E0" stroke-miterlimit="10"/>
        <path d="M-295.581 694.093C-234.096 716.499 -163.38 712.215 -105.192 682.561C-46.8385 652.906 -1.83734 598.21 16.1301 535.441C37.5593 460.316 24.0424 371.353 73.8239 311.22C105.473 272.998 156.573 256.029 205.86 250.757C255.312 245.485 305.258 249.934 354.71 245.485C426.58 239.06 495.483 214.019 561.254 184.529C644.333 147.131 729.884 95.4003 762.028 10.2258" stroke="#25A9E0" stroke-miterlimit="10"/>
        <path d="M-282.394 696.399C-220.909 718.805 -150.193 714.521 -92.0046 684.867C-33.6515 655.212 11.3497 600.516 29.3172 537.747C50.7463 462.623 37.2294 373.659 87.0109 313.526C118.66 275.305 169.76 258.336 219.047 253.064C268.499 247.792 318.445 252.24 367.897 247.792C439.767 241.367 508.67 216.325 574.441 186.835C657.355 149.437 743.071 97.7067 775.05 12.5322" stroke="#25A9E0" stroke-miterlimit="10"/>
        <path d="M-269.207 698.871C-207.722 721.276 -137.006 716.993 -78.8176 687.338C-20.4645 657.684 24.5367 602.987 42.5042 540.219C63.9333 465.094 50.4165 376.13 100.198 315.997C131.847 277.776 182.947 260.807 232.234 255.535C281.686 250.263 331.632 254.711 381.084 250.263C452.954 243.838 521.857 218.796 587.628 189.306C670.542 151.744 756.094 100.178 788.237 15.0034" stroke="#25A9E0" stroke-miterlimit="10"/>
        <path d="M-256.185 701.177C-194.7 723.583 -123.983 719.299 -65.7952 689.645C-7.44205 659.99 37.5591 605.294 55.5266 542.525C76.9557 467.4 63.4389 378.437 113.22 318.304C144.869 280.082 195.97 263.113 245.257 257.842C294.708 252.57 344.655 257.018 394.107 252.57C465.976 246.144 534.879 221.103 600.65 191.613C683.729 154.215 769.281 102.649 801.424 17.4749" stroke="#25A9E0" stroke-miterlimit="10"/>
        <path d="M-242.997 703.484C-181.512 725.889 -110.796 721.606 -52.6077 691.951C5.74545 662.297 50.7466 607.601 68.7141 544.832C90.1432 469.707 76.6264 380.743 126.408 320.61C158.057 282.389 209.157 265.42 258.444 260.148C307.896 254.876 357.842 259.324 407.294 254.876C479.164 248.451 548.067 223.409 613.838 193.919C696.752 156.522 782.468 104.791 814.447 19.7812" stroke="#25A9E0" stroke-miterlimit="10"/>
        <path d="M-229.81 705.955C-168.325 728.36 -97.6089 724.077 -39.4207 694.422C18.9325 664.768 63.9336 610.072 81.9011 547.303C103.33 472.178 89.8134 383.214 139.595 323.081C171.244 284.86 222.344 267.891 271.631 262.619C321.083 257.347 371.029 261.795 420.481 257.347C492.351 250.922 561.254 225.88 627.025 196.391C710.104 158.993 795.655 107.427 827.799 22.2524" stroke="#25A9E0" stroke-miterlimit="10"/>
        <path d="M-216.788 708.261C-155.303 730.667 -84.5869 726.383 -26.3986 696.729C31.9545 667.074 76.9556 612.378 94.9231 549.609C116.352 474.484 102.835 385.521 152.617 325.388C184.266 287.166 235.366 270.197 284.653 264.926C334.105 259.654 384.051 264.102 433.503 259.654C505.373 253.228 574.276 228.187 640.047 198.697C723.126 161.299 808.678 109.733 840.821 24.5588" stroke="#25A9E0" stroke-miterlimit="10"/>
        <path d="M-203.601 710.568C-142.116 732.973 -71.3994 728.69 -13.2111 699.035C45.142 669.381 90.1431 614.685 108.111 551.916C129.54 476.791 116.023 387.827 165.804 327.694C197.454 289.473 248.554 272.504 297.841 267.232C347.293 261.96 397.239 266.408 446.691 261.96C518.561 255.535 587.463 230.493 653.234 201.003C736.148 163.606 821.7 111.875 853.844 26.8652" stroke="#25A9E0" stroke-miterlimit="10"/>
        <path d="M-190.579 713.039C-129.094 735.444 -58.3775 731.161 -0.189204 701.506C58.1639 671.852 103.165 617.156 121.133 554.387C142.562 479.262 129.045 390.298 178.826 330.165C210.475 291.944 261.576 274.975 310.863 269.703C360.314 264.431 410.261 268.879 459.712 264.431C531.582 258.006 600.485 232.964 666.256 203.475C749.335 166.077 834.887 114.511 867.03 29.3364" stroke="#25A9E0" stroke-miterlimit="10"/>
        <path d="M-177.391 715.345C-115.906 737.751 -45.19 733.468 12.9983 703.813C71.3514 674.159 116.353 619.462 134.32 556.694C155.749 481.569 142.232 392.605 192.014 332.472C223.663 294.251 274.763 277.282 324.05 272.01C373.502 266.738 423.448 271.186 472.9 266.738C544.77 260.313 613.673 235.271 679.444 205.781C762.523 168.384 848.074 116.818 880.218 31.6431" stroke="#25A9E0" stroke-miterlimit="10"/>
        <path d="M-164.204 717.652C-102.719 740.057 -32.003 735.774 26.1853 706.119C84.5384 676.465 129.54 621.769 147.507 559C168.936 483.875 155.419 394.911 205.201 334.778C236.85 296.557 287.95 279.588 337.237 274.316C386.689 269.044 436.635 273.492 486.087 269.044C557.957 262.619 626.86 237.577 692.631 208.088C775.71 170.69 861.261 119.124 893.405 33.9495" stroke="#25A9E0" stroke-miterlimit="10"/>
        <path d="M-151.182 720.123C-89.6971 742.529 -18.981 738.245 39.2073 708.591C97.5604 678.936 142.562 624.24 160.529 561.471C181.958 486.346 168.441 397.383 218.223 337.25C249.872 299.028 300.972 282.059 350.259 276.787C399.711 271.515 449.657 275.964 499.109 271.515C570.979 265.09 639.882 240.049 705.653 210.559C788.732 173.161 874.283 121.595 906.427 36.4207" stroke="#25A9E0" stroke-miterlimit="10"/>
        <path d="M-137.995 722.429C-76.5096 744.835 -5.79348 740.552 52.3948 710.897C110.748 681.242 155.749 626.546 173.717 563.777C195.146 488.653 181.629 399.689 231.41 339.556C263.059 301.335 314.16 284.366 363.447 279.094C412.898 273.822 462.845 278.27 512.296 273.822C584.166 267.397 653.069 242.355 718.84 212.865C801.919 175.468 887.471 123.902 919.614 38.7271" stroke="#25A9E0" stroke-miterlimit="10"/>
        <path d="M-124.808 724.736C-63.3226 747.142 7.3935 742.858 65.5818 713.204C123.935 683.549 168.936 628.853 186.903 566.084C208.333 490.959 194.816 401.996 244.597 341.863C276.246 303.641 327.347 286.672 376.633 281.4C426.085 276.128 476.032 280.577 525.483 276.128C597.353 269.703 666.256 244.662 732.027 215.172C815.106 177.774 900.658 126.208 932.801 41.0337" stroke="#25A9E0" stroke-miterlimit="10"/>
        <path d="M-111.785 727.207C-50.3001 749.613 20.416 745.33 78.6043 715.675C136.957 686.02 181.959 631.324 199.926 568.555C221.355 493.43 207.838 404.467 257.62 344.334C289.269 306.112 340.369 289.144 389.656 283.872C439.108 278.6 489.054 283.048 538.506 278.6C610.376 272.175 679.279 247.133 745.05 217.643C828.129 180.245 913.68 128.679 945.824 43.5049" stroke="#25A9E0" stroke-miterlimit="10"/>
        <path d="M-98.5981 729.514C-37.1131 751.919 33.603 747.636 91.7913 717.981C150.144 688.327 195.146 633.631 213.113 570.862C234.542 495.737 221.025 406.773 270.807 346.64C302.456 308.419 353.556 291.45 402.843 286.178C452.295 280.906 502.241 285.354 551.693 280.906C623.563 274.481 692.466 249.439 758.237 219.949C841.316 182.552 926.867 130.986 959.011 45.8113" stroke="#25A9E0" stroke-miterlimit="10"/>
    </g>
</svg>