<svg width="345" height="271" viewBox="0 0 345 271" fill="none" xmlns="http://www.w3.org/2000/svg">
  <path opacity="0.6" d="M259.783 270.405C259.783 270.405 281.667 275.311 292.444 253.099C306.428 224.279 286.8 196.909 252.956 194.94C204.141 192.096 231.194 118.484 154.167 138.462C132.503 144.081 85.3946 115.088 57.6587 164.208C52.9406 172.556 38.8471 172.153 20.0599 186.396C-13.0768 211.532 -1.14125 270.682 26.7653 270.947C54.6962 271.211 259.783 270.405 259.783 270.405Z" fill="white"/>
  <path d="M242.892 165.365L178.879 101.353L231.156 49.0763C256.228 24.0048 288.234 7.46814 322.907 1.60035L332.509 0C333.042 0 333.575 0 334.109 0C339.444 0 343.711 4.26744 343.711 9.60209C343.711 10.1357 343.711 10.6688 343.711 11.2024L342.644 21.3377C336.777 56.0108 320.24 88.0174 295.702 112.555L242.892 165.365Z" fill="#D5E3EF"/>
  <path d="M300.503 70.4136L224.222 146.695L242.892 165.365L295.168 113.089C320.24 88.017 336.243 56.5445 342.111 21.8709L344.245 11.7356C344.245 11.202 344.245 10.6689 344.245 10.1353C344.245 7.46819 343.178 5.33424 341.578 3.73389C333.576 28.2723 319.707 51.2099 300.503 70.4136Z" fill="#B0C4D9"/>
  <path d="M245.56 216.041C242.36 212.84 237.025 212.84 233.825 216.041C229.557 220.309 226.89 233.645 226.357 234.178C226.357 234.712 226.357 234.712 226.357 234.712C226.357 234.712 226.89 235.245 226.89 234.712C227.424 234.712 240.226 232.045 245.027 227.244C249.294 224.043 249.294 219.242 245.56 216.041Z" fill="#F09959"/>
  <path d="M128.203 98.6847C125.002 95.484 119.668 95.484 116.467 98.6847C112.2 102.952 109.533 115.754 109.533 116.288C109.533 116.822 109.533 116.822 109.533 116.822C109.533 116.822 110.066 117.355 110.066 116.822C110.6 116.822 123.402 114.155 128.203 109.354C131.937 106.686 131.937 101.885 128.203 98.6847Z" fill="#F09959"/>
  <path d="M166.078 178.167C156.476 168.565 140.472 168.565 130.871 178.167C117.535 191.503 109.534 230.444 109 232.044C109 233.111 109 233.644 109.534 234.178C110.6 234.712 111.668 234.711 112.734 234.711C114.335 234.178 153.275 226.71 166.611 212.841C176.213 203.239 176.213 187.769 166.078 178.167Z" fill="#F09959"/>
  <path d="M164.477 178.701C159.676 173.9 151.674 173.9 146.873 178.701C139.939 185.636 136.205 204.84 136.205 205.373C136.205 205.907 136.205 206.44 136.738 206.44C137.272 206.974 137.272 206.974 137.805 206.974C138.872 206.974 158.075 202.706 164.477 196.305C169.278 191.504 169.278 183.502 164.477 178.701Z" fill="#FCBB76"/>
  <path d="M248.226 192.037L232.223 176.034L264.229 144.028V176.034L248.226 192.037Z" fill="#25A9E0"/>
  <path d="M246.626 172.301L256.761 162.165C261.562 157.364 264.229 150.963 264.229 144.028L232.223 176.034L248.226 192.037L253.56 186.703L246.626 179.769C244.492 177.635 244.492 174.434 246.626 172.301Z" fill="#0E85AA"/>
  <path d="M258.895 224.043L237.558 202.706L275.965 164.299C278.632 161.632 282.367 160.031 286.634 160.031C295.169 160.031 301.57 166.966 301.57 174.968C301.57 179.235 299.97 182.969 297.303 185.636L258.895 224.043Z" fill="#D5E3EF"/>
  <path d="M297.303 174.966L258.895 213.374L242.892 197.371L237.558 202.705L258.895 224.042L297.303 185.635C299.97 182.968 301.57 179.233 301.57 174.966C301.57 172.832 301.036 171.232 300.503 169.632C299.97 171.766 298.903 173.366 297.303 174.966Z" fill="#B0C4D9"/>
  <path d="M152.208 149.362C155.942 145.628 160.21 142.961 164.478 141.894L173.546 138.693L205.552 170.699L202.351 179.768C200.751 184.569 198.084 188.836 194.883 192.037L152.208 149.362Z" fill="#25A9E0"/>
  <path d="M173.546 138.693L165.544 141.36L183.147 158.964C187.415 163.231 188.481 169.099 186.881 174.433C186.347 176.567 185.281 178.701 183.68 180.835L194.882 192.037C198.616 188.303 201.284 184.035 202.35 179.767L205.551 170.699L173.546 138.693Z" fill="#0E85AA"/>
  <path d="M152.208 96.0187L168.211 112.022L200.217 80.0156H168.211L152.208 96.0187Z" fill="#25A9E0"/>
  <path d="M166.611 99.753C164.477 97.619 164.477 94.4188 166.611 92.2848L178.88 80.0156H168.211L152.208 96.0187L168.211 112.022C171.412 108.821 171.412 104.554 168.211 101.353L166.611 99.753Z" fill="#0E85AA"/>
  <path d="M120.201 85.3502L141.538 106.687L179.945 68.2799C182.612 65.6128 184.213 61.8785 184.213 57.6111C184.213 49.6093 177.278 42.6748 169.277 42.6748C165.009 42.6748 161.275 44.2752 158.608 46.9422L120.201 85.3502Z" fill="#D5E3EF"/>
  <path d="M258.895 106.687C270.679 106.687 280.232 97.1341 280.232 85.3499C280.232 73.5657 270.679 64.0127 258.895 64.0127C247.111 64.0127 237.558 73.5657 237.558 85.3499C237.558 97.1341 247.111 106.687 258.895 106.687Z" fill="#25A9E0"/>
  <path d="M258.895 112.021C243.959 112.021 232.223 100.286 232.223 85.3496C232.223 70.4133 243.959 58.6777 258.895 58.6777C273.831 58.6777 285.567 70.4133 285.567 85.3496C285.567 100.286 273.831 112.021 258.895 112.021ZM258.895 69.3466C249.827 69.3466 242.892 76.2811 242.892 85.3496C242.892 94.4181 249.827 101.353 258.895 101.353C267.964 101.353 274.898 94.4181 274.898 85.3496C274.898 76.2811 267.964 69.3466 258.895 69.3466Z" fill="#F39892"/>
  <path d="M250.361 99.2198C248.76 96.5527 248.227 93.8856 248.227 90.6849C248.227 81.6164 255.161 74.6818 264.23 74.6818C267.43 74.6818 270.097 75.7486 272.765 76.8158C269.564 72.5484 264.763 69.3477 258.895 69.3477C249.827 69.3477 242.892 76.2822 242.892 85.3507C242.892 91.218 246.093 96.0191 250.361 99.2198Z" fill="#0E85AA"/>
  <path d="M242.892 165.366L225.289 182.969C223.155 185.103 219.955 185.103 217.821 182.969L161.276 126.425C159.142 124.291 159.142 121.091 161.276 118.957L178.88 101.354L242.892 165.366Z" fill="#F39892"/>
  <path d="M203.418 152.563L169.811 118.957C167.677 116.823 163.943 116.823 161.276 118.957C159.142 121.091 159.142 124.291 161.276 126.425L217.82 182.969C219.954 185.103 223.155 185.103 225.289 182.969L242.892 165.366L224.222 146.696L218.354 152.563C214.086 156.831 207.685 156.831 203.418 152.563Z" fill="#D77670"/>
  <path d="M259.24 224.232L275.082 208.391L253.582 186.891L237.74 202.733L259.24 224.232Z" fill="#F39892"/>
  <path d="M269.563 202.706L262.095 210.174C258.895 213.374 254.627 213.374 251.426 210.174L240.758 199.505L237.557 202.706L258.894 224.043L274.897 208.04L269.563 202.706Z" fill="#D77670"/>
  <path d="M200.217 98.6866C199.683 98.6866 198.617 98.6867 198.083 98.153C197.016 97.0863 197.016 95.486 198.083 94.4192L224.755 67.7473C225.822 66.6806 227.422 66.6806 228.489 67.7473C229.556 68.8141 229.556 70.4144 228.489 71.4812L201.817 98.153C201.817 98.6867 200.75 98.6866 200.217 98.6866Z" fill="#ECF0F9"/>
  <path d="M237.558 61.3452C237.024 61.3452 235.957 61.3452 235.424 60.8116C234.357 59.7449 234.357 58.1445 235.424 57.0778L246.093 46.4089C247.159 45.3422 248.76 45.3422 249.826 46.4089C250.893 47.4757 250.893 49.076 249.826 50.1428L239.158 60.8116C239.158 61.3452 238.091 61.3452 237.558 61.3452Z" fill="#ECF0F9"/>
  <path opacity="0.5" d="M296.235 21.8715C295.168 21.8715 294.101 21.3379 293.568 20.2711C293.034 18.6708 293.568 17.604 295.168 17.0704C305.837 12.803 316.505 10.1359 327.708 8.00195C329.308 8.00195 330.375 8.53556 330.909 10.1359C330.909 11.7363 330.375 12.803 328.775 13.3366C318.106 14.937 307.437 18.1377 297.302 21.8715C296.769 21.8715 296.769 21.8715 296.235 21.8715Z" fill="white"/>
  <path opacity="0.5" d="M258.895 59.2123V58.6787C243.959 58.6787 232.223 70.4143 232.223 85.3506H232.757C235.424 85.3506 237.558 83.7502 238.091 81.0831C238.624 77.3493 240.758 74.1486 242.892 71.4815C246.093 68.2808 249.826 65.6137 254.627 64.547C257.295 64.0134 258.895 61.8794 258.895 59.2123Z" fill="white"/>
  <path d="M258.895 111.488V112.021C273.831 112.021 285.567 100.286 285.567 85.3496H285.033C282.366 85.3496 280.232 86.95 279.699 89.6171C279.165 93.3509 277.032 96.5516 274.898 99.2187C271.697 102.419 267.963 105.086 263.162 106.153C260.495 106.687 258.895 108.821 258.895 111.488Z" fill="#D77670"/>
  <path d="M269.564 184.036C269.03 184.036 267.963 184.036 267.43 183.503C266.363 182.436 266.363 180.835 267.43 179.769L278.099 169.1C279.165 168.033 280.766 168.033 281.833 169.1C282.899 170.167 282.899 171.767 281.833 172.834L271.164 183.503C271.164 184.036 270.097 184.036 269.564 184.036Z" fill="#ECF0F9"/>
  <path d="M179.946 57.611L141.539 96.0185L125.535 80.0154L120.201 85.3496L141.539 106.687L179.946 68.2794C182.613 65.6123 184.213 61.878 184.213 57.6106C184.213 55.4766 183.68 53.8767 183.147 52.2764C182.613 54.4103 181.546 56.0107 179.946 57.611Z" fill="#B0C4D9"/>
  <path d="M152.208 66.6797C151.674 66.6797 150.608 66.6797 150.074 66.1461C149.007 65.0794 149.007 63.479 150.074 62.4123L160.743 51.7434C161.81 50.6767 163.41 50.6767 164.477 51.7434C165.544 52.8102 165.544 54.4105 164.477 55.4773L153.808 66.1461C153.808 66.6797 152.741 66.6797 152.208 66.6797Z" fill="#ECF0F9"/>
  <path d="M141.87 106.877L157.712 91.0352L136.212 69.5353L120.37 85.3771L141.87 106.877Z" fill="#F39892"/>
  <path d="M152.209 85.3511L144.741 92.8192C141.54 96.0199 137.272 96.0199 134.072 92.8192L123.403 82.1504L120.202 85.3511L141.539 106.688L157.542 90.6853L152.209 85.3511Z" fill="#D77670"/>
</svg>
