<svg width="30" height="30" viewBox="0 0 30 30" fill="none" xmlns="http://www.w3.org/2000/svg">
<circle cx="15" cy="15" r="15" fill="white"/>
<path fill-rule="evenodd" clip-rule="evenodd" d="M20.284 9.27053C18.8223 7.80707 16.8783 7.00087 14.8072 7C10.5397 7 7.06666 10.4729 7.06493 14.7416C7.06441 16.1061 7.42081 17.438 8.09838 18.6122L7 22.6241L11.1043 21.5475C12.2351 22.1643 13.5083 22.4894 14.8041 22.4898H14.8072C14.807 22.4898 14.8074 22.4898 14.8072 22.4898C19.0742 22.4898 22.5476 19.0165 22.5493 14.7477C22.5502 12.679 21.7457 10.734 20.284 9.27053ZM11.6631 15.0233C11.5664 14.8942 10.8732 13.9744 10.8732 13.0222C10.8732 12.07 11.373 11.602 11.5503 11.4084C11.7275 11.2149 11.9372 11.1664 12.0662 11.1664C12.1952 11.1664 12.3244 11.1677 12.437 11.1732C12.5558 11.1793 12.7153 11.1281 12.8722 11.5053C13.0335 11.8926 13.4203 12.845 13.4687 12.9417C13.5172 13.0386 13.5493 13.1514 13.4849 13.2806C13.4205 13.4095 13.3882 13.4903 13.2915 13.6033C13.1948 13.7163 13.0884 13.8555 13.0012 13.9421C12.9044 14.0387 12.8035 14.1434 12.9163 14.3369C13.0292 14.5307 13.4174 15.1641 13.9925 15.6771C14.7313 16.3363 15.3547 16.5404 15.5481 16.6373C15.7415 16.7342 15.8544 16.718 15.9672 16.5889C16.0801 16.4597 16.4509 16.024 16.5798 15.8304C16.7088 15.6368 16.8378 15.6691 17.0151 15.7335C17.1925 15.7981 18.1435 16.2662 18.3369 16.3628C18.5303 16.4597 18.6592 16.5082 18.7077 16.5889C18.7561 16.6696 18.7561 17.0569 18.5948 17.5088C18.4336 17.9607 17.6607 18.3732 17.289 18.4285C16.9557 18.4784 16.534 18.4992 16.0705 18.3518C15.7896 18.2627 15.4292 18.1437 14.9676 17.9444C13.0273 17.1064 11.76 15.1525 11.6631 15.0233Z" fill="#2F333A"/>
</svg>
